<svg xmlns="http://www.w3.org/2000/svg" width="51" height="51" fill="none" viewBox="0 0 51 51">
    <path fill="#25C993" fill-rule="evenodd" d="M26.346 18.22a.749.749 0 0 0-1.06 1.058l4.826 4.829a.378.378 0 0 1-.264.644H18.762a.755.755 0 0 0-.762.743v.003c0 .413.349.752.762.752h11.086c.333 0 .5.397.264.633l-4.85 4.843a.746.746 0 0 0 0 1.057.75.75 0 0 0 1.06-.002l6.24-6.233a1.497 1.497 0 0 0 0-2.118c-.137-.134-6.352-6.345-6.216-6.21z" clip-rule="evenodd" filter="url(#a)" opacity=".6"/>
    <path fill="#25C993" fill-rule="evenodd" d="M26.346 18.22a.749.749 0 0 0-1.06 1.058l4.826 4.829a.378.378 0 0 1-.264.644H18.762a.755.755 0 0 0-.762.743v.003c0 .413.349.752.762.752h11.086c.333 0 .5.397.264.633l-4.85 4.843a.746.746 0 0 0 0 1.057.75.75 0 0 0 1.06-.002l6.24-6.233a1.497 1.497 0 0 0 0-2.118c-.137-.134-6.352-6.345-6.216-6.21z" clip-rule="evenodd"/>
    <defs>
        <filter id="a" width="51" height="51" x="0" y="0" color-interpolation-filters="sRGB" filterUnits="userSpaceOnUse">
            <feFlood flood-opacity="0" result="BackgroundImageFix"/>
            <feBlend in="SourceGraphic" in2="BackgroundImageFix" result="shape"/>
            <feGaussianBlur result="effect1_foregroundBlur" stdDeviation="9"/>
        </filter>
    </defs>
</svg>
