<svg width="77" height="149" xmlns="http://www.w3.org/2000/svg"><defs><linearGradient x1="0%" y1="49.992%" x2="100.036%" y2="49.992%" id="a"><stop stop-color="#6E718F" offset="0%"/><stop stop-color="#6E718F" offset="99.44%"/></linearGradient><linearGradient x1=".799%" y1="49.49%" x2="101.157%" y2="49.49%" id="b"><stop stop-color="#6E718F" offset="0%"/><stop stop-color="#6E718F" offset="99.44%"/></linearGradient><linearGradient x1="47.255%" y1="33.907%" x2="72.425%" y2="81.222%" id="c"><stop stop-color="#27283A" offset="0%"/><stop stop-color="#27283A" stop-opacity="0" offset="100%"/></linearGradient></defs><g fill="none" fill-rule="evenodd" opacity=".148"><path d="M52.875 20c-5 0-9.066 4.075-9.066 9.089a9.096 9.096 0 0 0 5.177 8.209L1.55 146.127v.03c-.088-.03-.146-.03-.234-.03-.731 0-1.316.586-1.316 1.32 0 .732.585 1.318 1.316 1.318.731 0 1.316-.586 1.316-1.319 0-.44-.205-.82-.526-1.055L49.512 37.56a9.156 9.156 0 0 0 3.363.646c5.001 0 9.067-4.076 9.067-9.089 0-5.013-4.036-9.118-9.067-9.118zm0 17.62c-4.679 0-8.48-3.811-8.48-8.502 0-4.691 3.801-8.502 8.48-8.502 4.68 0 8.482 3.811 8.482 8.502 0 4.69-3.802 8.502-8.482 8.502z" fill="url(#a)" fill-rule="nonzero"/><path d="M52.875 27.799c-.73 0-1.316.586-1.316 1.319 0 .44.205.82.527 1.055l-.03.03.527.234.03-.029c.087 0 .145.03.233.03.731 0 1.316-.587 1.316-1.32a1.27 1.27 0 0 0-1.287-1.32z" fill="url(#b)" fill-rule="nonzero"/><path fill="url(#c)" d="M30.301.49L73.421 3l4.062 70.859-53.676-12.782z"/></g></svg>