<svg xmlns="http://www.w3.org/2000/svg" viewBox="0 0 29.8 53" width="52" height="75"><linearGradient id="a" gradientUnits="userSpaceOnUse" y1="26.5" x2="29.813" y2="26.5"><stop offset="0" stop-color="#3bf4d6"/><stop offset="1" stop-color="#29b7f0"/></linearGradient><path d="M14.9 0C6.7 0 0 6.7 0 14.9c0 4 1.3 7.3 2.6 10.5 1.2 3.1 2.4 6 2.4 9.3 0 1.8.9 3.3 2.3 4.2-.4.7-.7 1.5-.7 2.4 0 1.8.9 3.3 2.3 4.2-.4.7-.7 1.5-.7 2.4 0 2.7 2.2 5 5 5h3.3c2.7 0 5-2.2 5-5 0-.9-.3-1.7-.7-2.4 1.4-.9 2.3-2.4 2.3-4.2 0-.9-.3-1.7-.7-2.4 1.4-.9 2.3-2.4 2.3-4.2 0-3.3 1.1-6.2 2.4-9.3 1.3-3.2 2.6-6.6 2.6-10.5C29.8 6.7 23.1 0 14.9 0zm1.7 49.7h-3.3c-.9 0-1.7-.7-1.7-1.7s.7-1.7 1.7-1.7h3.3c.9 0 1.7.7 1.7 1.7s-.8 1.7-1.7 1.7zm1.6-6.6h-6.6c-.9 0-1.7-.7-1.7-1.7s.7-1.7 1.7-1.7h6.6c.9 0 1.7.7 1.7 1.7s-.8 1.7-1.7 1.7zm-8-25.3c1.3 1.1 3 2 4.7 2 1.7 0 3.4-.9 4.7-2.1-.4 3.6-1.3 5.8-2.2 8.2-1.1 2.7-2.2 5.6-2.4 10.5h-.1c-.2-5.8-1.4-8.7-2.6-11.4-.9-2-1.7-3.9-2.1-7.2zm13.9 6.4c-1.3 3.2-2.6 6.6-2.6 10.5 0 .9-.7 1.7-1.7 1.7h-1.6c.2-4.2 1.2-6.7 2.2-9.2 1.3-3.2 2.7-6.8 2.7-14V13c0-.1 0-.2-.1-.3 0-.1-.1-.2-.1-.3 0-.1-.1-.2-.2-.3l-.2-.2-.1-.1s-.1 0-.1-.1c-.1-.1-.2-.1-.3-.1-.1 0-.2-.1-.3-.1h-.3c-.1 0-.2 0-.3.1-.1 0-.2.1-.3.1-.1 0-.2.1-.3.2-.1.1-.2.1-.2.2l-.1.1c-.9 1.4-3.4 4.2-5.2 4.2-1.8 0-4.3-2.9-5.2-4.2l-.1-.1-.2-.2c-.1-.1-.2-.1-.3-.2-.1 0-.2-.1-.3-.1-.1 0-.2-.1-.3-.1h-.3c-.1 0-.2 0-.3.1-.1 0-.2.1-.3.1 0 0-.1 0-.1.1l-.1.1-.2.2c-.1.1-.1.2-.2.2-.1.1-.1.2-.1.3 0 .1-.1.2-.1.3v.2c0 7 1.3 10.1 2.6 13.1 1.1 2.6 2.1 5 2.3 10.1H9.9c-.9 0-1.7-.7-1.7-1.7 0-4-1.3-7.3-2.6-10.5-1.2-3.1-2.4-6-2.4-9.3 0-6.4 5.2-11.6 11.6-11.6s11.6 5.2 11.6 11.6c.1 3.5-1 6.4-2.3 9.4z" fill="url(#a)"/></svg>