<svg xmlns="http://www.w3.org/2000/svg" xmlns:xlink="http://www.w3.org/1999/xlink" height="50" width="50" data-name="Слой 1"><defs><linearGradient id="a"><stop offset="0" stop-color="#3cfadb"/><stop offset="1" stop-color="#29b7f0"/></linearGradient><linearGradient gradientTransform="matrix(.74905 0 0 .74906 .008 0)" y2="1.657" x2="65.607" y1="66.603" x1=".744" gradientUnits="userSpaceOnUse" id="b" xlink:href="#a"/></defs><path d="M25.004 0a4.397 4.397 0 0 0-4.397 4.404 4.397 4.397 0 0 0 2.944 4.15 1.738 1.738 0 0 0-.045.352v4.114a1.498 1.498 0 0 0 1.498 1.498 1.498 1.498 0 0 0 1.498-1.498V8.906a1.333 1.333 0 0 0-.045-.351A4.397 4.397 0 0 0 25.004 0zM11.48 8.383a3.183 3.184 0 0 0 .094 6.367 3.071 3.071 0 0 0 .912-.15l2.383 2.375a1.498 1.498 0 0 0 2.113-2.114l-2.375-2.382a3.071 3.071 0 0 0 .15-.913 3.183 3.184 0 0 0-3.277-3.183zm27.094.002a3.183 3.184 0 0 0-3.316 3.181 3.071 3.071 0 0 0 .15.913l-2.383 2.382a1.498 1.498 0 0 0 0 2.114 1.498 1.498 0 0 0 1.065.441 1.498 1.498 0 0 0 1.056-.441l2.381-2.375a3.071 3.071 0 0 0 .914.15 3.183 3.184 0 0 0 .133-6.365zm-13.57 9.45a7.161 7.161 0 0 0 0 14.323 7.161 7.161 0 0 0 0-14.322zm-20.447 2.76a4.404 4.404 0 1 0 4.005 5.855 1.318 1.318 0 0 0 .344.045h4.121a1.498 1.498 0 1 0 0-2.996h-4.12a1.738 1.738 0 0 0-.345.045 4.404 4.404 0 0 0-4.005-2.95zm41.047.006a4.397 4.397 0 0 0-4.15 2.943 1.813 1.813 0 0 0-.352-.045h-4.114a1.498 1.498 0 0 0 0 2.996h4.114a1.378 1.378 0 0 0 .351-.045 4.397 4.397 0 1 0 4.15-5.85zm-20.6.232a4.165 4.165 0 1 1 0 8.328 4.165 4.165 0 1 1 0-8.328zm9.06 11.748a1.499 1.499 0 0 0-1.039 2.559l2.383 2.382a3.071 3.071 0 0 0-.15.913 3.183 3.184 0 1 0 3.183-3.184 3.071 3.071 0 0 0-.914.15l-2.38-2.38a1.499 1.499 0 0 0-1.083-.44zm-18.177.053a1.498 1.498 0 0 0-1.018.387l-2.383 2.38a3.071 3.071 0 0 0-.912-.15 3.183 3.184 0 1 0 3.184 3.184 3.071 3.071 0 0 0-.15-.913l2.374-2.382a1.498 1.498 0 0 0-1.095-2.506zm9.117 2.85a1.498 1.498 0 0 0-1.498 1.497v4.114a1.813 1.813 0 0 0 .045.351A4.404 4.404 0 0 0 25.004 50a4.404 4.404 0 0 0 4.404-4.404 4.404 4.404 0 0 0-2.951-4.15 1.378 1.378 0 0 0 .045-.352V36.98a1.498 1.498 0 0 0-1.498-1.498z" fill="url(#b)" stroke-width="1.335"/></svg>