<?xml version="1.0" encoding="UTF-8" standalone="no"?>
<svg
   xmlns:dc="http://purl.org/dc/elements/1.1/"
   xmlns:cc="http://creativecommons.org/ns#"
   xmlns:rdf="http://www.w3.org/1999/02/22-rdf-syntax-ns#"
   xmlns:svg="http://www.w3.org/2000/svg"
   xmlns="http://www.w3.org/2000/svg"
   height="50"
   width="50"
   xml:space="preserve"
   viewBox="0 0 50 49.999998"
   y="0px"
   x="0px"
   id="Слой_1"
   version="1.1"><metadata
   id="metadata31"><rdf:RDF><cc:Work
       rdf:about=""><dc:format>image/svg+xml</dc:format><dc:type
         rdf:resource="http://purl.org/dc/dcmitype/StillImage" /><dc:title></dc:title></cc:Work></rdf:RDF></metadata><defs
   id="defs29" />
<style
   id="style2"
   type="text/css">
	.st0{fill:url(#SVGID_1_);}
	.st1{fill:url(#SVGID_2_);}
	.st2{fill:url(#SVGID_3_);}
	.st3{fill:url(#SVGID_4_);}
	.st4{fill:url(#SVGID_5_);}
	.st5{fill:url(#SVGID_6_);}
</style>
<g
   transform="matrix(0.24941388,0,0,0.24941388,-2.618e-7,5.3898337)"
   id="g24">
	<g
   id="g15">
		<g
   id="g13">
			<g
   id="g11">
				<linearGradient
   y2="104.58"
   x2="200.46519"
   y1="104.58"
   x1="0"
   gradientUnits="userSpaceOnUse"
   id="SVGID_1_">
					<stop
   id="stop4"
   style="stop-color:#3BF4D6"
   offset="0" />
					<stop
   id="stop6"
   style="stop-color:#29B7F0"
   offset="1" />
				</linearGradient>
				<path
   style="fill:url(#SVGID_1_)"
   id="path9"
   d="m 0,51.92 v 93.44 c 0,6.57 5.33,11.89 11.89,11.89 h 176.68 c 6.57,0 11.89,-5.33 11.89,-11.89 V 51.92 Z m 30.38,88.34 H 17.72 v -24.62 h 12.66 z m 25.41,0 H 43.13 V 88.81 h 12.66 z m 25.36,0 H 68.49 v -69.5 h 12.66 z m 25.41,0 H 93.9 V 91.79 h 12.66 z m 25.41,0 h -12.66 v -30.67 h 12.66 z m 25.41,0 h -12.66 v -58.9 h 12.66 z m 25.41,0 h -12.66 v -44 h 12.66 z"
   class="st0" />
			</g>
		</g>
	</g>
	<linearGradient
   y2="-39.739201"
   x2="182.64619"
   y1="131.6544"
   x1="-38.022999"
   gradientUnits="userSpaceOnUse"
   id="SVGID_2_">
		<stop
   id="stop17"
   style="stop-color:#3BF4D6"
   offset="0" />
		<stop
   id="stop19"
   style="stop-color:#29B7F0"
   offset="1" />
	</linearGradient>
	<path
   style="fill:url(#SVGID_2_)"
   id="path22"
   d="M 188.57,0 H 11.89 C 5.33,0 0,5.33 0,11.89 V 42.47 H 200.47 V 11.89 C 200.47,5.33 195.14,0 188.57,0 Z M 23.78,30.58 c -3.75,0 -6.8,-3.04 -6.8,-6.8 0,-3.75 3.04,-6.8 6.8,-6.8 3.75,0 6.8,3.04 6.8,6.8 0,3.76 -3.04,6.8 -6.8,6.8 z m 23.79,0 c -3.75,0 -6.8,-3.04 -6.8,-6.8 0,-3.75 3.04,-6.8 6.8,-6.8 3.75,0 6.8,3.04 6.8,6.8 -0.01,3.76 -3.05,6.8 -6.8,6.8 z m 23.78,0 c -3.75,0 -6.8,-3.04 -6.8,-6.8 0,-3.75 3.04,-6.8 6.8,-6.8 3.75,0 6.8,3.04 6.8,6.8 0,3.76 -3.04,6.8 -6.8,6.8 z"
   class="st1" />
</g>
</svg>