<?xml version="1.0" encoding="UTF-8" standalone="no"?>
<svg
   xmlns:dc="http://purl.org/dc/elements/1.1/"
   xmlns:cc="http://creativecommons.org/ns#"
   xmlns:rdf="http://www.w3.org/1999/02/22-rdf-syntax-ns#"
   xmlns:svg="http://www.w3.org/2000/svg"
   xmlns="http://www.w3.org/2000/svg"
   height="50"
   width="50"
   xml:space="preserve"
   viewBox="0 0 50 50"
   y="0px"
   x="0px"
   id="Слой_1"
   version="1.1"><metadata
   id="metadata39"><rdf:RDF><cc:Work
       rdf:about=""><dc:format>image/svg+xml</dc:format><dc:type
         rdf:resource="http://purl.org/dc/dcmitype/StillImage" /><dc:title></dc:title></cc:Work></rdf:RDF></metadata><defs
   id="defs37" />
<style
   id="style2"
   type="text/css">
	.st0{fill:url(#SVGID_1_);}
	.st1{fill:url(#SVGID_2_);}
	.st2{fill:url(#SVGID_3_);}
	.st3{fill:url(#SVGID_4_);}
	.st4{fill:url(#SVGID_5_);}
	.st5{fill:url(#SVGID_6_);}
</style>
<g
   transform="matrix(0.2879197,0,0,0.2879197,8.0563011e-4,-0.01668285)"
   id="g32">
	<linearGradient
   y2="47.214401"
   x2="163.2142"
   y1="164.7274"
   x1="11.0768"
   gradientUnits="userSpaceOnUse"
   id="SVGID_1_">
		<stop
   id="stop4"
   style="stop-color:#3BF4D6"
   offset="0" />
		<stop
   id="stop6"
   style="stop-color:#29B7F0"
   offset="1" />
	</linearGradient>
	<path
   style="fill:url(#SVGID_1_)"
   id="path9"
   d="m 162.58,160.78 c 0,-3.41 -2.76,-6.17 -6.17,-6.17 h -14.44 l 6.29,-6.29 c 20.01,-20.01 28.19,-47.42 24.56,-73.49 -0.01,-0.23 -0.03,-0.45 -0.06,-0.68 -2.65,-17.85 -10.6,-34.05 -22.75,-46.88 -0.14,-0.15 -0.29,-0.3 -0.43,-0.45 -3.36,-3.5 -7.02,-6.75 -11,-9.7 C 119.94,3.29 97.03,-2.45 74.08,0.96 c -3.37,0.5 -5.7,3.64 -5.2,7.01 0.2,1.36 0.83,2.55 1.74,3.45 1.33,1.33 3.26,2.04 5.27,1.74 19.69,-2.92 39.35,2 55.34,13.86 2.92,2.17 5.65,4.52 8.19,7.04 0.04,0.04 0.07,0.09 0.11,0.13 29.06,29.06 29.06,76.35 0,105.41 l -6.29,6.29 v -14.44 c 0,-3.41 -2.76,-6.17 -6.17,-6.17 -3.41,0 -6.17,2.76 -6.17,6.17 v 29.33 c 0,0.04 0.01,0.09 0.01,0.13 0,0.16 0.01,0.31 0.02,0.47 0.01,0.06 0.02,0.12 0.03,0.19 0.02,0.14 0.03,0.28 0.06,0.41 0.01,0.05 0.02,0.1 0.04,0.15 0.03,0.15 0.07,0.3 0.11,0.44 0.01,0.03 0.02,0.06 0.03,0.09 0.05,0.16 0.11,0.32 0.17,0.48 0.01,0.02 0.02,0.04 0.03,0.05 0.07,0.17 0.15,0.33 0.23,0.49 0.01,0.02 0.02,0.04 0.03,0.06 0.09,0.16 0.18,0.31 0.28,0.46 0.03,0.04 0.06,0.08 0.09,0.12 0.09,0.12 0.18,0.25 0.27,0.37 0.13,0.16 0.27,0.31 0.41,0.46 0.14,0.15 0.3,0.28 0.46,0.41 0.12,0.1 0.24,0.19 0.37,0.27 0.04,0.03 0.08,0.06 0.12,0.09 0.15,0.1 0.3,0.19 0.46,0.28 0.02,0.01 0.04,0.02 0.06,0.03 0.16,0.09 0.32,0.16 0.49,0.23 0.02,0.01 0.04,0.02 0.05,0.03 0.16,0.07 0.32,0.12 0.48,0.17 0.03,0.01 0.06,0.02 0.09,0.03 0.15,0.04 0.3,0.08 0.45,0.11 0.05,0.01 0.09,0.02 0.14,0.03 0.14,0.03 0.28,0.05 0.42,0.06 0.06,0.01 0.12,0.02 0.18,0.03 0.17,0.02 0.34,0.02 0.51,0.03 0.03,0 0.06,0 0.09,0 h 29.33 c 3.4,-0.01 6.17,-2.77 6.17,-6.17 z"
   class="st0" />
	<linearGradient
   y2="23.1092"
   x2="144.595"
   y1="140.62219"
   x1="-7.5423999"
   gradientUnits="userSpaceOnUse"
   id="SVGID_2_">
		<stop
   id="stop11"
   style="stop-color:#3BF4D6"
   offset="0" />
		<stop
   id="stop13"
   style="stop-color:#29B7F0"
   offset="1" />
	</linearGradient>
	<path
   style="fill:url(#SVGID_2_)"
   id="path16"
   d="m 104.77,165.81 c -0.5,-3.37 -3.64,-5.7 -7.01,-5.2 -19.69,2.92 -39.35,-2 -55.34,-13.86 -2.92,-2.17 -5.65,-4.52 -8.19,-7.04 -0.04,-0.04 -0.07,-0.09 -0.11,-0.13 C 5.06,110.52 5.06,63.23 34.12,34.17 l 4.83,-4.83 V 43.8 c 0,1.7 0.69,3.25 1.81,4.36 1.12,1.12 2.66,1.81 4.36,1.81 3.41,0 6.17,-2.76 6.17,-6.17 V 14.46 c 0,-0.03 0,-0.06 0,-0.08 0,-0.18 -0.01,-0.35 -0.03,-0.52 -0.01,-0.1 -0.03,-0.19 -0.04,-0.29 -0.02,-0.1 -0.03,-0.21 -0.05,-0.31 -0.02,-0.11 -0.05,-0.21 -0.08,-0.32 -0.02,-0.09 -0.04,-0.18 -0.07,-0.27 -0.03,-0.1 -0.07,-0.2 -0.1,-0.3 -0.03,-0.09 -0.06,-0.18 -0.1,-0.27 -0.04,-0.09 -0.08,-0.18 -0.13,-0.27 -0.04,-0.09 -0.09,-0.19 -0.13,-0.28 -0.05,-0.09 -0.1,-0.17 -0.15,-0.25 -0.05,-0.09 -0.1,-0.18 -0.16,-0.27 -0.06,-0.09 -0.13,-0.18 -0.2,-0.27 C 50,10.69 49.94,10.61 49.89,10.54 49.63,10.23 49.34,9.94 49.03,9.68 48.96,9.62 48.88,9.57 48.81,9.52 48.72,9.45 48.64,9.39 48.54,9.32 48.45,9.26 48.36,9.21 48.27,9.16 48.19,9.11 48.11,9.06 48.02,9.01 47.93,8.96 47.84,8.92 47.74,8.88 47.65,8.84 47.56,8.79 47.47,8.75 47.38,8.71 47.29,8.68 47.2,8.65 47.1,8.61 47,8.58 46.9,8.55 46.81,8.52 46.72,8.5 46.63,8.48 46.52,8.45 46.42,8.42 46.31,8.4 46.21,8.38 46.1,8.37 46,8.35 45.9,8.34 45.81,8.32 45.71,8.31 45.54,8.29 45.36,8.29 45.19,8.28 c -0.03,0 -0.06,0 -0.08,0 H 15.79 c -3.41,0 -6.17,2.76 -6.17,6.17 0,3.41 2.76,6.17 6.17,6.17 H 30.23 L 25.4,25.45 C 5.39,45.47 -2.79,72.88 0.83,98.95 c 0.01,0.23 0.03,0.45 0.06,0.68 2.76,18.63 11.28,35.48 24.36,48.56 3.03,3.03 6.31,5.86 9.82,8.47 18.64,13.82 41.54,19.56 64.5,16.16 3.37,-0.5 5.7,-3.64 5.2,-7.01 z"
   class="st1" />
	<linearGradient
   y2="21.0982"
   x2="143.0417"
   y1="138.6113"
   x1="-9.0957003"
   gradientUnits="userSpaceOnUse"
   id="SVGID_3_">
		<stop
   id="stop18"
   style="stop-color:#3BF4D6"
   offset="0" />
		<stop
   id="stop20"
   style="stop-color:#29B7F0"
   offset="1" />
	</linearGradient>
	<path
   style="fill:url(#SVGID_3_)"
   id="path23"
   d="m 117.15,68.07 c 1.56,-1.19 1.85,-3.42 0.66,-4.98 -6.46,-8.42 -16.17,-13.82 -26.61,-15.01 -0.01,0 -0.03,-0.01 -0.04,-0.01 -0.02,0 -0.04,0 -0.06,0 -1.56,-0.17 -3.14,-0.26 -4.73,-0.24 -0.01,0 -0.01,0 -0.02,0 0,0 -0.01,0 -0.01,0 -0.01,0 -0.01,0 -0.02,0 -0.78,0 -1.56,0.04 -2.3,0.1 -0.03,0 -0.06,0.01 -0.1,0.01 -0.38,0.02 -0.75,0.06 -1.13,0.1 -0.39,0.04 -0.78,0.08 -1.16,0.14 -0.48,0.06 -0.95,0.13 -1.45,0.22 -0.05,0.01 -0.09,0.01 -0.14,0.02 -0.01,0 -0.01,0 -0.02,0 0,0 0,0 0,0 -0.02,0 -0.05,0.01 -0.07,0.01 -0.44,0.08 -0.87,0.16 -1.26,0.25 l -0.19,0.04 c 0,0 0,0 -0.01,0 h -0.02 c -0.41,0.09 -0.82,0.19 -1.22,0.29 -0.02,0.01 -0.06,0.01 -0.09,0.02 0,0 0,0 0,0 -0.02,0 -0.08,0.02 -0.1,0.03 L 77,49.08 c -0.41,0.1 -0.82,0.22 -1.22,0.33 -0.05,0.01 -0.1,0.03 -0.15,0.05 l -0.65,0.2 c -0.27,0.09 -0.54,0.17 -0.88,0.29 L 73.99,50 c -0.33,0.11 -0.66,0.23 -1.04,0.38 -0.13,0.05 -0.26,0.09 -0.4,0.15 -0.41,0.16 -0.82,0.33 -1.24,0.51 -0.37,0.16 -0.73,0.33 -1.07,0.49 -0.11,0.05 -0.22,0.1 -0.33,0.16 l -0.23,0.11 c -0.34,0.16 -0.68,0.34 -1.02,0.52 -0.05,0.03 -0.1,0.05 -0.15,0.08 l -0.03,0.02 c -0.39,0.21 -0.78,0.42 -1.24,0.69 0,0 0,0 0,0 0,0 0,0 0,0 -9.16,5.33 -15.84,14.25 -18.32,24.49 -0.46,1.9 0.71,3.82 2.61,4.29 1.9,0.46 3.82,-0.71 4.29,-2.61 2.04,-8.37 7.5,-15.67 15.04,-20.05 0.33,-0.19 0.67,-0.38 1.01,-0.56 0.04,-0.02 0.08,-0.05 0.12,-0.07 L 72,58.59 c 0.26,-0.13 0.51,-0.27 0.71,-0.36 l 0.5,-0.24 c 0.32,-0.15 0.63,-0.29 0.92,-0.42 0.35,-0.15 0.69,-0.3 1.04,-0.43 0.04,-0.02 0.09,-0.04 0.13,-0.05 0.04,-0.01 0.15,-0.05 0.18,-0.07 0.27,-0.1 0.54,-0.21 0.82,-0.29 0.08,-0.03 0.16,-0.06 0.24,-0.09 0.2,-0.07 0.4,-0.13 0.6,-0.2 l 0.62,-0.19 c 0.34,-0.1 0.68,-0.19 1.03,-0.28 0.01,0 0.03,-0.01 0.04,-0.01 0.01,0 0.01,0 0.02,-0.01 0.03,-0.01 0.06,-0.02 0.08,-0.02 l 0.06,-0.02 c 0.09,-0.02 0.17,-0.04 0.26,-0.06 0.24,-0.06 0.48,-0.12 0.69,-0.16 0.01,0 0.02,0 0.03,-0.01 l 0.2,-0.04 c 0.34,-0.08 0.68,-0.14 1.03,-0.2 0.04,-0.01 0.08,-0.01 0.12,-0.02 0.42,-0.07 0.85,-0.14 1.27,-0.19 0.62,-0.08 1.26,-0.15 1.89,-0.19 0.02,0 0.03,0 0.05,0 0.63,-0.04 1.26,-0.07 1.89,-0.08 0,0 0.01,0 0.01,0 0.67,-0.01 1.33,0.01 1.99,0.04 0.03,0 0.05,0 0.08,0.01 0.61,0.03 1.21,0.08 1.8,0.14 8.6,0.95 16.59,5.37 21.89,12.29 1.18,1.53 3.4,1.82 4.96,0.63 z"
   class="st2" />
	<linearGradient
   y2="49.124401"
   x2="164.6895"
   y1="166.63741"
   x1="12.5521"
   gradientUnits="userSpaceOnUse"
   id="SVGID_4_">
		<stop
   id="stop25"
   style="stop-color:#3BF4D6"
   offset="0" />
		<stop
   id="stop27"
   style="stop-color:#29B7F0"
   offset="1" />
	</linearGradient>
	<path
   style="fill:url(#SVGID_4_)"
   id="path30"
   d="m 91.09,118.57 c -0.62,0.08 -1.25,0.15 -1.88,0.19 -0.02,0 -0.04,0 -0.06,0 0,0 -0.01,0 -0.01,0 -0.63,0.04 -1.25,0.07 -1.88,0.08 -0.44,0 -0.87,0 -1.31,-0.01 -0.03,0 -0.06,0 -0.09,0 -0.49,-0.01 -0.98,-0.05 -1.47,-0.08 -0.22,-0.02 -0.43,-0.04 -0.65,-0.06 -8.82,-0.85 -16.84,-5.26 -22.25,-12.32 -1.1,-1.43 -3.07,-1.8 -4.6,-0.91 -0.13,0.08 -0.26,0.16 -0.38,0.25 -1.56,1.19 -1.85,3.42 -0.66,4.98 6.48,8.46 16.02,13.8 26.54,14.99 0.04,0.01 0.08,0.02 0.12,0.03 0.17,0.02 0.34,0.03 0.51,0.05 0.26,0.02 0.51,0.05 0.77,0.07 0.58,0.04 1.16,0.08 1.76,0.1 0.04,0 0.08,0.01 0.12,0.01 0.01,0 0.02,0 0.03,0 0,0 0.01,0 0.01,0 0.01,0 0.01,0 0.02,0 0.26,0.01 0.51,0.02 0.76,0.02 0.29,0.01 0.58,0.01 0.87,0 0.77,0 1.54,-0.04 2.28,-0.1 0.03,0 0.06,0 0.09,-0.01 0.38,-0.02 0.75,-0.06 1.14,-0.1 0.39,-0.04 0.78,-0.08 1.16,-0.14 0.48,-0.06 0.95,-0.13 1.45,-0.22 0.05,-0.01 0.09,-0.01 0.14,-0.02 0.01,0 0.01,0 0.02,0 0,0 0,0 0,0 0.02,0 0.04,-0.01 0.07,-0.01 0.44,-0.08 0.87,-0.16 1.26,-0.25 l 0.1,-0.02 c 0.01,0 0.09,-0.02 0.1,-0.02 0,0 0,0 0,0 0.01,0 0.02,0 0.02,0 0.41,-0.09 0.82,-0.19 1.22,-0.29 0.02,-0.01 0.05,-0.01 0.09,-0.02 0,0 0,0 0.01,0 0.02,0 0.08,-0.02 0.1,-0.03 l 0.06,-0.02 c 0.41,-0.1 0.82,-0.22 1.22,-0.33 0.05,-0.02 0.1,-0.03 0.15,-0.05 l 0.64,-0.2 c 0.27,-0.09 0.54,-0.17 0.88,-0.29 l 0.12,-0.05 c 0.33,-0.11 0.66,-0.23 1.04,-0.38 0.05,-0.02 0.1,-0.04 0.16,-0.06 0.08,-0.03 0.16,-0.06 0.24,-0.09 0.41,-0.16 0.82,-0.33 1.24,-0.51 0.37,-0.16 0.73,-0.33 1.07,-0.49 0.11,-0.05 0.22,-0.1 0.33,-0.16 l 0.23,-0.11 c 0.33,-0.16 0.67,-0.33 1.02,-0.51 0.05,-0.03 0.1,-0.05 0.15,-0.08 l 0.03,-0.02 c 0.39,-0.21 0.78,-0.42 1.24,-0.69 0,0 0,0 0,0 0,0 0,0 0,0 9.16,-5.33 15.84,-14.26 18.32,-24.5 0.46,-1.9 -0.71,-3.82 -2.61,-4.29 -0.93,-0.22 -1.85,-0.06 -2.62,0.38 -0.81,0.47 -1.43,1.25 -1.67,2.23 -2.03,8.37 -7.5,15.67 -15.03,20.06 -0.33,0.19 -0.67,0.38 -1.01,0.56 -0.04,0.02 -0.08,0.04 -0.12,0.07 l -0.01,0.01 c -0.26,0.13 -0.51,0.27 -0.71,0.36 l -0.5,0.24 c -0.32,0.15 -0.63,0.29 -0.92,0.42 -0.35,0.15 -0.69,0.3 -1.05,0.43 -0.04,0.02 -0.09,0.03 -0.13,0.05 -0.04,0.01 -0.14,0.05 -0.18,0.07 -0.27,0.1 -0.54,0.21 -0.82,0.3 -0.08,0.02 -0.16,0.06 -0.24,0.09 -0.2,0.07 -0.4,0.13 -0.6,0.2 l -0.61,0.19 c -0.34,0.1 -0.68,0.19 -1.03,0.28 -0.01,0 -0.03,0.01 -0.04,0.01 -0.01,0 -0.01,0 -0.02,0 -0.03,0.01 -0.07,0.02 -0.09,0.02 l -0.06,0.02 c -0.34,0.08 -0.68,0.17 -1.05,0.25 -0.02,0 -0.12,0.03 -0.14,0.03 -0.34,0.08 -0.68,0.14 -1.03,0.2 -0.04,0.01 -0.08,0.01 -0.12,0.02 v 0 c -0.41,0.06 -0.83,0.12 -1.25,0.18 z"
   class="st3" />
</g>
</svg>