<svg xmlns="http://www.w3.org/2000/svg" viewBox="0 0 43.4 43.4" height="52" width="52"><linearGradient id="a" gradientUnits="userSpaceOnUse" y1="21.711" x2="43.421" y2="21.711"><stop offset="0" stop-color="#3bf4d6"/><stop offset="1" stop-color="#29b7f0"/></linearGradient><path d="M38.3 30.1c6.9-6.9 6.9-18 0-24.9-6.9-6.9-18-6.9-24.9 0-5.9 5.8-6.8 14.4-2.7 21.2 0 0 .3.5-.1.9l-9 9c-1.8 1.8-2.2 4.3-.6 5.9l.3.3c1.6 1.6 4.1 1.2 5.9-.6l9-9c.4-.4.9-.1.9-.1 6.7 4 15.3 3.1 21.2-2.7zm-21.7-3.3c-5.1-5.1-5.1-13.3 0-18.4 5.1-5.1 13.3-5.1 18.4 0 5.1 5.1 5.1 13.3 0 18.4-5.1 5.1-13.3 5.1-18.4 0z" fill="url(#a)"/><linearGradient id="b" gradientUnits="userSpaceOnUse" x1="16.235" y1="17.701" x2="35.494" y2="17.701"><stop offset="0" stop-color="#3bf4d6"/><stop offset="1" stop-color="#29b7f0"/></linearGradient><path d="M25.9 11.5c-5.3 0-9.6 5.3-9.6 6.2 0 .8 4.3 6.2 9.6 6.2s9.6-5.3 9.6-6.2c0-.9-4.3-6.2-9.6-6.2zm0 10.6c-2.4 0-4.4-2-4.4-4.4s2-4.4 4.4-4.4 4.4 2 4.4 4.4-2 4.4-4.4 4.4z" fill="url(#b)"/><linearGradient id="c" gradientUnits="userSpaceOnUse" x1="23.627" y1="17.701" x2="28.102" y2="17.701"><stop offset="0" stop-color="#3bf4d6"/><stop offset="1" stop-color="#29b7f0"/></linearGradient><circle cx="25.9" cy="17.7" r="2.2" fill="url(#c)"/></svg>