<svg xmlns="http://www.w3.org/2000/svg" viewBox="0 0 40.9 40.9" width="52" height="52"><linearGradient id="a" gradientUnits="userSpaceOnUse" y1="33.525" x2="40.935" y2="33.525"><stop offset="0" stop-color="#3bf4d6"/><stop offset="1" stop-color="#29b7f0"/></linearGradient><path d="M0 26.1v2.8c0 .8.6 1.4 1.4 1.4h14.1l-.3 1.4-1.2 6.4h-3.4c-.5 0-1 .3-1.3.8-.5.9.2 2 1.3 2H30c1 0 1.7-1.1 1.3-2-.2-.5-.7-.8-1.3-.8h-3.4l-1.2-6.4-.3-1.4h14.1c.8 0 1.4-.6 1.4-1.4v-2.8H0zm22.6 2.8h-4.2v-1.4h4.2v1.4z" fill="url(#a)"/><linearGradient id="b" gradientUnits="userSpaceOnUse" x1="26.114" y1="9.881" x2="35.995" y2="9.881"><stop offset="0" stop-color="#3bf4d6"/><stop offset="1" stop-color="#29b7f0"/></linearGradient><path fill="url(#b)" d="M26.1 9.2H36v1.4h-9.9z"/><linearGradient id="c" gradientUnits="userSpaceOnUse" x1="26.114" y1="7.058" x2="30.349" y2="7.058"><stop offset="0" stop-color="#3bf4d6"/><stop offset="1" stop-color="#29b7f0"/></linearGradient><path fill="url(#c)" d="M26.1 6.4h4.2v1.4h-4.2z"/><linearGradient id="d" gradientUnits="userSpaceOnUse" x1="26.114" y1="12.704" x2="30.349" y2="12.704"><stop offset="0" stop-color="#3bf4d6"/><stop offset="1" stop-color="#29b7f0"/></linearGradient><path fill="url(#d)" d="M26.1 12h4.2v1.4h-4.2z"/><linearGradient id="e" gradientUnits="userSpaceOnUse" y1="12.351" x2="40.935" y2="12.351"><stop offset="0" stop-color="#3bf4d6"/><stop offset="1" stop-color="#29b7f0"/></linearGradient><path d="M39.5 0H1.4C.6 0 0 .6 0 1.4v23.3h40.9V1.4c0-.8-.6-1.4-1.4-1.4zM10.6 21.9c-4.3 0-7.8-3.5-7.8-7.8s3.5-7.8 7.8-7.8v7.8h7.8c0 4.3-3.5 7.8-7.8 7.8zm2.8-10.6V3.5c4.3 0 7.8 3.5 7.8 7.8h-7.8zm24.7 10.6H24V2.8h14.1v19.1z" fill="url(#e)"/><linearGradient id="f" gradientUnits="userSpaceOnUse" x1="26.114" y1="18.35" x2="30.349" y2="18.35"><stop offset="0" stop-color="#3bf4d6"/><stop offset="1" stop-color="#29b7f0"/></linearGradient><path fill="url(#f)" d="M26.1 17.6h4.2V19h-4.2z"/><linearGradient id="g" gradientUnits="userSpaceOnUse" x1="26.114" y1="15.527" x2="35.995" y2="15.527"><stop offset="0" stop-color="#3bf4d6"/><stop offset="1" stop-color="#29b7f0"/></linearGradient><path fill="url(#g)" d="M26.1 14.8H36v1.4h-9.9z"/></svg>