<svg xmlns="http://www.w3.org/2000/svg" xmlns:xlink="http://www.w3.org/1999/xlink" version="1" height="51" width="53"><defs><linearGradient id="a"><stop offset="0" stop-color="#3bf4d6"/><stop offset="1" stop-color="#29b7f0"/></linearGradient><linearGradient gradientUnits="userSpaceOnUse" y2="880.761" x2="309.501" y1="931.832" x1="257.037" id="b" xlink:href="#a"/></defs><path d="M294.774 882.366h9.109l-5.797 24.323c-.828 4.707-1.656 7.061-2.484 8.63 1.656 6.277 3.312 9.416 6.625 9.416 3.312 0 4.14-2.354 4.968-6.277h2.485c0 3.923-.828 7.061-2.485 9.415-1.656 2.354-3.312 3.923-5.796 3.923-1.657 0-3.313-.784-4.141-2.354-.828-1.569-1.656-4.707-3.313-9.415-4.14 7.846-9.937 10.985-18.218 10.985-5.797 0-10.766-2.354-14.078-6.277-3.313-4.708-4.97-10.2-4.97-18.831 0-7.846 1.657-14.123 5.798-18.83 4.14-4.708 8.28-6.278 13.25-6.278 4.14 0 6.625 1.57 9.11 3.923 2.483 2.354 4.14 6.277 6.624 12.554zm-4.97 20.4c-1.655-5.493-3.312-10.2-5.796-13.339-2.484-3.138-4.969-4.708-7.453-4.708-6.625 0-9.938 7.062-9.938 21.97 0 14.123 3.313 21.184 9.938 21.184 5.797 0 9.937-6.277 12.422-18.83z" stroke-width="2.654" fill="url(#b)" transform="translate(-256.68 -880.796)"/></svg>