<svg xmlns="http://www.w3.org/2000/svg" xmlns:xlink="http://www.w3.org/1999/xlink" version="1" viewBox="0 0 38 83" height="75" width="35"><defs><linearGradient id="a"><stop offset="0" stop-color="#3bf4d6"/><stop offset="1" stop-color="#29b7f0"/></linearGradient><linearGradient gradientUnits="userSpaceOnUse" y2="563.498" x2="540.833" y1="924.65" x1="371.29" id="b" xlink:href="#a"/></defs><path d="M402.723 925.915h-32.226c4.687-22.006 7.031-41.928 7.031-59.766V653.454c0-22.136 1.953-38.607 5.86-49.414 4.036-10.807 11.783-20.313 23.242-28.516 11.588-8.333 26.041-12.5 43.359-12.5 20.573 0 37.825 5.469 51.758 16.406 14.062 10.808 21.093 26.237 21.094 46.29 0 23.437-11.133 42.643-33.399 57.616 33.203 15.626 49.805 40.17 49.805 73.633 0 18.23-4.427 34.57-13.281 49.024-8.725 14.323-18.88 24.544-30.47 30.664-11.458 6.12-25.195 9.18-41.21 9.18-18.23 0-33.073-6.837-44.531-20.508v36.328c0 25-2.344 46.419-7.032 64.258m7.032-118.165c10.156 16.797 24.348 25.196 42.578 25.196 17.578 0 30.468-6.38 38.672-19.14 8.203-12.891 12.304-28.516 12.304-46.876 0-14.062-2.734-28.385-8.203-42.969-5.339-14.713-12.24-25.91-20.703-33.593-7.813 1.953-14.844 2.93-21.094 2.93-13.15 0-19.726-3.451-19.726-10.352 0-6.25 5.533-9.375 16.601-9.375 6.901 0 15.495 1.562 25.782 4.687 9.244-15.625 13.867-32.617 13.867-50.976 0-16.406-3.646-28.971-10.938-37.696-7.161-8.723-16.536-13.085-28.125-13.086-9.245 0-17.187 2.605-23.828 7.813-6.51 5.209-11.003 11.459-13.476 18.75-2.475 7.162-3.711 18.946-3.711 35.352V807.75" style="text-align:start" font-weight="400" font-size="400" font-family="Times New Roman" transform="matrix(.22519 0 0 .22596 -83.43 -127.223)" stroke-width="4.433" fill="url(#b)"/></svg>