<svg xmlns="http://www.w3.org/2000/svg" xmlns:xlink="http://www.w3.org/1999/xlink" version="1" height="65" width="41"><defs><linearGradient id="a"><stop offset="0" stop-color="#3bf4d6"/><stop offset="1" stop-color="#29b7f0"/></linearGradient><linearGradient gradientUnits="userSpaceOnUse" y2=".607" x2="416.762" y1="514.424" x1="97.05" id="b" xlink:href="#a"/></defs><path d="M374.495 112.971L415.146 45.1a11.37 11.37 0 0 0-9.753-17.21H166.435V17.053C166.435 7.635 158.799 0 149.381 0s-17.053 7.635-17.053 17.053v425.498c-21.354 5.88-37.09 25.46-37.09 48.657v9.421c0 6.278 5.09 11.369 11.369 11.369h85.549c6.279 0 11.369-5.091 11.369-11.369v-9.421c0-23.197-15.736-42.777-37.09-48.657V198.055h238.958a11.368 11.368 0 1 0 9.753-17.209zm-105.346 35.863H166.435v-22.738h102.714c6.279 0 11.369 5.091 11.369 11.369s-5.09 11.369-11.369 11.369z" transform="matrix(.12752 0 0 .12695 -12.145 0)" fill="url(#b)" stroke-width="7.859"/></svg>