<svg xmlns="http://www.w3.org/2000/svg" xmlns:xlink="http://www.w3.org/1999/xlink" id="Слой_1" width="50" height="50"><defs id="defs844"><linearGradient id="linearGradient852"><stop offset="0" id="stop848" stop-color="#3cfadb"/><stop offset="1" id="stop850" stop-color="#29b7f0"/></linearGradient><linearGradient xlink:href="#linearGradient852" id="linearGradient854" x1="-.012" y1="69.839" x2="73.335" y2=".287" gradientUnits="userSpaceOnUse"/><linearGradient gradientTransform="translate(.008 1.258) scale(.67832)" xlink:href="#linearGradient852" id="linearGradient856" gradientUnits="userSpaceOnUse" x1="-.012" y1="69.839" x2="73.335" y2=".287"/><linearGradient gradientTransform="translate(.008 1.258) scale(.67832)" xlink:href="#linearGradient852" id="linearGradient858" gradientUnits="userSpaceOnUse" x1="-.012" y1="69.839" x2="73.335" y2=".287"/><linearGradient gradientTransform="translate(.008 1.258) scale(.67832)" xlink:href="#linearGradient852" id="linearGradient860" gradientUnits="userSpaceOnUse" x1="-.012" y1="69.839" x2="73.335" y2=".287"/><linearGradient gradientTransform="translate(.008 1.258) scale(.67832)" xlink:href="#linearGradient852" id="linearGradient862" gradientUnits="userSpaceOnUse" x1="-.012" y1="69.839" x2="73.335" y2=".287"/><linearGradient gradientTransform="translate(.008 1.258) scale(.67832)" xlink:href="#linearGradient852" id="linearGradient864" gradientUnits="userSpaceOnUse" x1="-.012" y1="69.839" x2="73.335" y2=".287"/><linearGradient gradientTransform="translate(.008 1.258) scale(.67832)" xlink:href="#linearGradient852" id="linearGradient866" gradientUnits="userSpaceOnUse" x1="-.012" y1="69.839" x2="73.335" y2=".287"/><linearGradient gradientTransform="translate(.008 1.258) scale(.67832)" xlink:href="#linearGradient852" id="linearGradient868" gradientUnits="userSpaceOnUse" x1="-.012" y1="69.839" x2="73.335" y2=".287"/><linearGradient gradientTransform="translate(.008 1.258) scale(.67832)" xlink:href="#linearGradient852" id="linearGradient870" gradientUnits="userSpaceOnUse" x1="-.012" y1="69.839" x2="73.335" y2=".287"/><linearGradient gradientTransform="translate(.008 1.258) scale(.67832)" xlink:href="#linearGradient852" id="linearGradient872" gradientUnits="userSpaceOnUse" x1="-.012" y1="69.839" x2="73.335" y2=".287"/><linearGradient gradientTransform="translate(.008 1.258) scale(.67832)" xlink:href="#linearGradient852" id="linearGradient874" gradientUnits="userSpaceOnUse" x1="-.012" y1="69.839" x2="73.335" y2=".287"/></defs><style id="style815"/><path id="path819" d="M23.75 1.258a4.474 4.474 0 0 0-4.479 4.476c0 1.967 1.29 3.663 3.122 4.274v4.272c0 .746.61 1.358 1.357 1.358a1.36 1.36 0 0 0 1.355-1.358v-4.272c2.375-.746 3.663-3.189 2.985-5.563-.61-1.899-2.373-3.187-4.34-3.187zm-12.672 7.94a3.154 3.154 0 0 0-2.863 2.099c-.61 1.696.204 3.526 1.9 4.137.272.135.68.205 1.086.205.407 0 .746-.07 1.153-.205l.203.205 2.103 2.101c.543.475 1.424.408 1.899-.135.407-.474.407-1.288 0-1.763l-2.102-2.104-.205-.203c.61-1.696-.203-3.526-1.898-4.137a3.36 3.36 0 0 0-1.276-.2zm12.672 8.814a6.925 6.925 0 0 0-6.717 7.191c.136 3.663 3.054 6.647 6.717 6.715 3.866.136 7.054-2.916 7.19-6.715.067-3.866-2.917-7.056-6.784-7.191h-.406zM44.072 19.8a1.356 1.356 0 0 0-.924.449c-.474.543-.405 1.426.137 1.9l1.695 1.493H34.467a1.36 1.36 0 0 0-1.358 1.355c0 .746.612 1.357 1.358 1.357H44.98l-1.763 1.493c-.543.474-.61 1.355-.135 1.898.271.271.61.477 1.018.477.339 0 .61-.137.88-.34l4.545-3.867.135-.135.069-.069c0-.067.068-.134.068-.134l.068-.069c0-.067.067-.135.067-.203v-.34c0-.135.068-.27.068-.406s-.068-.203-.068-.271l-.067-.069c0-.068-.068-.134-.068-.134l-.068-.069-.135-.137-4.545-3.865a1.334 1.334 0 0 0-.977-.314zm-39.207.732a4.326 4.326 0 0 0-1.736.192C.755 21.47-.535 23.98.21 26.287c.746 2.306 3.256 3.664 5.562 2.918 1.425-.407 2.511-1.561 2.918-2.918.068.068.136.068.204.068h4.068a1.36 1.36 0 0 0 1.357-1.357 1.36 1.36 0 0 0-1.357-1.355H8.69a4.45 4.45 0 0 0-3.826-3.11zM15.482 31.9c-.33 0-.653.118-.89.356l-2.104 2.103-.203.203c-1.696-.678-3.527.205-4.205 1.9-.678 1.697.203 3.528 1.899 4.206 1.695.678 3.528-.203 4.207-1.898a3.37 3.37 0 0 0 0-2.307l.203-.203 2.101-2.104c.475-.542.476-1.425-.066-1.9a1.434 1.434 0 0 0-.942-.356zm8.2 2.46v.007a1.358 1.358 0 0 0-1.29 1.35v4.273a4.426 4.426 0 0 0-3.052 5.494 4.44 4.44 0 0 0 4.342 3.252v.004l.023-.002c.015 0 .03.003.045.002v-.006c2.476-.036 4.408-1.984 4.408-4.47 0-1.967-1.29-3.663-3.12-4.274v-4.273c0-.723-.574-1.313-1.288-1.35v-.008c-.012 0-.023.004-.035.004-.012 0-.022-.004-.033-.004z" fill="url(#linearGradient856)"/></svg>