<svg xmlns="http://www.w3.org/2000/svg" xmlns:xlink="http://www.w3.org/1999/xlink" id="Слой_1" viewBox="0 0 50.2 59.2" width="50" height="50"><defs id="defs980"><linearGradient id="linearGradient1553"><stop offset="0" id="stop1549" stop-color="#3cfadb"/><stop offset="1" id="stop1551" stop-color="#29b7f0"/></linearGradient><linearGradient xlink:href="#linearGradient1553" id="linearGradient1555" x1=".066" y1="59.085" x2="49.935" y2=".348" gradientUnits="userSpaceOnUse"/><linearGradient gradientTransform="translate(3.836) scale(.84317)" xlink:href="#linearGradient1553" id="linearGradient1557" gradientUnits="userSpaceOnUse" x1=".066" y1="59.085" x2="49.935" y2=".348"/><linearGradient gradientTransform="translate(.042) scale(.99831)" xlink:href="#linearGradient1553" id="linearGradient1559" gradientUnits="userSpaceOnUse" x1=".066" y1="59.085" x2="49.935" y2=".348"/><linearGradient gradientTransform="translate(.042) scale(.99831)" xlink:href="#linearGradient1553" id="linearGradient1561" gradientUnits="userSpaceOnUse" x1=".066" y1="59.085" x2="49.935" y2=".348"/><linearGradient gradientTransform="translate(.042) scale(.99831)" xlink:href="#linearGradient1553" id="linearGradient1563" gradientUnits="userSpaceOnUse" x1=".066" y1="59.085" x2="49.935" y2=".348"/></defs><style id="style963"/><path id="path967" transform="translate(-4.5) scale(1.184)" d="M25 0c-6.155 0-11.215 4.974-11.215 11.129 0 2.951 1.182 5.734 3.205 7.842.843 2.698.337 5.565-1.433 7.758h-5.059a6.622 6.622 0 0 0-6.662 6.66v6.662c0 1.012.844 1.855 1.855 1.855H25v.084h19.309c1.011 0 1.855-.843 1.855-1.94v-6.66c0-3.71-2.952-6.66-6.662-6.66h-5.143c-1.77-2.193-2.276-5.06-1.433-7.758 2.023-2.108 3.203-4.891 3.203-7.842C36.213 4.974 31.155 0 25 0zm0 3.795a7.34 7.34 0 0 1 7.336 7.334c0 2.024-.844 4.047-2.361 5.396-.253.169-.422.423-.506.76-1.18 3.12-1.011 6.577.338 9.444h-9.698c1.35-2.952 1.603-6.324.338-9.444-.084-.253-.253-.507-.506-.76-1.517-1.349-2.36-3.372-2.36-5.396 0-4.047 3.372-7.334 7.419-7.334zM10.498 30.523h28.92a2.842 2.842 0 0 1 2.867 2.866v4.806H25v-.084H7.63V33.39a2.842 2.842 0 0 1 2.868-2.866zM5.691 46.037c-1.011.084-1.855.928-1.855 1.94 0 1.011.844 1.855 1.855 1.855H25V50h19.309v-.084a1.872 1.872 0 0 0 1.855-1.855 1.872 1.872 0 0 0-1.855-1.856H25v-.168H5.691z" fill="url(#linearGradient1557)" stroke-width=".845"/></svg>