<svg width="684" height="439" viewBox="0 0 684 439" fill="none" xmlns="http://www.w3.org/2000/svg">
<g clip-path="url(#clip0)">
<path d="M271.468 135.2C304.961 135.2 332.112 108.055 332.112 74.57C332.112 41.0852 304.961 13.9404 271.468 13.9404C237.976 13.9404 210.825 41.0852 210.825 74.57C210.825 108.055 237.976 135.2 271.468 135.2Z" fill="url(#paint0_radial)"/>
<g style="mix-blend-mode:screen">
<path d="M271.468 110.828C293.04 110.828 310.528 93.3447 310.528 71.7778C310.528 50.2109 293.04 32.7275 271.468 32.7275C249.896 32.7275 232.409 50.2109 232.409 71.7778C232.409 93.3447 249.896 110.828 271.468 110.828Z" fill="#0101C5"/>
</g>
<path style="mix-blend-mode:screen" d="M287.329 90.7059C307.117 70.9226 314.682 46.4107 304.226 35.9571C293.77 25.5035 269.252 33.0667 249.464 52.85C229.676 72.6334 222.111 97.1452 232.567 107.599C243.023 118.052 267.541 110.489 287.329 90.7059Z" fill="url(#paint1_linear)"/>
<path d="M271.468 365.778C324.683 365.778 367.822 322.649 367.822 269.446C367.822 216.244 324.683 173.115 271.468 173.115C218.254 173.115 175.115 216.244 175.115 269.446C175.115 322.649 218.254 365.778 271.468 365.778Z" fill="url(#paint2_radial)"/>
<path d="M610.333 342.39C650.628 342.39 683.294 309.732 683.294 269.447C683.294 229.161 650.628 196.503 610.333 196.503C570.038 196.503 537.372 229.161 537.372 269.447C537.372 309.732 570.038 342.39 610.333 342.39Z" fill="url(#paint3_radial)"/>
<path d="M437.487 429.2C470.98 429.2 498.131 402.055 498.131 368.57C498.131 335.085 470.98 307.94 437.487 307.94C403.994 307.94 376.843 335.085 376.843 368.57C376.843 402.055 403.994 429.2 437.487 429.2Z" fill="url(#paint4_radial)"/>
<path d="M437.487 238.014C479.537 238.014 513.626 203.933 513.626 161.893C513.626 119.852 479.537 85.7715 437.487 85.7715C395.436 85.7715 361.348 119.852 361.348 161.893C361.348 203.933 395.436 238.014 437.487 238.014Z" fill="url(#paint5_radial)"/>
<g style="mix-blend-mode:screen">
<path d="M299.698 317.345C301.914 317.345 303.711 315.549 303.711 313.333C303.711 311.118 301.914 309.321 299.698 309.321C297.482 309.321 295.685 311.118 295.685 313.333C295.685 315.549 297.482 317.345 299.698 317.345Z" fill="#1D0EE0"/>
</g>
<g style="mix-blend-mode:screen">
<path d="M655.727 311.953C657.944 311.953 659.74 310.157 659.74 307.941C659.74 305.725 657.944 303.929 655.727 303.929C653.511 303.929 651.714 305.725 651.714 307.941C651.714 310.157 653.511 311.953 655.727 311.953Z" fill="#1D0EE0"/>
</g>
<g style="mix-blend-mode:screen">
<path d="M588.663 223.314C590.879 223.314 592.676 221.518 592.676 219.302C592.676 217.086 590.879 215.29 588.663 215.29C586.447 215.29 584.65 217.086 584.65 219.302C584.65 221.518 586.447 223.314 588.663 223.314Z" fill="#1D0EE0"/>
</g>
<g style="mix-blend-mode:screen">
<path d="M214.409 274.839C216.076 274.839 217.427 273.488 217.427 271.822C217.427 270.155 216.076 268.805 214.409 268.805C212.743 268.805 211.392 270.155 211.392 271.822C211.392 273.488 212.743 274.839 214.409 274.839Z" fill="#1D0EE0"/>
</g>
<g style="mix-blend-mode:screen">
<path d="M276.434 216.649C278.1 216.649 279.452 215.299 279.452 213.632C279.452 211.966 278.1 210.615 276.434 210.615C274.767 210.615 273.416 211.966 273.416 213.632C273.416 215.299 274.767 216.649 276.434 216.649Z" fill="#1D0EE0"/>
</g>
<path d="M7.49072 238.667V237.03H20.2038V238.667H14.7033V252.661H13.0125V238.667H7.49072Z" fill="#24ECA5"/>
<path d="M20.2251 252.66V241.887C22.0247 241.153 23.9535 240.789 25.8967 240.817V242.4C24.5502 242.443 23.2136 242.648 21.9159 243.01V252.639L20.2251 252.66Z" fill="#24ECA5"/>
<path d="M27.1167 249.066C27.1086 248.579 27.2072 248.097 27.4056 247.653C27.576 247.271 27.8196 246.926 28.1226 246.637C28.439 246.357 28.8009 246.132 29.1927 245.974C29.5683 245.812 29.9544 245.676 30.3484 245.567C30.7425 245.473 31.1432 245.408 31.547 245.375L32.5315 245.289H33.2271L35.0998 245.407C35.14 244.987 35.0838 244.563 34.9354 244.168C34.7871 243.773 34.5505 243.417 34.2437 243.128C33.4884 242.628 32.5895 242.391 31.6861 242.454C30.5207 242.436 29.3613 242.624 28.2617 243.01V241.363C29.3912 240.954 30.5812 240.737 31.7824 240.721C33.146 240.622 34.4932 241.068 35.5278 241.962C35.9839 242.443 36.3345 243.014 36.5575 243.639C36.7804 244.263 36.8707 244.927 36.8227 245.588V249.108C36.8422 249.785 36.6597 250.451 36.2983 251.023C35.9767 251.53 35.5108 251.929 34.9607 252.168C34.4705 252.389 33.9572 252.554 33.4304 252.66C32.9654 252.754 32.4921 252.8 32.0178 252.799C31.6602 252.798 31.303 252.776 30.9477 252.735C30.5105 252.669 30.0805 252.561 29.6636 252.414C29.2196 252.269 28.8008 252.056 28.4222 251.783C28.0432 251.501 27.7354 251.135 27.5233 250.713C27.2525 250.206 27.1127 249.64 27.1167 249.066ZM28.8075 249.066C28.8075 250.492 29.8776 251.205 32.0178 251.205C34.0939 251.205 35.1212 250.499 35.1212 249.066V246.83C34.4346 246.723 33.7399 246.676 33.0451 246.69C30.22 246.733 28.8075 247.525 28.8075 249.066Z" fill="#24ECA5"/>
<path d="M39.3592 246.659C39.3307 245.654 39.4904 244.652 39.83 243.706C40.0775 242.985 40.5269 242.35 41.1249 241.877C41.6362 241.501 42.208 241.215 42.8157 241.031C43.4319 240.859 44.0699 240.776 44.7098 240.785C45.6933 240.781 46.6716 240.929 47.6098 241.224V236.517H49.3006V249.173C49.3009 249.496 49.2541 249.816 49.1615 250.125C49.0338 250.544 48.8425 250.941 48.5943 251.302C48.219 251.802 47.7 252.175 47.1069 252.372C46.2722 252.681 45.3856 252.827 44.4958 252.8C44.0686 252.798 43.6425 252.759 43.2223 252.682C42.7478 252.586 42.2923 252.412 41.874 252.169C41.388 251.901 40.9619 251.537 40.6219 251.099C40.2102 250.559 39.9052 249.945 39.723 249.291C39.4709 248.437 39.3483 247.55 39.3592 246.659ZM41.05 246.659C41.0297 247.494 41.138 248.328 41.371 249.13C41.5137 249.685 41.8193 250.184 42.2485 250.564C42.5681 250.821 42.9303 251.02 43.3186 251.152C43.6987 251.256 44.0912 251.306 44.4851 251.302C46.5611 251.302 47.5991 250.607 47.5991 249.237V242.914C46.6812 242.527 45.6953 242.327 44.6991 242.326C44.1831 242.284 43.6643 242.358 43.1808 242.543C42.6974 242.728 42.2618 243.02 41.9061 243.396C41.2613 244.356 40.9597 245.506 41.05 246.659Z" fill="#24ECA5"/>
<path d="M52.0829 246.958V246.787C52.0829 242.764 53.7844 240.763 57.1981 240.763C57.8622 240.752 58.5227 240.865 59.1457 241.095C59.648 241.278 60.115 241.545 60.5261 241.887C60.8939 242.23 61.1982 242.636 61.425 243.085C61.6425 243.486 61.8251 243.905 61.9708 244.337C62.102 244.743 62.1881 245.163 62.2276 245.589C62.2918 246.059 62.3239 246.359 62.3239 246.477V246.979V247.803H53.763C53.7727 248.762 54.1567 249.68 54.8331 250.36C55.6109 250.95 56.5776 251.236 57.5512 251.163C58.9399 251.235 60.3225 250.932 61.5535 250.285V252.029C60.266 252.605 58.8649 252.883 57.4549 252.842H57.3907C56.7545 252.847 56.1208 252.765 55.5073 252.596C54.8964 252.416 54.3235 252.126 53.8165 251.74C53.2219 251.268 52.773 250.638 52.5216 249.922C52.1975 248.968 52.0489 247.964 52.0829 246.958ZM53.7737 246.305H60.6331C60.6308 246.006 60.5949 245.708 60.5261 245.417C60.4318 244.987 60.303 244.565 60.1409 244.155C59.9298 243.621 59.5552 243.168 59.0708 242.86C58.5051 242.503 57.8452 242.324 57.1767 242.347C56.715 242.307 56.2502 242.368 55.8143 242.525C55.3783 242.682 54.9815 242.931 54.6512 243.256C54.0386 244.152 53.7309 245.221 53.7737 246.305Z" fill="#24ECA5"/>
<path d="M65.0635 252.66V241.887C66.8671 241.154 68.7992 240.79 70.7458 240.817V242.4C69.3991 242.442 68.0624 242.647 66.765 243.01V252.639L65.0635 252.66Z" fill="#24ECA5"/>
<path d="M395.87 233.777V218.157H401.049C404.517 218.157 406.25 219.537 406.25 222.319C406.256 222.732 406.198 223.143 406.079 223.539C405.99 223.856 405.849 224.156 405.662 224.427C405.508 224.631 405.343 224.827 405.169 225.015C405.05 225.153 404.905 225.266 404.741 225.347L404.581 225.464C404.678 225.482 404.772 225.515 404.859 225.561C405.08 225.667 405.291 225.793 405.491 225.935C406.166 226.354 406.67 226.998 406.914 227.754C407.111 228.262 407.209 228.803 407.203 229.348C407.203 232.301 405.312 233.777 401.531 233.777H395.87ZM397.561 224.93H401.424C402.213 224.963 402.998 224.793 403.703 224.437C404.009 224.213 404.249 223.911 404.399 223.563C404.549 223.216 404.605 222.834 404.559 222.458C404.609 222.06 404.558 221.656 404.412 221.283C404.267 220.909 404.03 220.578 403.725 220.318C402.968 219.864 402.09 219.655 401.21 219.719H397.561V224.93ZM397.561 232.194H401.659C402.636 232.246 403.609 232.031 404.474 231.573C404.845 231.319 405.141 230.969 405.329 230.56C405.518 230.151 405.592 229.699 405.544 229.252C405.558 228.825 405.474 228.4 405.298 228.011C405.161 227.702 404.956 227.428 404.699 227.208C404.429 226.998 404.12 226.845 403.789 226.759C403.439 226.662 403.081 226.598 402.719 226.566C402.363 226.531 402.006 226.513 401.649 226.513H397.614L397.561 232.194Z" fill="#24ECA5"/>
<path d="M409.546 230.194C409.538 229.707 409.637 229.225 409.835 228.781C409.999 228.38 410.243 228.016 410.552 227.712C410.869 227.431 411.23 227.207 411.622 227.048C411.998 226.887 412.384 226.751 412.778 226.642C413.173 226.549 413.573 226.481 413.976 226.438L414.961 226.364H415.657L417.529 226.47C417.57 226.052 417.514 225.63 417.366 225.237C417.217 224.843 416.98 224.489 416.673 224.202C415.915 223.734 415.025 223.523 414.137 223.603C412.971 223.588 411.812 223.78 410.713 224.17V222.533C411.843 222.131 413.034 221.924 414.233 221.924C415.596 221.829 416.942 222.275 417.979 223.165C418.432 223.65 418.781 224.224 419.003 224.849C419.226 225.475 419.318 226.14 419.274 226.802V230.311C419.296 230.988 419.113 231.655 418.749 232.226C418.408 232.733 417.918 233.121 417.347 233.339C416.855 233.555 416.343 233.72 415.817 233.831C415.351 233.919 414.879 233.966 414.405 233.97C414.047 233.965 413.689 233.94 413.334 233.895C412.896 233.838 412.466 233.734 412.05 233.585C411.608 233.436 411.19 233.223 410.809 232.954C410.432 232.67 410.125 232.304 409.91 231.884C409.648 231.36 409.523 230.779 409.546 230.194ZM411.237 230.194C411.237 231.62 412.307 232.333 414.447 232.333C416.523 232.333 417.551 231.627 417.551 230.194V227.947C416.863 227.85 416.169 227.807 415.475 227.819C412.65 227.861 411.237 228.653 411.237 230.194Z" fill="#24ECA5"/>
<path d="M421.767 227.882C421.739 226.847 421.906 225.817 422.259 224.844C422.522 224.11 422.986 223.466 423.597 222.982C424.117 222.594 424.699 222.297 425.319 222.105C425.95 221.928 426.602 221.841 427.256 221.848C428.442 221.853 429.617 222.074 430.724 222.501V224.095C429.683 223.661 428.566 223.439 427.438 223.442C426.886 223.393 426.33 223.463 425.808 223.647C425.285 223.832 424.808 224.127 424.41 224.512C423.691 225.485 423.352 226.687 423.457 227.893C423.349 229.108 423.688 230.322 424.41 231.306C424.81 231.688 425.287 231.982 425.809 232.166C426.331 232.351 426.886 232.422 427.438 232.376C428.569 232.385 429.688 232.155 430.724 231.702V233.338C429.616 233.76 428.441 233.974 427.256 233.97C426.74 233.969 426.224 233.922 425.715 233.831C425.201 233.721 424.707 233.533 424.249 233.274C423.758 233.006 423.324 232.643 422.976 232.204C422.579 231.682 422.281 231.091 422.098 230.46C421.86 229.622 421.749 228.753 421.767 227.882Z" fill="#24ECA5"/>
<path d="M433.078 233.777V217.644H434.769V227.882L440.023 222.148H442.313L437.327 227.497L442.955 233.82H440.697L436.224 228.685L434.769 230.268V233.82L433.078 233.777Z" fill="#24ECA5"/>
<path d="M443.951 228.085V227.882C443.951 223.859 445.652 221.848 449.076 221.848C449.738 221.841 450.394 221.957 451.013 222.19C451.516 222.373 451.983 222.641 452.394 222.982C452.762 223.325 453.066 223.731 453.293 224.18C453.509 224.583 453.695 225.002 453.849 225.432C453.97 225.841 454.056 226.26 454.106 226.684C454.106 227.154 454.192 227.454 454.192 227.572V228.075V228.898H445.684C445.694 229.858 446.078 230.775 446.754 231.455C447.535 232.04 448.5 232.321 449.472 232.247C450.86 232.317 452.241 232.018 453.475 231.38V233.124C452.186 233.697 450.786 233.975 449.376 233.937H449.312C448.676 233.942 448.042 233.86 447.428 233.691C446.823 233.506 446.254 233.216 445.748 232.835C445.149 232.393 444.688 231.788 444.421 231.092C444.075 230.128 443.915 229.108 443.951 228.085ZM445.641 227.433H452.501C452.498 227.134 452.466 226.837 452.405 226.545C452.306 226.111 452.174 225.685 452.009 225.271C451.798 224.741 451.423 224.291 450.939 223.988C450.376 223.632 449.72 223.453 449.055 223.474C448.592 223.432 448.126 223.49 447.688 223.645C447.25 223.8 446.851 224.048 446.519 224.373C445.908 225.273 445.601 226.345 445.641 227.433Z" fill="#24ECA5"/>
<path d="M456.942 233.778V223.079C458.482 222.317 460.178 221.925 461.897 221.934C463.14 221.857 464.365 222.259 465.321 223.058C465.737 223.466 466.06 223.959 466.269 224.504C466.478 225.049 466.567 225.632 466.53 226.214V233.831H464.839V226.214C464.843 225.918 464.81 225.624 464.743 225.336C464.651 225.045 464.514 224.771 464.336 224.523C464.099 224.203 463.765 223.967 463.384 223.849C462.843 223.683 462.28 223.604 461.715 223.614C460.674 223.624 459.64 223.782 458.643 224.085V233.831L456.942 233.778Z" fill="#24ECA5"/>
<path d="M469.452 227.786C469.425 226.782 469.581 225.781 469.912 224.833C470.163 224.111 470.616 223.476 471.217 223.004C471.727 222.622 472.299 222.333 472.908 222.148C473.522 221.979 474.155 221.897 474.791 221.902C475.78 221.894 476.762 222.046 477.702 222.351V217.644H479.414V230.289C479.415 230.615 479.368 230.94 479.275 231.252C479.141 231.669 478.95 232.065 478.708 232.429C478.324 232.924 477.803 233.296 477.21 233.499C476.378 233.804 475.496 233.949 474.61 233.927C474.182 233.925 473.756 233.886 473.336 233.809C472.862 233.713 472.406 233.539 471.988 233.296C471.501 233.025 471.072 232.661 470.725 232.226C470.318 231.688 470.017 231.078 469.837 230.429C469.577 229.572 469.447 228.681 469.452 227.786ZM471.142 227.786C471.122 228.621 471.23 229.455 471.463 230.257C471.606 230.812 471.912 231.311 472.341 231.691C472.658 231.95 473.021 232.146 473.411 232.269C473.794 232.377 474.19 232.428 474.588 232.418C476.664 232.418 477.702 231.734 477.702 230.364V224.031C476.778 223.652 475.79 223.455 474.791 223.453C474.277 223.412 473.76 223.487 473.279 223.673C472.798 223.858 472.364 224.148 472.009 224.523C471.357 225.48 471.052 226.631 471.142 227.786Z" fill="#24ECA5"/>
<path d="M9.23535 438.818V423.188H10.9261V438.818H9.23535Z" fill="#24ECA5"/>
<path d="M14.5752 438.819V428.066C16.1056 427.284 17.8003 426.877 19.5192 426.879C20.7548 426.79 21.9784 427.172 22.9435 427.949C23.367 428.364 23.6954 428.866 23.906 429.42C24.1166 429.974 24.2045 430.567 24.1635 431.158V438.776H22.4727V431.158C22.4766 430.863 22.4443 430.568 22.3764 430.281C22.2872 429.986 22.1498 429.708 21.9697 429.457C21.7344 429.137 21.3994 428.904 21.0173 428.794C20.4785 428.62 19.9138 428.541 19.3479 428.559C18.3066 428.563 17.2716 428.722 16.2767 429.029V438.776L14.5752 438.819Z" fill="#24ECA5"/>
<path d="M25.9824 427.125H27.823L31.3544 436.754L34.9072 427.125H36.705L32.1998 438.819H30.4555L25.9824 427.125Z" fill="#24ECA5"/>
<path d="M37.9893 433.116V432.945C37.9893 428.936 39.6944 426.929 43.1045 426.922C43.7651 426.912 44.4218 427.024 45.0414 427.253C45.5508 427.432 46.0225 427.704 46.4326 428.056C46.8034 428.392 47.1082 428.795 47.3315 429.243C47.549 429.644 47.7316 430.063 47.8773 430.495C48.0034 430.903 48.0894 431.322 48.1341 431.747C48.1983 432.217 48.2304 432.517 48.2304 432.635V433.137V433.961H39.6801C39.6888 434.921 40.0729 435.839 40.7503 436.518C41.5299 437.105 42.4952 437.39 43.4684 437.321C44.8557 437.392 46.2372 437.093 47.4706 436.454V438.187C46.1873 438.765 44.7894 439.043 43.3828 439H43.3078C42.6718 439.004 42.0381 438.922 41.4244 438.754C40.8181 438.571 40.2493 438.281 39.7443 437.898C39.1444 437.431 38.6943 436.799 38.4495 436.08C38.1181 435.128 37.9622 434.124 37.9893 433.116ZM39.6801 432.463H46.5289C46.5253 432.165 46.493 431.868 46.4326 431.575C46.3383 431.145 46.2094 430.723 46.0474 430.313C45.8272 429.775 45.4411 429.322 44.9451 429.018C44.3842 428.66 43.7271 428.481 43.0617 428.505C42.6001 428.465 42.1353 428.526 41.6993 428.683C41.2634 428.84 40.8666 429.089 40.5362 429.414C39.9312 430.313 39.6311 431.382 39.6801 432.463Z" fill="#24ECA5"/>
<path d="M50.2959 430.302C50.2953 429.85 50.3903 429.403 50.5747 428.99C50.7591 428.577 51.0288 428.207 51.366 427.906C52.2408 427.186 53.361 426.833 54.4907 426.922C55.5331 426.931 56.5603 427.172 57.4978 427.628V429.307C56.6473 428.786 55.6701 428.509 54.6726 428.505C52.9177 428.505 52.0294 429.104 52.0294 430.302C52.0308 430.509 52.0922 430.712 52.2061 430.884C52.3201 431.057 52.4818 431.193 52.6715 431.276C53.1637 431.557 53.6934 431.766 54.2446 431.897C54.8653 432.068 55.4752 432.26 56.0959 432.485C56.7184 432.72 57.263 433.124 57.669 433.651C58.1279 434.267 58.3586 435.024 58.3218 435.791C58.3394 436.252 58.2443 436.71 58.0447 437.126C57.8452 437.541 57.5473 437.902 57.1767 438.177C56.2334 438.816 55.1032 439.121 53.9664 439.043C52.7333 439.06 51.5167 438.758 50.435 438.166V436.379C51.4676 437.054 52.669 437.424 53.9022 437.449C55.6786 437.449 56.5668 436.914 56.5668 435.834C56.5778 435.571 56.5252 435.309 56.4134 435.07C56.3016 434.832 56.134 434.624 55.9247 434.464C55.4552 434.122 54.9251 433.871 54.3623 433.726C53.7416 433.566 53.121 433.384 52.511 433.191C51.9087 433.008 51.3658 432.668 50.9379 432.207C50.7073 431.95 50.5314 431.648 50.421 431.321C50.3106 430.993 50.2681 430.647 50.2959 430.302Z" fill="#24ECA5"/>
<path d="M59.4561 428.665V427.124H61.5V423.818H63.1908V427.124H66.2085V428.665H63.1908V435.801C63.167 436.024 63.1879 436.249 63.2522 436.464C63.3165 436.679 63.4229 436.879 63.5653 437.053C63.9418 437.328 64.407 437.454 64.8709 437.406C65.3308 437.413 65.7869 437.322 66.2085 437.138V438.722C65.7331 438.902 65.2295 438.996 64.721 439C64.4111 439.002 64.102 438.966 63.8007 438.893C63.4481 438.805 63.1095 438.668 62.7948 438.486C62.3799 438.245 62.0621 437.867 61.8959 437.416C61.6471 436.862 61.5299 436.258 61.5535 435.651V428.611L59.4561 428.665Z" fill="#24ECA5"/>
<path d="M68.1561 435.993C67.5 434.021 67.5 431.889 68.1561 429.916C68.4086 429.178 68.874 428.53 69.4938 428.055C70.0115 427.663 70.5949 427.365 71.2167 427.177C72.4853 426.835 73.8219 426.835 75.0905 427.177C75.7171 427.362 76.3047 427.659 76.8241 428.055C77.4438 428.532 77.912 429.179 78.1725 429.916C78.8286 431.889 78.8286 434.021 78.1725 435.993C77.9122 436.734 77.4441 437.384 76.8241 437.866C76.3047 438.261 75.7171 438.559 75.0905 438.743C73.8219 439.085 72.4853 439.085 71.2167 438.743C70.5949 438.555 70.0115 438.258 69.4938 437.866C68.8742 437.386 68.4091 436.735 68.1561 435.993ZM70.2964 429.574C69.7004 430.615 69.3868 431.793 69.3868 432.992C69.3868 434.191 69.7004 435.37 70.2964 436.41C70.6672 436.794 71.1194 437.089 71.6194 437.274C72.1195 437.459 72.6547 437.53 73.1857 437.48C73.7181 437.527 74.2544 437.456 74.7558 437.271C75.2573 437.086 75.7115 436.792 76.0857 436.41C76.6816 435.366 76.9949 434.184 76.9949 432.982C76.9949 431.779 76.6816 430.597 76.0857 429.553C75.2812 428.858 74.2538 428.476 73.1911 428.476C72.1283 428.476 71.1009 428.858 70.2964 429.553V429.574Z" fill="#24ECA5"/>
<path d="M81.3291 438.819V428.045C83.1287 427.311 85.0575 426.948 87.0007 426.975V428.559C85.6542 428.602 84.3176 428.806 83.0199 429.168V438.851L81.3291 438.819Z" fill="#24ECA5"/>
<path d="M233.64 349.741V334.11H235.33V349.741H233.64Z" fill="#24ECA5"/>
<path d="M238.969 349.74V339.042C240.507 338.275 242.205 337.883 243.923 337.897C245.159 337.81 246.382 338.192 247.348 338.967C247.771 339.382 248.1 339.884 248.31 340.438C248.521 340.992 248.609 341.585 248.568 342.176V349.794H246.866V342.176C246.87 341.881 246.838 341.586 246.77 341.299C246.681 341.004 246.543 340.726 246.363 340.475C246.128 340.155 245.793 339.922 245.411 339.812C244.872 339.64 244.307 339.56 243.741 339.577C242.7 339.581 241.665 339.74 240.67 340.047V349.794L238.969 349.74Z" fill="#24ECA5"/>
<path d="M250.547 339.588V338.079H252.548V334.773H254.239V338.079H257.257V339.62H254.239V346.756C254.196 347.206 254.33 347.655 254.614 348.008C254.99 348.283 255.455 348.409 255.919 348.361C256.379 348.368 256.835 348.277 257.257 348.093V349.677C256.782 349.857 256.278 349.951 255.77 349.955H255.759C255.452 349.958 255.147 349.922 254.849 349.848C254.475 349.765 254.114 349.628 253.779 349.441C253.377 349.209 253.062 348.852 252.88 348.425C252.637 347.862 252.524 347.251 252.548 346.638V339.599L250.547 339.588Z" fill="#24ECA5"/>
<path d="M258.969 344.038V343.867C258.969 339.844 260.682 337.843 264.095 337.843C264.756 337.833 265.413 337.946 266.032 338.175C266.539 338.355 267.01 338.623 267.423 338.967C267.786 339.315 268.089 339.72 268.322 340.165C268.54 340.566 268.722 340.985 268.868 341.417C268.989 341.826 269.075 342.245 269.125 342.668C269.189 343.139 269.221 343.439 269.221 343.556V344.059L269.168 344.883H260.671C260.68 345.843 261.064 346.76 261.741 347.44C262.52 348.028 263.486 348.313 264.459 348.243C265.848 348.316 267.231 348.013 268.461 347.365V349.109C267.178 349.687 265.78 349.965 264.374 349.922H264.32C263.684 349.926 263.05 349.844 262.437 349.676C261.83 349.493 261.262 349.203 260.757 348.82C260.159 348.351 259.709 347.72 259.462 347.001C259.119 346.052 258.952 345.047 258.969 344.038ZM260.671 343.385H267.53C267.527 343.087 267.495 342.79 267.434 342.497C267.34 342.067 267.211 341.645 267.049 341.235C266.84 340.7 266.465 340.246 265.979 339.94C265.418 339.582 264.761 339.403 264.095 339.427C263.633 339.383 263.167 339.441 262.731 339.599C262.294 339.756 261.898 340.008 261.57 340.336C260.933 341.238 260.61 342.325 260.65 343.428L260.671 343.385Z" fill="#24ECA5"/>
<path d="M271.939 349.74V338.967C273.739 338.233 275.667 337.869 277.611 337.897V339.48C276.264 339.524 274.927 339.728 273.63 340.09V349.719L271.939 349.74Z" fill="#24ECA5"/>
<path d="M279.719 349.741V339.042C281.253 338.274 282.947 337.882 284.663 337.897C285.898 337.809 287.122 338.191 288.087 338.967C288.511 339.382 288.839 339.884 289.05 340.438C289.26 340.992 289.348 341.586 289.307 342.177V349.794H287.616V342.177C287.617 341.881 287.581 341.587 287.509 341.3C287.424 341.005 287.29 340.726 287.113 340.476C286.871 340.158 286.534 339.925 286.15 339.812C285.611 339.639 285.047 339.559 284.481 339.577C283.439 339.583 282.405 339.741 281.41 340.048V349.794L279.719 349.741Z" fill="#24ECA5"/>
<path d="M292.261 344.038V343.867C292.261 339.844 293.962 337.843 297.376 337.843C298.036 337.833 298.693 337.946 299.313 338.175C299.819 338.355 300.29 338.623 300.704 338.967C301.072 339.31 301.376 339.716 301.603 340.165C301.82 340.566 302.003 340.985 302.149 341.417C302.275 341.825 302.361 342.244 302.405 342.668C302.47 343.139 302.502 343.439 302.502 343.556V344.059L302.448 344.883H293.951C293.955 345.843 294.34 346.763 295.022 347.44C295.796 348.028 296.759 348.314 297.729 348.243C299.118 348.318 300.501 348.014 301.731 347.365V349.109C300.448 349.687 299.05 349.965 297.643 349.922H297.568C296.936 349.927 296.306 349.844 295.696 349.676C295.085 349.496 294.512 349.206 294.005 348.82C293.407 348.351 292.958 347.72 292.71 347.001C292.382 346.049 292.23 345.045 292.261 344.038ZM293.951 343.385H300.8C300.797 343.087 300.764 342.79 300.704 342.497C300.61 342.067 300.481 341.645 300.319 341.235C300.11 340.7 299.735 340.246 299.249 339.94C298.688 339.582 298.031 339.403 297.365 339.427C296.903 339.387 296.439 339.448 296.003 339.605C295.567 339.762 295.17 340.011 294.84 340.336C294.214 341.242 293.902 342.328 293.951 343.428V343.385Z" fill="#24ECA5"/>
<path d="M303.808 339.588V338.079H305.852V334.773H307.542V338.079H310.56V339.62H307.542V346.756C307.519 346.979 307.539 347.205 307.604 347.419C307.668 347.634 307.775 347.834 307.917 348.008C308.293 348.283 308.759 348.409 309.222 348.361C309.682 348.368 310.139 348.277 310.56 348.093V349.677C310.085 349.857 309.581 349.951 309.073 349.955H309.019C308.709 349.957 308.4 349.921 308.099 349.848C307.746 349.76 307.408 349.623 307.093 349.441C306.691 349.209 306.375 348.852 306.194 348.425C305.945 347.871 305.828 347.267 305.852 346.66V339.62L303.808 339.588Z" fill="#24ECA5"/>
<path d="M578.796 341.909C578.796 336.567 581.211 333.899 586.041 333.906C590.871 333.913 593.293 336.581 593.307 341.909C593.307 347.251 590.885 349.922 586.041 349.922C581.197 349.922 578.782 347.251 578.796 341.909ZM581.825 337.009C580.949 338.484 580.487 340.167 580.487 341.882C580.487 343.597 580.949 345.281 581.825 346.755C583.009 347.75 584.506 348.295 586.052 348.295C587.598 348.295 589.095 347.75 590.279 346.755C591.155 345.281 591.617 343.597 591.617 341.882C591.617 340.167 591.155 338.484 590.279 337.009C589.098 336.008 587.6 335.459 586.052 335.459C584.504 335.459 583.006 336.008 581.825 337.009Z" fill="#24ECA5"/>
<path d="M596.496 349.74V338.967C598.296 338.233 600.225 337.869 602.168 337.897V339.48C600.821 339.524 599.485 339.728 598.187 340.09V349.719L596.496 349.74Z" fill="#24ECA5"/>
<path d="M603.388 346.146C603.38 345.659 603.478 345.177 603.677 344.733C603.841 344.332 604.085 343.968 604.394 343.664C604.71 343.383 605.072 343.159 605.464 343C605.842 342.837 606.232 342.701 606.63 342.594C607.02 342.498 607.418 342.434 607.818 342.401L608.802 342.316H609.498L611.371 342.433C611.411 342.013 611.355 341.59 611.206 341.195C611.058 340.8 610.821 340.444 610.515 340.154C609.76 339.653 608.861 339.416 607.957 339.48C606.795 339.461 605.639 339.65 604.543 340.037V338.4C605.672 338.005 606.858 337.803 608.053 337.801C609.417 337.702 610.764 338.148 611.799 339.042C612.255 339.523 612.606 340.094 612.828 340.719C613.051 341.343 613.142 342.007 613.094 342.669V346.188C613.113 346.865 612.931 347.531 612.569 348.104C612.248 348.61 611.782 349.009 611.232 349.248C610.307 349.666 609.304 349.881 608.289 349.88C607.931 349.879 607.573 349.854 607.219 349.805C606.781 349.747 606.35 349.643 605.935 349.494C605.491 349.35 605.072 349.137 604.693 348.863C604.314 348.581 604.006 348.215 603.794 347.793C603.523 347.287 603.384 346.72 603.388 346.146ZM605.078 346.146C605.078 347.572 606.149 348.285 608.289 348.285C610.365 348.285 611.392 347.579 611.392 346.146V343.91C610.706 343.803 610.011 343.756 609.316 343.771C606.491 343.813 605.078 344.605 605.078 346.146Z" fill="#24ECA5"/>
<path d="M615.608 343.867C615.58 342.836 615.747 341.809 616.101 340.84C616.364 340.103 616.827 339.455 617.438 338.967C617.959 338.582 618.542 338.289 619.161 338.101C619.791 337.924 620.444 337.837 621.098 337.844C622.284 337.844 623.46 338.065 624.565 338.497V340.08C623.523 339.652 622.407 339.43 621.28 339.428C620.728 339.378 620.172 339.448 619.649 339.633C619.127 339.817 618.65 340.112 618.252 340.497C617.629 341.521 617.3 342.696 617.3 343.894C617.3 345.092 617.629 346.267 618.252 347.291C618.65 347.676 619.127 347.971 619.649 348.156C620.172 348.34 620.728 348.41 621.28 348.361C622.41 348.37 623.53 348.14 624.565 347.687V349.324C623.458 349.746 622.283 349.96 621.098 349.955C620.581 349.959 620.065 349.913 619.557 349.816C619.044 349.71 618.549 349.526 618.091 349.27C617.604 348.996 617.172 348.633 616.818 348.2C616.42 347.676 616.125 347.081 615.951 346.446C615.703 345.61 615.587 344.74 615.608 343.867Z" fill="#24ECA5"/>
<path d="M627.016 349.741V333.597H628.707V349.741H627.016Z" fill="#24ECA5"/>
<path d="M631.789 344.038V343.867C631.789 339.844 633.49 337.844 636.904 337.844C637.568 337.832 638.228 337.945 638.851 338.175C639.354 338.358 639.821 338.626 640.232 338.967C640.6 339.31 640.904 339.716 641.131 340.165C641.348 340.566 641.531 340.985 641.677 341.417C641.808 341.823 641.894 342.243 641.933 342.669C641.998 343.139 642.03 343.439 642.03 343.557V344.059V344.883H633.511C633.516 345.844 633.9 346.763 634.582 347.44C635.356 348.029 636.319 348.314 637.289 348.243C638.681 348.317 640.068 348.013 641.302 347.365V349.109C640.015 349.685 638.613 349.963 637.203 349.922H637.139C636.503 349.927 635.869 349.845 635.256 349.676C634.623 349.489 634.031 349.184 633.511 348.778C632.914 348.309 632.464 347.677 632.217 346.959C631.901 346.018 631.756 345.029 631.789 344.038ZM633.511 343.428H640.36C640.357 343.13 640.324 342.833 640.264 342.54C640.17 342.11 640.041 341.688 639.879 341.278C639.67 340.743 639.295 340.289 638.809 339.983C638.248 339.625 637.591 339.445 636.925 339.47C636.464 339.43 635.999 339.491 635.563 339.648C635.127 339.805 634.73 340.054 634.4 340.379C633.783 341.274 633.472 342.343 633.511 343.428Z" fill="#24ECA5"/>
<path d="M389.781 438.818V423.188H399.637V424.739H391.472V430.088H398.652V431.725H391.472V437.139H399.637V438.733L389.781 438.818Z" fill="#24ECA5"/>
<path d="M400.729 428.665V427.124H402.762V423.818H404.506V427.124H407.524V428.665H404.506V435.801C404.482 436.024 404.503 436.249 404.567 436.464C404.632 436.679 404.738 436.879 404.881 437.053C405.257 437.328 405.722 437.454 406.186 437.406C406.646 437.413 407.102 437.322 407.524 437.138V438.722C407.048 438.902 406.545 438.996 406.036 439H405.983C405.673 439.002 405.364 438.967 405.063 438.893C404.71 438.805 404.371 438.668 404.057 438.486C403.642 438.245 403.324 437.867 403.158 437.416C402.905 436.863 402.784 436.259 402.805 435.651V428.611L400.729 428.665Z" fill="#24ECA5"/>
<path d="M409.856 438.818V422.674H411.547V427.659C412.663 427.18 413.864 426.929 415.079 426.921C415.694 426.885 416.31 426.981 416.884 427.205C417.459 427.428 417.978 427.773 418.407 428.216C419.247 429.247 419.667 430.558 419.584 431.885V438.818H417.893V431.885C417.893 429.692 416.887 428.601 414.897 428.601C413.745 428.614 412.606 428.854 411.547 429.307V438.818H409.856Z" fill="#24ECA5"/>
<path d="M422.27 433.115V432.944C422.27 428.936 423.975 426.928 427.385 426.921C428.049 426.909 428.71 427.022 429.333 427.252C429.837 427.434 430.305 427.706 430.713 428.055C431.084 428.391 431.389 428.794 431.612 429.242C431.829 429.643 432.012 430.062 432.158 430.494C432.289 430.901 432.375 431.32 432.414 431.746C432.479 432.217 432.511 432.516 432.511 432.634V433.137V433.96H424.003C424.007 434.921 424.392 435.84 425.073 436.517C425.848 437.106 426.811 437.391 427.781 437.32C429.172 437.391 430.556 437.092 431.794 436.453V438.186C430.506 438.763 429.105 439.041 427.695 438.999H427.62C426.988 439.004 426.358 438.921 425.748 438.753C425.137 438.573 424.564 438.283 424.057 437.898C423.457 437.431 423.007 436.798 422.762 436.079C422.42 435.129 422.253 434.125 422.27 433.115ZM423.96 432.463H430.809C430.806 432.164 430.773 431.867 430.713 431.575C430.619 431.144 430.49 430.722 430.328 430.312C430.116 429.779 429.742 429.326 429.258 429.018C428.697 428.659 428.04 428.48 427.374 428.504C426.913 428.464 426.448 428.525 426.012 428.682C425.576 428.839 425.179 429.089 424.849 429.413C424.232 430.308 423.921 431.377 423.96 432.463Z" fill="#24ECA5"/>
<path d="M435.25 438.818V428.045C437.05 427.312 438.979 426.949 440.922 426.975V428.558C439.576 428.602 438.239 428.806 436.941 429.168V438.851L435.25 438.818Z" fill="#24ECA5"/>
<path d="M442.367 433.115V432.944C442.367 428.936 444.072 426.928 447.482 426.921C448.146 426.909 448.806 427.022 449.429 427.252C449.934 427.434 450.402 427.706 450.81 428.055C451.181 428.391 451.485 428.794 451.709 429.242C451.926 429.643 452.109 430.062 452.254 430.494C452.386 430.901 452.472 431.32 452.511 431.746C452.575 432.217 452.608 432.516 452.608 432.634V433.137V433.96H444.047C444.056 434.92 444.44 435.837 445.117 436.517C445.891 437.106 446.854 437.391 447.824 437.32C449.215 437.391 450.6 437.092 451.837 436.453V438.186C450.55 438.763 449.149 439.041 447.739 438.999H447.674C447.038 439.004 446.404 438.922 445.791 438.753C445.18 438.573 444.607 438.283 444.1 437.898C443.5 437.431 443.05 436.798 442.805 436.079C442.481 435.126 442.333 434.121 442.367 433.115ZM444.057 432.463H450.917C450.914 432.164 450.879 431.866 450.81 431.575C450.715 431.144 450.587 430.722 450.425 430.312C450.213 429.779 449.838 429.326 449.354 429.018C448.793 428.659 448.136 428.48 447.471 428.504C447.009 428.464 446.545 428.525 446.109 428.682C445.673 428.839 445.276 429.089 444.946 429.413C444.344 430.313 444.048 431.382 444.1 432.463H444.057Z" fill="#24ECA5"/>
<path d="M455.283 433.897V427.125H456.942V433.972C456.861 434.91 457.14 435.843 457.723 436.583C458.418 437.116 459.27 437.405 460.147 437.405C461.023 437.405 461.875 437.116 462.571 436.583C463.157 435.845 463.441 434.911 463.363 433.972V427.125H465.053V433.897C465.14 435.271 464.683 436.624 463.78 437.663C462.769 438.527 461.482 439.001 460.152 439.001C458.822 439.001 457.536 438.527 456.524 437.663C455.634 436.619 455.188 435.267 455.283 433.897Z" fill="#24ECA5"/>
<path d="M468.563 438.818V428.033C470.018 427.32 471.619 426.953 473.239 426.964C474.352 426.909 475.448 427.25 476.332 427.926C477.7 427.314 479.178 426.986 480.677 426.964C481.873 426.879 483.054 427.263 483.973 428.033C484.386 428.454 484.704 428.958 484.907 429.511C485.11 430.065 485.193 430.655 485.15 431.243V438.861H483.459V431.157C483.463 430.862 483.431 430.568 483.363 430.28C483.29 429.986 483.167 429.708 482.999 429.456C482.776 429.142 482.457 428.909 482.089 428.793C481.598 428.621 481.079 428.541 480.559 428.558C479.465 428.58 478.382 428.775 477.349 429.135C477.611 429.777 477.738 430.465 477.723 431.157V438.775H476.032V431.157C476.037 430.855 476.005 430.553 475.936 430.259C475.855 429.968 475.725 429.693 475.551 429.446C475.327 429.135 475.007 428.906 474.641 428.793C474.131 428.621 473.595 428.542 473.058 428.558C472.114 428.556 471.176 428.697 470.275 428.975V438.775L468.563 438.818Z" fill="#24ECA5"/>
<path d="M113.594 218.607C137.151 218.607 156.249 199.514 156.249 175.961C156.249 152.409 137.151 133.316 113.594 133.316C90.0358 133.316 70.9385 152.409 70.9385 175.961C70.9385 199.514 90.0358 218.607 113.594 218.607Z" fill="url(#paint6_radial)"/>
<path d="M132.524 157.271L110.704 153.194L102.849 192.352C102.849 192.352 125.322 190.458 125.568 190.33C125.814 190.201 132.524 157.271 132.524 157.271Z" fill="#17042B"/>
<g style="mix-blend-mode:screen">
<path d="M34.6077 136.644C9.63109 136.644 0 148.861 0 156.565C0 164.268 7.42664 224.362 7.42664 224.362H64.2822C64.2822 224.362 68.1667 169.799 71.666 153.751C72.6184 149.364 55.336 136.644 34.6077 136.644Z" fill="#3F02C4"/>
</g>
<path style="mix-blend-mode:screen" d="M0 156.564C0 156.564 5.35061 205.778 8.49676 206.677C11.6429 207.576 60.2157 195.882 60.2157 195.882L59.3382 188.971L22.1408 189.153L20.7282 155.131C20.7282 155.131 6.73106 147.535 0 156.564Z" fill="url(#paint7_linear)"/>
<path style="mix-blend-mode:screen" d="M71.3022 152.136C68.5881 150.95 65.6291 150.434 62.6739 150.629C59.7186 150.825 56.8535 151.727 54.3193 153.259C54.3193 153.259 61.8744 207.095 65.8873 207.919C69.9003 208.743 106.391 200.43 106.391 200.43L105.321 194.16L77.6801 193.818C77.6801 193.818 72.7682 152.767 71.3022 152.136Z" fill="url(#paint8_linear)"/>
<g style="mix-blend-mode:screen">
<path d="M59.3384 188.971C59.3384 188.971 76.2784 181.835 88.9165 190.919V193.165L60.2159 195.883L59.3384 188.971Z" fill="#F9BF5A"/>
</g>
<path d="M125.568 190.287C125.327 190.979 124.899 191.592 124.333 192.058C123.767 192.524 123.084 192.826 122.358 192.93C119.79 193.39 71.0777 196.407 71.0777 196.407C71.0777 196.407 69.1728 195.572 69.0444 194.748L125.568 190.287Z" fill="#17042B"/>
<g style="mix-blend-mode:screen">
<path d="M105.332 194.213L111.346 173.212L117.371 174.153C117.371 174.153 126.349 192.459 106.391 200.483L105.332 194.213Z" fill="#F9BF5A"/>
</g>
<path style="mix-blend-mode:screen" d="M66.4544 114.273C66.4544 114.273 59.2952 138.206 55.9993 138.516C53.9126 138.668 51.8196 138.327 49.8889 137.521L46.1542 150.595C46.1542 150.595 30.4662 145.246 30.4341 137.382L35.881 123.688C33.3587 118.434 32.8931 112.428 34.5755 106.848C37.3364 97.2194 56.9517 88.4358 72.4577 103.286C72.4577 103.286 76.3851 110.047 66.4544 114.273Z" fill="url(#paint9_linear)"/>
<path d="M72.6184 103.199C65.3737 96.2881 56.2241 93.6562 47.4705 96.0099C41.0498 97.7538 35.6992 102.087 34.3937 106.805C32.7275 112.362 33.1655 118.337 35.6243 123.591V123.687L38.2461 123.837L38.1284 123.559C38.1284 123.495 35.3354 116.798 36.9941 114.412C37.2224 114.112 37.5257 113.879 37.8733 113.734C38.2209 113.589 38.6005 113.539 38.9738 113.588C39.3907 113.578 39.8037 113.671 40.1768 113.857C40.5498 114.044 40.8716 114.318 41.114 114.658C42.9225 117.3 40.7609 123.773 40.7395 123.837L40.686 124.008L43.7679 125.335L45.5015 119.387C50.1351 118.648 51.5905 113.673 51.9222 112.39C56.3954 114.647 66.3475 114.476 66.4759 114.476H66.5294C70.0608 112.967 72.2653 110.977 73.0785 108.549C73.3573 107.671 73.4602 106.746 73.3812 105.828C73.3023 104.91 73.043 104.017 72.6184 103.199Z" fill="#0C0514"/>
<path style="mix-blend-mode:screen" d="M72.6184 103.199C65.3737 96.2881 56.2241 93.6562 47.4705 96.0099C41.0498 97.7538 35.6992 102.087 34.3937 106.805C32.7275 112.362 33.1655 118.337 35.6243 123.591V123.687L38.2461 123.837L38.1284 123.559C38.1284 123.495 35.3354 116.798 36.9941 114.412C37.2224 114.112 37.5257 113.879 37.8733 113.734C38.2209 113.589 38.6005 113.539 38.9738 113.588C39.3907 113.578 39.8037 113.671 40.1768 113.857C40.5498 114.044 40.8716 114.318 41.114 114.658C42.9225 117.3 40.7609 123.773 40.7395 123.837L40.686 124.008L43.7679 125.335L45.5015 119.387C50.1351 118.648 51.5905 113.673 51.9222 112.39C56.3954 114.647 66.3475 114.476 66.4759 114.476H66.5294C70.0608 112.967 72.2653 110.977 73.0785 108.549C73.3573 107.671 73.4602 106.746 73.3812 105.828C73.3023 104.91 73.043 104.017 72.6184 103.199Z" fill="url(#paint10_linear)"/>
<g style="mix-blend-mode:screen">
<path d="M59.3381 188.972L60.2156 195.883L49.3324 198.451L48.0376 188.972H59.3381Z" fill="#92FFF9"/>
</g>
<g style="mix-blend-mode:screen">
<path d="M105.332 194.214L106.392 200.483L95.7973 202.805L94.77 194.909L105.332 194.214Z" fill="#92FFF9"/>
</g>
<g style="mix-blend-mode:screen">
<path d="M49.5148 138.837L46.1546 150.606C46.1546 150.606 30.4666 145.257 30.4345 137.393L30.7769 136.526C28.7649 136.619 26.7659 136.898 24.8057 137.361C24.8057 137.361 28.305 152.564 49.1188 157.453C49.1188 157.453 54.0735 144.839 52.5967 139.747C52.5967 139.736 51.441 139.34 49.5148 138.837Z" fill="#92FFF9"/>
</g>
<g style="mix-blend-mode:screen">
<path d="M43.9819 114.937V116.21L53.4097 120.286C53.4097 120.286 51.9115 126.438 56.5023 126.705C61.0932 126.973 63.212 122.426 63.212 122.426H63.822L64.357 120.853L43.9819 114.937ZM56.7164 125.774C54.0625 125.689 55.1433 120.339 55.1433 120.339L61.96 122.019C61.96 122.019 59.3275 125.86 56.7164 125.774Z" fill="#92FFF9"/>
</g>
<path d="M113.594 400.881C137.151 400.881 156.249 381.788 156.249 358.236C156.249 334.684 137.151 315.591 113.594 315.591C90.0358 315.591 70.9385 334.684 70.9385 358.236C70.9385 381.788 90.0358 400.881 113.594 400.881Z" fill="url(#paint11_radial)"/>
<path d="M132.524 339.502L110.704 335.415L102.849 374.572C102.849 374.572 125.322 372.689 125.568 372.561C125.814 372.433 132.524 339.502 132.524 339.502Z" fill="#17042B"/>
<g style="mix-blend-mode:screen">
<path d="M34.6077 318.918C9.63109 318.918 0 331.136 0 338.839C0 346.542 7.42664 406.626 7.42664 406.626H64.2822C64.2822 406.626 68.1667 352.063 71.666 336.015C72.6184 331.66 55.336 318.918 34.6077 318.918Z" fill="#0101C5"/>
</g>
<path style="mix-blend-mode:screen" d="M0 338.839C0 338.839 5.35061 388.053 8.49676 388.951C11.6429 389.85 60.2157 378.146 60.2157 378.146L59.3382 371.245L22.1408 371.416L20.7282 337.384C20.7282 337.384 6.73106 329.798 0 338.839Z" fill="url(#paint12_linear)"/>
<path style="mix-blend-mode:screen" d="M71.3022 334.41C68.589 333.221 65.6294 332.702 62.6735 332.898C59.7176 333.093 56.8522 333.997 54.3193 335.533C54.3193 335.533 61.8744 389.369 65.8873 390.193C69.9003 391.016 106.391 382.757 106.391 382.757L105.321 376.488L77.6801 376.145C77.6801 376.145 72.7682 335.03 71.3022 334.41Z" fill="url(#paint13_linear)"/>
<g style="mix-blend-mode:screen">
<path d="M59.3384 371.246C59.3384 371.246 76.2784 364.099 88.9165 373.193V375.429L60.2159 378.146L59.3384 371.246Z" fill="#F9BF5A"/>
</g>
<path d="M125.568 372.562C125.325 373.252 124.897 373.862 124.331 374.326C123.765 374.79 123.083 375.09 122.358 375.193C119.79 375.664 71.0777 378.681 71.0777 378.681C71.0777 378.681 69.1728 377.836 69.0444 377.012L125.568 372.562Z" fill="#17042B"/>
<g style="mix-blend-mode:screen">
<path d="M105.332 376.488L111.346 355.486L117.371 356.428C117.371 356.428 126.349 374.723 106.391 382.757L105.332 376.488Z" fill="#F9BF5A"/>
</g>
<path style="mix-blend-mode:screen" d="M66.4544 296.536C66.4544 296.536 59.2952 320.48 55.9993 320.779C53.9124 320.937 51.8179 320.596 49.8889 319.784L46.1542 332.869C46.1542 332.869 30.4662 327.519 30.4341 319.656L35.881 305.983C33.3587 300.729 32.8931 294.723 34.5755 289.143C37.3364 279.514 56.9517 270.731 72.4577 285.581C72.4577 285.559 76.3851 292.31 66.4544 296.536Z" fill="url(#paint14_linear)"/>
<path d="M72.6185 285.463C65.4059 278.562 56.2564 275.962 47.5028 278.326C41.0821 280.07 35.7315 284.403 34.4259 289.111C32.759 294.671 33.1971 300.65 35.6566 305.908V306.004L38.2784 306.143L38.1606 305.876C38.1606 305.811 35.3676 299.103 37.0263 296.718C37.2547 296.418 37.5579 296.185 37.9055 296.04C38.2531 295.895 38.6327 295.845 39.006 295.894C39.4227 295.886 39.835 295.979 40.2078 296.166C40.5805 296.352 40.9025 296.626 41.1463 296.964C42.9548 299.606 40.7931 306.09 40.7717 306.154L40.7182 306.314L43.8002 307.641L45.5338 301.703C50.1674 300.965 51.6228 295.99 51.9545 294.717C56.4383 296.932 66.4011 296.75 66.5188 296.75H66.5723C70.1037 295.252 72.3082 293.251 73.1215 290.833C73.3949 289.949 73.4913 289.019 73.405 288.098C73.3187 287.176 73.0514 286.281 72.6185 285.463Z" fill="#0C0514"/>
<path style="mix-blend-mode:screen" d="M72.6185 285.463C65.4059 278.562 56.2564 275.962 47.5028 278.326C41.0821 280.07 35.7315 284.403 34.4259 289.111C32.759 294.671 33.1971 300.65 35.6566 305.908V306.004L38.2784 306.143L38.1606 305.876C38.1606 305.811 35.3676 299.103 37.0263 296.718C37.2547 296.418 37.5579 296.185 37.9055 296.04C38.2531 295.895 38.6327 295.845 39.006 295.894C39.4227 295.886 39.835 295.979 40.2078 296.166C40.5805 296.352 40.9025 296.626 41.1463 296.964C42.9548 299.606 40.7931 306.09 40.7717 306.154L40.7182 306.314L43.8002 307.641L45.5338 301.703C50.1674 300.965 51.6228 295.99 51.9545 294.717C56.4383 296.932 66.4011 296.75 66.5188 296.75H66.5723C70.1037 295.252 72.3082 293.251 73.1215 290.833C73.3949 289.949 73.4913 289.019 73.405 288.098C73.3187 287.176 73.0514 286.281 72.6185 285.463Z" fill="url(#paint15_linear)"/>
<g style="mix-blend-mode:screen">
<path d="M59.3381 371.245L60.2156 378.146L49.3324 380.724L48.0376 371.245H59.3381Z" fill="#92FFF9"/>
</g>
<g style="mix-blend-mode:screen">
<path d="M105.332 376.477L106.392 382.757L95.7973 385.078L94.77 377.183L105.332 376.477Z" fill="#92FFF9"/>
</g>
<g style="mix-blend-mode:screen">
<path d="M49.5148 321.1L46.1546 332.869C46.1546 332.869 30.4666 327.519 30.4345 319.656L30.7769 318.789C28.7658 318.883 26.7672 319.159 24.8057 319.613C24.8057 319.613 28.305 334.869 49.1188 339.705C49.1188 339.705 54.0735 327.091 52.5967 321.999C52.5967 322.031 51.441 321.614 49.5148 321.1Z" fill="#92FFF9"/>
</g>
<path d="M392.798 194.728L375.719 197.862L380.642 201.147L317.462 242.583L318.885 244.755L382.076 203.329L383.125 209.149L392.798 194.728Z" fill="#1A14F7"/>
<path d="M217.427 295.819L200.348 298.943L205.271 302.228L142.08 343.664L143.514 345.836L206.694 304.41L207.743 310.23L217.427 295.819Z" fill="#1A14F7"/>
<path d="M561.92 242.583L498.741 201.147L503.663 197.862L486.573 194.728L496.258 209.149L497.307 203.329L560.487 244.755L561.92 242.583Z" fill="#1A14F7"/>
<path d="M395.87 137.971L332.69 96.5345L337.612 93.25L320.522 90.1152L330.207 104.537L331.256 98.717L394.446 140.142L395.87 137.971Z" fill="#1A14F7"/>
<path d="M392.798 345.836L383.125 331.425L382.076 337.245L318.885 295.819L317.462 297.991L380.642 339.417L375.719 342.712L392.798 345.836Z" fill="#1A14F7"/>
<path d="M483.588 348.735L494.203 334.987L494.867 340.861L560.637 303.672L561.921 305.94L496.151 343.129L500.849 346.734L483.588 348.735Z" fill="#1A14F7"/>
<path d="M562.06 117.365L551.455 131.113L550.792 125.239L485.022 162.428L483.738 160.16L549.507 122.971L544.81 119.366L562.06 117.365Z" fill="#1A14F7"/>
<path d="M217.427 244.755L207.743 230.333L206.694 236.164L143.514 194.728L142.08 196.91L205.271 238.335L200.348 241.62L217.427 244.755Z" fill="#1A14F7"/>
<g style="mix-blend-mode:screen">
<path d="M271.468 308.497C293.04 308.497 310.528 291.014 310.528 269.447C310.528 247.88 293.04 230.396 271.468 230.396C249.896 230.396 232.409 247.88 232.409 269.447C232.409 291.014 249.896 308.497 271.468 308.497Z" fill="#24ECA5"/>
</g>
<g style="mix-blend-mode:screen">
<path d="M437.487 404.839C459.059 404.839 476.547 387.355 476.547 365.789C476.547 344.222 459.059 326.738 437.487 326.738C415.915 326.738 398.428 344.222 398.428 365.789C398.428 387.355 415.915 404.839 437.487 404.839Z" fill="#0101C5"/>
</g>
<g style="mix-blend-mode:screen">
<path d="M610.333 308.497C631.905 308.497 649.392 291.014 649.392 269.447C649.392 247.88 631.905 230.396 610.333 230.396C588.761 230.396 571.273 247.88 571.273 269.447C571.273 291.014 588.761 308.497 610.333 308.497Z" fill="#24ECA5"/>
</g>
<path style="mix-blend-mode:screen" d="M290.394 288.371C310.182 268.588 317.747 244.076 307.291 233.622C296.835 223.169 272.317 230.732 252.529 250.515C232.741 270.298 225.176 294.81 235.632 305.264C246.088 315.718 270.606 308.154 290.394 288.371Z" fill="url(#paint16_linear)"/>
<path style="mix-blend-mode:screen" d="M629.261 288.379C649.049 268.595 656.614 244.084 646.158 233.63C635.702 223.176 611.184 230.74 591.396 250.523C571.608 270.306 564.043 294.818 574.499 305.272C584.955 315.725 609.473 308.162 629.261 288.379Z" fill="url(#paint17_linear)"/>
<path d="M254.4 269.982V269.415C254.4 256.02 260.107 249.322 271.522 249.322C273.713 249.298 275.89 249.679 277.943 250.446C279.622 251.049 281.181 251.948 282.544 253.099C283.77 254.238 284.785 255.586 285.541 257.079C286.265 258.418 286.881 259.814 287.381 261.251C287.787 262.611 288.07 264.003 288.227 265.413C288.43 266.986 288.537 267.97 288.537 268.377V270.056L288.387 272.806H260.04C260.393 276.711 261.591 279.557 263.624 281.365C265.658 283.173 268.675 284.008 272.678 284.008C278.314 284.008 282.758 283.045 286.011 281.119V286.907C281.725 288.824 277.061 289.749 272.367 289.614H272.143C270.025 289.637 267.914 289.364 265.872 288.801C263.85 288.188 261.952 287.224 260.264 285.955C258.279 284.386 256.792 282.275 255.984 279.878C254.856 276.703 254.319 273.349 254.4 269.982ZM260.05 267.842H282.876C282.864 266.842 282.757 265.846 282.555 264.868C282.234 263.434 281.801 262.029 281.26 260.663C280.57 258.903 279.342 257.405 277.75 256.384C275.879 255.187 273.688 254.587 271.468 254.661C267.595 254.661 264.787 255.667 263.047 257.678C261.302 259.636 260.296 263.038 260.04 267.81L260.05 267.842Z" fill="#0C0514"/>
<path d="M448.691 124.479C448.333 127.206 446.996 129.709 444.929 131.522C442.862 133.336 440.205 134.335 437.455 134.335C434.705 134.335 432.048 133.336 429.981 131.522C427.914 129.709 426.577 127.206 426.219 124.479C420.392 126.219 415.053 129.297 410.627 133.466C412.773 135.149 414.239 137.549 414.757 140.225C415.275 142.902 414.808 145.676 413.444 148.036C412.08 150.397 409.91 152.186 407.332 153.075C404.754 153.963 401.942 153.892 399.412 152.874C398.01 158.794 398.01 164.96 399.412 170.88C401.941 169.868 404.75 169.801 407.323 170.692C409.897 171.583 412.063 173.372 413.425 175.73C414.786 178.089 415.252 180.859 414.736 183.532C414.22 186.206 412.758 188.604 410.616 190.287C415.037 194.466 420.378 197.548 426.208 199.285C426.566 196.559 427.903 194.056 429.97 192.242C432.038 190.429 434.694 189.429 437.444 189.429C440.194 189.429 442.851 190.429 444.918 192.242C446.986 194.056 448.323 196.559 448.681 199.285C454.509 197.549 459.849 194.471 464.272 190.298C462.126 188.616 460.66 186.216 460.142 183.539C459.625 180.862 460.091 178.089 461.455 175.728C462.819 173.368 464.99 171.578 467.567 170.69C470.145 169.801 472.958 169.872 475.487 170.89C476.889 164.97 476.889 158.805 475.487 152.885C472.958 153.896 470.15 153.963 467.576 153.072C465.002 152.181 462.836 150.392 461.474 148.034C460.113 145.676 459.647 142.906 460.163 140.232C460.679 137.558 462.142 135.16 464.283 133.477C459.862 129.299 454.522 126.217 448.691 124.479ZM452.137 170.345C450.464 173.242 447.969 175.578 444.968 177.057C441.967 178.536 438.595 179.093 435.278 178.656C431.96 178.22 428.847 176.81 426.331 174.604C423.815 172.399 422.01 169.497 421.144 166.266C420.278 163.035 420.389 159.619 421.464 156.452C422.539 153.284 424.53 150.506 427.184 148.469C429.838 146.432 433.037 145.228 436.375 145.008C439.714 144.789 443.043 145.564 445.941 147.236C447.867 148.345 449.555 149.823 450.909 151.585C452.263 153.348 453.256 155.359 453.832 157.506C454.407 159.652 454.554 161.891 454.263 164.094C453.972 166.297 453.25 168.421 452.137 170.345Z" fill="#24ECA5"/>
<g style="mix-blend-mode:screen">
<path d="M490.18 98.6738C489.965 100.158 489.223 101.515 488.089 102.497C486.955 103.478 485.505 104.019 484.005 104.019C482.505 104.019 481.055 103.478 479.921 102.497C478.787 101.515 478.045 100.158 477.83 98.6738C474.631 99.6388 471.7 101.335 469.269 103.627C470.454 104.553 471.264 105.876 471.55 107.351C471.837 108.827 471.581 110.356 470.83 111.658C470.078 112.96 468.882 113.946 467.461 114.437C466.04 114.927 464.489 114.888 463.095 114.326C462.318 117.586 462.318 120.983 463.095 124.244C464.489 123.682 466.04 123.643 467.461 124.133C468.882 124.623 470.078 125.61 470.83 126.912C471.581 128.214 471.837 129.743 471.55 131.219C471.264 132.694 470.454 134.016 469.269 134.942C471.696 137.243 474.628 138.943 477.83 139.907C478.045 138.422 478.787 137.065 479.921 136.084C481.055 135.102 482.505 134.562 484.005 134.562C485.505 134.562 486.955 135.102 488.089 136.084C489.223 137.065 489.965 138.422 490.18 139.907C493.38 138.938 496.31 137.238 498.741 134.942C497.556 134.016 496.746 132.694 496.46 131.219C496.173 129.743 496.429 128.214 497.18 126.912C497.932 125.61 499.128 124.623 500.549 124.133C501.97 123.643 503.521 123.682 504.915 124.244C505.686 120.983 505.686 117.587 504.915 114.326C503.521 114.888 501.97 114.927 500.549 114.437C499.128 113.946 497.932 112.96 497.18 111.658C496.429 110.356 496.173 108.827 496.46 107.351C496.746 105.876 497.556 104.553 498.741 103.627C497.529 102.481 496.186 101.482 494.738 100.653C493.299 99.8217 491.77 99.1577 490.18 98.6738ZM492.084 123.944C491.163 125.544 489.788 126.834 488.132 127.652C486.477 128.47 484.616 128.778 482.786 128.538C480.955 128.298 479.237 127.521 477.848 126.304C476.459 125.088 475.463 123.487 474.985 121.704C474.507 119.921 474.569 118.036 475.162 116.288C475.756 114.54 476.855 113.008 478.32 111.885C479.786 110.761 481.551 110.098 483.394 109.978C485.236 109.859 487.073 110.288 488.671 111.213C490.81 112.45 492.371 114.486 493.011 116.873C493.651 119.259 493.318 121.803 492.084 123.944Z" fill="#0101C5"/>
</g>
<path style="mix-blend-mode:screen" d="M437.487 185.901C450.749 185.901 461.501 175.152 461.501 161.893C461.501 148.633 450.749 137.885 437.487 137.885C424.225 137.885 413.474 148.633 413.474 161.893C413.474 175.152 424.225 185.901 437.487 185.901Z" fill="url(#paint18_linear)"/>
<path d="M437.541 375.075L452.34 366.291L437.541 341.288V341.106L437.476 341.192L437.423 341.106V341.288L422.623 366.291L437.423 375.075V375.139L437.476 375.107L437.541 375.139V375.075Z" fill="#24ECA5"/>
<g style="mix-blend-mode:multiply">
<path d="M437.476 359.669L422.623 366.324L437.476 375.139L452.34 366.324L437.476 359.669Z" fill="#4D9EFF"/>
</g>
<path d="M437.541 390.321L452.34 369.747L437.476 378.477L422.623 369.747L437.423 390.321V390.47L437.476 390.396L437.541 390.47V390.321Z" fill="#24ECA5"/>
<path d="M617.332 133.306C654.152 133.306 684 103.464 684 66.6529C684 29.8415 654.152 0 617.332 0C580.512 0 550.663 29.8415 550.663 66.6529C550.663 103.464 580.512 133.306 617.332 133.306Z" fill="url(#paint19_radial)"/>
<path d="M571.969 161.7V146.08H576.87C581.757 146.08 584.204 148.683 584.211 153.89C584.219 159.097 581.772 161.7 576.87 161.7H571.969ZM573.66 160.117H576.795C577.589 160.186 578.389 160.088 579.142 159.83C579.896 159.573 580.588 159.16 581.172 158.619C582.081 157.209 582.564 155.567 582.564 153.89C582.564 152.213 582.081 150.571 581.172 149.161C580.589 148.617 579.899 148.2 579.145 147.938C578.391 147.677 577.591 147.576 576.795 147.642H573.703L573.66 160.117Z" fill="#24ECA5"/>
<path d="M586.426 158.116C586.419 157.629 586.522 157.146 586.726 156.704C586.892 156.319 587.136 155.973 587.443 155.687C587.758 155.405 588.12 155.18 588.513 155.024C588.887 154.858 589.273 154.722 589.669 154.617C590.063 154.524 590.464 154.456 590.867 154.414L591.852 154.339H592.547L594.42 154.446C594.462 154.027 594.406 153.603 594.255 153.21C594.105 152.816 593.864 152.463 593.553 152.178C592.804 151.673 591.908 151.432 591.006 151.493C589.84 151.478 588.681 151.67 587.582 152.06V150.424C588.709 150.022 589.896 149.815 591.092 149.814C592.458 149.721 593.806 150.167 594.848 151.055C595.3 151.541 595.647 152.115 595.868 152.74C596.088 153.366 596.179 154.03 596.132 154.692V158.202C596.153 158.876 595.974 159.543 595.618 160.117C595.298 160.627 594.832 161.029 594.281 161.272C593.789 161.488 593.276 161.653 592.75 161.764C592.285 161.852 591.812 161.898 591.338 161.903C590.98 161.897 590.623 161.872 590.268 161.828C589.83 161.769 589.4 161.665 588.984 161.518C588.543 161.367 588.125 161.154 587.742 160.887C587.368 160.601 587.061 160.235 586.843 159.817C586.567 159.293 586.423 158.709 586.426 158.116ZM588.128 158.116C588.128 159.542 589.198 160.256 591.338 160.256C593.403 160.256 594.441 159.55 594.441 158.116V155.869C593.754 155.772 593.06 155.729 592.365 155.741C589.562 155.784 588.16 156.575 588.16 158.116H588.128Z" fill="#24ECA5"/>
<path d="M597.78 151.557V150.006H599.814V146.7H601.515V150.006H604.533V151.557H601.515V158.683C601.489 158.906 601.509 159.132 601.574 159.347C601.638 159.562 601.746 159.762 601.89 159.935C602.262 160.219 602.729 160.35 603.195 160.298C603.656 160.303 604.112 160.208 604.533 160.02V161.614C604.057 161.795 603.554 161.889 603.045 161.892C602.736 161.89 602.427 161.854 602.125 161.785C601.772 161.698 601.434 161.561 601.119 161.379C600.708 161.133 600.392 160.756 600.22 160.309C599.97 159.755 599.849 159.151 599.867 158.544V151.504L597.78 151.557Z" fill="#24ECA5"/>
<path d="M606.352 158.116C606.342 157.63 606.441 157.147 606.641 156.704C606.812 156.322 607.055 155.976 607.358 155.688C607.674 155.406 608.036 155.182 608.428 155.024C608.801 154.855 609.187 154.719 609.584 154.618C609.975 154.524 610.372 154.456 610.772 154.414L611.756 154.34H612.452L614.325 154.447C614.368 154.028 614.313 153.605 614.165 153.211C614.016 152.818 613.778 152.464 613.469 152.178C612.715 151.674 611.816 151.433 610.911 151.494C609.748 151.478 608.592 151.67 607.497 152.061V150.424C608.632 150.007 609.83 149.789 611.039 149.782C612.402 149.688 613.748 150.133 614.785 151.023C615.24 151.507 615.59 152.08 615.813 152.706C616.036 153.332 616.127 153.998 616.08 154.661V158.17C616.102 158.846 615.919 159.514 615.555 160.085C615.237 160.597 614.771 161 614.218 161.24C613.726 161.458 613.213 161.623 612.687 161.732C612.222 161.821 611.749 161.868 611.275 161.871C610.917 161.866 610.56 161.841 610.205 161.797C609.762 161.759 609.325 161.677 608.899 161.551C608.457 161.401 608.039 161.189 607.658 160.919C607.281 160.635 606.974 160.269 606.759 159.849C606.481 159.315 606.341 158.719 606.352 158.116ZM608.043 158.116C608.043 159.543 609.113 160.256 611.253 160.256C613.329 160.256 614.367 159.543 614.367 158.116V155.869C613.659 155.77 612.943 155.727 612.227 155.741C609.438 155.784 608.043 156.576 608.043 158.116Z" fill="#24ECA5"/>
<path d="M619.054 158.191V145.502H620.745V150.241C621.671 149.922 622.644 149.76 623.624 149.76C624.13 149.761 624.635 149.807 625.132 149.899C625.635 150.005 626.118 150.185 626.566 150.434C627.046 150.711 627.47 151.073 627.819 151.504C628.213 152.013 628.504 152.595 628.675 153.216C628.9 154.027 629.008 154.866 628.996 155.709C629.013 156.624 628.89 157.537 628.632 158.415C628.454 159.064 628.156 159.673 627.754 160.213C627.404 160.649 626.971 161.013 626.481 161.283C626.058 161.525 625.599 161.698 625.122 161.796C624.702 161.873 624.275 161.912 623.848 161.914C623.097 161.93 622.349 161.821 621.633 161.593C621.118 161.449 620.637 161.201 620.221 160.865C619.906 160.59 619.648 160.255 619.461 159.881C619.298 159.586 619.179 159.269 619.108 158.94C619.073 158.691 619.055 158.441 619.054 158.191ZM620.745 158.287C620.745 159.656 621.815 160.341 623.848 160.341C624.242 160.35 624.636 160.299 625.015 160.191C625.405 160.069 625.768 159.873 626.085 159.614C626.519 159.241 626.829 158.744 626.973 158.191C627.197 157.386 627.301 156.554 627.283 155.719C627.382 154.554 627.076 153.39 626.417 152.424C626.057 152.047 625.617 151.756 625.13 151.571C624.644 151.386 624.121 151.312 623.602 151.354C622.614 151.359 621.637 151.555 620.724 151.932L620.745 158.287Z" fill="#24ECA5"/>
<path d="M631.232 158.116C631.222 157.63 631.321 157.147 631.521 156.704C631.695 156.324 631.938 155.979 632.238 155.688C632.555 155.409 632.917 155.184 633.308 155.024C633.681 154.855 634.067 154.719 634.464 154.618C634.855 154.524 635.252 154.456 635.652 154.415L636.636 154.34H637.332L639.215 154.447C639.257 154.027 639.201 153.604 639.051 153.21C638.9 152.816 638.66 152.463 638.349 152.179C637.595 151.674 636.696 151.433 635.791 151.494C634.628 151.479 633.472 151.671 632.377 152.061V150.424C633.504 150.021 634.691 149.815 635.887 149.814C637.25 149.72 638.596 150.166 639.633 151.055C640.088 151.539 640.438 152.112 640.661 152.739C640.884 153.365 640.974 154.03 640.927 154.693V158.202C640.95 158.879 640.767 159.546 640.403 160.117C640.085 160.629 639.619 161.032 639.065 161.272C638.574 161.49 638.061 161.655 637.535 161.765C637.069 161.853 636.597 161.9 636.123 161.904C635.765 161.898 635.408 161.873 635.053 161.829C634.615 161.769 634.185 161.665 633.768 161.519C633.326 161.369 632.908 161.157 632.527 160.887C632.15 160.603 631.843 160.237 631.628 159.817C631.359 159.291 631.223 158.707 631.232 158.116ZM632.923 158.116C632.923 159.543 633.993 160.256 636.133 160.256C638.209 160.256 639.247 159.543 639.247 158.116V155.87C638.539 155.77 637.823 155.727 637.107 155.741C634.318 155.784 632.923 156.576 632.923 158.116Z" fill="#24ECA5"/>
<path d="M643.218 153.184C643.219 152.734 643.314 152.288 643.499 151.877C643.683 151.466 643.952 151.099 644.288 150.798C645.159 150.061 646.285 149.696 647.423 149.782C648.463 149.791 649.488 150.036 650.42 150.499V152.178C649.573 151.657 648.599 151.38 647.605 151.376C645.839 151.376 644.962 151.975 644.962 153.163C644.96 153.37 645.019 153.574 645.131 153.749C645.243 153.923 645.404 154.062 645.593 154.147C646.09 154.419 646.618 154.627 647.166 154.768C647.794 154.928 648.412 155.124 649.018 155.356C649.642 155.587 650.188 155.992 650.591 156.522C651.058 157.134 651.29 157.893 651.244 158.662C651.261 159.124 651.166 159.584 650.967 160.001C650.767 160.419 650.469 160.781 650.099 161.058C649.174 161.685 648.068 161.99 646.952 161.925C645.715 161.94 644.494 161.634 643.41 161.037V159.25C644.443 159.924 645.644 160.295 646.877 160.32C648.654 160.32 649.542 159.775 649.542 158.694C649.553 158.434 649.501 158.174 649.391 157.938C649.281 157.702 649.117 157.495 648.911 157.335C648.442 156.984 647.907 156.733 647.338 156.597C646.717 156.426 646.107 156.255 645.486 156.051C644.884 155.868 644.341 155.529 643.913 155.067C643.675 154.817 643.49 154.522 643.37 154.198C643.251 153.874 643.199 153.529 643.218 153.184Z" fill="#24ECA5"/>
<path d="M653.202 156.008V155.837C653.202 151.814 654.91 149.803 658.328 149.803C658.989 149.795 659.646 149.911 660.265 150.145C660.771 150.326 661.242 150.594 661.656 150.937C662.021 151.283 662.325 151.688 662.555 152.135C662.772 152.536 662.955 152.955 663.1 153.387C663.222 153.796 663.307 154.215 663.357 154.639C663.421 155.11 663.454 155.409 663.454 155.527V156.03L663.4 156.854H654.914C654.925 157.813 655.309 158.73 655.984 159.411C656.765 159.993 657.73 160.274 658.702 160.202C660.09 160.274 661.471 159.975 662.705 159.336V161.08C661.42 161.652 660.023 161.93 658.617 161.893H658.542C657.906 161.897 657.272 161.814 656.658 161.647C656.054 161.459 655.485 161.17 654.978 160.791C654.38 160.317 653.931 159.682 653.683 158.961C653.345 158.014 653.182 157.014 653.202 156.008ZM654.903 155.356H661.752C661.749 155.054 661.716 154.753 661.656 154.457C661.56 154.027 661.431 153.605 661.271 153.195C661.061 152.663 660.686 152.212 660.2 151.911C659.639 151.552 658.982 151.373 658.317 151.397C657.856 151.356 657.392 151.415 656.956 151.57C656.52 151.726 656.123 151.973 655.791 152.296C655.181 153.197 654.873 154.268 654.914 155.356H654.903Z" fill="#24ECA5"/>
<path d="M617.331 80.9144C641.634 80.9144 661.335 74.5293 661.335 66.653C661.335 58.7766 641.634 52.3916 617.331 52.3916C593.029 52.3916 573.328 58.7766 573.328 66.653C573.328 74.5293 593.029 80.9144 617.331 80.9144Z" fill="#24ECA5"/>
<path style="mix-blend-mode:screen" d="M617.331 95.1761C641.634 95.1761 661.335 88.791 661.335 80.9147C661.335 73.0384 641.634 66.6533 617.331 66.6533C593.029 66.6533 573.328 73.0384 573.328 80.9147C573.328 88.791 593.029 95.1761 617.331 95.1761Z" fill="url(#paint20_linear)"/>
<g style="mix-blend-mode:screen">
<path d="M617.331 115.14C641.634 115.14 661.335 108.755 661.335 100.879C661.335 93.0022 641.634 86.6172 617.331 86.6172C593.029 86.6172 573.328 93.0022 573.328 100.879C573.328 108.755 593.029 115.14 617.331 115.14Z" fill="#0101C5"/>
</g>
<path style="mix-blend-mode:screen" d="M617.331 129.39C641.634 129.39 661.335 123.005 661.335 115.129C661.335 107.252 641.634 100.867 617.331 100.867C593.029 100.867 573.328 107.252 573.328 115.129C573.328 123.005 593.029 129.39 617.331 129.39Z" fill="url(#paint21_linear)"/>
<path style="mix-blend-mode:screen" d="M661.335 66.6533H573.328V115.129H661.335V66.6533Z" fill="url(#paint22_linear)"/>
<path d="M626.075 265.991L605.122 253.838C604.515 253.486 603.826 253.3 603.124 253.3C602.423 253.299 601.734 253.483 601.126 253.834C600.519 254.184 600.014 254.688 599.663 255.296C599.313 255.903 599.128 256.592 599.129 257.293V281.611C599.13 282.312 599.316 282.999 599.667 283.605C600.019 284.211 600.524 284.714 601.131 285.063C601.738 285.412 602.427 285.595 603.127 285.594C603.828 285.593 604.515 285.407 605.122 285.056L626.075 272.903C626.678 272.55 627.18 272.046 627.528 271.439C627.876 270.833 628.059 270.146 628.059 269.447C628.059 268.748 627.876 268.061 627.528 267.455C627.18 266.848 626.678 266.344 626.075 265.991Z" fill="#0C0514"/>
<g style="mix-blend-mode:screen">
<path d="M292.86 67.7978V65.0483H296.659V62.1382L271.468 43.5225L246.267 62.1382V65.0483H250.066V67.7978H252.624V86.3601H247.615V92.0732H295.354V86.3601H290.345V67.7978H292.86ZM258.755 86.3601V67.7978H261.302V65.0483H265.85V67.7978H268.397V86.3601H258.755ZM284.171 86.3601H274.54V67.7978H277.097V65.0483H281.635V67.7978H284.181L284.171 86.3601Z" fill="#24ECA5"/>
</g>
<path d="M218.155 143.427V126.309H229.006V128.052H220.017V133.969H227.936V135.766H220.017V141.693H229.006V143.437L218.155 143.427Z" fill="#24ECA5"/>
<path d="M231.146 143.426L235.726 136.932L231.285 130.609H233.425L236.786 135.36L240.146 130.609H242.404L238.016 136.943L242.575 143.362H240.349L236.914 138.484L233.479 143.362L231.146 143.426Z" fill="#24ECA5"/>
<path d="M244.897 136.997C244.869 135.863 245.054 134.735 245.443 133.67C245.724 132.861 246.233 132.151 246.909 131.626C247.475 131.198 248.113 130.876 248.793 130.674C249.488 130.475 250.209 130.378 250.933 130.385C252.232 130.39 253.52 130.633 254.732 131.102V132.846C253.593 132.37 252.371 132.126 251.136 132.129C250.533 132.076 249.925 132.152 249.353 132.351C248.782 132.55 248.259 132.868 247.819 133.285C247.125 134.41 246.757 135.707 246.757 137.029C246.757 138.351 247.125 139.648 247.819 140.774C248.259 141.19 248.782 141.508 249.353 141.707C249.925 141.906 250.533 141.982 251.136 141.929C252.373 141.94 253.599 141.688 254.732 141.191V142.978C253.52 143.443 252.231 143.679 250.933 143.673C250.369 143.674 249.807 143.624 249.253 143.523C248.69 143.402 248.149 143.196 247.648 142.913C247.11 142.622 246.634 142.23 246.246 141.758C245.809 141.186 245.485 140.536 245.293 139.843C245.02 138.919 244.886 137.96 244.897 136.997Z" fill="#24ECA5"/>
<path d="M257.899 143.427V125.731H259.751V131.198C260.975 130.674 262.292 130.398 263.625 130.385C264.298 130.346 264.972 130.452 265.6 130.698C266.228 130.943 266.795 131.322 267.263 131.808C268.215 132.941 268.694 134.397 268.601 135.874V143.47H266.739V135.874C266.739 133.477 265.647 132.279 263.464 132.279C262.202 132.293 260.955 132.555 259.794 133.049V143.47L257.899 143.427Z" fill="#24ECA5"/>
<path d="M271.811 139.49C271.802 138.955 271.912 138.425 272.132 137.938C272.321 137.535 272.586 137.171 272.913 136.868C273.263 136.555 273.665 136.305 274.101 136.13C274.511 135.956 274.933 135.81 275.363 135.692C275.792 135.583 276.228 135.511 276.669 135.478C277.183 135.478 277.536 135.392 277.739 135.392H278.499L280.554 135.52C280.6 135.06 280.539 134.596 280.375 134.164C280.212 133.731 279.951 133.342 279.612 133.028C278.784 132.479 277.799 132.219 276.808 132.289C275.534 132.272 274.266 132.478 273.063 132.899V131.102C274.3 130.666 275.603 130.441 276.915 130.439C278.41 130.339 279.884 130.826 281.024 131.797C281.521 132.328 281.902 132.955 282.146 133.64C282.389 134.325 282.488 135.052 282.437 135.777V139.629C282.463 140.382 282.265 141.127 281.87 141.768C281.495 142.295 280.974 142.701 280.372 142.935C279.833 143.178 279.27 143.361 278.692 143.48C278.18 143.577 277.661 143.627 277.14 143.63C276.736 143.625 276.332 143.6 275.931 143.555C275.452 143.486 274.983 143.367 274.529 143.202C274.042 143.048 273.583 142.817 273.17 142.517C272.749 142.196 272.409 141.783 272.174 141.308C271.911 140.74 271.786 140.116 271.811 139.49ZM273.673 139.49C273.673 141.084 274.828 141.886 277.151 141.886C279.419 141.886 280.564 141.116 280.564 139.565V137.104C279.792 136.986 279.012 136.932 278.231 136.943C275.171 136.943 273.63 137.799 273.63 139.49H273.673Z" fill="#24ECA5"/>
<path d="M286.14 143.427V131.594C287.825 130.759 289.684 130.33 291.565 130.343C292.942 130.256 294.299 130.704 295.353 131.594C295.81 132.043 296.165 132.585 296.394 133.183C296.622 133.781 296.72 134.422 296.68 135.061V143.406H294.829V135.061C294.832 134.736 294.793 134.412 294.711 134.098C294.619 133.775 294.47 133.471 294.273 133.199C294.006 132.845 293.63 132.59 293.202 132.472C292.611 132.284 291.993 132.197 291.373 132.215C290.234 132.225 289.102 132.398 288.012 132.728V143.427H286.14Z" fill="#24ECA5"/>
<path d="M300.49 136.943C300.463 135.783 300.644 134.627 301.025 133.53C301.297 132.723 301.804 132.015 302.48 131.498C303.005 131.108 303.591 130.808 304.214 130.61C304.774 130.446 305.354 130.363 305.937 130.364C306.875 130.34 307.808 130.496 308.687 130.824C309.322 131.042 309.872 131.454 310.26 132.001C310.516 132.39 310.721 132.811 310.87 133.252C310.969 133.6 311.02 133.96 311.02 134.322V143.951C311.042 145.04 310.661 146.1 309.95 146.925C309.486 147.435 308.889 147.805 308.227 147.995C307.319 148.272 306.372 148.402 305.423 148.38C304.193 148.372 302.968 148.217 301.774 147.92V146.176C302.9 146.488 304.063 146.643 305.231 146.636C305.922 146.648 306.612 146.576 307.285 146.422C307.739 146.327 308.157 146.109 308.494 145.791C308.717 145.561 308.892 145.288 309.008 144.989C309.103 144.677 309.15 144.352 309.147 144.026V142.742C308.177 143.06 307.161 143.219 306.14 143.213C305.605 143.218 305.072 143.171 304.546 143.074C304.015 142.963 303.506 142.768 303.037 142.496C302.529 142.229 302.078 141.866 301.71 141.426C301.301 140.884 300.996 140.271 300.811 139.618C300.573 138.747 300.465 137.846 300.49 136.943ZM302.341 136.943C302.321 137.746 302.426 138.548 302.652 139.319C302.799 139.864 303.113 140.351 303.551 140.709C303.903 140.991 304.312 141.195 304.749 141.308C305.211 141.419 305.686 141.47 306.162 141.458C307.193 141.46 308.214 141.26 309.169 140.87V134.226C309.169 132.792 308.099 132.086 305.958 132.086C305.542 132.083 305.127 132.141 304.728 132.257C304.318 132.393 303.937 132.604 303.604 132.878C303.154 133.276 302.837 133.803 302.694 134.386C302.447 135.216 302.328 136.078 302.341 136.943Z" fill="#24ECA5"/>
<path d="M314.369 137.179V136.997C314.369 132.589 316.242 130.385 319.987 130.385C320.718 130.374 321.444 130.501 322.128 130.76C322.682 130.956 323.196 131.249 323.647 131.627C324.049 132.005 324.383 132.45 324.632 132.942C324.87 133.381 325.07 133.839 325.231 134.312C325.369 134.759 325.466 135.217 325.52 135.681C325.584 136.195 325.616 136.527 325.616 136.655V137.211L325.563 138.11H316.253C316.259 139.163 316.682 140.171 317.43 140.913C318.285 141.55 319.341 141.858 320.405 141.78C321.926 141.858 323.441 141.529 324.792 140.827V142.742C323.383 143.369 321.851 143.673 320.309 143.63H320.234C319.536 143.634 318.842 143.544 318.168 143.363C317.502 143.164 316.878 142.845 316.328 142.421C315.665 141.911 315.17 141.214 314.904 140.421C314.529 139.382 314.348 138.283 314.369 137.179ZM316.231 136.473H323.722C323.719 136.143 323.687 135.813 323.626 135.489C323.519 135.018 323.376 134.557 323.198 134.109C322.995 133.524 322.613 133.019 322.106 132.664C321.49 132.272 320.771 132.075 320.041 132.097C319.534 132.05 319.024 132.115 318.545 132.287C318.066 132.459 317.63 132.734 317.269 133.092C316.559 134.073 316.194 135.262 316.231 136.473Z" fill="#24ECA5"/>
</g>
<defs>
<radialGradient id="paint0_radial" cx="0" cy="0" r="1" gradientUnits="userSpaceOnUse" gradientTransform="translate(261.989 67.816) rotate(-176.29) scale(60.7068 60.6927)">
<stop stop-color="#1A18CF"/>
<stop offset="0.15" stop-color="#142DCF" stop-opacity="0.74"/>
<stop offset="0.29" stop-color="#0F40CF" stop-opacity="0.52"/>
<stop offset="0.44" stop-color="#0B4FCF" stop-opacity="0.33"/>
<stop offset="0.59" stop-color="#085BCF" stop-opacity="0.19"/>
<stop offset="0.73" stop-color="#0663CF" stop-opacity="0.08"/>
<stop offset="0.87" stop-color="#0468CF" stop-opacity="0.02"/>
<stop offset="1" stop-color="#046ACF" stop-opacity="0"/>
</radialGradient>
<linearGradient id="paint1_linear" x1="230.325" y1="105.357" x2="301.967" y2="33.6987" gradientUnits="userSpaceOnUse">
<stop stop-color="#220047"/>
<stop offset="1" stop-color="#3F02C4"/>
</linearGradient>
<radialGradient id="paint2_radial" cx="0" cy="0" r="1" gradientUnits="userSpaceOnUse" gradientTransform="translate(-37094.5 -451988) scale(9369.43 9367.24)">
<stop stop-color="#1A18CF"/>
<stop offset="0.15" stop-color="#142DCF" stop-opacity="0.74"/>
<stop offset="0.29" stop-color="#0F40CF" stop-opacity="0.52"/>
<stop offset="0.44" stop-color="#0B4FCF" stop-opacity="0.33"/>
<stop offset="0.59" stop-color="#085BCF" stop-opacity="0.19"/>
<stop offset="0.73" stop-color="#0663CF" stop-opacity="0.08"/>
<stop offset="0.87" stop-color="#0468CF" stop-opacity="0.02"/>
<stop offset="1" stop-color="#046ACF" stop-opacity="0"/>
</radialGradient>
<radialGradient id="paint3_radial" cx="0" cy="0" r="1" gradientUnits="userSpaceOnUse" gradientTransform="translate(-52581 -343856) scale(5372.84 5371.58)">
<stop stop-color="#1A18CF"/>
<stop offset="0.15" stop-color="#142DCF" stop-opacity="0.74"/>
<stop offset="0.29" stop-color="#0F40CF" stop-opacity="0.52"/>
<stop offset="0.44" stop-color="#0B4FCF" stop-opacity="0.33"/>
<stop offset="0.59" stop-color="#085BCF" stop-opacity="0.19"/>
<stop offset="0.73" stop-color="#0663CF" stop-opacity="0.08"/>
<stop offset="0.87" stop-color="#0468CF" stop-opacity="0.02"/>
<stop offset="1" stop-color="#046ACF" stop-opacity="0"/>
</radialGradient>
<radialGradient id="paint4_radial" cx="0" cy="0" r="1" gradientUnits="userSpaceOnUse" gradientTransform="translate(-33623.7 -278902) scale(3711.4 3710.53)">
<stop stop-color="#1A18CF"/>
<stop offset="0.15" stop-color="#142DCF" stop-opacity="0.74"/>
<stop offset="0.29" stop-color="#0F40CF" stop-opacity="0.52"/>
<stop offset="0.44" stop-color="#0B4FCF" stop-opacity="0.33"/>
<stop offset="0.59" stop-color="#085BCF" stop-opacity="0.19"/>
<stop offset="0.73" stop-color="#0663CF" stop-opacity="0.08"/>
<stop offset="0.87" stop-color="#0468CF" stop-opacity="0.02"/>
<stop offset="1" stop-color="#046ACF" stop-opacity="0"/>
</radialGradient>
<radialGradient id="paint5_radial" cx="0" cy="0" r="1" gradientUnits="userSpaceOnUse" gradientTransform="translate(-41265.4 -366313) scale(5850.53 5849.16)">
<stop stop-color="#1A18CF"/>
<stop offset="0.15" stop-color="#142DCF" stop-opacity="0.74"/>
<stop offset="0.29" stop-color="#0F40CF" stop-opacity="0.52"/>
<stop offset="0.44" stop-color="#0B4FCF" stop-opacity="0.33"/>
<stop offset="0.59" stop-color="#085BCF" stop-opacity="0.19"/>
<stop offset="0.73" stop-color="#0663CF" stop-opacity="0.08"/>
<stop offset="0.87" stop-color="#0468CF" stop-opacity="0.02"/>
<stop offset="1" stop-color="#046ACF" stop-opacity="0"/>
</radialGradient>
<radialGradient id="paint6_radial" cx="0" cy="0" r="1" gradientUnits="userSpaceOnUse" gradientTransform="translate(113.594 175.961) rotate(180) scale(42.655 42.6451)">
<stop stop-color="#00FFCF"/>
<stop offset="0.12" stop-color="#01E7CF" stop-opacity="0.84"/>
<stop offset="0.37" stop-color="#02BBCF" stop-opacity="0.54"/>
<stop offset="0.59" stop-color="#0398CF" stop-opacity="0.31"/>
<stop offset="0.77" stop-color="#037FCF" stop-opacity="0.14"/>
<stop offset="0.91" stop-color="#0470CF" stop-opacity="0.04"/>
<stop offset="1" stop-color="#046ACF" stop-opacity="0"/>
</radialGradient>
<linearGradient id="paint7_linear" x1="46.0687" y1="210.026" x2="-3.77656" y2="160.169" gradientUnits="userSpaceOnUse">
<stop stop-color="#13D8FF"/>
<stop offset="0.13" stop-color="#11ABD8"/>
<stop offset="0.29" stop-color="#0E78AC"/>
<stop offset="0.45" stop-color="#0C4D88"/>
<stop offset="0.6" stop-color="#0A2D6C"/>
<stop offset="0.75" stop-color="#091557"/>
<stop offset="0.88" stop-color="#08074B"/>
<stop offset="1" stop-color="#080247"/>
</linearGradient>
<linearGradient id="paint8_linear" x1="54.3193" y1="179.289" x2="106.391" y2="179.289" gradientUnits="userSpaceOnUse">
<stop stop-color="#080209"/>
<stop offset="0.06" stop-color="#080221"/>
<stop offset="0.13" stop-color="#080236"/>
<stop offset="0.2" stop-color="#080243"/>
<stop offset="0.27" stop-color="#080247"/>
<stop offset="0.34" stop-color="#091053"/>
<stop offset="0.49" stop-color="#0B3371"/>
<stop offset="0.68" stop-color="#0E6DA3"/>
<stop offset="0.92" stop-color="#12BCE7"/>
<stop offset="1" stop-color="#13D8FF"/>
</linearGradient>
<linearGradient id="paint9_linear" x1="78.8215" y1="75.1495" x2="41.6829" y2="117.039" gradientUnits="userSpaceOnUse">
<stop stop-color="#FFE0A1"/>
<stop offset="0.13" stop-color="#FDDB9B"/>
<stop offset="0.29" stop-color="#F9CC8B"/>
<stop offset="0.48" stop-color="#F1B370"/>
<stop offset="0.68" stop-color="#E6914A"/>
<stop offset="0.9" stop-color="#D8661A"/>
<stop offset="1" stop-color="#D14F01"/>
</linearGradient>
<linearGradient id="paint10_linear" x1="33.4199" y1="110.261" x2="73.4103" y2="110.261" gradientUnits="userSpaceOnUse">
<stop stop-color="#0C0514" stop-opacity="0"/>
<stop offset="0.21" stop-color="#0C0A18" stop-opacity="0.08"/>
<stop offset="0.48" stop-color="#0B1924" stop-opacity="0.31"/>
<stop offset="0.79" stop-color="#0B3237" stop-opacity="0.68"/>
<stop offset="1" stop-color="#0A4748"/>
</linearGradient>
<radialGradient id="paint11_radial" cx="0" cy="0" r="1" gradientUnits="userSpaceOnUse" gradientTransform="translate(-538393 28874.1) scale(3400.46 3399.66)">
<stop stop-color="#00FFCF"/>
<stop offset="0.12" stop-color="#01E7CF" stop-opacity="0.84"/>
<stop offset="0.37" stop-color="#02BBCF" stop-opacity="0.54"/>
<stop offset="0.59" stop-color="#0398CF" stop-opacity="0.31"/>
<stop offset="0.77" stop-color="#037FCF" stop-opacity="0.14"/>
<stop offset="0.91" stop-color="#0470CF" stop-opacity="0.04"/>
<stop offset="1" stop-color="#046ACF" stop-opacity="0"/>
</radialGradient>
<linearGradient id="paint12_linear" x1="-376273" y1="20352.8" x2="-373742" y2="17560.8" gradientUnits="userSpaceOnUse">
<stop stop-color="#13D8FF"/>
<stop offset="0.13" stop-color="#11ABD8"/>
<stop offset="0.29" stop-color="#0E78AC"/>
<stop offset="0.45" stop-color="#0C4D88"/>
<stop offset="0.6" stop-color="#0A2D6C"/>
<stop offset="0.75" stop-color="#091557"/>
<stop offset="0.88" stop-color="#08074B"/>
<stop offset="1" stop-color="#080247"/>
</linearGradient>
<linearGradient id="paint13_linear" x1="2697.5" y1="19728.8" x2="5231.33" y2="19728.8" gradientUnits="userSpaceOnUse">
<stop stop-color="#080209"/>
<stop offset="0.06" stop-color="#080221"/>
<stop offset="0.13" stop-color="#080236"/>
<stop offset="0.2" stop-color="#080243"/>
<stop offset="0.27" stop-color="#080247"/>
<stop offset="0.34" stop-color="#091053"/>
<stop offset="0.49" stop-color="#0B3371"/>
<stop offset="0.68" stop-color="#0E6DA3"/>
<stop offset="0.92" stop-color="#12BCE7"/>
<stop offset="1" stop-color="#13D8FF"/>
</linearGradient>
<linearGradient id="paint14_linear" x1="-269787" y1="27002.9" x2="-267813" y2="28532.6" gradientUnits="userSpaceOnUse">
<stop stop-color="#FFE0A1"/>
<stop offset="0.13" stop-color="#FDDB9B"/>
<stop offset="0.29" stop-color="#F9CC8B"/>
<stop offset="0.48" stop-color="#F1B370"/>
<stop offset="0.68" stop-color="#E6914A"/>
<stop offset="0.9" stop-color="#D8661A"/>
<stop offset="1" stop-color="#D14F01"/>
</linearGradient>
<linearGradient id="paint15_linear" x1="1282.79" y1="8526.38" x2="2777.77" y2="8526.38" gradientUnits="userSpaceOnUse">
<stop stop-color="#0C0514" stop-opacity="0"/>
<stop offset="0.21" stop-color="#0C0A18" stop-opacity="0.08"/>
<stop offset="0.48" stop-color="#0B1924" stop-opacity="0.31"/>
<stop offset="0.79" stop-color="#0B3237" stop-opacity="0.68"/>
<stop offset="1" stop-color="#0A4748"/>
</linearGradient>
<linearGradient id="paint16_linear" x1="2923.91" y1="-113048" x2="9709.1" y2="-119835" gradientUnits="userSpaceOnUse">
<stop stop-color="#220047"/>
<stop offset="1" stop-color="#3F02C4"/>
</linearGradient>
<linearGradient id="paint17_linear" x1="27703.4" y1="-120837" x2="34488.6" y2="-127624" gradientUnits="userSpaceOnUse">
<stop stop-color="#220047"/>
<stop offset="1" stop-color="#3F02C4"/>
</linearGradient>
<linearGradient id="paint18_linear" x1="18970.2" y1="7403.63" x2="21125.1" y2="7403.63" gradientUnits="userSpaceOnUse">
<stop stop-color="#220047"/>
<stop offset="1" stop-color="#3F02C4"/>
</linearGradient>
<radialGradient id="paint19_radial" cx="0" cy="0" r="1" gradientUnits="userSpaceOnUse" gradientTransform="translate(-47544 -328026) scale(4485.46 4484.41)">
<stop stop-color="#1A18CF"/>
<stop offset="0.15" stop-color="#142DCF" stop-opacity="0.74"/>
<stop offset="0.29" stop-color="#0F40CF" stop-opacity="0.52"/>
<stop offset="0.44" stop-color="#0B4FCF" stop-opacity="0.33"/>
<stop offset="0.59" stop-color="#085BCF" stop-opacity="0.19"/>
<stop offset="0.73" stop-color="#0663CF" stop-opacity="0.08"/>
<stop offset="0.87" stop-color="#0468CF" stop-opacity="0.02"/>
<stop offset="1" stop-color="#046ACF" stop-opacity="0"/>
</radialGradient>
<linearGradient id="paint20_linear" x1="47723.8" y1="2223.83" x2="54961.5" y2="2223.83" gradientUnits="userSpaceOnUse">
<stop stop-color="#220047"/>
<stop offset="1" stop-color="#3F02C4"/>
</linearGradient>
<linearGradient id="paint21_linear" x1="573.328" y1="115.129" x2="661.335" y2="115.129" gradientUnits="userSpaceOnUse">
<stop stop-color="#0C0514"/>
<stop offset="1" stop-color="#3F02C4"/>
</linearGradient>
<linearGradient id="paint22_linear" x1="573.328" y1="90.8966" x2="661.335" y2="90.8966" gradientUnits="userSpaceOnUse">
<stop stop-color="#0C0514"/>
<stop offset="0.11" stop-color="#0E051B"/>
<stop offset="0.28" stop-color="#14052F"/>
<stop offset="0.48" stop-color="#1E0451"/>
<stop offset="0.71" stop-color="#2B037F"/>
<stop offset="0.96" stop-color="#3C02B9"/>
<stop offset="1" stop-color="#3F02C4"/>
</linearGradient>
<clipPath id="clip0">
<rect width="684" height="439" fill="white"/>
</clipPath>
</defs>
</svg>
