<svg xmlns="http://www.w3.org/2000/svg" width="139" height="36" fill="none" viewBox="0 0 139 36">
    <path fill="#454E72" d="M43.182 21.016h-5.949c-.501 0-.598.075-.643.569-.165 1.84-.315 3.674-.472 5.515-.18 2.132-.359 4.272-.546 6.405-.045.606-.344.868-.943.868h-4.19c-.621 0-.876-.247-.823-.868.15-1.9.314-3.801.471-5.702.165-1.923.337-3.846.509-5.77l.718-8.23.629-7.342c.06-.658.105-1.317.18-1.975.067-.546.359-.793.897-.793 1.422-.008 2.844-.008 4.266 0 .56 0 .83.284.785.845-.187 2.245-.381 4.498-.576 6.742-.127 1.475-.27 2.956-.389 4.43-.037.442.023.494.479.494h12.048c.456 0 .531-.067.576-.538.224-2.53.441-5.066.666-7.596.105-1.167.202-2.334.314-3.502.06-.636.344-.875.973-.883h4.078c.666 0 .906.285.853.966-.262 3.015-.516 6.038-.778 9.054-.284 3.255-.584 6.503-.868 9.758-.217 2.432-.412 4.871-.621 7.303-.082.928-.157 1.864-.24 2.792-.052.553-.351.815-.912.815h-4.19c-.592 0-.846-.254-.794-.86.127-1.632.27-3.255.412-4.88l.426-4.953c.06-.711.127-1.414.195-2.125.044-.45-.023-.532-.472-.539h-6.069zM111.473 32.741c-.052.337-.097.606-.135.876-.074.494-.351.756-.853.756-1.347.007-2.694.007-4.04 0-.539 0-.809-.33-.764-.868.195-2.208.382-4.423.569-6.63l.651-7.371c.187-2.163.359-4.318.546-6.48l.719-8.157c.03-.337.052-.674.089-1.003.053-.441.322-.718.764-.718 1.399-.008 2.791-.015 4.19 0 .472.007.704.284.666.8-.105 1.37-.224 2.732-.344 4.101-.15 1.766-.307 3.525-.464 5.29-.015.143-.022.285.127.367.165.09.315.015.449-.082 2.2-1.594 4.692-1.99 7.319-1.699 2.372.262 4.22 1.482 5.619 3.39 1.811 2.477 2.388 5.276 2.081 8.284-.27 2.671-1.123 5.126-2.776 7.266-1.647 2.125-3.72 3.6-6.406 4.07-1.931.337-3.846.218-5.702-.47-.449-.165-.853-.412-1.242-.674a5.862 5.862 0 0 1-1.063-1.048zM91.792 35.076c-2.222-.015-4.333-.441-6.204-1.714-2.252-1.526-3.621-3.659-4.085-6.323-.576-3.285-.112-6.458 1.616-9.339 2.327-3.876 5.837-5.784 10.35-5.881 1.78-.038 3.509.217 5.125.98 3.008 1.414 4.804 3.816 5.358 7.056.584 3.443.052 6.75-1.856 9.721-1.983 3.09-4.827 4.894-8.486 5.388-.434.06-.868.082-1.302.112-.172.015-.344 0-.516 0zM63.207 12.515h1.946c.598 0 .875.277.83.883-.15 1.878-.321 3.749-.479 5.627-.18 2.11-.426 4.213-.523 6.33-.038.861.022 1.722.262 2.553.553 1.9 1.945 2.604 3.794 2.447 2.027-.172 3.097-1.467 3.681-3.278.367-1.145.494-2.335.591-3.532.187-2.237.39-4.467.584-6.705.09-1.077.18-2.162.262-3.24.067-.875.292-1.085 1.167-1.085h3.592c.733 0 .973.24.906.98-.165 2.02-.345 4.049-.524 6.07-.21 2.341-.345 4.698-.666 7.033-.262 1.878-.883 3.63-2.073 5.134-1.287 1.623-3 2.559-4.999 2.993-2.35.509-4.7.523-7.026-.113-2.949-.808-4.602-2.776-5.119-5.747-.247-1.399-.18-2.806-.052-4.212.172-1.939.337-3.877.509-5.807.164-1.864.329-3.72.501-5.583.045-.456.36-.74.823-.74.666-.008 1.34-.008 2.013-.008zM16.079 11.595c.015 1.803-.711 3.232-1.729 4.557-.875 1.145-1.923 2.125-2.948 3.128-2.971 2.933-4.999 6.435-6.338 10.364-.27.778-.502 1.564-.674 2.372-.082.382-.15.404-.441.142-4.984-4.37-5.29-11.816-.689-16.59.591-.614 1.272-1.122 1.863-1.729 2.507-2.544 4.154-5.544 4.745-9.091.24-1.46.336-2.919.202-4.393-.015-.12-.075-.27.075-.337.142-.067.232.068.321.142 1.31 1.153 2.387 2.507 3.3 3.989 1.295 2.095 1.99 4.385 2.29 6.817.023.232.015.471.023.629z"/>
    <path fill="#24A9E2" d="M11.477 34.883c-1.243-.023-2.462-.247-3.675-.562-.172-.044-.314-.09-.262-.314.038-.18.023-.359.3-.389.65-.067 1.07-.441 1.235-1.07a4.69 4.69 0 0 0 .164-.846c.142-1.938 1.055-3.532 2.208-5.02 1.137-1.46 2.521-2.695 3.771-4.049 2.073-2.252 3.757-4.744 4.774-7.655.038-.112.038-.277.195-.292.172-.015.21.157.27.27.86 1.548 1.428 3.202 1.75 4.946.277 1.489.442 2.985.307 4.497-.292 3.367-1.713 6.136-4.437 8.179-1.946 1.467-4.131 2.282-6.6 2.305z"/>
    <path fill="#454E72" d="M133.668 34.373h-1.908c-.614 0-.876-.276-.823-.92.127-1.564.277-3.128.411-4.692l.719-8.343c.202-2.35.404-4.692.613-7.035.053-.59.367-.86.958-.86h3.854c.628 0 .89.27.838.905-.172 2.11-.367 4.22-.546 6.331-.27 3.09-.532 6.181-.801 9.271-.135 1.512-.269 3.031-.419 4.543-.052.553-.329.8-.876.8h-2.02zM135.777 10.352h-1.945c-.569 0-.838-.262-.801-.823.09-1.258.202-2.507.314-3.757.038-.426.36-.718.816-.726 1.37-.015 2.739-.015 4.108 0 .502.008.771.344.726.838a572.19 572.19 0 0 1-.344 3.682c-.052.524-.329.778-.861.786-.666.007-1.339 0-2.013 0z"/>
    <path fill="#27283A" d="M122.951 22.721c-.059 2.47-.838 4.617-2.798 6.226-1.699 1.392-4.572 1.557-6.189.33-1.347-1.033-2.11-2.41-2.319-4.079-.27-2.155.179-4.16 1.511-5.896 1.452-1.894 3.368-2.814 5.792-2.38 1.437.254 2.417 1.182 3.128 2.402a6.296 6.296 0 0 1 .875 3.397zM87.01 24.308c.015-2.133.584-4.063 2.088-5.642 1.557-1.639 3.472-2.2 5.657-1.691 1.55.351 2.522 1.444 3.106 2.85 1.07 2.605.703 5.104-.763 7.461-.779 1.243-1.841 2.215-3.3 2.59-1.894.479-3.682.284-5.156-1.145-1.07-1.04-1.542-2.358-1.632-3.832-.007-.194 0-.396 0-.59z"/>
</svg>
