<svg xmlns="http://www.w3.org/2000/svg" width="93" height="75" fill="none" viewBox="0 0 81 75">
    <path fill="url(#b)" d="M44.742 25.922a7.45 7.45 0 0 1 3.467 5.535 5.981 5.981 0 0 0 2.54.569 6.013 6.013 0 1 0 0-12.026 6.013 6.013 0 0 0-6.007 5.922zm-3.94 12.312a6.013 6.013 0 1 0-6.014-6.013 6.014 6.014 0 0 0 6.014 6.013zm2.551.41h-5.102c-4.246 0-7.7 3.454-7.7 7.7v6.24l.017.097.43.134c4.05 1.266 7.57 1.688 10.467 1.688 5.66 0 8.939-1.613 9.141-1.716l.402-.203h.043v-6.24c.001-4.246-3.453-7.7-7.698-7.7zm9.948-6.208h-5.063a7.41 7.41 0 0 1-2.287 5.162c3.774 1.122 6.535 4.621 6.535 8.755v1.922c4.999-.183 7.88-1.6 8.07-1.695l.401-.203H61v-6.242c0-4.245-3.454-7.699-7.699-7.699zm-23.05-.41c1.177 0 2.271-.343 3.198-.927a7.442 7.442 0 0 1 2.797-4.747c.007-.112.017-.224.017-.337a6.013 6.013 0 1 0-6.012 6.012zm5.4 5.572a7.415 7.415 0 0 1-2.285-5.133c-.188-.014-.374-.029-.565-.029h-5.102c-4.245 0-7.699 3.454-7.699 7.699v6.24l.016.097.43.135c3.25 1.015 6.15 1.483 8.67 1.63v-1.885c0-4.133 2.76-7.631 6.535-8.754z" filter="url(#a)" opacity=".5"/>
    <path fill="url(#c)" d="M44.742 25.922a7.45 7.45 0 0 1 3.467 5.535 5.981 5.981 0 0 0 2.54.569 6.013 6.013 0 1 0 0-12.026 6.013 6.013 0 0 0-6.007 5.922zm-3.94 12.312a6.013 6.013 0 1 0-6.014-6.013 6.014 6.014 0 0 0 6.014 6.013zm2.551.41h-5.102c-4.246 0-7.7 3.454-7.7 7.7v6.24l.017.097.43.134c4.05 1.266 7.57 1.688 10.467 1.688 5.66 0 8.939-1.613 9.141-1.716l.402-.203h.043v-6.24c.001-4.246-3.453-7.7-7.698-7.7zm9.948-6.208h-5.063a7.41 7.41 0 0 1-2.287 5.162c3.774 1.122 6.535 4.621 6.535 8.755v1.922c4.999-.183 7.88-1.6 8.07-1.695l.401-.203H61v-6.242c0-4.245-3.454-7.699-7.699-7.699zm-23.05-.41c1.177 0 2.271-.343 3.198-.927a7.442 7.442 0 0 1 2.797-4.747c.007-.112.017-.224.017-.337a6.013 6.013 0 1 0-6.012 6.012zm5.4 5.572a7.415 7.415 0 0 1-2.285-5.133c-.188-.014-.374-.029-.565-.029h-5.102c-4.245 0-7.699 3.454-7.699 7.699v6.24l.016.097.43.135c3.25 1.015 6.15 1.483 8.67 1.63v-1.885c0-4.133 2.76-7.631 6.535-8.754z"/>
    <defs>
        <filter id="a" width="81" height="81" x="0" y="-3.248" color-interpolation-filters="sRGB" filterUnits="userSpaceOnUse">
            <feFlood flood-opacity="0" result="BackgroundImageFix"/>
            <feBlend in="SourceGraphic" in2="BackgroundImageFix" result="shape"/>
            <feGaussianBlur result="effect1_foregroundBlur" stdDeviation="10"/>
        </filter>
        <linearGradient id="b" x1="40.5" x2="40.5" y1="20" y2="54.503" gradientUnits="userSpaceOnUse">
            <stop stop-color="#00FCCF"/>
            <stop offset="1" stop-color="#00FCCF" stop-opacity="0"/>
        </linearGradient>
        <linearGradient id="c" x1="40.5" x2="40.5" y1="20" y2="54.503" gradientUnits="userSpaceOnUse">
            <stop stop-color="#00FCCF"/>
            <stop offset="1" stop-color="#00FCCF" stop-opacity="0"/>
        </linearGradient>
    </defs>
</svg>
