<svg width="67" height="71" viewBox="0 0 67 71" fill="none" xmlns="http://www.w3.org/2000/svg">
<g filter="url(#filter0_f)">
<path d="M46.0934 27.6812L38.5975 20.1853C38.4788 20.0667 38.3179 20 38.1501 20H23.7959C22.1004 20 20.7212 21.3794 20.7212 23.0748V47.9253C20.7212 49.6206 22.1005 51 23.7959 51H43.204C44.8994 51 46.2788 49.6207 46.2788 47.9253V28.1286C46.2787 27.9608 46.212 27.7999 46.0934 27.6812ZM38.783 22.1602L44.1188 27.496H40.5924C40.109 27.496 39.6545 27.3078 39.3128 26.966C38.9711 26.6244 38.7829 26.17 38.783 25.6866V22.1602ZM45.0134 47.9252C45.0134 48.9229 44.2017 49.7346 43.204 49.7346H23.7959C22.7981 49.7346 21.9864 48.9229 21.9864 47.9252V23.0748C21.9865 22.0771 22.7982 21.2653 23.7959 21.2653H37.5176V25.6865C37.5175 26.5078 37.8373 27.28 38.418 27.8607C38.9988 28.4414 39.771 28.7612 40.5923 28.7612H45.0133V47.9252H45.0134Z" fill="url(#paint0_linear)"/>
<path d="M34.6561 41.2817H34.3729C34.0235 41.2817 33.7402 41.565 33.7402 41.9144C33.7402 42.2638 34.0235 42.547 34.3729 42.547H34.6561C35.0055 42.547 35.2888 42.2638 35.2888 41.9144C35.2888 41.565 35.0055 41.2817 34.6561 41.2817Z" fill="url(#paint1_linear)"/>
<path d="M32.326 41.2817H26.181C25.8316 41.2817 25.5483 41.565 25.5483 41.9144C25.5483 42.2638 25.8316 42.547 26.181 42.547H32.326C32.6754 42.547 32.9587 42.2638 32.9587 41.9144C32.9587 41.565 32.6754 41.2817 32.326 41.2817Z" fill="url(#paint2_linear)"/>
<path d="M40.819 38.3909H26.181C25.8316 38.3909 25.5483 38.6741 25.5483 39.0235C25.5483 39.3729 25.8316 39.6562 26.181 39.6562H40.819C41.1683 39.6562 41.4516 39.3729 41.4516 39.0235C41.4516 38.6741 41.1683 38.3909 40.819 38.3909Z" fill="url(#paint3_linear)"/>
<path d="M40.819 35.5H26.181C25.8316 35.5 25.5483 35.7832 25.5483 36.1327C25.5483 36.4821 25.8316 36.7653 26.181 36.7653H40.819C41.1683 36.7653 41.4516 36.4821 41.4516 36.1327C41.4516 35.7832 41.1683 35.5 40.819 35.5Z" fill="url(#paint4_linear)"/>
<path d="M40.819 32.6091H26.181C25.8316 32.6091 25.5483 32.8924 25.5483 33.2418C25.5483 33.5912 25.8316 33.8744 26.181 33.8744H40.819C41.1683 33.8744 41.4516 33.5912 41.4516 33.2418C41.4516 32.8924 41.1683 32.6091 40.819 32.6091Z" fill="url(#paint5_linear)"/>
</g>
<path d="M46.0934 27.6812L38.5975 20.1853C38.4788 20.0667 38.3179 20 38.1501 20H23.7959C22.1004 20 20.7212 21.3794 20.7212 23.0748V47.9253C20.7212 49.6206 22.1005 51 23.7959 51H43.204C44.8994 51 46.2788 49.6207 46.2788 47.9253V28.1286C46.2787 27.9608 46.212 27.7999 46.0934 27.6812ZM38.783 22.1602L44.1188 27.496H40.5924C40.109 27.496 39.6545 27.3078 39.3128 26.966C38.9711 26.6244 38.7829 26.17 38.783 25.6866V22.1602ZM45.0134 47.9252C45.0134 48.9229 44.2017 49.7346 43.204 49.7346H23.7959C22.7981 49.7346 21.9864 48.9229 21.9864 47.9252V23.0748C21.9865 22.0771 22.7982 21.2653 23.7959 21.2653H37.5176V25.6865C37.5175 26.5078 37.8373 27.28 38.418 27.8607C38.9988 28.4414 39.771 28.7612 40.5923 28.7612H45.0133V47.9252H45.0134Z" fill="url(#paint6_linear)"/>
<path d="M34.6561 41.2817H34.3729C34.0235 41.2817 33.7402 41.565 33.7402 41.9144C33.7402 42.2638 34.0235 42.547 34.3729 42.547H34.6561C35.0055 42.547 35.2888 42.2638 35.2888 41.9144C35.2888 41.565 35.0055 41.2817 34.6561 41.2817Z" fill="url(#paint7_linear)"/>
<path d="M32.326 41.2817H26.181C25.8316 41.2817 25.5483 41.565 25.5483 41.9144C25.5483 42.2638 25.8316 42.547 26.181 42.547H32.326C32.6754 42.547 32.9587 42.2638 32.9587 41.9144C32.9587 41.565 32.6754 41.2817 32.326 41.2817Z" fill="url(#paint8_linear)"/>
<path d="M40.819 38.3909H26.181C25.8316 38.3909 25.5483 38.6741 25.5483 39.0235C25.5483 39.3729 25.8316 39.6562 26.181 39.6562H40.819C41.1683 39.6562 41.4516 39.3729 41.4516 39.0235C41.4516 38.6741 41.1683 38.3909 40.819 38.3909Z" fill="url(#paint9_linear)"/>
<path d="M40.819 35.5H26.181C25.8316 35.5 25.5483 35.7832 25.5483 36.1327C25.5483 36.4821 25.8316 36.7653 26.181 36.7653H40.819C41.1683 36.7653 41.4516 36.4821 41.4516 36.1327C41.4516 35.7832 41.1683 35.5 40.819 35.5Z" fill="url(#paint10_linear)"/>
<path d="M40.819 32.6091H26.181C25.8316 32.6091 25.5483 32.8924 25.5483 33.2418C25.5483 33.5912 25.8316 33.8744 26.181 33.8744H40.819C41.1683 33.8744 41.4516 33.5912 41.4516 33.2418C41.4516 32.8924 41.1683 32.6091 40.819 32.6091Z" fill="url(#paint11_linear)"/>
<defs>
<filter id="filter0_f" x="-2" y="0" width="71" height="71" filterUnits="userSpaceOnUse" color-interpolation-filters="sRGB">
<feFlood flood-opacity="0" result="BackgroundImageFix"/>
<feBlend mode="normal" in="SourceGraphic" in2="BackgroundImageFix" result="shape"/>
<feGaussianBlur stdDeviation="10" result="effect1_foregroundBlur"/>
</filter>
<linearGradient id="paint0_linear" x1="33.5" y1="20" x2="33.5" y2="51" gradientUnits="userSpaceOnUse">
<stop stop-color="#00DBDF"/>
<stop offset="1" stop-color="#00DBDF" stop-opacity="0"/>
</linearGradient>
<linearGradient id="paint1_linear" x1="34.5145" y1="41.2817" x2="34.5145" y2="42.547" gradientUnits="userSpaceOnUse">
<stop stop-color="#00DBDF"/>
<stop offset="1" stop-color="#00DBDF" stop-opacity="0"/>
</linearGradient>
<linearGradient id="paint2_linear" x1="29.2535" y1="41.2817" x2="29.2535" y2="42.547" gradientUnits="userSpaceOnUse">
<stop stop-color="#00DBDF"/>
<stop offset="1" stop-color="#00DBDF" stop-opacity="0"/>
</linearGradient>
<linearGradient id="paint3_linear" x1="33.5" y1="38.3909" x2="33.5" y2="39.6562" gradientUnits="userSpaceOnUse">
<stop stop-color="#00DBDF"/>
<stop offset="1" stop-color="#00DBDF" stop-opacity="0"/>
</linearGradient>
<linearGradient id="paint4_linear" x1="33.5" y1="35.5" x2="33.5" y2="36.7653" gradientUnits="userSpaceOnUse">
<stop stop-color="#00DBDF"/>
<stop offset="1" stop-color="#00DBDF" stop-opacity="0"/>
</linearGradient>
<linearGradient id="paint5_linear" x1="33.5" y1="32.6091" x2="33.5" y2="33.8744" gradientUnits="userSpaceOnUse">
<stop stop-color="#00DBDF"/>
<stop offset="1" stop-color="#00DBDF" stop-opacity="0"/>
</linearGradient>
<linearGradient id="paint6_linear" x1="33.5" y1="20" x2="33.5" y2="51" gradientUnits="userSpaceOnUse">
<stop stop-color="#00DBDF"/>
<stop offset="1" stop-color="#00DBDF" stop-opacity="0"/>
</linearGradient>
<linearGradient id="paint7_linear" x1="34.5145" y1="41.2817" x2="34.5145" y2="42.547" gradientUnits="userSpaceOnUse">
<stop stop-color="#00DBDF"/>
<stop offset="1" stop-color="#00DBDF" stop-opacity="0"/>
</linearGradient>
<linearGradient id="paint8_linear" x1="29.2535" y1="41.2817" x2="29.2535" y2="42.547" gradientUnits="userSpaceOnUse">
<stop stop-color="#00DBDF"/>
<stop offset="1" stop-color="#00DBDF" stop-opacity="0"/>
</linearGradient>
<linearGradient id="paint9_linear" x1="33.5" y1="38.3909" x2="33.5" y2="39.6562" gradientUnits="userSpaceOnUse">
<stop stop-color="#00DBDF"/>
<stop offset="1" stop-color="#00DBDF" stop-opacity="0"/>
</linearGradient>
<linearGradient id="paint10_linear" x1="33.5" y1="35.5" x2="33.5" y2="36.7653" gradientUnits="userSpaceOnUse">
<stop stop-color="#00DBDF"/>
<stop offset="1" stop-color="#00DBDF" stop-opacity="0"/>
</linearGradient>
<linearGradient id="paint11_linear" x1="33.5" y1="32.6091" x2="33.5" y2="33.8744" gradientUnits="userSpaceOnUse">
<stop stop-color="#00DBDF"/>
<stop offset="1" stop-color="#00DBDF" stop-opacity="0"/>
</linearGradient>
</defs>
</svg>
