<svg xmlns="http://www.w3.org/2000/svg" width="93" height="79" fill="none" viewBox="0 0 68 79">
    <path fill="url(#b)" d="M41.596 34.969a8.586 8.586 0 0 0 2.817-6.362c0-4.746-3.861-8.607-8.607-8.607-4.735 0-8.59 3.843-8.608 8.574l-.037.884v24.439a2.059 2.059 0 0 1-2.058 2.056 2.059 2.059 0 0 1-2.056-2.056 1.524 1.524 0 0 0-3.047 0A5.11 5.11 0 0 0 25.104 59a5.11 5.11 0 0 0 5.103-5.103v-2.223a10.25 10.25 0 0 0 7.236 2.984c2.605 0 5.09-.976 6.998-2.748a1.523 1.523 0 0 0-2.074-2.232 7.213 7.213 0 0 1-4.924 1.933c-3.99 0-7.236-3.246-7.236-7.236V29.553l.037-.882.001-.064a5.567 5.567 0 0 1 5.56-5.56 5.567 5.567 0 0 1 5.561 5.56 5.568 5.568 0 0 1-5.073 5.54l-.55.022a1.523 1.523 0 0 0 .063 3.046c.228 0 .453-.009.677-.027l1.155-.047c3.9.104 7.042 3.309 7.042 7.234a1.523 1.523 0 1 0 3.047 0c0-4.193-2.523-7.807-6.13-9.406z" filter="url(#a)" opacity=".5"/>
    <path fill="url(#c)" d="M41.596 34.969a8.586 8.586 0 0 0 2.817-6.362c0-4.746-3.861-8.607-8.607-8.607-4.735 0-8.59 3.843-8.608 8.574l-.037.884v24.439a2.059 2.059 0 0 1-2.058 2.056 2.059 2.059 0 0 1-2.056-2.056 1.524 1.524 0 0 0-3.047 0A5.11 5.11 0 0 0 25.104 59a5.11 5.11 0 0 0 5.103-5.103v-2.223a10.25 10.25 0 0 0 7.236 2.984c2.605 0 5.09-.976 6.998-2.748a1.523 1.523 0 0 0-2.074-2.232 7.213 7.213 0 0 1-4.924 1.933c-3.99 0-7.236-3.246-7.236-7.236V29.553l.037-.882.001-.064a5.567 5.567 0 0 1 5.56-5.56 5.567 5.567 0 0 1 5.561 5.56 5.568 5.568 0 0 1-5.073 5.54l-.55.022a1.523 1.523 0 0 0 .063 3.046c.228 0 .453-.009.677-.027l1.155-.047c3.9.104 7.042 3.309 7.042 7.234a1.523 1.523 0 1 0 3.047 0c0-4.193-2.523-7.807-6.13-9.406z"/>
    <defs>
        <filter id="a" width="79" height="79" x="-5.637" y="0" color-interpolation-filters="sRGB" filterUnits="userSpaceOnUse">
            <feFlood flood-opacity="0" result="BackgroundImageFix"/>
            <feBlend in="SourceGraphic" in2="BackgroundImageFix" result="shape"/>
            <feGaussianBlur result="effect1_foregroundBlur" stdDeviation="10"/>
        </filter>
        <linearGradient id="b" x1="33.863" x2="33.863" y1="20" y2="59" gradientUnits="userSpaceOnUse">
            <stop stop-color="#00FCCF"/>
            <stop offset="1" stop-color="#00FCCF" stop-opacity="0"/>
        </linearGradient>
        <linearGradient id="c" x1="33.863" x2="33.863" y1="20" y2="59" gradientUnits="userSpaceOnUse">
            <stop stop-color="#00FCCF"/>
            <stop offset="1" stop-color="#00FCCF" stop-opacity="0"/>
        </linearGradient>
    </defs>
</svg>
