<svg xmlns="http://www.w3.org/2000/svg" width="44" height="26" fill="none" viewBox="0 0 44 26">
    <path fill="#F90" d="M43.427 13c.002 7.178-5.815 12.998-12.993 13-7.178.002-12.998-5.815-13-12.993V13C17.432 5.822 23.249.002 30.427 0c7.178-.002 12.998 5.815 13 12.993V13z"/>
    <path fill="#C00" d="M12.913.005C5.777.05 0 5.855 0 13c0 7.174 5.823 12.997 12.997 12.997 3.367 0 6.436-1.283 8.745-3.387h.002c.473-.431.914-.896 1.32-1.392H20.4c-.356-.43-.679-.877-.97-1.338h4.593c.28-.448.532-.912.757-1.392h-6.107a12.824 12.824 0 0 1-.543-1.366h7.194c.433-1.295.668-2.681.668-4.122 0-.955-.103-1.886-.3-2.783H17.75c.099-.462.223-.918.37-1.365h7.198a13.027 13.027 0 0 0-.56-1.392h-6.084c.22-.469.468-.925.746-1.365h4.589a13.024 13.024 0 0 0-1.01-1.392H20.44c.396-.465.831-.904 1.304-1.313A12.95 12.95 0 0 0 12.997.004h-.084z"/>
    <path fill="#FCB340" d="M42.124 19.794c.07 0 .14.019.206.055a.425.425 0 0 1 .158.575.425.425 0 0 1-.73 0 .427.427 0 0 1 .002-.42.39.39 0 0 1 .157-.155.437.437 0 0 1 .207-.055zm0 .07a.359.359 0 0 0-.173.046.321.321 0 0 0-.13.13.348.348 0 0 0 .128.479.35.35 0 1 0 .175-.655zm-.184.583v-.452h.155c.053 0 .091.004.115.013a.112.112 0 0 1 .057.043.12.12 0 0 1-.014.152.139.139 0 0 1-.094.042.133.133 0 0 1 .039.024c.018.017.04.047.067.09l.055.088h-.09l-.04-.071a.364.364 0 0 0-.075-.106.096.096 0 0 0-.059-.015h-.043v.192h-.073zm.073-.255h.088c.042 0 .071-.006.086-.018a.062.062 0 0 0 .024-.05.06.06 0 0 0-.011-.036.067.067 0 0 0-.032-.024.225.225 0 0 0-.072-.008h-.083v.136"/>
    <path fill="#006" d="M17.31 16.729l.173-1.177c-.095 0-.234.041-.357.041-.482 0-.542-.257-.504-.445l.475-2.366h.732l.151-1.335h-.69l.14-.81h-1.443c-.03.03-.817 4.55-.817 5.101 0 .815.457 1.178 1.103 1.172.504-.004.898-.144 1.037-.181zM17.748 14.486c0 1.956 1.29 2.42 2.39 2.42 1.015 0 1.548-.235 1.548-.235l.244-1.335s-.858.35-1.555.35c-1.486 0-1.226-1.109-1.226-1.109l2.855.009s.181-.896.181-1.262c0-.912-.496-2.031-2.016-2.031-1.39 0-2.421 1.5-2.421 3.193zm2.427-1.954c.78 0 .637.878.637.949h-1.537c0-.091.145-.95.9-.95zM28.937 16.729l.248-1.509s-.68.34-1.146.34c-.981 0-1.375-.749-1.375-1.554 0-1.634.844-2.533 1.785-2.533.705 0 1.27.396 1.27.396l.226-1.466s-.668-.482-1.387-.485c-2.162-.009-3.4 1.497-3.4 4.1 0 1.726.916 2.9 2.568 2.9.467 0 1.21-.19 1.21-.19zM9.698 11.314c-.95 0-1.676.305-1.676.305L7.82 12.81s.6-.244 1.508-.244c.515 0 .892.058.892.477 0 .254-.046.348-.046.348s-.407-.034-.595-.034c-1.351 0-2.454.51-2.454 2.05 0 1.214.825 1.492 1.336 1.492.977 0 1.363-.616 1.385-.618l-.01.512h1.218l.543-3.811c0-1.617-1.41-1.67-1.9-1.67zm.21 3.094c.027.233-.06 1.333-.893 1.333-.43 0-.541-.329-.541-.522 0-.38.206-.834 1.22-.834.236 0 .175.017.215.023zM12.894 16.873c.312 0 2.093.08 2.093-1.76 0-1.719-1.649-1.379-1.649-2.07 0-.343.269-.452.76-.452.195 0 .946.062.946.062l.174-1.222s-.485-.108-1.276-.108c-1.024 0-2.063.408-2.063 1.806 0 1.585 1.732 1.426 1.732 2.093 0 .446-.484.482-.857.482-.645 0-1.226-.221-1.228-.21l-.185 1.209c.034.01.392.17 1.553.17zM40.351 10.205l-.25 1.864s-.521-.719-1.336-.719c-1.534 0-2.325 1.529-2.325 3.285 0 1.134.564 2.245 1.716 2.245.829 0 1.288-.578 1.288-.578l-.06.494h1.346l1.057-6.58-1.436-.01zm-.594 3.624c0 .73-.362 1.707-1.112 1.707-.498 0-.732-.418-.732-1.075 0-1.072.482-1.78 1.09-1.78.498 0 .754.342.754 1.148zM2.206 16.802l.842-4.969.124 4.969h.953l1.779-4.969-.788 4.969h1.417l1.09-6.59-2.25-.017-1.339 4.034-.036-4.017H1.935L.83 16.802h1.377z"/>
    <path fill="#006" d="M23.526 16.81c.403-2.29.547-4.098 1.721-3.724.169-.886.57-1.657.755-2.033 0 0-.059-.086-.422-.086-.62 0-1.447 1.258-1.447 1.258l.124-.778h-1.289l-.863 5.364h1.421zM31.835 11.314a4.78 4.78 0 0 0-1.676.305l-.201 1.192s.6-.243 1.508-.243c.515 0 .892.057.892.476 0 .255-.046.348-.046.348s-.406-.034-.595-.034c-1.35 0-2.453.511-2.453 2.051 0 1.214.824 1.492 1.335 1.492.977 0 1.363-.617 1.386-.618l-.012.511h1.219l.543-3.81c0-1.618-1.41-1.67-1.9-1.67zm.211 3.095c.027.232-.06 1.332-.894 1.332-.43 0-.541-.328-.541-.522 0-.379.206-.833 1.22-.833.236 0 .175.017.215.023zM35.138 16.81c.221-1.684.63-4.05 1.72-3.724.17-.886.007-.884-.356-.884-.62 0-.758.023-.758.023l.124-.778H34.58l-.863 5.364h1.421z"/>
    <path fill="#fff" d="M17.67 16.309l.173-1.177c-.094 0-.233.04-.356.04-.482 0-.535-.255-.504-.445l.389-2.4h.732l.177-1.3h-.69l.14-.81h-1.384c-.03.03-.817 4.55-.817 5.101 0 .815.458 1.178 1.103 1.172.505-.004.898-.144 1.037-.181zM18.108 14.066c0 1.955 1.291 2.42 2.39 2.42 1.016 0 1.463-.227 1.463-.227l.243-1.335s-.772.34-1.47.34c-1.485 0-1.225-1.107-1.225-1.107h2.812s.182-.897.182-1.262c0-.912-.454-2.023-1.974-2.023-1.39 0-2.42 1.5-2.42 3.194zm2.427-1.955c.781 0 .637.878.637.95h-1.536c0-.092.145-.95.9-.95zM29.298 16.308l.248-1.509s-.68.34-1.145.34c-.982 0-1.375-.749-1.375-1.554 0-1.634.844-2.533 1.784-2.533.705 0 1.271.396 1.271.396l.226-1.465s-.839-.34-1.558-.34c-1.598 0-3.152 1.386-3.152 3.989 0 1.726.84 2.865 2.49 2.865.468 0 1.211-.19 1.211-.19zM10.06 10.893c-.95 0-1.677.305-1.677.305l-.2 1.192s.6-.244 1.507-.244c.516 0 .893.058.893.477 0 .255-.047.348-.047.348s-.406-.034-.594-.034c-1.197 0-2.454.511-2.454 2.051 0 1.213.825 1.492 1.336 1.492.976 0 1.397-.634 1.42-.636l-.046.53h1.218l.544-3.812c0-1.617-1.41-1.669-1.9-1.669zm.296 3.103c.026.233-.146 1.324-.98 1.324-.429 0-.54-.328-.54-.522 0-.379.205-.834 1.22-.834.235 0 .26.026.3.032zM13.255 16.452c.311 0 2.093.08 2.093-1.76 0-1.718-1.65-1.379-1.65-2.07 0-.343.27-.451.761-.451.195 0 .946.062.946.062l.174-1.222s-.485-.109-1.276-.109c-1.024 0-2.063.409-2.063 1.807 0 1.585 1.732 1.425 1.732 2.093 0 .445-.484.482-.857.482-.645 0-1.226-.222-1.229-.212l-.184 1.21c.033.01.392.17 1.553.17zM40.76 9.797l-.298 1.852s-.52-.72-1.336-.72c-1.268 0-2.325 1.53-2.325 3.286 0 1.134.564 2.245 1.716 2.245.829 0 1.288-.578 1.288-.578l-.06.493h1.346l1.057-6.58-1.388.002zm-.642 3.611c0 .731-.362 1.708-1.112 1.708-.498 0-.732-.418-.732-1.075 0-1.072.482-1.78 1.09-1.78.498 0 .754.342.754 1.147zM2.567 16.381l.842-4.968.124 4.968h.953l1.779-4.968-.788 4.968h1.417l1.09-6.59h-2.19L4.43 13.836l-.071-4.043h-2.02l-1.106 6.59h1.334zM23.887 16.39c.403-2.29.478-4.15 1.44-3.81.167-.886.33-1.23.513-1.604 0 0-.086-.019-.266-.019-.62 0-1.08.847-1.08.847l.124-.777H23.33l-.863 5.363h1.42zM32.492 10.893c-.95 0-1.677.305-1.677.305l-.2 1.192s.6-.244 1.508-.244c.515 0 .892.058.892.477 0 .255-.046.348-.046.348s-.407-.034-.595-.034c-1.197 0-2.454.511-2.454 2.051 0 1.213.825 1.492 1.336 1.492.976 0 1.397-.634 1.42-.636l-.046.53h1.218l.544-3.812c0-1.617-1.41-1.669-1.9-1.669zm.297 3.103c.026.233-.147 1.324-.98 1.324-.43 0-.541-.328-.541-.522 0-.379.206-.834 1.22-.834.235 0 .26.026.3.032zM35.505 16.391c.403-2.29.478-4.15 1.439-3.81.168-.887.33-1.23.514-1.605 0 0-.086-.018-.266-.018-.62 0-1.08.847-1.08.847l.124-.778h-1.288l-.863 5.364h1.42zM42.118 15.563a.424.424 0 0 1 .363.21.424.424 0 0 1-.155.575.427.427 0 0 1-.418 0 .421.421 0 0 1 .21-.785zm0 .069a.358.358 0 0 0-.304.175.352.352 0 0 0 .13.48.354.354 0 0 0 .348 0 .353.353 0 0 0 .129-.48.314.314 0 0 0-.132-.13.351.351 0 0 0-.171-.045zm-.184.583v-.452h.155c.053 0 .092.004.115.013a.112.112 0 0 1 .057.043.115.115 0 0 1 .022.066.12.12 0 0 1-.036.087.136.136 0 0 1-.093.04.147.147 0 0 1 .038.025.53.53 0 0 1 .067.09l.055.088h-.09l-.039-.071a.368.368 0 0 0-.077-.105.095.095 0 0 0-.058-.016h-.043v.192h-.073zm.073-.255h.088c.043 0 .071-.006.086-.018a.062.062 0 0 0 .024-.05.059.059 0 0 0-.011-.036.068.068 0 0 0-.031-.024.229.229 0 0 0-.073-.008h-.083v.136"/>
</svg>
