<?xml version="1.0" encoding="utf-8"?>
<!-- Generator: Adobe Illustrator 22.1.0, SVG Export Plug-In . SVG Version: 6.00 Build 0)  -->
<svg version="1.2" baseProfile="tiny" id="Слой_1"
	 xmlns="http://www.w3.org/2000/svg" xmlns:xlink="http://www.w3.org/1999/xlink" x="0px" y="0px" viewBox="0 0 110.2 110.2"
	 xml:space="preserve">
<g>
	<g>
		<circle fill="#1E1C4C" cx="55.1" cy="55.1" r="54.1"/>
		<path fill="#64AAFB" d="M55.1,110.2C24.7,110.2,0,85.5,0,55.1S24.7,0,55.1,0s55.1,24.7,55.1,55.1S85.5,110.2,55.1,110.2z M55.1,2
			C25.8,2,2,25.8,2,55.1s23.8,53.1,53.1,53.1s53.1-23.8,53.1-53.1S84.3,2,55.1,2z"/>
	</g>
	<g>
		<path fill="#87EAA6" d="M28.8,66V42.7h4.2V66H28.8z"/>
		<path fill="#87EAA6" d="M38.9,59.4c-0.4-1.4-0.7-3.1-0.7-5c0-1.9,0.2-3.6,0.7-5c0.4-1.4,1-2.6,1.7-3.5c0.7-0.9,1.5-1.6,2.5-2.1
			c1-0.5,2-0.9,2.9-1.1c0.9-0.2,2-0.3,3.1-0.3c2.4,0,4.7,0.5,7.1,1.4v3.9c-2.2-1-4.5-1.5-6.7-1.5c-1,0-1.9,0.1-2.7,0.3
			c-0.7,0.2-1.5,0.6-2.2,1.1C43.9,48,43.3,48.9,43,50c-0.4,1.1-0.6,2.6-0.6,4.3c0,1.7,0.2,3.2,0.6,4.3c0.4,1.1,0.9,2,1.6,2.5
			c0.7,0.5,1.4,0.9,2.2,1.1c0.7,0.2,1.6,0.3,2.7,0.3c2.2,0,4.5-0.5,6.7-1.5v3.9c-2.3,0.9-4.7,1.4-7.1,1.4C48,66.3,47,66.2,46,66
			c-0.9-0.2-1.9-0.5-2.9-1.1c-1-0.5-1.8-1.2-2.5-2.1C39.9,62,39.3,60.8,38.9,59.4z"/>
		<path fill="#87EAA6" d="M60.2,54.3c0-1.9,0.2-3.6,0.7-5c0.4-1.4,1-2.6,1.7-3.5c0.7-0.9,1.5-1.6,2.5-2.1s2-0.9,2.9-1.1
			c0.9-0.2,2-0.3,3.1-0.3c1.1,0,2.1,0.1,3.1,0.3c0.9,0.2,1.9,0.5,2.9,1.1c1,0.5,1.8,1.2,2.6,2.1s1.3,2,1.7,3.5
			c0.4,1.4,0.7,3.1,0.7,5c0,1.9-0.2,3.6-0.7,5c-0.4,1.5-1,2.6-1.7,3.5c-0.7,0.9-1.6,1.5-2.6,2.1c-1,0.5-2,0.9-2.9,1.1
			c-0.9,0.2-2,0.3-3.1,0.3C70,66.3,69,66.2,68,66c-0.9-0.2-1.9-0.5-2.9-1.1c-1-0.5-1.8-1.2-2.5-2.1c-0.7-0.9-1.3-2-1.7-3.5
			C60.4,57.9,60.2,56.2,60.2,54.3z M64.4,54.3c0,1.8,0.2,3.2,0.5,4.4c0.3,1.1,0.9,2,1.5,2.5c0.7,0.5,1.4,0.9,2.1,1.1
			c0.7,0.2,1.6,0.3,2.5,0.3c0.8,0,1.5-0.1,2.1-0.2c0.6-0.1,1.2-0.3,1.8-0.7c0.6-0.3,1.1-0.8,1.5-1.4c0.4-0.6,0.7-1.4,1-2.4
			c0.3-1,0.4-2.2,0.4-3.6c0-1.7-0.2-3.2-0.5-4.3c-0.3-1.1-0.9-2-1.6-2.5c-0.7-0.5-1.4-0.9-2.1-1.1c-0.7-0.2-1.6-0.3-2.6-0.3
			c-0.8,0-1.5,0.1-2,0.2c-0.6,0.1-1.2,0.3-1.8,0.7c-0.6,0.3-1.1,0.8-1.5,1.4c-0.4,0.6-0.7,1.4-1,2.4C64.5,51.7,64.4,52.9,64.4,54.3z
			"/>
	</g>
</g>
</svg>
