<?xml version="1.0" encoding="utf-8"?>
<!-- Generator: Adobe Illustrator 22.1.0, SVG Export Plug-In . SVG Version: 6.00 Build 0)  -->
<svg version="1.2" baseProfile="tiny" id="Слой_1"
	 xmlns="http://www.w3.org/2000/svg" xmlns:xlink="http://www.w3.org/1999/xlink" x="0px" y="0px" viewBox="0 0 217.8 99.6"
	 xml:space="preserve">
<g>
	<g>
		<g>
			<path fill="#1E1C4C" d="M115.6,76H5.6C3.1,76,1,73.9,1,71.4V5.6C1,3.1,3.1,1,5.6,1h110c2.5,0,4.6,2.1,4.6,4.6v65.7
				C120.2,73.9,118.1,76,115.6,76z"/>
			<path fill="#64AAFB" d="M115.6,77H5.6C2.5,77,0,74.4,0,71.4V5.6C0,2.5,2.5,0,5.6,0h110c3.1,0,5.6,2.5,5.6,5.6v65.8
				C121.2,74.4,118.7,77,115.6,77z M5.6,2C3.6,2,2,3.6,2,5.6v65.8c0,2,1.6,3.6,3.6,3.6h110c2,0,3.6-1.6,3.6-3.6V5.6
				c0-2-1.6-3.6-3.6-3.6H5.6z"/>
		</g>
		<g>
			<rect x="41.5" y="76" fill="#1E1C4C" width="38.3" height="16.9"/>
			<path fill="#64AAFB" d="M80.7,93.8H40.5V75h40.3V93.8z M42.5,91.8h36.3V77H42.5V91.8z"/>
		</g>
		<g>
			<rect x="25.9" y="92.8" fill="#1E1C4C" width="69.4" height="5.8"/>
			<path fill="#64AAFB" d="M96.3,99.6H24.9v-7.8h71.4V99.6z M26.9,97.6h67.4v-3.8H26.9V97.6z"/>
		</g>
		<g>
			<rect x="12" y="7.9" fill="#1E1C4C" width="97.2" height="61.1"/>
			<path fill="#64AAFB" d="M110.2,70H11V6.9h99.2V70z M13,68h95.2V8.9H13V68z"/>
		</g>
	</g>
	<g>
		<g>
			<circle fill="#1E1C4C" cx="181.1" cy="39.9" r="35.7"/>
			<path fill="#64AAFB" d="M181.1,76.5c-20.2,0-36.7-16.5-36.7-36.7s16.5-36.7,36.7-36.7s36.7,16.5,36.7,36.7S201.4,76.5,181.1,76.5
				z M181.1,5.2c-19.1,0-34.7,15.6-34.7,34.7s15.6,34.7,34.7,34.7s34.7-15.6,34.7-34.7S200.3,5.2,181.1,5.2z"/>
		</g>
		<g>
			<path fill="#87EAA6" d="M160.9,47.9l6.4-16h3.2l6.4,16h-3.1l-1.5-3.9h-6.8l-1.5,3.9H160.9z M166.5,41.4h4.8l-2.4-6.3L166.5,41.4z
				"/>
			<path fill="#87EAA6" d="M179.4,47.9v-16h6c1.9,0,3.4,0.5,4.4,1.4c1,0.9,1.5,2.3,1.5,4s-0.5,3-1.6,4c-1,0.9-2.5,1.4-4.4,1.4h-3.1
				v5.3H179.4z M182.3,40h2.9c1.3,0,2.1-0.2,2.6-0.7s0.7-1.2,0.7-2.1c0-0.9-0.2-1.6-0.7-2s-1.3-0.7-2.6-0.7h-2.9V40z"/>
			<path fill="#87EAA6" d="M194.4,47.9v-16h2.9v16H194.4z"/>
		</g>
	</g>
	<rect x="120.2" y="38.9" fill="#64AAFB" width="25.3" height="2"/>
</g>
</svg>
