<?xml version="1.0" encoding="utf-8"?>
<!-- Generator: Adobe Illustrator 22.1.0, SVG Export Plug-In . SVG Version: 6.00 Build 0)  -->
<svg version="1.2" baseProfile="tiny" id="Слой_1"
	 xmlns="http://www.w3.org/2000/svg" xmlns:xlink="http://www.w3.org/1999/xlink" x="0px" y="0px" viewBox="0 0 74.9 134.5"
	 xml:space="preserve">
<g>
	<path fill="#1E1C4C" d="M37.4,133.5L37.4,133.5C17.3,133.5,1,117.2,1,97.1V55.9h72.9v41.2C73.9,117.2,57.5,133.5,37.4,133.5z"/>
	<path fill="#64AAFB" d="M37.4,134.5C16.8,134.5,0,117.7,0,97.1V54.9h74.9v42.2C74.9,117.7,58.1,134.5,37.4,134.5z M2,56.9v40.2
		c0,19.5,15.9,35.4,35.4,35.4s35.4-15.9,35.4-35.4V56.9H2z"/>
</g>
<path fill="#64AAFB" d="M74.9,55.9h-2V37.4C72.9,17.9,57,2,37.4,2S2,17.9,2,37.4H0C0,16.8,16.8,0,37.4,0s37.4,16.8,37.4,37.4V55.9z"
	/>
<g>
	<path fill="#8FFFFF" d="M20.2,95.1V86h12.9V73.4h8.6V86h13v9.1h-13v12.3h-8.6V95.1H20.2z"/>
</g>
</svg>
