<?xml version="1.0" encoding="utf-8"?>
<!-- Generator: Adobe Illustrator 22.1.0, SVG Export Plug-In . SVG Version: 6.00 Build 0)  -->
<svg version="1.2" baseProfile="tiny" id="Слой_1"
	 xmlns="http://www.w3.org/2000/svg" xmlns:xlink="http://www.w3.org/1999/xlink" x="0px" y="0px" viewBox="0 0 70.1 153.5"
	 xml:space="preserve">
<g>
	<g>
		<polygon fill="#1E1C4C" points="69.1,152.5 1,152.5 1,43 35,25.3 69.1,43 		"/>
		<path fill="#64AAFB" d="M70.1,153.5H0V42.4l35-18.3l35,18.3V153.5z M2,151.5h66.1V43.6L35,26.4L2,43.6V151.5z"/>
	</g>
	<g>
		<path fill="#8FFFFF" d="M13.8,86.6c0-7.2,2.8-10.9,8.3-10.9c5.6,0,8.3,3.6,8.3,10.9c0,7.2-2.8,10.9-8.3,10.9
			C16.5,97.5,13.8,93.8,13.8,86.6z M18.3,86.6c0,2.5,0.3,4.2,1,5.1c0.7,0.9,1.6,1.3,2.7,1.3s2-0.4,2.7-1.3c0.7-0.9,1-2.6,1-5.1
			c0-2.5-0.3-4.2-1-5.1s-1.6-1.3-2.7-1.3s-2,0.4-2.7,1.3S18.3,84,18.3,86.6z M20.5,114.8l24.6-39.3h5l-24.6,39.3H20.5z M40.1,103.8
			c0-7.2,2.8-10.9,8.3-10.9c5.6,0,8.3,3.6,8.3,10.9c0,7.2-2.8,10.9-8.3,10.9C42.9,114.6,40.1,111,40.1,103.8z M44.7,103.8
			c0,2.5,0.3,4.2,1,5.1c0.7,0.9,1.6,1.3,2.7,1.3s2-0.4,2.7-1.3c0.7-0.9,1-2.6,1-5.1c0-2.5-0.3-4.2-1-5.1c-0.7-0.8-1.6-1.3-2.7-1.3
			s-2,0.4-2.7,1.3S44.7,101.2,44.7,103.8z"/>
	</g>
	<path fill="#64AAFB" d="M35,51.2c-2.7,0-4.9-2.2-4.9-4.9s2.2-4.9,4.9-4.9s4.9,2.2,4.9,4.9S37.8,51.2,35,51.2z M35,43.3
		c-1.6,0-2.9,1.3-2.9,2.9s1.3,2.9,2.9,2.9c1.6,0,2.9-1.3,2.9-2.9S36.7,43.3,35,43.3z"/>
	<path fill="#64AAFB" d="M35,47.3c-9.7,0-17.5-10.6-17.5-23.6S25.4,0,35,0s17.5,10.6,17.5,23.6c0,3.4-0.5,6.7-1.6,9.8l-1.9-0.6
		c1-2.9,1.5-5.9,1.5-9.1C50.6,11.7,43.6,2,35,2s-15.5,9.7-15.5,21.6s7,21.6,15.5,21.6c1.2,0,2.4-0.2,3.6-0.6l0.6,1.9
		C37.9,47,36.5,47.3,35,47.3z"/>
</g>
</svg>
