<svg xmlns="http://www.w3.org/2000/svg" width="64" height="20" fill="none" viewBox="0 0 64 20">
    <path fill="#2B3894" d="M21.594 19.55L24.698.335h4.962L26.556 19.55h-4.962zM44.552.806C43.572.421 42.03 0 40.106 0c-4.905 0-8.358 2.608-8.387 6.342-.03 2.762 2.464 4.302 4.346 5.22 1.933.941 2.583 1.543 2.575 2.385-.013 1.287-1.543 1.876-2.97 1.876-1.986 0-3.041-.29-4.673-1.008l-.639-.306-.693 4.302c1.157.535 3.302 1 5.528 1.024 5.213 0 8.6-2.576 8.64-6.563.018-2.19-1.304-3.851-4.168-5.221-1.734-.891-2.798-1.482-2.786-2.384.002-.798.9-1.653 2.843-1.653a8.72 8.72 0 0 1 3.713.738l.445.22.672-4.166zM51.159 12.737c.411-1.104 1.976-5.37 1.976-5.37-.029.05.41-1.113.66-1.834l.334 1.657s.953 4.587 1.149 5.547h-4.12zM57.279.355h-3.834c-1.189 0-2.08.34-2.6 1.592l-7.368 17.61h5.21s.851-2.37 1.044-2.89c.568 0 5.632.011 6.355.011.148.67.604 2.879.604 2.879h4.605L57.28.355zM17.431.351l-4.856 13.1-.52-2.663c-.905-3.068-3.722-6.393-6.873-8.06l4.443 16.805 5.25-.003L22.69.35h-5.258z"/>
    <path fill="#F79510" d="M8.067.338H.066L0 .736C6.226 2.328 10.345 6.17 12.055 10.788l-1.739-8.83C10.016.742 9.145.38 8.066.339z"/>
    <path fill="#2B3894" d="M62.707 18.294h.235c.166 0 .2-.097.2-.175 0-.134-.087-.165-.223-.165h-.212v.34zm-.203-.49h.484c.113 0 .361.03.361.315 0 .076-.023.182-.184.251v.006c.14.024.147.156.155.263.01.17 0 .2.045.26h-.21c-.041-.04-.032-.072-.041-.25 0-.1-.013-.204-.24-.204h-.167v.454h-.203v-1.094zm.4 1.486c.498 0 .889-.413.889-.93 0-.516-.391-.93-.889-.93s-.888.414-.888.93c0 .517.39.93.888.93zm0-2.025A1.09 1.09 0 0 1 64 18.36a1.09 1.09 0 0 1-1.096 1.095 1.09 1.09 0 0 1-1.095-1.095 1.09 1.09 0 0 1 1.095-1.096z"/>
</svg>
