<svg width="60" height="73" xmlns="http://www.w3.org/2000/svg"><defs><linearGradient x1="-10.45%" y1="91.848%" x2="107.505%" y2="-3.584%" id="a"><stop stop-color="#4AFDCB" offset="0%"/><stop stop-color="#5DA5FD" offset="100%"/></linearGradient><linearGradient x1="-78.489%" y1="205.45%" x2="166.908%" y2="-125.382%" id="b"><stop stop-color="#4AFDCB" offset="0%"/><stop stop-color="#5DA5FD" offset="100%"/></linearGradient></defs><g fill="none"><path d="M18.5 67.4l11.2 5.4L41 67.4c11.2-5.4 18.5-17 18.5-29.5V11.1H57c-4.8 0-8.6-3.9-8.6-8.6V0H11.1v2.5c0 4.8-3.9 8.6-8.6 8.6H0V38c0 12.4 7.3 24 18.5 29.4zM4.9 15.8c5.5-1 9.8-5.4 10.9-10.9h28c1 5.5 5.4 9.8 10.9 10.9V38c0 10.6-6.2 20.5-15.7 25.1l-9.1 4.4-9.3-4.5C11.1 58.4 4.9 48.6 4.9 37.9V15.8z" fill="url(#a)"/><path fill="url(#b)" d="M45.7 26.2l-1.6-1.6-17.8 17.8-7.7-7.6-1.5 1.6 9.2 9.2z"/></g></svg>