<svg width="71" height="71" xmlns="http://www.w3.org/2000/svg"><defs><linearGradient x1=".839%" y1="98.618%" x2="104.915%" y2="-4.261%" id="a"><stop stop-color="#4AFDCB" offset="0%"/><stop stop-color="#5DA5FD" offset="100%"/></linearGradient></defs><path d="M35.3 70.7c19.5 0 35.3-15.9 35.3-35.3 0-8.7-3.2-17.1-9-23.5C55 4.3 45.4 0 35.3 0 25.2 0 15.7 4.3 9 11.8c-5.8 6.5-9 14.8-9 23.5 0 19.5 15.9 35.4 35.3 35.4zM13.6 56.8c3.1-1.5 6.8-2.6 10.9-3.3 1.4 5.3 3.4 9.5 5.7 12-6.4-1.2-12.2-4.3-16.6-8.7zm32.2-20.2c-.1 4.8-.6 9.7-1.6 14.1-2.9-.4-5.9-.6-8.9-.6s-6 .2-8.9.6c-.9-4.4-1.5-9.3-1.6-14.1h21zm-21-2.5c.1-4.8.6-9.7 1.6-14.1 2.9.4 5.9.6 8.9.6s6-.2 8.9-.6c.9 4.4 1.5 9.3 1.6 14.1h-21zm10.5 31.4c-3.6 0-6.5-5.3-8.4-12.5 2.7-.4 5.5-.6 8.4-.6 2.9 0 5.7.2 8.4.6-1.9 7.2-4.8 12.5-8.4 12.5zm5.2-.1c2.4-2.5 4.3-6.7 5.7-12 4 .7 7.8 1.9 10.9 3.3-4.5 4.5-10.2 7.6-16.6 8.7zm18.2-10.5c-3.4-1.7-7.5-3-12-3.8.9-4.3 1.5-9.2 1.5-14.5h17.5c-.2 6.9-2.8 13.3-7 18.3zm7.1-20.8H48.3c-.1-5.3-.6-10.2-1.5-14.5 4.5-.8 8.6-2.1 12-3.8 4.3 5.2 6.7 11.6 7 18.3zM57 13.9c-3.1 1.5-6.8 2.6-10.9 3.3-1.4-5.3-3.4-9.5-5.7-12 6.3 1.1 12.1 4.2 16.6 8.7zM35.3 5.1c3.6 0 6.5 5.3 8.4 12.5-2.7.4-5.5.6-8.4.6-2.9 0-5.7-.2-8.4-.6 1.9-7.2 4.9-12.5 8.4-12.5zm-5.1.2c-2.4 2.5-4.3 6.7-5.7 12-4-.7-7.8-1.9-10.9-3.3C18.1 9.4 24 6.3 30.2 5.3zM11.9 15.8c3.4 1.7 7.5 3 12 3.8-.9 4.3-1.5 9.2-1.5 14.5H4.9c.2-6.7 2.7-13.1 7-18.3zm10.5 20.8c.1 5.3.6 10.2 1.5 14.5-4.5.8-8.6 2.1-12 3.8-4.2-5-6.8-11.4-7.1-18.3h17.6z" fill="url(#a)"/></svg>