<svg width="61" height="72" xmlns="http://www.w3.org/2000/svg"><defs><linearGradient x1="-6.473%" y1="91.959%" x2="105.724%" y2="-2.726%" id="a"><stop stop-color="#4AFDCB" offset="0%"/><stop stop-color="#5DA5FD" offset="100%"/></linearGradient><linearGradient x1="-169.274%" y1="186.846%" x2="320.459%" y2="-131.153%" id="b"><stop stop-color="#4AFDCB" offset="0%"/><stop stop-color="#5DA5FD" offset="100%"/></linearGradient></defs><g fill="none"><path d="M42.9 30.8v-3.3h15.4V11.3H46.6V0H3.7v16.3h11.7v6.4H0v38.8h23.1c3.6 5.8 10 9.7 17.3 9.7 11.2 0 20.3-9.1 20.3-20.3 0-10.3-7.8-18.8-17.8-20.1zm10.4-14.5v6.4h-33v-6.4h33zm-44.7-5V4.9h33v6.4h-33zM4.9 27.6H38v3.3c-3.1.4-6 1.5-8.6 3.1H4.9v-6.4zm0 29v-6.4h15.2v.7c0 2 .3 3.8.8 5.6h-16v.1zM21 45.3H5v-6.4h19.2c-1.5 1.9-2.6 4.1-3.2 6.4zm19.4 21.1c-4.4 0-8.4-1.9-11.2-4.8-.7-.8-1.4-1.6-1.9-2.5-.5-.8-.9-1.6-1.2-2.5C25.4 54.9 25 53 25 51v-.7c0-.8.1-1.7.3-2.5.2-.9.4-1.7.8-2.5 1-2.5 2.7-4.7 4.7-6.4 1.3-1.1 2.9-1.9 4.5-2.5 1.6-.6 3.3-.9 5.1-.9.8 0 1.7.1 2.5.2C50.2 37 55.8 43.3 55.8 51c0 8.5-6.9 15.4-15.4 15.4z" fill="url(#a)"/><path d="M45.3 50c.6-.8.9-1.7.9-2.7v-.1c0-1.9-1.2-3.6-2.9-4.2v-2.6h-2.2v2.3h-1.9v-2.3h-2.3v2.3H34v2.2h1.4V57H34v2.3h2.8v2.3H39v-2.3h2v2.3h2.2v-2.3c2.6-.1 4.7-2.2 4.7-4.8v-.1c.1-1.9-1-3.6-2.6-4.4zm-7.6-2.2V45h4.1c.4 0 .8.1 1.2.3.6.4 1.1 1.1 1.1 1.9v.1c0 .8-.4 1.5-1.1 1.9-.3.2-.7.3-1.2.3h-4.1v-1.7zm8 6.7c0 1.4-1.1 2.6-2.6 2.6h-5.6v-5.2h5.8c1.3-.1 2.4 1 2.4 2.6z" fill="url(#b)"/></g></svg>