<svg width="61" height="68" xmlns="http://www.w3.org/2000/svg"><defs><linearGradient x1="-6.48%" y1="91.037%" x2="103.842%" y2="-6.895%" id="a"><stop stop-color="#4AFDCB" offset="0%"/><stop stop-color="#5DA5FD" offset="100%"/></linearGradient></defs><path d="M30.4 67.8c16.7 0 30.4-13.6 30.4-30.4v-28c0-2.5-1-4.9-2.8-6.7C56.2 1 53.8 0 51.3 0c-2.8 0-5.3 1.2-7 3.1l-.3-.3C42.2 1 39.8 0 37.3 0c-2.8 0-5.3 1.2-7 3.1l-.3-.3C28.3 1 25.9 0 23.4 0c-2.8 0-5.3 1.2-7 3.1-1.7-1.9-4.2-3.1-7-3.1C4.2 0 0 4.2 0 9.4v28c0 16.8 13.6 30.4 30.4 30.4zM46.7 9.4c0-2.5 2-4.5 4.5-4.5 1.2 0 2.4.5 3.2 1.3.9.9 1.3 2 1.3 3.2v12.1h-9.1V9.4h.1zm-13.9 0c0-2.5 2-4.5 4.5-4.5 1.2 0 2.4.5 3.2 1.3.9.9 1.3 2 1.3 3.2v12.2h-9.1V9.4h.1zm-14 0c0-2.5 2-4.5 4.5-4.5 1.2 0 2.4.5 3.2 1.3.9.9 1.3 2 1.3 3.2v12.2h-5V24c0 1.4.2 2.8.5 4.1-2.5 0-4.5-2-4.5-4.5V9.4zM4.9 19.6V9.4c0-2.5 2-4.5 4.5-4.5s4.5 2 4.5 4.5v14.1c0 2.5-2 4.5-4.5 4.5s-4.5-2-4.5-4.5v-3.9zm0 12.2c1.3.7 2.9 1.2 4.5 1.2 2.8 0 5.3-1.2 7-3.1 1.7 1.9 4.2 3.1 7 3.1.6 0 1.3-.1 1.9-.2 1.6 2.8 3.9 5.1 6.7 6.6-4.2.8-7.3 4.4-7.3 8.8v5.1H27v-5.1c0-3.6 2.9-6.6 6.6-6.6h14.5v-4.9h-7.5c-6.2 0-11.4-4.5-12.5-10.3h27.8v10.9c0 14-11.4 25.5-25.5 25.5S4.9 51.5 4.9 37.4v-5.6z" fill="url(#a)"/></svg>