<?xml version="1.0" encoding="UTF-8" standalone="no"?>
<svg
   xmlns:dc="http://purl.org/dc/elements/1.1/"
   xmlns:cc="http://creativecommons.org/ns#"
   xmlns:rdf="http://www.w3.org/1999/02/22-rdf-syntax-ns#"
   xmlns:svg="http://www.w3.org/2000/svg"
   xmlns="http://www.w3.org/2000/svg"
   version="1.1"
   id="Layer_1"
   x="0px"
   y="0px"
   viewBox="0 0 260 100"
   xml:space="preserve"
   width="260"
   height="100"><metadata
   id="metadata121"><rdf:RDF><cc:Work
       rdf:about=""><dc:format>image/svg+xml</dc:format><dc:type
         rdf:resource="http://purl.org/dc/dcmitype/StillImage" /><dc:title></dc:title></cc:Work></rdf:RDF></metadata><defs
   id="defs119"><style
     id="style984">
            .cls-1,.cls-2{fill:#fff}.cls-1{stroke-miterlimit:10;stroke-width:10px}
        </style></defs>
<style
   type="text/css"
   id="style2">
	.st0{fill:#030609;}
	.st1{fill:#FFFFFF;}
	.st2{fill:url(#SVGID_1_);}
	.st34{fill:url(#SVGID_2_111);}
	.st4{fill:url(#SVGID_3_);}
	.st5{fill:url(#SVGID_4_444);}
	.st611{fill:url(#SVGID_5_1);}
	.st7{fill:url(#SVGID_6_);}
	.st8{fill:url(#SVGID_7_);}
	.st9{fill:url(#SVGID_8_);}
	.st10{fill:url(#SVGID_9_);}
	.st11{fill:url(#SVGID_10_);}
	.st12{fill:url(#SVGID_11_);}
	.st13{fill:url(#SVGID_12_);}
</style>

<g
   id="g26"
   transform="matrix(0.30409357,0,0,0.30409357,-171.81287,-161.34503)"
   style="stroke-width:3.28847075">
	<path
   class="st1"
   d="m 921.6,643.7 v 25 h 37.3 v 7.4 h -37.3 v 34 h -9 v -73.7 h 48.8 v 7.4 h -39.8 z"
   id="path6"
   style="fill:#ffffff;stroke-width:3.28847075" />
	<path
   class="st1"
   d="m 975.8,643.7 c -4,0 -6.6,-1.2 -6.6,-5.3 0,-4.4 2.5,-5.2 6.6,-5.2 3.8,0 6.3,0.8 6.3,5.2 0,4.2 -2.5,5.3 -6.3,5.3 z m -4.4,66.4 v -59 h 8.5 v 59 z"
   id="path8"
   style="fill:#ffffff;stroke-width:3.28847075" />
	<path
   class="st1"
   d="m 1000.4,677.7 v 32.4 h -8.6 v -59 h 3.9 l 2.6,10.1 c 2.3,-6 8.5,-11.3 22.5,-11.1 v 7.8 c -17.1,-0.7 -20.4,7 -20.4,19.8 z"
   id="path10"
   style="fill:#ffffff;stroke-width:3.28847075" />
	<path
   class="st1"
   d="m 1052.6,710.8 c -19.5,0 -28.2,-7.7 -27.9,-22.7 h 8.4 c -0.1,10 5.6,15.7 19.4,15.7 12.6,0 16.7,-4.8 16.8,-9.3 0.6,-15.3 -43.2,-6.1 -43.4,-27 -0.2,-10 7.1,-17.1 25.1,-17.1 18.7,0 25.3,8.9 25.3,21.8 h -8.1 c -0.2,-9.2 -4.7,-14.9 -17.5,-14.9 -12.4,0 -16.5,4.3 -16.2,9.7 0.2,13.5 43.3,5.5 43.3,27 0.1,8.4 -7,16.8 -25.2,16.8 z"
   id="path12"
   style="fill:#ffffff;stroke-width:3.28847075" />
	<path
   class="st1"
   d="m 1098.7,658.3 v 34.6 c 0,7.3 3,10.6 14.3,10.6 1.3,0 2.5,0 4,-0.1 v 7.1 c -1.8,0.1 -3.6,0.2 -5.2,0.2 -15.3,0 -21.9,-5.1 -21.9,-17.9 v -34.6 h -8.1 v -5.4 l 8.1,-2 v -14.5 h 8.4 V 651 h 18.7 v 7.1 h -18.3 z"
   id="path14"
   style="fill:#ffffff;stroke-width:3.28847075" />
	<path
   class="st1"
   d="m 1155.7,710.1 h -29.4 v -73.7 h 28.8 c 21.3,0 29.5,7.8 29.5,18.9 0,6.3 -2.4,13.2 -9,15.2 6.9,2.3 11.3,10 11.3,17.2 0,11.9 -7.3,22.4 -31.2,22.4 z m -0.2,-58.8 H 1145 v 14.3 h 10.3 c 9.3,0 11.1,-3.2 11.1,-7.3 -0.1,-4.1 -1.4,-7 -10.9,-7 z m 0.9,27.7 H 1145 v 16.1 h 11.1 c 10,0 11.9,-3.8 11.9,-8.2 -0.1,-4.6 -1.6,-7.9 -11.6,-7.9 z"
   id="path16"
   style="fill:#ffffff;stroke-width:3.28847075" />
	<path
   class="st1"
   d="m 1198,710.1 v -81.5 h 18 v 81.5 z"
   id="path18"
   style="fill:#ffffff;stroke-width:3.28847075" />
	<path
   class="st1"
   d="m 1255.7,711.1 c -23.4,0 -29.4,-15.3 -29.4,-30.5 0,-15.3 6.2,-30.3 29.5,-30.3 23.2,0 29.5,15 29.5,30.3 0.1,15.6 -6.3,30.5 -29.6,30.5 z m 0.2,-45.8 c -9.2,0 -12.1,6 -12.1,15.3 0,9.4 3,15.4 12,15.4 9.3,0 12.3,-6 12.3,-15.4 0,-9.2 -2.7,-15.3 -12.2,-15.3 z"
   id="path20"
   style="fill:#ffffff;stroke-width:3.28847075" />
	<path
   class="st1"
   d="m 1350.9,685.9 c 0,15.6 -8.6,25.2 -27.5,25.2 -24.1,0 -30.3,-15 -30.3,-30.4 0,-15.4 6.3,-30.4 30,-30.4 18.9,0 27.9,9.8 27.9,25.3 h -18.1 c -0.7,-7.6 -3.5,-10.4 -10.1,-10.4 -9.2,0 -11.8,5.5 -11.8,15.3 0,9.8 2.3,15.6 11.8,15.6 6.9,0 9.4,-3.3 10.1,-10.3 h 18 z"
   id="path22"
   style="fill:#ffffff;stroke-width:3.28847075" />
	<path
   class="st1"
   d="m 1396.3,710.1 -17.1,-24.9 v 24.9 h -18 v -81.5 h 18 v 45 l 15.8,-22.4 h 23.7 l -25.3,27.7 26.6,31.1 h -23.7 z"
   id="path24"
   style="fill:#ffffff;stroke-width:3.28847075" />
</g>
<g
   id="g84"
   transform="matrix(0.30409357,0,0,0.30409357,-171.81287,-161.34503)"
   style="stroke-width:3.28847075">
	<linearGradient
   id="SVGID_1_"
   gradientUnits="userSpaceOnUse"
   x1="925.32782"
   y1="714.40332"
   x2="925.32782"
   y2="777.25171">
		<stop
   offset="0.2351"
   style="stop-color:#00D7E0"
   id="stop28" />
		<stop
   offset="0.9324"
   style="stop-color:#0088A2"
   id="stop30" />
	</linearGradient>
	<path
   class="st2"
   d="m 927,761 h -4 l -11.4,-26.2 h 4.3 l 9.1,22.8 9.6,-22.8 h 4.4 z"
   id="path33"
   style="fill:url(#SVGID_1_);stroke-width:3.28847075" />
	<linearGradient
   id="SVGID_2_111"
   gradientUnits="userSpaceOnUse"
   x1="967.56567"
   y1="714.40332"
   x2="967.56567"
   y2="777.25171">
		<stop
   offset="0.2351"
   style="stop-color:#00D7E0"
   id="stop35" />
		<stop
   offset="0.9324"
   style="stop-color:#0088A2"
   id="stop37" />
	</linearGradient>
	<path
   class="st34"
   d="m 968.2,761.4 c -10.7,0 -13.1,-6.5 -13.1,-13.6 0,-6.8 2.7,-13.3 13,-13.3 9.2,0 11.9,5.8 11.9,13 0,0.7 0,1.2 -0.1,1.9 h -20.8 c 0.3,5.2 2.6,8.8 9,8.8 5.5,0 7.5,-2.7 7.9,-5.5 h 4 c -0.4,4.7 -3.4,8.7 -11.8,8.7 z m -0.4,-23.8 c -6.7,0 -8.5,4.1 -8.7,8.9 H 976 c 0,-5 -2.2,-8.9 -8.2,-8.9 z"
   id="path40"
   style="fill:url(#SVGID_2_111);stroke-width:3.28847075" />
	<linearGradient
   id="SVGID_3_"
   gradientUnits="userSpaceOnUse"
   x1="1011.65"
   y1="714.40332"
   x2="1011.65"
   y2="777.25171">
		<stop
   offset="0.2351"
   style="stop-color:#00D7E0"
   id="stop42" />
		<stop
   offset="0.9324"
   style="stop-color:#0088A2"
   id="stop44" />
	</linearGradient>
	<path
   class="st4"
   d="m 1019.6,761 v -14.3 c 0,-5.6 -1.1,-9 -7.8,-9 -6.7,0 -8.2,3.2 -8.2,9 V 761 h -3.8 v -26.2 h 1.8 l 1.1,4.8 c 1,-2.7 3.8,-5.1 10.1,-5.1 8.9,0 10.6,5 10.6,12.5 v 14 z"
   id="path47"
   style="fill:url(#SVGID_3_);stroke-width:3.28847075" />
	<linearGradient
   id="SVGID_4_444"
   gradientUnits="userSpaceOnUse"
   x1="1049.3337"
   y1="714.40332"
   x2="1049.3337"
   y2="777.25171">
		<stop
   offset="0.2351"
   style="stop-color:#00D7E0"
   id="stop49" />
		<stop
   offset="0.9324"
   style="stop-color:#0088A2"
   id="stop51" />
	</linearGradient>
	<path
   class="st5"
   d="m 1049,738 v 15.4 c 0,3.2 1.3,4.7 6.3,4.7 0.6,0 1.1,0 1.8,-0.1 v 3.2 c -0.8,0.1 -1.6,0.1 -2.3,0.1 -6.8,0 -9.7,-2.3 -9.7,-7.9 V 738 h -3.6 v -2.4 l 3.6,-0.9 v -6.4 h 3.7 v 6.6 h 8.3 v 3.2 h -8.1 z"
   id="path54"
   style="fill:url(#SVGID_4_444);stroke-width:3.28847075" />
	<linearGradient
   id="SVGID_5_1"
   gradientUnits="userSpaceOnUse"
   x1="1087.7885"
   y1="714.40332"
   x2="1087.7885"
   y2="777.25171">
		<stop
   offset="0.2351"
   style="stop-color:#00D7E0"
   id="stop56" />
		<stop
   offset="0.9324"
   style="stop-color:#0088A2"
   id="stop58" />
	</linearGradient>
	<path
   class="st611"
   d="m 1097.5,761 -0.8,-4.7 c -1,2.7 -3.8,5 -10.1,5 -8.9,0 -10.6,-4.9 -10.6,-12.4 v -14.1 h 3.7 v 14.4 c 0,5.6 1.2,8.9 7.9,8.9 6.7,0 8.2,-3.3 8.2,-9.1 v -14.2 h 3.8 V 761 Z"
   id="path61"
   style="fill:url(#SVGID_5_1);stroke-width:3.28847075" />
	<linearGradient
   id="SVGID_6_"
   gradientUnits="userSpaceOnUse"
   x1="1126.8949"
   y1="714.40332"
   x2="1126.8949"
   y2="777.25171">
		<stop
   offset="0.2351"
   style="stop-color:#00D7E0"
   id="stop63" />
		<stop
   offset="0.9324"
   style="stop-color:#0088A2"
   id="stop65" />
	</linearGradient>
	<path
   class="st7"
   d="M 1124.3,746.7 V 761 h -3.8 v -26.2 h 1.7 l 1.2,4.5 c 1,-2.7 3.8,-5 10,-4.9 v 3.5 c -7.6,-0.3 -9.1,3.1 -9.1,8.8 z"
   id="path68"
   style="fill:url(#SVGID_6_);stroke-width:3.28847075" />
	<linearGradient
   id="SVGID_7_"
   gradientUnits="userSpaceOnUse"
   x1="1162.4272"
   y1="714.40332"
   x2="1162.4272"
   y2="777.25171">
		<stop
   offset="0.2351"
   style="stop-color:#00D7E0"
   id="stop70" />
		<stop
   offset="0.9324"
   style="stop-color:#0088A2"
   id="stop72" />
	</linearGradient>
	<path
   class="st8"
   d="m 1163.1,761.4 c -10.7,0 -13.1,-6.5 -13.1,-13.6 0,-6.8 2.7,-13.3 13,-13.3 9.2,0 11.9,5.8 11.9,13 0,0.7 0,1.2 -0.1,1.9 H 1154 c 0.3,5.2 2.6,8.8 9,8.8 5.5,0 7.5,-2.7 7.9,-5.5 h 4 c -0.4,4.7 -3.4,8.7 -11.8,8.7 z m -0.4,-23.8 c -6.7,0 -8.5,4.1 -8.7,8.9 h 16.9 c 0,-5 -2.3,-8.9 -8.2,-8.9 z"
   id="path75"
   style="fill:url(#SVGID_7_);stroke-width:3.28847075" />
	<linearGradient
   id="SVGID_8_"
   gradientUnits="userSpaceOnUse"
   x1="1205.2357"
   y1="714.40332"
   x2="1205.2357"
   y2="777.25171">
		<stop
   offset="0.2351"
   style="stop-color:#00D7E0"
   id="stop77" />
		<stop
   offset="0.9324"
   style="stop-color:#0088A2"
   id="stop79" />
	</linearGradient>
	<path
   class="st9"
   d="m 1205.8,761.4 c -8.6,0 -12.5,-3.4 -12.4,-10.1 h 3.7 c -0.1,4.5 2.5,7 8.6,7 5.6,0 7.4,-2.1 7.5,-4.1 0.3,-6.8 -19.2,-2.7 -19.3,-12 -0.1,-4.5 3.2,-7.6 11.2,-7.6 8.3,0 11.3,3.9 11.3,9.7 h -3.6 c -0.1,-4.1 -2.1,-6.6 -7.8,-6.6 -5.5,0 -7.3,1.9 -7.2,4.3 0.1,6 19.2,2.5 19.2,12 0,3.6 -3.1,7.4 -11.2,7.4 z"
   id="path82"
   style="fill:url(#SVGID_8_);stroke-width:3.28847075" />
</g>
<g
   id="g114"
   transform="matrix(0.30409357,0,0,0.30409357,-171.81287,-161.34503)"
   style="stroke-width:3.28847075">
	<linearGradient
   id="SVGID_9_"
   gradientUnits="userSpaceOnUse"
   x1="864.7113"
   y1="605.53278"
   x2="700.7113"
   y2="869.53278">
		<stop
   offset="0.2351"
   style="stop-color:#00D7E0"
   id="stop86" />
		<stop
   offset="0.9324"
   style="stop-color:#0088A2"
   id="stop88" />
	</linearGradient>
	<polygon
   class="st10"
   points="806.8,665.9 833,695 806.8,724.1 785.3,695 "
   id="polygon91"
   style="fill:url(#SVGID_9_);stroke-width:3.28847075" />
	<linearGradient
   id="SVGID_10_"
   gradientUnits="userSpaceOnUse"
   x1="718.7641"
   y1="514.86859"
   x2="554.7641"
   y2="778.86859">
		<stop
   offset="0.2351"
   style="stop-color:#00D7E0"
   id="stop93" />
		<stop
   offset="0.9324"
   style="stop-color:#0088A2"
   id="stop95" />
	</linearGradient>
	<polygon
   class="st11"
   points="565,682.1 614.1,593.4 744.8,563 667.8,682.1 "
   id="polygon98"
   style="fill:url(#SVGID_10_);stroke-width:3.28847075" />
	<linearGradient
   id="SVGID_11_"
   gradientUnits="userSpaceOnUse"
   x1="785.89203"
   y1="556.56927"
   x2="621.89203"
   y2="820.56927">
		<stop
   offset="0.2351"
   style="stop-color:#00D7E0"
   id="stop100" />
		<stop
   offset="0.9324"
   style="stop-color:#0088A2"
   id="stop102" />
	</linearGradient>
	<polygon
   class="st12"
   points="744.8,827 614.1,796.6 565,707.9 667.8,707.9 "
   id="polygon105"
   style="fill:url(#SVGID_11_);stroke-width:3.28847075" />
	<linearGradient
   id="SVGID_12_"
   gradientUnits="userSpaceOnUse"
   x1="842.81671"
   y1="591.93158"
   x2="678.81671"
   y2="855.93158">
		<stop
   offset="0.2351"
   style="stop-color:#00D7E0"
   id="stop107" />
		<stop
   offset="0.9324"
   style="stop-color:#0088A2"
   id="stop109" />
	</linearGradient>
	<polygon
   class="st13"
   points="804.7,625 759,687.3 753.3,695 758.9,702.7 804.7,765 804.8,764.9 815.2,779.1 774.5,825.5 690.1,695 774.5,564.5 815.2,610.9 804.8,625.1 "
   id="polygon112"
   style="fill:url(#SVGID_12_);stroke-width:3.28847075" />
</g>
</svg>