<svg xmlns="http://www.w3.org/2000/svg" viewBox="0 0 266.126 100.105">
    <defs>
        <style>
            .cls-1,.cls-2{fill:#fff}.cls-1{stroke-miterlimit:10;stroke-width:10px}
        </style>
    </defs>
    <g id="logo_coinbar" transform="translate(-31.4 -10.9)">
        <path id="Path_3" d="M58.446 99.657a16.572 16.572 0 0 1 0-33.117h67.891L121.77 55.4l-63.425.05h-.2a27.663 27.663 0 0 0 0 55.3h63.625l4.566-11.139z" class="cls-2" data-name="Path 3" transform="translate(0 -22.171)"/>
        <path id="Path_4" d="M160.059 60.978A27.843 27.843 0 0 0 144.2 10.95l-71.4-.05 4.566 11.139H143.9a16.69 16.69 0 0 1 .652 33.318H80.728v11.19h63.826a16.69 16.69 0 0 1-.652 33.318H77.366L72.8 111h71.4a27.843 27.843 0 0 0 15.856-50.027z" class="cls-2" data-name="Path 4" transform="translate(-20.626)"/>
        <g id="Group_2" data-name="Group 2" transform="translate(177.45 46.105)">
            <path id="Path_5" d="M47.457 270.959a6.359 6.359 0 0 1-1.857 1.1 11.92 11.92 0 0 1-4.917 1.1 8.844 8.844 0 0 1-6.674-2.609 10.1 10.1 0 0 1 .2-13.548 9.191 9.191 0 0 1 6.774-2.71 9.827 9.827 0 0 1 4.416.953 4.484 4.484 0 0 1 1.756 1.254l-1.955 3.02a6.511 6.511 0 0 0-3.763-1.254 4.806 4.806 0 0 0-3.763 1.756 5.559 5.559 0 0 0-1.254 3.613 5.887 5.887 0 0 0 1.2 3.914 4.5 4.5 0 0 0 3.663 1.606 9.013 9.013 0 0 0 4.265-1.3z" class="cls-2" data-name="Path 5" transform="translate(-31.5 -246.372)"/>
            <path id="Path_6" d="M84.864 263.483a9.719 9.719 0 0 1-2.559 6.975 8.994 8.994 0 0 1-6.724 2.659 8.361 8.361 0 0 1-6.423-2.609 10.391 10.391 0 0 1 .151-13.6 8.886 8.886 0 0 1 6.674-2.71 8.546 8.546 0 0 1 6.473 2.609 9.713 9.713 0 0 1 2.408 6.676zm-4.917.2a6.221 6.221 0 0 0-1.2-3.964 3.732 3.732 0 0 0-3.061-1.505 3.663 3.663 0 0 0-3.011 1.455 7.217 7.217 0 0 0 .1 7.828A3.825 3.825 0 0 0 75.883 269a3.506 3.506 0 0 0 2.961-1.455 5.908 5.908 0 0 0 1.103-3.861z" class="cls-2" data-name="Path 6" transform="translate(-49.037 -246.322)"/>
            <path id="Path_7" d="M115.117 272.167H110.2v-16.86l4.917-2.007z" class="cls-2" data-name="Path 7" transform="translate(-70.71 -245.874)"/>
            <path id="Path_8" d="M144.506 272.615h-4.917v-9.433c0-2.258-.251-3.613-.753-4.165a2.517 2.517 0 0 0-1.907-.652 5.808 5.808 0 0 0-3.312 1.1v13.1H128.7V254.7h4.165v1.355a8.013 8.013 0 0 1 5.068-1.857 6.321 6.321 0 0 1 4.667 1.756 6.172 6.172 0 0 1 1.706 3.362 20.7 20.7 0 0 1 .2 3.613z" class="cls-2" data-name="Path 8" transform="translate(-79.927 -246.322)"/>
            <path id="Path_9" d="M185.51 255.41a10.05 10.05 0 0 1-2.559 7.175 9.07 9.07 0 0 1-6.925 2.71 24.157 24.157 0 0 1-7.527-1.4v-23.388l4.917-2.007v9.132a8.929 8.929 0 0 1 4.416-1.254 7.032 7.032 0 0 1 5.52 2.459 9.442 9.442 0 0 1 2.158 6.573zm-4.917.05a5.746 5.746 0 0 0-1.2-3.864 3.48 3.48 0 0 0-2.71-1.254 5.663 5.663 0 0 0-3.262 1.1v9.534a8.639 8.639 0 0 0 2.609.351 3.955 3.955 0 0 0 3.312-1.606 6.454 6.454 0 0 0 1.251-4.261z" class="cls-2" data-name="Path 9" transform="translate(-99.756 -238.5)"/>
            <path id="Path_10" d="M223.3 272.715h-4.265v-1.255a9.083 9.083 0 0 1-5.068 1.656 5.362 5.362 0 0 1-5.77-5.72q0-6.473 9.935-6.473h.5a3.034 3.034 0 0 0-.552-2.107 3.553 3.553 0 0 0-2.559-.7 9.743 9.743 0 0 0-4.767 1.3l-1.656-3.111a10.658 10.658 0 0 1 6.774-1.907 7.939 7.939 0 0 1 5.871 2.007 4.776 4.776 0 0 1 1.257 2.511 20.326 20.326 0 0 1 .2 3.161v10.638zm-4.616-4.416v-4.064h-.753c-3.613 0-5.419.953-5.419 2.81 0 1.556.9 2.358 2.76 2.358a6.107 6.107 0 0 0 3.415-1.103z" class="cls-2" data-name="Path 10" transform="translate(-119.536 -246.422)"/>
            <path id="Path_11" d="M258.743 254.744l-1.1 3.713a5.916 5.916 0 0 0-1.1-.1 5.664 5.664 0 0 0-5.018 2.559v11.742H246.6v-17.864h4.165v2.258a6.313 6.313 0 0 1 1.656-1.505 7.813 7.813 0 0 1 4.265-1.254 4.124 4.124 0 0 1 2.057.451z" class="cls-2" data-name="Path 11" transform="translate(-138.667 -246.364)"/>
        </g>
    </g>
</svg>
