<svg xmlns="http://www.w3.org/2000/svg" width="120" height="40" fill="none" viewBox="0 0 120 40">
    <g clip-path="url(#a)">
        <path fill="#26E1A1" d="M119.254 20.748a2.444 2.444 0 0 0 .622-2.52 2.442 2.442 0 0 0-1.985-1.674l-8.302-1.206a1.086 1.086 0 0 1-.817-.594l-3.711-7.522a2.445 2.445 0 0 0-2.205-1.37c-.942 0-1.788.525-2.205 1.37l-3.712 7.522c-.158.321-.464.543-.817.594l-8.302 1.207a2.444 2.444 0 0 0-1.985 1.673 2.444 2.444 0 0 0 .622 2.52l6.006 5.855c.256.25.374.61.313.961l-1.417 8.268a2.408 2.408 0 0 0 .536 1.993 2.485 2.485 0 0 0 3.031.598l7.424-3.903a1.112 1.112 0 0 1 1.011 0l7.425 3.903c.361.19.746.287 1.144.287.725 0 1.413-.323 1.886-.885a2.408 2.408 0 0 0 .537-1.993l-1.418-8.268a1.085 1.085 0 0 1 .313-.96l6.006-5.856z"/>
    </g>
    <g clip-path="url(#b)">
        <path fill="#26E1A1" d="M76.397 15.605a2.444 2.444 0 0 0 .622-2.52 2.444 2.444 0 0 0-1.985-1.674l-8.302-1.206a1.085 1.085 0 0 1-.817-.594l-3.711-7.522A2.444 2.444 0 0 0 59.999.72c-.942 0-1.788.525-2.205 1.37l-3.712 7.523c-.158.32-.464.542-.818.594l-8.301 1.206a2.444 2.444 0 0 0-1.986 1.673 2.444 2.444 0 0 0 .622 2.52l6.007 5.856c.256.25.373.61.313.96l-1.417 8.268a2.407 2.407 0 0 0 .536 1.994 2.485 2.485 0 0 0 3.031.598l7.424-3.904c.31-.163.701-.161 1.01 0l7.426 3.904c.36.19.746.286 1.144.286.725 0 1.413-.323 1.886-.884a2.406 2.406 0 0 0 .536-1.994l-1.417-8.267c-.06-.352.057-.712.313-.961l6.006-5.856z"/>
    </g>
    <g clip-path="url(#c)">
        <path fill="#26E1A1" d="M33.54 20.748a2.444 2.444 0 0 0 .622-2.52 2.444 2.444 0 0 0-1.986-1.674l-8.301-1.206a1.084 1.084 0 0 1-.817-.594l-3.712-7.522a2.444 2.444 0 0 0-2.205-1.37c-.941 0-1.787.525-2.204 1.37l-3.712 7.522c-.158.321-.464.543-.818.594l-8.301 1.207A2.444 2.444 0 0 0 .12 18.227a2.444 2.444 0 0 0 .622 2.52l6.007 5.855c.256.25.373.61.313.961l-1.417 8.268a2.407 2.407 0 0 0 .536 1.993 2.485 2.485 0 0 0 3.03.598l7.425-3.903c.31-.163.701-.162 1.01 0l7.426 3.903c.36.19.746.287 1.143.287.726 0 1.414-.323 1.887-.885a2.406 2.406 0 0 0 .536-1.993l-1.418-8.268c-.06-.352.057-.71.314-.96l6.006-5.856z"/>
    </g>
    <defs>
        <clipPath id="a">
            <path fill="#fff" d="M0 0h34.149v34.149H0z" transform="translate(85.714 5.143) scale(1.004)"/>
        </clipPath>
        <clipPath id="b">
            <path fill="#fff" d="M0 0h34.149v34.149H0z" transform="translate(42.857) scale(1.004)"/>
        </clipPath>
        <clipPath id="c">
            <path fill="#fff" d="M0 0h34.149v34.149H0z" transform="translate(0 5.143) scale(1.004)"/>
        </clipPath>
    </defs>
</svg>
