<svg xmlns="http://www.w3.org/2000/svg" width="1858" height="965" fill="none" viewBox="0 0 1858 965">
    <g fill="#585A86" opacity=".4">
        <path d="M1.092 2.14a1.08 1.08 0 0 0 1.091-1.07C2.183.479 1.695 0 1.092 0A1.08 1.08 0 0 0 0 1.07c0 .59.489 1.07 1.092 1.07zM1.092 109.124c.603 0 1.091-.479 1.091-1.07 0-.591-.488-1.07-1.091-1.07S0 107.463 0 108.054c0 .591.489 1.07 1.092 1.07zM1.092 216.109c.603 0 1.091-.479 1.091-1.07 0-.591-.488-1.07-1.091-1.07S0 214.448 0 215.039c0 .591.489 1.07 1.092 1.07zM1.092 323.093c.603 0 1.091-.479 1.091-1.07 0-.591-.488-1.07-1.091-1.07S0 321.432 0 322.023c0 .591.489 1.07 1.092 1.07zM1.092 430.078c.603 0 1.091-.479 1.091-1.07 0-.591-.488-1.07-1.091-1.07S0 428.417 0 429.008c0 .591.489 1.07 1.092 1.07zM1.092 537.062c.603 0 1.091-.479 1.091-1.07 0-.591-.488-1.07-1.091-1.07S0 535.401 0 535.992c0 .591.489 1.07 1.092 1.07zM1.092 644.046a1.08 1.08 0 0 0 1.091-1.069c0-.591-.488-1.07-1.091-1.07S0 642.386 0 642.977c0 .59.489 1.069 1.092 1.069zM1.092 751.032c.603 0 1.091-.479 1.091-1.07 0-.591-.488-1.07-1.091-1.07S0 749.371 0 749.962c0 .591.489 1.07 1.092 1.07zM1.092 858.016c.603 0 1.091-.479 1.091-1.07 0-.591-.488-1.07-1.091-1.07S0 856.355 0 856.946c0 .591.489 1.07 1.092 1.07zM1.092 965c.603 0 1.091-.479 1.091-1.07 0-.591-.488-1.07-1.091-1.07S0 963.339 0 963.93c0 .591.489 1.07 1.092 1.07zM110.257 2.14a1.08 1.08 0 0 0 1.091-1.07c0-.591-.488-1.07-1.091-1.07s-1.092.479-1.092 1.07c0 .59.489 1.07 1.092 1.07zM110.257 109.124a1.08 1.08 0 0 0 1.091-1.07 1.08 1.08 0 0 0-1.091-1.07c-.603 0-1.092.479-1.092 1.07 0 .591.489 1.07 1.092 1.07zM110.257 216.109a1.08 1.08 0 0 0 1.091-1.07 1.08 1.08 0 0 0-1.091-1.07c-.603 0-1.092.479-1.092 1.07 0 .591.489 1.07 1.092 1.07zM110.257 323.093a1.08 1.08 0 0 0 1.091-1.07 1.08 1.08 0 0 0-1.091-1.07c-.603 0-1.092.479-1.092 1.07 0 .591.489 1.07 1.092 1.07zM110.257 430.078a1.08 1.08 0 0 0 1.091-1.07 1.08 1.08 0 0 0-1.091-1.07c-.603 0-1.092.479-1.092 1.07 0 .591.489 1.07 1.092 1.07zM110.257 537.062a1.08 1.08 0 0 0 1.091-1.07 1.08 1.08 0 0 0-1.091-1.07c-.603 0-1.092.479-1.092 1.07 0 .591.489 1.07 1.092 1.07zM110.257 644.046a1.08 1.08 0 0 0 1.091-1.069 1.08 1.08 0 0 0-1.091-1.07c-.603 0-1.092.479-1.092 1.07 0 .59.489 1.069 1.092 1.069zM110.257 751.032a1.08 1.08 0 0 0 1.091-1.07 1.08 1.08 0 0 0-1.091-1.07c-.603 0-1.092.479-1.092 1.07 0 .591.489 1.07 1.092 1.07zM110.257 858.016a1.08 1.08 0 0 0 1.091-1.07 1.08 1.08 0 0 0-1.091-1.07c-.603 0-1.092.479-1.092 1.07 0 .591.489 1.07 1.092 1.07zM110.257 965a1.08 1.08 0 0 0 1.091-1.07 1.08 1.08 0 0 0-1.091-1.07c-.603 0-1.092.479-1.092 1.07 0 .591.489 1.07 1.092 1.07zM219.424 2.14a1.08 1.08 0 0 0 1.091-1.07c0-.591-.488-1.07-1.091-1.07s-1.092.479-1.092 1.07c0 .59.489 1.07 1.092 1.07zM219.424 109.124a1.08 1.08 0 0 0 1.091-1.07 1.08 1.08 0 0 0-1.091-1.07c-.603 0-1.092.479-1.092 1.07 0 .591.489 1.07 1.092 1.07zM219.424 216.109a1.08 1.08 0 0 0 1.091-1.07 1.08 1.08 0 0 0-1.091-1.07c-.603 0-1.092.479-1.092 1.07 0 .591.489 1.07 1.092 1.07zM219.424 323.093a1.08 1.08 0 0 0 1.091-1.07 1.08 1.08 0 0 0-1.091-1.07c-.603 0-1.092.479-1.092 1.07 0 .591.489 1.07 1.092 1.07zM219.424 430.078a1.08 1.08 0 0 0 1.091-1.07 1.08 1.08 0 0 0-1.091-1.07c-.603 0-1.092.479-1.092 1.07 0 .591.489 1.07 1.092 1.07zM219.424 537.062a1.08 1.08 0 0 0 1.091-1.07 1.08 1.08 0 0 0-1.091-1.07c-.603 0-1.092.479-1.092 1.07 0 .591.489 1.07 1.092 1.07zM219.424 644.046a1.08 1.08 0 0 0 1.091-1.069 1.08 1.08 0 0 0-1.091-1.07c-.603 0-1.092.479-1.092 1.07 0 .59.489 1.069 1.092 1.069zM219.424 751.032a1.08 1.08 0 0 0 1.091-1.07 1.08 1.08 0 0 0-1.091-1.07c-.603 0-1.092.479-1.092 1.07 0 .591.489 1.07 1.092 1.07zM219.424 858.016a1.08 1.08 0 0 0 1.091-1.07 1.08 1.08 0 0 0-1.091-1.07c-.603 0-1.092.479-1.092 1.07 0 .591.489 1.07 1.092 1.07zM219.424 965a1.08 1.08 0 0 0 1.091-1.07 1.08 1.08 0 0 0-1.091-1.07c-.603 0-1.092.479-1.092 1.07 0 .591.489 1.07 1.092 1.07zM328.589 2.14a1.08 1.08 0 0 0 1.091-1.07c0-.591-.488-1.07-1.091-1.07s-1.092.479-1.092 1.07c0 .59.489 1.07 1.092 1.07zM328.589 109.124a1.08 1.08 0 0 0 1.091-1.07 1.08 1.08 0 0 0-1.091-1.07c-.603 0-1.092.479-1.092 1.07 0 .591.489 1.07 1.092 1.07zM328.589 216.109a1.08 1.08 0 0 0 1.091-1.07 1.08 1.08 0 0 0-1.091-1.07c-.603 0-1.092.479-1.092 1.07 0 .591.489 1.07 1.092 1.07zM328.589 323.093a1.08 1.08 0 0 0 1.091-1.07 1.08 1.08 0 0 0-1.091-1.07c-.603 0-1.092.479-1.092 1.07 0 .591.489 1.07 1.092 1.07zM328.589 430.078a1.08 1.08 0 0 0 1.091-1.07 1.08 1.08 0 0 0-1.091-1.07c-.603 0-1.092.479-1.092 1.07 0 .591.489 1.07 1.092 1.07zM328.589 537.062a1.08 1.08 0 0 0 1.091-1.07 1.08 1.08 0 0 0-1.091-1.07c-.603 0-1.092.479-1.092 1.07 0 .591.489 1.07 1.092 1.07zM328.589 644.046a1.08 1.08 0 0 0 1.091-1.069 1.08 1.08 0 0 0-1.091-1.07c-.603 0-1.092.479-1.092 1.07 0 .59.489 1.069 1.092 1.069zM328.589 751.032a1.08 1.08 0 0 0 1.091-1.07 1.08 1.08 0 0 0-1.091-1.07c-.603 0-1.092.479-1.092 1.07 0 .591.489 1.07 1.092 1.07zM328.589 858.016a1.08 1.08 0 0 0 1.091-1.07 1.08 1.08 0 0 0-1.091-1.07c-.603 0-1.092.479-1.092 1.07 0 .591.489 1.07 1.092 1.07zM328.589 965a1.08 1.08 0 0 0 1.091-1.07 1.08 1.08 0 0 0-1.091-1.07c-.603 0-1.092.479-1.092 1.07 0 .591.489 1.07 1.092 1.07zM437.755 2.14a1.08 1.08 0 0 0 1.091-1.07c0-.591-.488-1.07-1.091-1.07s-1.092.479-1.092 1.07c0 .59.489 1.07 1.092 1.07zM437.755 109.124a1.08 1.08 0 0 0 1.091-1.07 1.08 1.08 0 0 0-1.091-1.07c-.603 0-1.092.479-1.092 1.07 0 .591.489 1.07 1.092 1.07zM437.755 216.109a1.08 1.08 0 0 0 1.091-1.07 1.08 1.08 0 0 0-1.091-1.07c-.603 0-1.092.479-1.092 1.07 0 .591.489 1.07 1.092 1.07zM437.755 323.093a1.08 1.08 0 0 0 1.091-1.07 1.08 1.08 0 0 0-1.091-1.07c-.603 0-1.092.479-1.092 1.07 0 .591.489 1.07 1.092 1.07zM437.755 430.078a1.08 1.08 0 0 0 1.091-1.07 1.08 1.08 0 0 0-1.091-1.07c-.603 0-1.092.479-1.092 1.07 0 .591.489 1.07 1.092 1.07zM437.755 537.062a1.08 1.08 0 0 0 1.091-1.07 1.08 1.08 0 0 0-1.091-1.07c-.603 0-1.092.479-1.092 1.07 0 .591.489 1.07 1.092 1.07zM437.755 644.046a1.08 1.08 0 0 0 1.091-1.069 1.08 1.08 0 0 0-1.091-1.07c-.603 0-1.092.479-1.092 1.07 0 .59.489 1.069 1.092 1.069zM437.755 751.032a1.08 1.08 0 0 0 1.091-1.07 1.08 1.08 0 0 0-1.091-1.07c-.603 0-1.092.479-1.092 1.07 0 .591.489 1.07 1.092 1.07zM437.755 858.016a1.08 1.08 0 0 0 1.091-1.07 1.08 1.08 0 0 0-1.091-1.07c-.603 0-1.092.479-1.092 1.07 0 .591.489 1.07 1.092 1.07zM437.755 965a1.08 1.08 0 0 0 1.091-1.07 1.08 1.08 0 0 0-1.091-1.07c-.603 0-1.092.479-1.092 1.07 0 .591.489 1.07 1.092 1.07zM546.92 2.14a1.08 1.08 0 0 0 1.091-1.07c0-.591-.488-1.07-1.091-1.07s-1.092.479-1.092 1.07c0 .59.489 1.07 1.092 1.07zM546.92 109.124a1.08 1.08 0 0 0 1.091-1.07 1.08 1.08 0 0 0-1.091-1.07c-.603 0-1.092.479-1.092 1.07 0 .591.489 1.07 1.092 1.07zM546.92 216.109a1.08 1.08 0 0 0 1.091-1.07 1.08 1.08 0 0 0-1.091-1.07c-.603 0-1.092.479-1.092 1.07 0 .591.489 1.07 1.092 1.07zM546.92 323.093a1.08 1.08 0 0 0 1.091-1.07 1.08 1.08 0 0 0-1.091-1.07c-.603 0-1.092.479-1.092 1.07 0 .591.489 1.07 1.092 1.07zM546.92 430.078a1.08 1.08 0 0 0 1.091-1.07 1.08 1.08 0 0 0-1.091-1.07c-.603 0-1.092.479-1.092 1.07 0 .591.489 1.07 1.092 1.07zM546.92 537.062a1.08 1.08 0 0 0 1.091-1.07 1.08 1.08 0 0 0-1.091-1.07c-.603 0-1.092.479-1.092 1.07 0 .591.489 1.07 1.092 1.07zM546.92 644.046a1.08 1.08 0 0 0 1.091-1.069 1.08 1.08 0 0 0-1.091-1.07c-.603 0-1.092.479-1.092 1.07 0 .59.489 1.069 1.092 1.069zM546.92 751.032a1.08 1.08 0 0 0 1.091-1.07 1.08 1.08 0 0 0-1.091-1.07c-.603 0-1.092.479-1.092 1.07 0 .591.489 1.07 1.092 1.07zM546.92 858.016a1.08 1.08 0 0 0 1.091-1.07 1.08 1.08 0 0 0-1.091-1.07c-.603 0-1.092.479-1.092 1.07 0 .591.489 1.07 1.092 1.07zM546.92 965a1.08 1.08 0 0 0 1.091-1.07 1.08 1.08 0 0 0-1.091-1.07c-.603 0-1.092.479-1.092 1.07 0 .591.489 1.07 1.092 1.07zM656.086 2.14a1.08 1.08 0 0 0 1.091-1.07c0-.591-.488-1.07-1.091-1.07s-1.092.479-1.092 1.07c0 .59.489 1.07 1.092 1.07zM656.086 109.124a1.08 1.08 0 0 0 1.091-1.07 1.08 1.08 0 0 0-1.091-1.07c-.603 0-1.092.479-1.092 1.07 0 .591.489 1.07 1.092 1.07zM656.086 216.109a1.08 1.08 0 0 0 1.091-1.07 1.08 1.08 0 0 0-1.091-1.07c-.603 0-1.092.479-1.092 1.07 0 .591.489 1.07 1.092 1.07zM656.086 323.093a1.08 1.08 0 0 0 1.091-1.07 1.08 1.08 0 0 0-1.091-1.07c-.603 0-1.092.479-1.092 1.07 0 .591.489 1.07 1.092 1.07zM656.086 430.078a1.08 1.08 0 0 0 1.091-1.07 1.08 1.08 0 0 0-1.091-1.07c-.603 0-1.092.479-1.092 1.07 0 .591.489 1.07 1.092 1.07zM656.086 537.062a1.08 1.08 0 0 0 1.091-1.07 1.08 1.08 0 0 0-1.091-1.07c-.603 0-1.092.479-1.092 1.07 0 .591.489 1.07 1.092 1.07zM656.086 644.046a1.08 1.08 0 0 0 1.091-1.069 1.08 1.08 0 0 0-1.091-1.07c-.603 0-1.092.479-1.092 1.07 0 .59.489 1.069 1.092 1.069zM656.086 751.032a1.08 1.08 0 0 0 1.091-1.07 1.08 1.08 0 0 0-1.091-1.07c-.603 0-1.092.479-1.092 1.07 0 .591.489 1.07 1.092 1.07zM656.086 858.016a1.08 1.08 0 0 0 1.091-1.07 1.08 1.08 0 0 0-1.091-1.07c-.603 0-1.092.479-1.092 1.07 0 .591.489 1.07 1.092 1.07zM656.086 965a1.08 1.08 0 0 0 1.091-1.07 1.08 1.08 0 0 0-1.091-1.07c-.603 0-1.092.479-1.092 1.07 0 .591.489 1.07 1.092 1.07zM765.252 2.14a1.08 1.08 0 0 0 1.091-1.07c0-.591-.488-1.07-1.091-1.07s-1.092.479-1.092 1.07c0 .59.489 1.07 1.092 1.07zM765.252 109.124a1.08 1.08 0 0 0 1.091-1.07 1.08 1.08 0 0 0-1.091-1.07c-.603 0-1.092.479-1.092 1.07 0 .591.489 1.07 1.092 1.07zM765.252 216.109a1.08 1.08 0 0 0 1.091-1.07 1.08 1.08 0 0 0-1.091-1.07c-.603 0-1.092.479-1.092 1.07 0 .591.489 1.07 1.092 1.07zM765.252 323.093a1.08 1.08 0 0 0 1.091-1.07 1.08 1.08 0 0 0-1.091-1.07c-.603 0-1.092.479-1.092 1.07 0 .591.489 1.07 1.092 1.07zM765.252 430.078a1.08 1.08 0 0 0 1.091-1.07 1.08 1.08 0 0 0-1.091-1.07c-.603 0-1.092.479-1.092 1.07 0 .591.489 1.07 1.092 1.07zM765.252 537.062a1.08 1.08 0 0 0 1.091-1.07 1.08 1.08 0 0 0-1.091-1.07c-.603 0-1.092.479-1.092 1.07 0 .591.489 1.07 1.092 1.07zM765.252 644.046a1.08 1.08 0 0 0 1.091-1.069 1.08 1.08 0 0 0-1.091-1.07c-.603 0-1.092.479-1.092 1.07 0 .59.489 1.069 1.092 1.069zM765.252 751.032a1.08 1.08 0 0 0 1.091-1.07 1.08 1.08 0 0 0-1.091-1.07c-.603 0-1.092.479-1.092 1.07 0 .591.489 1.07 1.092 1.07zM765.252 858.016a1.08 1.08 0 0 0 1.091-1.07 1.08 1.08 0 0 0-1.091-1.07c-.603 0-1.092.479-1.092 1.07 0 .591.489 1.07 1.092 1.07zM765.252 965a1.08 1.08 0 0 0 1.091-1.07 1.08 1.08 0 0 0-1.091-1.07c-.603 0-1.092.479-1.092 1.07 0 .591.489 1.07 1.092 1.07zM874.417 2.14a1.08 1.08 0 0 0 1.091-1.07c0-.591-.488-1.07-1.091-1.07s-1.092.479-1.092 1.07c0 .59.489 1.07 1.092 1.07zM874.418 109.124a1.08 1.08 0 0 0 1.091-1.07 1.08 1.08 0 0 0-1.091-1.07c-.603 0-1.092.479-1.092 1.07 0 .591.489 1.07 1.092 1.07zM874.418 216.109a1.08 1.08 0 0 0 1.091-1.07 1.08 1.08 0 0 0-1.091-1.07c-.603 0-1.092.479-1.092 1.07 0 .591.489 1.07 1.092 1.07zM874.418 323.093a1.08 1.08 0 0 0 1.091-1.07 1.08 1.08 0 0 0-1.091-1.07c-.603 0-1.092.479-1.092 1.07 0 .591.489 1.07 1.092 1.07zM874.418 430.078a1.08 1.08 0 0 0 1.091-1.07 1.08 1.08 0 0 0-1.091-1.07c-.603 0-1.092.479-1.092 1.07 0 .591.489 1.07 1.092 1.07zM874.418 537.062a1.08 1.08 0 0 0 1.091-1.07 1.08 1.08 0 0 0-1.091-1.07c-.603 0-1.092.479-1.092 1.07 0 .591.489 1.07 1.092 1.07zM874.418 644.046a1.08 1.08 0 0 0 1.091-1.069 1.08 1.08 0 0 0-1.091-1.07c-.603 0-1.092.479-1.092 1.07 0 .59.489 1.069 1.092 1.069zM874.418 751.032a1.08 1.08 0 0 0 1.091-1.07 1.08 1.08 0 0 0-1.091-1.07c-.603 0-1.092.479-1.092 1.07 0 .591.489 1.07 1.092 1.07zM874.418 858.016a1.08 1.08 0 0 0 1.091-1.07 1.08 1.08 0 0 0-1.091-1.07c-.603 0-1.092.479-1.092 1.07 0 .591.489 1.07 1.092 1.07zM874.418 965a1.08 1.08 0 0 0 1.091-1.07 1.08 1.08 0 0 0-1.091-1.07c-.603 0-1.092.479-1.092 1.07 0 .591.489 1.07 1.092 1.07zM983.583 2.14a1.08 1.08 0 0 0 1.091-1.07c0-.591-.488-1.07-1.091-1.07s-1.092.479-1.092 1.07c0 .59.489 1.07 1.092 1.07zM983.583 109.124a1.08 1.08 0 0 0 1.091-1.07 1.08 1.08 0 0 0-1.091-1.07c-.603 0-1.092.479-1.092 1.07 0 .591.489 1.07 1.092 1.07zM983.583 216.109a1.08 1.08 0 0 0 1.091-1.07 1.08 1.08 0 0 0-1.091-1.07c-.603 0-1.092.479-1.092 1.07 0 .591.489 1.07 1.092 1.07zM983.583 323.093a1.08 1.08 0 0 0 1.091-1.07 1.08 1.08 0 0 0-1.091-1.07c-.603 0-1.092.479-1.092 1.07 0 .591.489 1.07 1.092 1.07zM983.583 430.078a1.08 1.08 0 0 0 1.091-1.07 1.08 1.08 0 0 0-1.091-1.07c-.603 0-1.092.479-1.092 1.07 0 .591.489 1.07 1.092 1.07zM983.583 537.062a1.08 1.08 0 0 0 1.091-1.07 1.08 1.08 0 0 0-1.091-1.07c-.603 0-1.092.479-1.092 1.07 0 .591.489 1.07 1.092 1.07zM983.583 644.046a1.08 1.08 0 0 0 1.091-1.069 1.08 1.08 0 0 0-1.091-1.07c-.603 0-1.092.479-1.092 1.07 0 .59.489 1.069 1.092 1.069zM983.583 751.032a1.08 1.08 0 0 0 1.091-1.07 1.08 1.08 0 0 0-1.091-1.07c-.603 0-1.092.479-1.092 1.07 0 .591.489 1.07 1.092 1.07zM983.583 858.016a1.08 1.08 0 0 0 1.091-1.07 1.08 1.08 0 0 0-1.091-1.07c-.603 0-1.092.479-1.092 1.07 0 .591.489 1.07 1.092 1.07zM983.583 965a1.08 1.08 0 0 0 1.091-1.07 1.08 1.08 0 0 0-1.091-1.07c-.603 0-1.092.479-1.092 1.07 0 .591.489 1.07 1.092 1.07zM1092.75 2.14c.6 0 1.09-.48 1.09-1.07 0-.591-.49-1.07-1.09-1.07-.6 0-1.09.479-1.09 1.07 0 .59.49 1.07 1.09 1.07zM1092.75 109.124c.6 0 1.09-.479 1.09-1.07 0-.591-.49-1.07-1.09-1.07-.6 0-1.09.479-1.09 1.07 0 .591.49 1.07 1.09 1.07zM1092.75 216.109c.6 0 1.09-.479 1.09-1.07 0-.591-.49-1.07-1.09-1.07-.6 0-1.09.479-1.09 1.07 0 .591.49 1.07 1.09 1.07zM1092.75 323.093c.6 0 1.09-.479 1.09-1.07 0-.591-.49-1.07-1.09-1.07-.6 0-1.09.479-1.09 1.07 0 .591.49 1.07 1.09 1.07zM1092.75 430.078c.6 0 1.09-.479 1.09-1.07 0-.591-.49-1.07-1.09-1.07-.6 0-1.09.479-1.09 1.07 0 .591.49 1.07 1.09 1.07zM1092.75 537.062c.6 0 1.09-.479 1.09-1.07 0-.591-.49-1.07-1.09-1.07-.6 0-1.09.479-1.09 1.07 0 .591.49 1.07 1.09 1.07zM1092.75 644.046c.6 0 1.09-.479 1.09-1.069 0-.591-.49-1.07-1.09-1.07-.6 0-1.09.479-1.09 1.07 0 .59.49 1.069 1.09 1.069zM1092.75 751.032c.6 0 1.09-.479 1.09-1.07 0-.591-.49-1.07-1.09-1.07-.6 0-1.09.479-1.09 1.07 0 .591.49 1.07 1.09 1.07zM1092.75 858.016c.6 0 1.09-.479 1.09-1.07 0-.591-.49-1.07-1.09-1.07-.6 0-1.09.479-1.09 1.07 0 .591.49 1.07 1.09 1.07zM1092.75 965c.6 0 1.09-.479 1.09-1.07 0-.591-.49-1.07-1.09-1.07-.6 0-1.09.479-1.09 1.07 0 .591.49 1.07 1.09 1.07zM1201.91 2.14c.61 0 1.1-.48 1.1-1.07 0-.591-.49-1.07-1.1-1.07-.6 0-1.09.479-1.09 1.07 0 .59.49 1.07 1.09 1.07zM1201.91 109.124c.61 0 1.1-.479 1.1-1.07 0-.591-.49-1.07-1.1-1.07-.6 0-1.09.479-1.09 1.07 0 .591.49 1.07 1.09 1.07zM1201.91 216.109c.61 0 1.1-.479 1.1-1.07 0-.591-.49-1.07-1.1-1.07-.6 0-1.09.479-1.09 1.07 0 .591.49 1.07 1.09 1.07zM1201.91 323.093c.61 0 1.1-.479 1.1-1.07 0-.591-.49-1.07-1.1-1.07-.6 0-1.09.479-1.09 1.07 0 .591.49 1.07 1.09 1.07zM1201.91 430.078c.61 0 1.1-.479 1.1-1.07 0-.591-.49-1.07-1.1-1.07-.6 0-1.09.479-1.09 1.07 0 .591.49 1.07 1.09 1.07zM1201.91 537.062c.61 0 1.1-.479 1.1-1.07 0-.591-.49-1.07-1.1-1.07-.6 0-1.09.479-1.09 1.07 0 .591.49 1.07 1.09 1.07zM1201.91 644.046c.61 0 1.1-.479 1.1-1.069 0-.591-.49-1.07-1.1-1.07-.6 0-1.09.479-1.09 1.07 0 .59.49 1.069 1.09 1.069zM1201.91 751.032c.61 0 1.1-.479 1.1-1.07 0-.591-.49-1.07-1.1-1.07-.6 0-1.09.479-1.09 1.07 0 .591.49 1.07 1.09 1.07zM1201.91 858.016c.61 0 1.1-.479 1.1-1.07 0-.591-.49-1.07-1.1-1.07-.6 0-1.09.479-1.09 1.07 0 .591.49 1.07 1.09 1.07zM1201.91 965c.61 0 1.1-.479 1.1-1.07 0-.591-.49-1.07-1.1-1.07-.6 0-1.09.479-1.09 1.07 0 .591.49 1.07 1.09 1.07zM1311.08 2.14c.6 0 1.09-.48 1.09-1.07 0-.591-.49-1.07-1.09-1.07-.6 0-1.09.479-1.09 1.07 0 .59.49 1.07 1.09 1.07zM1311.08 109.124c.6 0 1.09-.479 1.09-1.07 0-.591-.49-1.07-1.09-1.07-.6 0-1.09.479-1.09 1.07 0 .591.49 1.07 1.09 1.07zM1311.08 216.109c.6 0 1.09-.479 1.09-1.07 0-.591-.49-1.07-1.09-1.07-.6 0-1.09.479-1.09 1.07 0 .591.49 1.07 1.09 1.07zM1311.08 323.093c.6 0 1.09-.479 1.09-1.07 0-.591-.49-1.07-1.09-1.07-.6 0-1.09.479-1.09 1.07 0 .591.49 1.07 1.09 1.07zM1311.08 430.078c.6 0 1.09-.479 1.09-1.07 0-.591-.49-1.07-1.09-1.07-.6 0-1.09.479-1.09 1.07 0 .591.49 1.07 1.09 1.07zM1311.08 537.062c.6 0 1.09-.479 1.09-1.07 0-.591-.49-1.07-1.09-1.07-.6 0-1.09.479-1.09 1.07 0 .591.49 1.07 1.09 1.07zM1311.08 644.046c.6 0 1.09-.479 1.09-1.069 0-.591-.49-1.07-1.09-1.07-.6 0-1.09.479-1.09 1.07 0 .59.49 1.069 1.09 1.069zM1311.08 751.032c.6 0 1.09-.479 1.09-1.07 0-.591-.49-1.07-1.09-1.07-.6 0-1.09.479-1.09 1.07 0 .591.49 1.07 1.09 1.07zM1311.08 858.016c.6 0 1.09-.479 1.09-1.07 0-.591-.49-1.07-1.09-1.07-.6 0-1.09.479-1.09 1.07 0 .591.49 1.07 1.09 1.07zM1311.08 965c.6 0 1.09-.479 1.09-1.07 0-.591-.49-1.07-1.09-1.07-.6 0-1.09.479-1.09 1.07 0 .591.49 1.07 1.09 1.07zM1420.25 2.14c.6 0 1.09-.48 1.09-1.07 0-.591-.49-1.07-1.09-1.07-.61 0-1.1.479-1.1 1.07 0 .59.49 1.07 1.1 1.07zM1420.25 109.124c.6 0 1.09-.479 1.09-1.07 0-.591-.49-1.07-1.09-1.07-.61 0-1.1.479-1.1 1.07 0 .591.49 1.07 1.1 1.07zM1420.25 216.109c.6 0 1.09-.479 1.09-1.07 0-.591-.49-1.07-1.09-1.07-.61 0-1.1.479-1.1 1.07 0 .591.49 1.07 1.1 1.07zM1420.25 323.093c.6 0 1.09-.479 1.09-1.07 0-.591-.49-1.07-1.09-1.07-.61 0-1.1.479-1.1 1.07 0 .591.49 1.07 1.1 1.07zM1420.25 430.078c.6 0 1.09-.479 1.09-1.07 0-.591-.49-1.07-1.09-1.07-.61 0-1.1.479-1.1 1.07 0 .591.49 1.07 1.1 1.07zM1420.25 537.062c.6 0 1.09-.479 1.09-1.07 0-.591-.49-1.07-1.09-1.07-.61 0-1.1.479-1.1 1.07 0 .591.49 1.07 1.1 1.07zM1420.25 644.046c.6 0 1.09-.479 1.09-1.069 0-.591-.49-1.07-1.09-1.07-.61 0-1.1.479-1.1 1.07 0 .59.49 1.069 1.1 1.069zM1420.25 751.032c.6 0 1.09-.479 1.09-1.07 0-.591-.49-1.07-1.09-1.07-.61 0-1.1.479-1.1 1.07 0 .591.49 1.07 1.1 1.07zM1420.25 858.016c.6 0 1.09-.479 1.09-1.07 0-.591-.49-1.07-1.09-1.07-.61 0-1.1.479-1.1 1.07 0 .591.49 1.07 1.1 1.07zM1420.25 965c.6 0 1.09-.479 1.09-1.07 0-.591-.49-1.07-1.09-1.07-.61 0-1.1.479-1.1 1.07 0 .591.49 1.07 1.1 1.07zM1529.41 2.14c.6 0 1.09-.48 1.09-1.07 0-.591-.49-1.07-1.09-1.07-.6 0-1.09.479-1.09 1.07 0 .59.49 1.07 1.09 1.07zM1529.41 109.124c.6 0 1.09-.479 1.09-1.07 0-.591-.49-1.07-1.09-1.07-.6 0-1.09.479-1.09 1.07 0 .591.49 1.07 1.09 1.07zM1529.41 216.109c.6 0 1.09-.479 1.09-1.07 0-.591-.49-1.07-1.09-1.07-.6 0-1.09.479-1.09 1.07 0 .591.49 1.07 1.09 1.07zM1529.41 323.093c.6 0 1.09-.479 1.09-1.07 0-.591-.49-1.07-1.09-1.07-.6 0-1.09.479-1.09 1.07 0 .591.49 1.07 1.09 1.07zM1529.41 430.078c.6 0 1.09-.479 1.09-1.07 0-.591-.49-1.07-1.09-1.07-.6 0-1.09.479-1.09 1.07 0 .591.49 1.07 1.09 1.07zM1529.41 537.062c.6 0 1.09-.479 1.09-1.07 0-.591-.49-1.07-1.09-1.07-.6 0-1.09.479-1.09 1.07 0 .591.49 1.07 1.09 1.07zM1529.41 644.046c.6 0 1.09-.479 1.09-1.069 0-.591-.49-1.07-1.09-1.07-.6 0-1.09.479-1.09 1.07 0 .59.49 1.069 1.09 1.069zM1529.41 751.032c.6 0 1.09-.479 1.09-1.07 0-.591-.49-1.07-1.09-1.07-.6 0-1.09.479-1.09 1.07 0 .591.49 1.07 1.09 1.07zM1529.41 858.016c.6 0 1.09-.479 1.09-1.07 0-.591-.49-1.07-1.09-1.07-.6 0-1.09.479-1.09 1.07 0 .591.49 1.07 1.09 1.07zM1529.41 965c.6 0 1.09-.479 1.09-1.07 0-.591-.49-1.07-1.09-1.07-.6 0-1.09.479-1.09 1.07 0 .591.49 1.07 1.09 1.07zM1638.58 2.14c.6 0 1.09-.48 1.09-1.07 0-.591-.49-1.07-1.09-1.07-.61 0-1.09.479-1.09 1.07 0 .59.48 1.07 1.09 1.07zM1638.58 109.124c.6 0 1.09-.479 1.09-1.07 0-.591-.49-1.07-1.09-1.07-.61 0-1.09.479-1.09 1.07 0 .591.48 1.07 1.09 1.07zM1638.58 216.109c.6 0 1.09-.479 1.09-1.07 0-.591-.49-1.07-1.09-1.07-.61 0-1.09.479-1.09 1.07 0 .591.48 1.07 1.09 1.07zM1638.58 323.093c.6 0 1.09-.479 1.09-1.07 0-.591-.49-1.07-1.09-1.07-.61 0-1.09.479-1.09 1.07 0 .591.48 1.07 1.09 1.07zM1638.58 430.078c.6 0 1.09-.479 1.09-1.07 0-.591-.49-1.07-1.09-1.07-.61 0-1.09.479-1.09 1.07 0 .591.48 1.07 1.09 1.07zM1638.58 537.062c.6 0 1.09-.479 1.09-1.07 0-.591-.49-1.07-1.09-1.07-.61 0-1.09.479-1.09 1.07 0 .591.48 1.07 1.09 1.07zM1638.58 644.046c.6 0 1.09-.479 1.09-1.069 0-.591-.49-1.07-1.09-1.07-.61 0-1.09.479-1.09 1.07 0 .59.48 1.069 1.09 1.069zM1638.58 751.032c.6 0 1.09-.479 1.09-1.07 0-.591-.49-1.07-1.09-1.07-.61 0-1.09.479-1.09 1.07 0 .591.48 1.07 1.09 1.07zM1638.58 858.016c.6 0 1.09-.479 1.09-1.07 0-.591-.49-1.07-1.09-1.07-.61 0-1.09.479-1.09 1.07 0 .591.48 1.07 1.09 1.07zM1638.58 965c.6 0 1.09-.479 1.09-1.07 0-.591-.49-1.07-1.09-1.07-.61 0-1.09.479-1.09 1.07 0 .591.48 1.07 1.09 1.07zM1747.74 2.14c.61 0 1.09-.48 1.09-1.07 0-.591-.48-1.07-1.09-1.07-.6 0-1.09.479-1.09 1.07 0 .59.49 1.07 1.09 1.07zM1747.74 109.124c.61 0 1.09-.479 1.09-1.07 0-.591-.48-1.07-1.09-1.07-.6 0-1.09.479-1.09 1.07 0 .591.49 1.07 1.09 1.07zM1747.74 216.109c.61 0 1.09-.479 1.09-1.07 0-.591-.48-1.07-1.09-1.07-.6 0-1.09.479-1.09 1.07 0 .591.49 1.07 1.09 1.07zM1747.74 323.093c.61 0 1.09-.479 1.09-1.07 0-.591-.48-1.07-1.09-1.07-.6 0-1.09.479-1.09 1.07 0 .591.49 1.07 1.09 1.07zM1747.74 430.078c.61 0 1.09-.479 1.09-1.07 0-.591-.48-1.07-1.09-1.07-.6 0-1.09.479-1.09 1.07 0 .591.49 1.07 1.09 1.07zM1747.74 537.062c.61 0 1.09-.479 1.09-1.07 0-.591-.48-1.07-1.09-1.07-.6 0-1.09.479-1.09 1.07 0 .591.49 1.07 1.09 1.07zM1747.74 644.046c.61 0 1.09-.479 1.09-1.069 0-.591-.48-1.07-1.09-1.07-.6 0-1.09.479-1.09 1.07 0 .59.49 1.069 1.09 1.069zM1747.74 751.032c.61 0 1.09-.479 1.09-1.07 0-.591-.48-1.07-1.09-1.07-.6 0-1.09.479-1.09 1.07 0 .591.49 1.07 1.09 1.07zM1747.74 858.016c.61 0 1.09-.479 1.09-1.07 0-.591-.48-1.07-1.09-1.07-.6 0-1.09.479-1.09 1.07 0 .591.49 1.07 1.09 1.07zM1747.74 965c.61 0 1.09-.479 1.09-1.07 0-.591-.48-1.07-1.09-1.07-.6 0-1.09.479-1.09 1.07 0 .591.49 1.07 1.09 1.07zM1856.91 2.14c.6 0 1.09-.48 1.09-1.07 0-.591-.49-1.07-1.09-1.07-.6 0-1.09.479-1.09 1.07 0 .59.49 1.07 1.09 1.07zM1856.91 109.124c.6 0 1.09-.479 1.09-1.07 0-.591-.49-1.07-1.09-1.07-.6 0-1.09.479-1.09 1.07 0 .591.49 1.07 1.09 1.07zM1856.91 216.109c.6 0 1.09-.479 1.09-1.07 0-.591-.49-1.07-1.09-1.07-.6 0-1.09.479-1.09 1.07 0 .591.49 1.07 1.09 1.07zM1856.91 323.093c.6 0 1.09-.479 1.09-1.07 0-.591-.49-1.07-1.09-1.07-.6 0-1.09.479-1.09 1.07 0 .591.49 1.07 1.09 1.07zM1856.91 430.078c.6 0 1.09-.479 1.09-1.07 0-.591-.49-1.07-1.09-1.07-.6 0-1.09.479-1.09 1.07 0 .591.49 1.07 1.09 1.07zM1856.91 537.062c.6 0 1.09-.479 1.09-1.07 0-.591-.49-1.07-1.09-1.07-.6 0-1.09.479-1.09 1.07 0 .591.49 1.07 1.09 1.07zM1856.91 644.046c.6 0 1.09-.479 1.09-1.069 0-.591-.49-1.07-1.09-1.07-.6 0-1.09.479-1.09 1.07 0 .59.49 1.069 1.09 1.069zM1856.91 751.032c.6 0 1.09-.479 1.09-1.07 0-.591-.49-1.07-1.09-1.07-.6 0-1.09.479-1.09 1.07 0 .591.49 1.07 1.09 1.07zM1856.91 858.016c.6 0 1.09-.479 1.09-1.07 0-.591-.49-1.07-1.09-1.07-.6 0-1.09.479-1.09 1.07 0 .591.49 1.07 1.09 1.07zM1856.91 965c.6 0 1.09-.479 1.09-1.07 0-.591-.49-1.07-1.09-1.07-.6 0-1.09.479-1.09 1.07 0 .591.49 1.07 1.09 1.07z"/>
    </g>
</svg>
