<svg xmlns="http://www.w3.org/2000/svg" width="90" height="30" fill="none" viewBox="0 0 90 30">
    <g clip-path="url(#a)">
        <path fill="#FFBF51" d="M89.441 15.561a1.833 1.833 0 0 0 .467-1.89 1.833 1.833 0 0 0-1.49-1.255l-6.226-.905a.813.813 0 0 1-.612-.445l-2.784-5.642a1.833 1.833 0 0 0-1.654-1.027c-.706 0-1.34.394-1.653 1.027l-2.784 5.642a.814.814 0 0 1-.613.446l-6.227.904c-.7.102-1.27.583-1.489 1.256a1.833 1.833 0 0 0 .467 1.89l4.505 4.39c.192.188.28.458.234.722l-1.062 6.2a1.805 1.805 0 0 0 .402 1.495 1.863 1.863 0 0 0 2.273.449l5.568-2.928a.834.834 0 0 1 .758 0l5.569 2.928c.27.143.56.215.858.215a1.85 1.85 0 0 0 1.415-.664c.353-.418.496-.95.402-1.495l-1.063-6.2a.815.815 0 0 1 .234-.721l4.505-4.392z"/>
    </g>
    <g clip-path="url(#b)">
        <path fill="#FFBF51" d="M57.299 11.704a1.833 1.833 0 0 0 .466-1.89 1.833 1.833 0 0 0-1.489-1.256l-6.226-.904a.813.813 0 0 1-.613-.446l-2.783-5.641A1.833 1.833 0 0 0 45 .539c-.706 0-1.34.394-1.653 1.028l-2.785 5.642a.814.814 0 0 1-.613.445l-6.226.905c-.7.101-1.27.582-1.49 1.255a1.833 1.833 0 0 0 .467 1.89l4.505 4.391c.192.188.28.458.235.721l-1.063 6.2a1.805 1.805 0 0 0 .402 1.496 1.864 1.864 0 0 0 2.274.448l5.568-2.927a.834.834 0 0 1 .758 0l5.569 2.927c.27.143.56.215.857.215.545 0 1.06-.242 1.415-.663.354-.419.497-.95.403-1.495l-1.064-6.2a.815.815 0 0 1 .235-.722l4.505-4.391z"/>
    </g>
    <g clip-path="url(#c)">
        <path fill="#FFBF51" d="M25.155 15.561a1.833 1.833 0 0 0 .467-1.89 1.833 1.833 0 0 0-1.49-1.255l-6.225-.905a.813.813 0 0 1-.613-.445L14.51 5.424a1.833 1.833 0 0 0-1.653-1.027c-.707 0-1.341.394-1.654 1.027L8.42 11.066a.814.814 0 0 1-.613.446l-6.226.904c-.7.102-1.27.583-1.49 1.256a1.833 1.833 0 0 0 .467 1.89l4.505 4.39c.192.188.28.458.235.722l-1.063 6.2a1.806 1.806 0 0 0 .402 1.495 1.863 1.863 0 0 0 2.273.449l5.569-2.928a.834.834 0 0 1 .758 0l5.568 2.928c.271.143.56.215.858.215a1.85 1.85 0 0 0 1.415-.664c.354-.418.496-.95.402-1.495l-1.063-6.2a.815.815 0 0 1 .235-.721l4.505-4.392z"/>
    </g>
    <defs>
        <clipPath id="a">
            <path fill="#fff" d="M0 0h25.453v25.453H0z" transform="translate(64.286 3.857) scale(1.01025)"/>
        </clipPath>
        <clipPath id="b">
            <path fill="#fff" d="M0 0h25.453v25.453H0z" transform="translate(32.143) scale(1.01025)"/>
        </clipPath>
        <clipPath id="c">
            <path fill="#fff" d="M0 0h25.453v25.453H0z" transform="translate(0 3.857) scale(1.01025)"/>
        </clipPath>
    </defs>
</svg>
