<svg xmlns="http://www.w3.org/2000/svg" viewBox="0 0 74.521 37.261">
    <defs>
        <style>
            .cls-1{fill:#fff}
        </style>
    </defs>
    <path id="path" d="M640.733 329.633a11.551 11.551 0 0 0 8.2 19.748h14.9v7.08h-14.9a17.478 17.478 0 0 1-13.041-5.589 18.078 18.078 0 0 1-5.589-13.041 16.913 16.913 0 0 1 5.589-13.041c3.726-3.353 7.825-5.589 13.041-5.589h14.9v7.08h-14.9a11.56 11.56 0 0 0-8.2 3.352zm11.924 11.924V334.1h29.809v7.452zm33.534-22.357a17.478 17.478 0 0 1 13.041 5.589 18.078 18.078 0 0 1 5.589 13.041 16.913 16.913 0 0 1-5.589 13.041c-3.726 3.354-7.825 5.589-13.041 5.589h-14.9v-7.08h14.9a11.56 11.56 0 0 0 8.2-3.354 11.551 11.551 0 0 0-8.2-19.748h-14.9V319.2z" class="cls-1" transform="translate(-630.301 -319.2)"/>
</svg>
