<svg width="2560" height="6960" xmlns="http://www.w3.org/2000/svg"><defs><linearGradient x1="50%" y1="0%" x2="50%" y2="63.116%" id="a"><stop stop-color="#3D4E78" offset="0%"/><stop stop-color="#3D4E78" stop-opacity="0" offset="100%"/></linearGradient><linearGradient x1="50%" y1="0%" x2="55.609%" y2="47.032%" id="b"><stop stop-color="#3D4E78" offset="0%"/><stop stop-color="#3D4E78" stop-opacity="0" offset="100%"/></linearGradient><linearGradient x1="50%" y1="0%" x2="50%" y2="54.653%" id="c"><stop stop-color="#3D4E78" offset="0%"/><stop stop-color="#3D4E78" stop-opacity="0" offset="100%"/></linearGradient></defs><g fill="none" fill-rule="evenodd" opacity=".233"><path fill="url(#a)" transform="rotate(-45 -756.423 3602.306)" d="M1400.047 1477.547h833v4288h-833z"/><path fill="url(#b)" transform="rotate(-135 1263.53 1251.759)" d="M1595-416h833v4854h-833z"/><path fill="url(#a)" transform="rotate(-45 4642.966 5838.806)" d="M1400.047 1477.547h833v4288h-833z"/><path fill="url(#b)" transform="rotate(-135 2189.919 3488.259)" d="M1595-416h833v4854h-833z"/><path fill="url(#a)" transform="rotate(135 1672.412 3168.851)" d="M923.229 1747.046h849.576v2834.591H923.229z"/><path fill="url(#c)" transform="rotate(45 -1352.194 2588.16)" d="M1394.462-328.259h849.576v4295.888h-849.576z"/></g></svg>