<svg width="2560" height="329" xmlns="http://www.w3.org/2000/svg" xmlns:xlink="http://www.w3.org/1999/xlink"><defs><path id="a" d="M.247.5h.5v164h-.5z"/><path id="c" d="M.247.5h.5v164h-.5z"/><path id="e" d="M.247.5h.5v164h-.5z"/><path id="g" d="M.247.5h.5v164h-.5z"/></defs><g fill="none" fill-rule="evenodd" opacity=".47"><path stroke="#8386A8" stroke-linecap="round" stroke-linejoin="round" d="M1652.247 164.5l-97.5 82-97.5-82 97.5-82z"/><path stroke="#8386A8" stroke-linecap="round" stroke-linejoin="round" d="M1554.747 246.5l37.5-82-37.5-82-37.5 82zm-37.5-82h-60m135 0h60m-97.5-82v164m292.5-82l-97.5 82-97.5-82 97.5-82z"/><path stroke="#8386A8" stroke-linecap="round" stroke-linejoin="round" d="M1749.747 246.5l37.5-82-37.5-82-37.5 82zm-37.5-82h-60m135 0h60m-97.5-82v164"/><g stroke="#8386A8" stroke-linecap="round" stroke-linejoin="round"><path d="M1749.747 82.5l-97.5 82-97.5-82 97.5-82z"/><path d="M1652.247 164.5l37.5-82-37.5-82-37.5 82z"/></g><path d="M1614.747 82.5h-60m135 0h60" stroke="#8386A8" stroke-linecap="round" stroke-linejoin="round"/><g stroke="#8386A8" stroke-linecap="round" stroke-linejoin="round"><path d="M1652.247.5v164m292.5 82l-97.5 82-97.5-82 97.5-82z"/><path d="M1847.247 328.5l37.5-82-37.5-82-37.5 82z"/></g><path d="M1809.747 246.5h-60m135 0h60m-97.5-82v164m195-164l97.5 82 97.5-82-97.5-82z" stroke="#8386A8" stroke-linecap="round" stroke-linejoin="round"/><path stroke="#8386A8" stroke-linecap="round" stroke-linejoin="round" d="M2139.747 246.5l-37.5-82 37.5-82 37.5 82zm37.5-82h60m-135 0h-60m97.5-82v164m-292.5-82l97.5 82 97.5-82-97.5-82z"/><path stroke="#8386A8" stroke-linecap="round" stroke-linejoin="round" d="M1944.747 246.5l-37.5-82 37.5-82 37.5 82zm37.5-82h60m-135 0h-60m97.5-82v164"/><g stroke="#8386A8" stroke-linecap="round" stroke-linejoin="round"><path d="M1944.747 82.5l97.5 82 97.5-82-97.5-82z"/><path d="M2042.247 164.5l-37.5-82 37.5-82 37.5 82z"/></g><path d="M2079.747 82.5h60m-135 0h-60" stroke="#8386A8" stroke-linecap="round" stroke-linejoin="round"/><g stroke="#8386A8" stroke-linecap="round" stroke-linejoin="round"><path d="M2042.247.5v164m195-164l-97.5 82 97.5 82"/><path d="M2237.247 164.5l-37.5-82 37.5-82"/></g><path d="M2199.747 82.5h-60" stroke="#8386A8" stroke-linecap="round" stroke-linejoin="round"/><g transform="translate(2237)"><mask id="b" fill="#fff"><use xlink:href="#a"/></mask><path d="M.247.5v164" stroke="#8386A8" stroke-linecap="round" stroke-linejoin="round" mask="url(#b)"/></g><path stroke="#8386A8" stroke-linecap="round" stroke-linejoin="round" d="M2237.247 164.5l-97.5 82 97.5 82"/><path stroke="#8386A8" stroke-linecap="round" stroke-linejoin="round" d="M2237.247 328.5l-37.5-82 37.5-82m-37.5 82h-60"/><g transform="translate(2237 164)"><mask id="d" fill="#fff"><use xlink:href="#c"/></mask><path d="M.247.5v164" stroke="#8386A8" stroke-linecap="round" stroke-linejoin="round" mask="url(#d)"/></g><path stroke="#8386A8" stroke-linecap="round" stroke-linejoin="round" d="M1944.747 246.5l97.5 82 97.5-82-97.5-82z"/><path stroke="#8386A8" stroke-linecap="round" stroke-linejoin="round" d="M2042.247 328.5l-37.5-82 37.5-82 37.5 82zm37.5-82h60m-135 0h-60m97.5-82v164M906.5 164.5l97.5 82 97.5-82-97.5-82z"/><path stroke="#8386A8" stroke-linecap="round" stroke-linejoin="round" d="M1004 246.5l-37.5-82 37.5-82 37.5 82zm37.5-82h60m-135 0h-60m97.5-82v164m-292.5-82l97.5 82 97.5-82-97.5-82z"/><path stroke="#8386A8" stroke-linecap="round" stroke-linejoin="round" d="M809 246.5l-37.5-82 37.5-82 37.5 82zm37.5-82h60m-135 0h-60m97.5-82v164"/><g stroke="#8386A8" stroke-linecap="round" stroke-linejoin="round"><path d="M809 82.5l97.5 82 97.5-82-97.5-82z"/><path d="M906.5 164.5l-37.5-82 37.5-82 37.5 82z"/></g><path d="M944 82.5h60m-135 0h-60" stroke="#8386A8" stroke-linecap="round" stroke-linejoin="round"/><g stroke="#8386A8" stroke-linecap="round" stroke-linejoin="round"><path d="M906.5.5v164m-292.5 82l97.5 82 97.5-82-97.5-82z"/><path d="M711.5 328.5l-37.5-82 37.5-82 37.5 82z"/></g><path d="M749 246.5h60m-135 0h-60m97.5-82v164m-195-164l-97.5 82-97.5-82 97.5-82z" stroke="#8386A8" stroke-linecap="round" stroke-linejoin="round"/><path stroke="#8386A8" stroke-linecap="round" stroke-linejoin="round" d="M419 246.5l37.5-82-37.5-82-37.5 82zm-37.5-82h-60m135 0h60m-97.5-82v164m292.5-82l-97.5 82-97.5-82 97.5-82z"/><path stroke="#8386A8" stroke-linecap="round" stroke-linejoin="round" d="M614 246.5l37.5-82-37.5-82-37.5 82zm-37.5-82h-60m135 0h60m-97.5-82v164"/><g stroke="#8386A8" stroke-linecap="round" stroke-linejoin="round"><path d="M614 82.5l-97.5 82-97.5-82 97.5-82z"/><path d="M516.5 164.5l37.5-82-37.5-82-37.5 82z"/></g><path d="M479 82.5h-60m135 0h60" stroke="#8386A8" stroke-linecap="round" stroke-linejoin="round"/><g stroke="#8386A8" stroke-linecap="round" stroke-linejoin="round"><path d="M516.5.5v164M321.5.5l97.5 82-97.5 82"/><path d="M321.5 164.5l37.5-82-37.5-82"/></g><path d="M359 82.5h60" stroke="#8386A8" stroke-linecap="round" stroke-linejoin="round"/><g stroke="#8386A8" stroke-linecap="round" stroke-linejoin="round"><path d="M321.5.5v164m0 0l97.5 82-97.5 82"/><path d="M321.5 328.5l37.5-82-37.5-82"/></g><path d="M359 246.5h60" stroke="#8386A8" stroke-linecap="round" stroke-linejoin="round"/><g stroke="#8386A8" stroke-linecap="round" stroke-linejoin="round"><path d="M321.5 164.5v164m292.5-82l-97.5 82-97.5-82 97.5-82z"/><path d="M516.5 328.5l37.5-82-37.5-82-37.5 82z"/></g><path d="M479 246.5h-60m135 0h60m-97.5-82v164" stroke="#8386A8" stroke-linecap="round" stroke-linejoin="round"/><g stroke="#8386A8" stroke-linecap="round" stroke-linejoin="round"><path d="M2530 246.5l97.5 82 97.5-82-97.5-82zm60 0h-60m-97.5-82l-97.5 82-97.5-82 97.5-82z"/><path d="M2335 246.5l37.5-82-37.5-82-37.5 82zm-37.5-82h-60m135 0h60m-97.5-82v164m292.5-82l-97.5 82-97.5-82 97.5-82z"/><path d="M2530 246.5l37.5-82-37.5-82-37.5 82zm-37.5-82h-60m97.5-82v164m0-164l-97.5 82-97.5-82 97.5-82z"/><path d="M2432.5 164.5l37.5-82-37.5-82-37.5 82zm-37.5-82h-60m135 0h60m-97.5-82v164m-195-164l97.5 82-97.5 82"/><path d="M2237.5 164.5l37.5-82-37.5-82m37.5 82h60m-97.5-82v164m0 0l97.5 82-97.5 82"/><path d="M2237.5 328.5l37.5-82-37.5-82m37.5 82h60m-97.5-82v164m292.5-82l-97.5 82-97.5-82 97.5-82z"/><path d="M2432.5 328.5l37.5-82-37.5-82-37.5 82zm-37.5-82h-60m135 0h60m-97.5-82v164"/></g><path d="M28.747 246.5l-97.5 82-97.5-82 97.5-82zm-60 0h60m97.5-82l97.5 82 97.5-82-97.5-82z" stroke="#8386A8" stroke-linecap="round" stroke-linejoin="round"/><path stroke="#8386A8" stroke-linecap="round" stroke-linejoin="round" d="M223.747 246.5l-37.5-82 37.5-82 37.5 82zm37.5-82h60m-135 0h-60m97.5-82v164m-292.5-82l97.5 82 97.5-82-97.5-82z"/><path stroke="#8386A8" stroke-linecap="round" stroke-linejoin="round" d="M28.747 246.5l-37.5-82 37.5-82 37.5 82zm37.5-82h60m-97.5-82v164"/><g stroke="#8386A8" stroke-linecap="round" stroke-linejoin="round"><path d="M28.747 82.5l97.5 82 97.5-82-97.5-82z"/><path d="M126.247 164.5l-37.5-82 37.5-82 37.5 82z"/></g><path d="M163.747 82.5h60m-135 0h-60" stroke="#8386A8" stroke-linecap="round" stroke-linejoin="round"/><g stroke="#8386A8" stroke-linecap="round" stroke-linejoin="round"><path d="M126.247.5v164m195-164l-97.5 82 97.5 82"/><path d="M321.247 164.5l-37.5-82 37.5-82"/></g><path d="M283.747 82.5h-60" stroke="#8386A8" stroke-linecap="round" stroke-linejoin="round"/><g transform="translate(321)"><mask id="f" fill="#fff"><use xlink:href="#e"/></mask><path d="M.247.5v164" stroke="#8386A8" stroke-linecap="round" stroke-linejoin="round" mask="url(#f)"/></g><path stroke="#8386A8" stroke-linecap="round" stroke-linejoin="round" d="M321.247 164.5l-97.5 82 97.5 82"/><path stroke="#8386A8" stroke-linecap="round" stroke-linejoin="round" d="M321.247 328.5l-37.5-82 37.5-82m-37.5 82h-60"/><g transform="translate(321 164)"><mask id="h" fill="#fff"><use xlink:href="#g"/></mask><path d="M.247.5v164" stroke="#8386A8" stroke-linecap="round" stroke-linejoin="round" mask="url(#h)"/></g><path stroke="#8386A8" stroke-linecap="round" stroke-linejoin="round" d="M28.747 246.5l97.5 82 97.5-82-97.5-82z"/><path stroke="#8386A8" stroke-linecap="round" stroke-linejoin="round" d="M126.247 328.5l-37.5-82 37.5-82 37.5 82zm37.5-82h60m-135 0h-60m97.5-82v164"/></g></svg>