<?xml version="1.0" encoding="UTF-8"?>
<svg width="220px" height="42px" viewBox="0 0 220 42" version="1.1" xmlns="http://www.w3.org/2000/svg" xmlns:xlink="http://www.w3.org/1999/xlink">
    <!-- Generator: Sketch 49.3 (51167) - http://www.bohemiancoding.com/sketch -->
    <title>logo</title>
    <desc>Created with Sketch.</desc>
    <defs></defs>
    <g id="Page-1" stroke="none" stroke-width="1" fill="none" fill-rule="evenodd">
        <g id="Landing-page" transform="translate(-928.000000, -6019.000000)" fill="#8386A8" fill-rule="nonzero">
            <g id="partners" transform="translate(600.000000, 5404.000000)">
                <g id="Group-79" transform="translate(243.000000, 576.000000)">
                    <g id="Group-27" transform="translate(0.000000, 39.000000)">
                        <g id="logo" transform="translate(85.000000, 0.000000)">
                            <path d="M32.7494257,12.325452 C31.3120179,10.6508957 29.6124058,9.34631898 27.6505383,8.41168288 C25.6886707,7.47704678 23.6976966,7.00973573 21.6775559,7.00973573 C19.15238,7.00973573 16.8409074,7.61334584 14.7430689,8.82058413 C12.6452304,10.0278224 10.9941786,11.692618 9.78986392,13.8150208 C8.58554925,15.9374237 7.98340094,18.2642433 7.98340094,20.7955494 C7.98340094,23.3268555 8.58554925,25.6536751 9.78986392,27.7760778 C10.9941786,29.8984807 12.6452304,31.5730119 14.7430689,32.7997217 C16.8409074,34.0264317 19.15238,34.6397773 21.6775559,34.6397773 C23.6199989,34.6397773 25.5721247,34.2114089 27.5339923,33.3546591 C29.4958598,32.4979094 31.2343202,31.3101605 32.7494257,29.7913768 L37.3529926,34.9318497 C35.2163053,37.1126674 32.7300156,38.8358768 29.8940488,40.1015299 C27.058082,41.3671829 24.1833094,42 21.2696449,42 C17.3459099,42 13.7524442,41.0653779 10.4891399,39.1961057 C7.22583562,37.3268335 4.6618493,34.7858297 2.79710398,31.573018 C0.932358669,28.3602065 0,24.8066954 0,20.9123783 C0,17.0180612 0.951782807,13.4742858 2.85537698,10.2809458 C4.75897116,7.08760571 7.35209369,4.57580888 10.6348224,2.74547983 C13.9175511,0.915150787 17.5595772,0 21.5610099,0 C24.4746744,0 27.3300228,0.584138801 30.1271408,1.75243394 C32.9242587,2.92072907 35.3134278,4.53684643 37.2947197,6.60083448 L32.7494257,12.325452 Z M43.7630227,0.525730178 L51.532756,0.525730178 L51.532756,41.4158559 L43.7630227,41.4158559 L43.7630227,0.525730178 Z M77.9692742,0.525730159 C83.0973238,0.525730159 87.0695603,1.75242164 89.8861027,4.20584141 C92.702645,6.65926119 94.1108952,10.1251514 94.1108952,14.6036161 C94.1108952,19.2767967 92.702645,22.9081928 89.8861027,25.4979137 C87.0695603,28.0876347 83.0973238,29.3824756 77.9692742,29.3824756 L69.0146567,29.3824756 L69.0146567,41.4158554 L61.2449235,41.4158554 L61.2449235,0.525730159 L77.9692742,0.525730159 Z M77.5225148,22.4895694 C80.4750281,22.4895694 82.7379402,21.8470167 84.3113192,20.5618921 C85.8846981,19.2767675 86.6713756,17.3685806 86.6713756,14.8372745 C86.6713756,12.3449115 85.8846981,10.4756674 84.3113192,9.22948591 C82.7379402,7.98330442 80.4750281,7.36022304 77.5225148,7.36022304 L69.0146567,7.36022304 L69.0146567,22.4895694 L77.5225148,22.4895694 Z M100.09359,0.525730159 L107.863324,0.525730159 L107.863324,17.4659266 L129.23009,17.4659266 L129.23009,0.525730159 L136.999824,0.525730159 L136.999824,41.4158554 L129.23009,41.4158554 L129.23009,24.8261474 L107.863324,24.8261474 L107.863324,41.4158554 L100.09359,41.4158554 L100.09359,0.525730159 Z M146.711991,0.525730159 L175.848491,0.525730159 L175.848491,7.36022249 L154.481724,7.36022249 L154.481724,17.4659248 L173.906057,17.4659248 L173.906057,24.3004172 L154.481724,24.3004172 L154.481724,34.5813629 L175.848491,34.5813629 L175.848491,41.4158554 L146.711991,41.4158554 L146.711991,0.525730159 Z M211.084231,41.4158554 L204.033198,29.3240611 C203.722407,29.3630043 203.236804,29.3824756 202.576373,29.3824756 L193.330391,29.3824756 L193.330391,41.4158554 L185.560658,41.4158554 L185.560658,0.525730159 L202.576373,0.525730159 C207.859819,0.525730159 211.938888,1.75242164 214.813703,4.20584141 C217.68852,6.65926119 219.125905,10.1251514 219.125905,14.6036161 C219.125905,17.7969561 218.436349,20.5229372 217.057214,22.7816411 C215.67808,25.040345 213.667681,26.7343476 211.025958,27.8636995 L220,41.4158554 L211.084231,41.4158554 Z M193.330391,22.4895694 L202.537525,22.4895694 C205.490039,22.4895694 207.743238,21.8470167 209.297192,20.5618921 C210.851147,19.2767675 211.628112,17.3685806 211.628112,14.8372745 C211.628112,12.3449115 210.851147,10.4756674 209.297192,9.22948591 C207.743238,7.98330442 205.490039,7.36022304 202.537525,7.36022304 L193.330391,7.36022304 L193.330391,22.4895694 Z" id="CIPHER"></path>
                        </g>
                    </g>
                </g>
            </g>
        </g>
    </g>
</svg>