<svg width="92" height="92" xmlns="http://www.w3.org/2000/svg" xmlns:xlink="http://www.w3.org/1999/xlink"><defs><path id="a" d="M0 0h92v92H0z"/><linearGradient x1="14.905%" y1="14.871%" x2="85.33%" y2="85.17%" id="b"><stop stop-color="#3646A8" offset="0%"/><stop stop-color="#202B87" offset="100%"/></linearGradient></defs><g fill="none" fill-rule="evenodd"><mask id="c" fill="#fff"><use xlink:href="#a"/></mask><path d="M92 46c0 25.404-20.595 46-46 46S0 71.404 0 46C0 20.595 20.595 0 46 0s46 20.595 46 46" fill="url(#b)" mask="url(#c)"/><path d="M46.004 30.413a4.957 4.957 0 0 1-4.956-4.959 4.957 4.957 0 1 1 9.915 0 4.96 4.96 0 0 1-4.96 4.96m14.785-9.32l-10.424-10.42a6.159 6.159 0 0 0-8.717 0l-10.424 10.42a6.168 6.168 0 0 0 0 8.72l10.424 10.421a6.164 6.164 0 0 0 8.717 0l10.424-10.42a6.168 6.168 0 0 0 0-8.72M46.004 71.506a4.957 4.957 0 0 1-4.956-4.958 4.957 4.957 0 1 1 9.915 0 4.96 4.96 0 0 1-4.96 4.958m14.785-9.319l-10.424-10.42a6.157 6.157 0 0 0-8.717 0l-10.424 10.42a6.169 6.169 0 0 0 0 8.721L41.647 81.33a6.164 6.164 0 0 0 8.717 0l10.424-10.42a6.169 6.169 0 0 0 0-8.722M25.447 50.97a4.957 4.957 0 0 1-4.955-4.959 4.957 4.957 0 1 1 9.914 0 4.96 4.96 0 0 1-4.959 4.96m14.784-9.32L29.808 31.23a6.158 6.158 0 0 0-8.718 0L10.666 41.65a6.169 6.169 0 0 0 0 8.72L21.09 60.792a6.165 6.165 0 0 0 8.718 0l10.423-10.42a6.167 6.167 0 0 0 0-8.722m26.311-.598a4.957 4.957 0 1 1 0 9.915 4.957 4.957 0 1 1 0-9.915" fill="#FFF"/><path d="M79.85 48.896l-10.424 10.42a4.044 4.044 0 0 1-2.886 1.197 4.041 4.041 0 0 1-2.88-1.196L53.234 48.896a4.084 4.084 0 0 1 0-5.771l10.424-10.42a4.034 4.034 0 0 1 2.881-1.197c1.09 0 2.114.423 2.886 1.197l10.424 10.42a4.084 4.084 0 0 1 0 5.77m1.481-7.255L70.91 31.217a6.168 6.168 0 0 0-8.722 0L51.77 41.64a6.167 6.167 0 0 0 0 8.719l10.42 10.424a6.17 6.17 0 0 0 8.722 0l10.42-10.424a6.16 6.16 0 0 0 0-8.72" fill="#FFF"/></g></svg>