<svg width="72" height="66" xmlns="http://www.w3.org/2000/svg"><path d="M67.398.235V14.5H63.27V.235h-4.102V14.5H55V.273h-4.102V14.5h-4.164V.273H42.63V14.5H29.463V.273H25.36v18.328h42.037v4.07H21.173V.236h-4.102v26.539h50.327V31h-54.5V.235H8.796V31H4.602V.235H.5v65.632h4.102V51.603H8.76v14.264h4.102V51.603h4.17V65.83h4.101V51.603H25.3V65.83h4.1V51.603h13.168V65.83h4.102V47.502H4.6V43.43h46.257v22.437h4.102V39.328H4.602v-4.226h54.532v30.765h4.101V35.102h4.163v30.765H71.5V.235z" fill="#228E9B" fill-rule="evenodd"/></svg>