<?xml version="1.0" encoding="UTF-8"?>
<svg width="100px" height="93px" viewBox="0 0 100 93" version="1.1" xmlns="http://www.w3.org/2000/svg" xmlns:xlink="http://www.w3.org/1999/xlink">
    <!-- Generator: Sketch 49.3 (51167) - http://www.bohemiancoding.com/sketch -->
    <title>Page 1</title>
    <desc>Created with Sketch.</desc>
    <defs></defs>
    <g id="Page-1" stroke="none" stroke-width="1" fill="none" fill-rule="evenodd">
        <g id="Landing-page" transform="translate(-1473.000000, -5980.000000)" fill="#8386A8">
            <g id="partners" transform="translate(600.000000, 5404.000000)">
                <g id="Group-79" transform="translate(243.000000, 576.000000)">
                    <g id="Group-14" transform="translate(485.000000, 0.000000)">
                        <g id="Page-1" transform="translate(145.000000, 0.000000)">
                            <polygon id="Fill-1" points="0.117154812 92.0523013 5.87029289 92.0523013 5.87029289 0 0.117154812 0"></polygon>
                            <polygon id="Fill-2" points="93.9451883 92.0523013 99.6983264 92.0523013 99.6983264 0 93.9451883 0"></polygon>
                            <polygon id="Fill-3" points="88.1073222 92.0524268 82.3537657 92.0524268 82.3537657 48.902636 3.91485356 48.902636 3.91485356 43.1494979 88.1073222 43.1494979"></polygon>
                            <polygon id="Fill-4" points="76.5009623 92.0524268 70.7474059 92.0524268 70.7474059 60.5833891 3.91518828 60.5833891 3.91518828 54.830251 76.5009623 54.830251"></polygon>
                            <polygon id="Fill-5" points="64.8745607 91.9984937 59.1214226 91.9984937 59.1214226 72.0466109 3.91514644 72.0466109 3.91514644 66.2930544 64.8745607 66.2930544"></polygon>
                            <polygon id="Fill-6" points="34.8987448 91.9983264 40.6518828 91.9983264 40.6518828 70.3175732 34.8987448 70.3175732"></polygon>
                            <polygon id="Fill-7" points="23.3046025 91.9983264 29.0577406 91.9983264 29.0577406 71.8087866 23.3046025 71.8087866"></polygon>
                            <polygon id="Fill-8" points="11.7037657 92.0523013 17.4569038 92.0523013 17.4569038 70.7702929 11.7037657 70.7702929"></polygon>
                            <polygon id="Fill-9" points="11.7527197 0.000125523013 11.7527197 48.902636 95.9447699 48.902636 95.9447699 43.1490795 17.5058577 43.1490795 17.5058577 0.000125523013"></polygon>
                            <polygon id="Fill-10" points="23.3593305 0.000125523013 23.3593305 37.2214644 95.9451046 37.2214644 95.9451046 31.4683264 29.1120502 31.4683264 29.1120502 0.000125523013"></polygon>
                            <polygon id="Fill-11" points="34.985523 0.0532217573 34.985523 25.7586611 95.9449372 25.7586611 95.9449372 20.005523 40.7386611 20.005523 40.7386611 0.0532217573"></polygon>
                            <polygon id="Fill-12" points="59.2079498 21.734728 64.9610879 21.734728 64.9610879 0.0535564854 59.2079498 0.0535564854"></polygon>
                            <polygon id="Fill-13" points="70.8016736 20.2430962 76.5552301 20.2430962 76.5552301 0.0535564854 70.8016736 0.0535564854"></polygon>
                            <polygon id="Fill-14" points="82.4025105 21.28159 88.1560669 21.28159 88.1560669 0 82.4025105 0"></polygon>
                        </g>
                    </g>
                </g>
            </g>
        </g>
    </g>
</svg>