<?xml version="1.0" encoding="UTF-8"?>
<svg width="231px" height="92px" viewBox="0 0 231 92" version="1.1" xmlns="http://www.w3.org/2000/svg" xmlns:xlink="http://www.w3.org/1999/xlink">
    <!-- Generator: Sketch 49.3 (51167) - http://www.bohemiancoding.com/sketch -->
    <title>Page 1</title>
    <desc>Created with Sketch.</desc>
    <defs>
        <polygon id="path-1" points="0 0 230.515021 0 230.515021 91.2592593 0 91.2592593"></polygon>
    </defs>
    <g id="Page-1" stroke="none" stroke-width="1" fill="none" fill-rule="evenodd">
        <g id="Landing-page" transform="translate(-1650.000000, -5573.000000)">
            <g id="partners" transform="translate(600.000000, 5404.000000)">
                <g id="Group-74" transform="translate(970.000000, 169.000000)">
                    <g id="Page-1" transform="translate(80.000000, 0.000000)">
                        <mask id="mask-2" fill="white">
                            <use xlink:href="#path-1"></use>
                        </mask>
                        <g id="Clip-2"></g>
                        <path d="M121.819133,33.4807407 L121.819133,60.6902593 L129.1598,60.6902593 L129.1598,33.4807407 L139.164096,33.4807407 L139.164096,27.3093333 L111.814837,27.3093333 L111.814837,33.4807407 L121.819133,33.4807407 Z M148.187356,48.6297778 C148.187356,49.5937037 148.281467,50.5376667 148.469689,51.455963 C148.655059,52.3771111 148.974467,53.2012963 149.427911,53.9370741 C149.878504,54.6671481 150.480244,55.2517778 151.22743,55.6881111 C151.974615,56.1244444 152.910022,56.344037 154.033652,56.344037 C155.15443,56.344037 156.098393,56.1244444 156.859837,55.6881111 C157.607022,55.2688889 158.237281,54.6642963 158.685022,53.9342222 C159.135615,53.2012963 159.455022,52.3771111 159.643244,51.455963 C160.019689,49.5822963 160.019689,47.6515926 159.643244,45.7750741 C159.480689,44.8967037 159.152726,44.0582593 158.685022,43.2996667 C158.228726,42.5752963 157.601319,41.9764074 156.859837,41.5457778 C156.098393,41.0923333 155.15443,40.867037 154.033652,40.867037 C152.910022,40.867037 151.974615,41.0951852 151.22743,41.5457778 C150.497356,41.9792593 149.881356,42.581 149.427911,43.2996667 C148.974467,44.0154815 148.657911,44.8396667 148.469689,45.7779259 C148.281467,46.7161852 148.187356,47.6715556 148.187356,48.6297778 Z M141.548244,48.6297778 C141.548244,46.6962222 141.844837,44.9423333 142.438022,43.3681111 C142.985578,41.8651852 143.846837,40.4934444 144.961911,39.347 C146.076985,38.2262222 147.414504,37.3507037 148.888911,36.7774815 C150.417504,36.170037 152.131467,35.8648889 154.033652,35.8648889 C155.932985,35.8648889 157.655504,36.170037 159.198356,36.7774815 C160.681319,37.345 162.027393,38.2233704 163.14817,39.347 C164.24043,40.4535185 165.081726,41.7938889 165.674911,43.3681111 C166.265244,44.9423333 166.561837,46.6962222 166.561837,48.6297778 C166.561837,50.5604815 166.265244,52.3086667 165.674911,53.8657778 C165.124504,55.3601481 164.260393,56.7204815 163.14817,57.8612222 C162.030244,58.9848519 160.68417,59.8575185 159.198356,60.4107778 C157.547133,61.0210741 155.796096,61.3233704 154.033652,61.2977037 C152.131467,61.2977037 150.417504,61.003963 148.888911,60.4107778 C147.414504,59.8518148 146.074133,58.982 144.961911,57.8612222 C143.849689,56.7204815 142.991281,55.3601481 142.438022,53.8657778 C141.844837,52.3058148 141.548244,50.5604815 141.548244,48.6297778 Z M176.00717,52.8362593 L169.696022,52.8362593 C169.755911,54.4561111 170.1238,55.805037 170.793985,56.8801852 C171.46417,57.9553333 172.319726,58.8194444 173.366356,59.4753704 C174.410133,60.1312963 175.602207,60.5961481 176.942578,60.8784815 C179.631874,61.4317407 182.406726,61.4374444 185.098874,60.9012963 C186.350837,60.6645926 187.548615,60.1968889 188.629467,59.521 C189.656133,58.8650741 190.491726,58.0038148 191.130541,56.9258148 C191.769356,55.8506667 192.088763,54.5188519 192.088763,52.9303704 C192.088763,51.8067407 191.872022,50.8656296 191.432837,50.1013333 C191.002207,49.3427407 190.414726,48.6896667 189.704615,48.1848889 C188.954578,47.6515926 188.127541,47.2352222 187.252022,46.9443333 C186.32517,46.6306296 185.381207,46.3682593 184.422985,46.1515185 C183.487578,45.9319259 182.569281,45.7294444 181.662393,45.5440741 C180.849615,45.3786667 180.045393,45.1704815 179.25543,44.910963 C178.633726,44.7198889 178.0548,44.409037 177.550022,43.9983704 C177.122244,43.6418889 176.879837,43.1057407 176.894096,42.5496296 C176.894096,42.0534074 177.019578,41.6541481 177.267689,41.3575556 C177.5158,41.0638148 177.829504,40.8328148 178.180281,40.6816667 C178.539615,40.5248148 178.936022,40.425 179.372356,40.3765185 C179.808689,40.3308889 180.213652,40.3052222 180.587244,40.3052222 C181.773615,40.3052222 182.800281,40.5333704 183.672948,40.983963 C184.545615,41.4374074 185.03043,42.3015185 185.124541,43.5791481 L191.435689,43.5791481 C191.310207,42.0819259 190.928059,40.8442222 190.289244,39.8631852 C189.673244,38.904963 188.851911,38.0978889 187.882281,37.5018519 C186.867022,36.8887037 185.749096,36.4609259 184.585541,36.2384815 C183.330726,35.9875185 182.055948,35.862037 180.775467,35.8677407 C179.489281,35.8648889 178.205948,35.9818148 176.942578,36.2156667 C175.693467,36.4495185 174.572689,36.8544815 173.577393,37.4305556 C172.579244,38.0066296 171.775022,38.7937407 171.167578,39.7918889 C170.560133,40.790037 170.254985,42.0676667 170.254985,43.6247778 C170.254985,44.6856667 170.474578,45.5811481 170.910911,46.3140741 C171.347244,47.047 171.923319,47.6544444 172.639133,48.1392593 C173.3578,48.6212222 174.176281,49.0090741 175.094578,49.3085185 C176.012874,49.6022593 176.956837,49.8589259 177.923615,50.0785185 C180.290652,50.5775926 182.138652,51.0766667 183.464763,51.5728889 C184.788022,52.071963 185.449652,52.822 185.449652,53.8172963 C185.449652,54.4104815 185.309911,54.901 185.03043,55.2917037 C184.7538,55.6795556 184.391615,55.998963 183.975244,56.2271111 C183.538911,56.4666667 183.068356,56.6406296 182.577837,56.7404444 C182.093022,56.845963 181.599652,56.9001481 181.10343,56.903 C180.447504,56.903 179.817244,56.826 179.2098,56.6691481 C178.633726,56.5294074 178.08617,56.2812963 177.595652,55.9447778 C176.571837,55.2460741 175.972948,54.0768148 176.00717,52.8362593 Z M195.970133,27.3093333 L195.970133,60.6902593 L202.609244,60.6902593 L202.609244,48.0194815 C202.609244,45.5583333 203.014207,43.7901852 203.824133,42.715037 C204.634059,41.6398889 205.943059,41.1008889 207.751133,41.1008889 C209.342467,41.1008889 210.448985,41.5914074 211.070689,42.5752963 C211.695244,43.5563333 212.006096,45.045 212.006096,47.0384444 L212.006096,60.6902593 L218.645207,60.6902593 L218.645207,45.8235556 C218.645207,44.3263333 218.514022,42.9631481 218.245948,41.734 C218.026356,40.6018148 217.5558,39.5295185 216.868504,38.5998148 C216.212578,37.7442593 215.317096,37.0740741 214.179207,36.5892593 C213.041319,36.1044444 211.584022,35.8648889 209.81017,35.8648889 C208.561059,35.8648889 207.28343,36.1842963 205.97443,36.8231111 C204.66543,37.4619259 203.590281,38.4828889 202.748985,39.886 L202.606393,39.886 L202.606393,27.3093333 L195.970133,27.3093333 Z M223.881207,32.7791852 L230.520319,32.7791852 L230.520319,27.3093333 L223.881207,27.3093333 L223.881207,32.7791852 Z M223.881207,60.6902593 L230.520319,60.6902593 L230.520319,36.5208148 L223.881207,36.5208148 L223.881207,60.6902593 Z M45.6290593,91.2592593 C20.4272444,91.2592593 -0.00057037037,70.8314444 -0.00057037037,45.6296296 C-0.00057037037,20.4278148 20.4272444,0 45.6290593,0 C70.8308741,0 91.2586889,20.4278148 91.2586889,45.6296296 C91.2586889,70.8314444 70.8308741,91.2592593 45.6290593,91.2592593 Z M34.1646148,30.7714815 C32.2909481,30.7714815 30.7709111,32.2915185 30.7709111,34.1651852 L30.7709111,57.0940741 C30.7709111,58.9677407 32.2909481,60.4877778 34.1646148,60.4877778 L57.0935037,60.4877778 C58.9671704,60.4877778 60.4872074,58.9677407 60.4872074,57.0940741 L60.4872074,34.1651852 C60.4872074,32.2915185 58.9671704,30.7714815 57.0935037,30.7714815 L34.1646148,30.7714815 Z" id="Fill-1" fill="#8386A8" mask="url(#mask-2)"></path>
                    </g>
                </g>
            </g>
        </g>
    </g>
</svg>