<?xml version="1.0" encoding="UTF-8"?>
<svg width="239px" height="107px" viewBox="0 0 239 107" version="1.1" xmlns="http://www.w3.org/2000/svg" xmlns:xlink="http://www.w3.org/1999/xlink">
    <!-- Generator: Sketch 49.3 (51167) - http://www.bohemiancoding.com/sketch -->
    <title>5a8d256522b72d00015af1ac_logo_solid_side</title>
    <desc>Created with Sketch.</desc>
    <defs></defs>
    <g id="Page-1" stroke="none" stroke-width="1" fill="none" fill-rule="evenodd">
        <g id="Landing-page" transform="translate(-1161.000000, -5551.000000)" fill-rule="nonzero">
            <g id="partners" transform="translate(600.000000, 5404.000000)">
                <g id="Group-32" transform="translate(485.000000, 147.000000)">
                    <g id="Group-14">
                        <g id="Group-76">
                            <g id="5a8d256522b72d00015af1ac_logo_solid_side" transform="translate(76.000000, 0.000000)">
                                <g id="logo_solid_white">
                                    <g id="path0_fill-link" transform="translate(4.063496, 3.133981)">
                                        <path d="M42.0281545,-4.43559491e-07 C59.0367861,13.2067858 78.541565,12.3922704 84.114359,12.3922704 C82.8953103,87.5022284 73.6073203,77.4953246 42.0281545,98.5563663 C10.4489887,77.4953246 1.21906029,87.5022284 1.41723697e-05,12.3922704 C5.51475564,12.3922704 25.0195229,13.2067858 42.0281545,-4.43559491e-07 Z" id="path0_fill"></path>
                                    </g>
                                    <g id="path1_stroke-link" fill="#8386A8">
                                        <path d="M46.0916501,4.07257668 L48.5503552,0.891923479 C47.1029961,-0.231915813 45.0803041,-0.231915813 43.632945,0.891923479 L46.0916501,4.07257668 Z M88.1778546,16.4648475 L92.1920077,16.5302996 C92.2094227,15.4519976 91.7943656,14.411745 91.0397165,13.643017 C90.2850673,12.8742308 89.2541004,12.4413158 88.1778546,12.4413158 L88.1778546,16.4648475 Z M46.0916501,102.628943 L43.8675829,105.978347 C45.2148058,106.877223 46.9684944,106.877223 48.3156593,105.978347 L46.0916501,102.628943 Z M4.06350977,16.4648475 L4.06350977,12.4413158 C2.98746455,12.4413158 1.95646284,12.8742308 1.20179624,13.643017 C0.447129641,14.411745 0.0319797104,15.4519976 0.0494817664,16.5302996 L4.06350977,16.4648475 Z M43.632945,7.25323076 C61.8520919,21.3999965 82.6991015,20.4883792 88.1778546,20.4883792 L88.1778546,12.4413158 C82.5110197,12.4413158 64.3483553,13.1587294 48.5503552,0.891923479 L43.632945,7.25323076 Z M84.1637014,16.3993954 C83.8612612,35.0885681 83.0723626,48.2711512 81.5613227,58.0384711 C80.0700198,67.7019403 77.9378456,73.4937267 75.1938251,77.5616495 C72.4132331,81.7878209 68.9255929,84.2959466 63.757407,87.3905235 C58.5441163,90.5200081 51.9589895,93.8909383 43.8675829,99.2795397 L48.3156593,105.978347 C56.0138356,100.836428 62.4321269,97.5603303 67.8801135,94.2952871 C73.3727986,90.9959178 78.2042948,87.3620154 81.8457674,82.0688288 C85.5232309,76.6168116 87.9154688,69.5107463 89.4955881,59.2681567 C91.0559704,49.1288941 91.8849235,35.3961059 92.1920077,16.5302996 L84.1637014,16.3993954 Z M48.3156593,99.2795397 C40.2246591,93.8909383 33.643944,90.5205899 28.4367486,87.3916871 C23.2744257,84.297692 19.7942159,81.7907299 17.0206479,77.5651403 C14.2829548,73.4977993 12.1574564,67.705431 10.6716102,58.0405656 C9.16557424,48.2727221 8.37992058,35.0891499 8.07753846,16.3993954 L0.0494817664,16.5302996 C0.356623984,35.3955241 1.18185609,49.1273233 2.73613154,59.266004 C4.31059909,69.5072555 6.69487603,76.6133208 10.3644099,82.065338 C13.9981038,87.3591064 18.8226341,90.9941724 24.3106751,94.2947053 C29.7537855,97.5597485 36.1690582,100.836428 43.8675829,105.978347 L48.3156593,99.2795397 Z M4.06350977,20.4883792 C9.48538876,20.4883792 30.3316146,21.3996474 48.5503552,7.25323076 L43.632945,0.891923479 C27.8344224,13.1590785 9.67111953,12.4413158 4.06350977,12.4413158 L4.06350977,20.4883792 Z" id="path1_stroke"></path>
                                    </g>
                                </g>
                                <g id="labels" transform="translate(111.000000, 25.000000)" fill="#8386A8">
                                    <g id="TRUST">
                                        <g id="path2_fill-link">
                                            <path d="M23.9970004,5.85916284 L15.0781152,5.85916284 L15.0781152,30.2822421 L9.07886514,30.2822421 L9.07886514,5.85916284 L0.279965004,5.85916284 L0.279965004,0.966454536 L23.9970004,0.966454536 L23.9970004,5.85916284 Z M38.2152551,19.5506021 L33.4358205,19.5506021 L33.4358205,30.2822421 L27.4365704,30.2822421 L27.4365704,0.966454536 L38.2551861,0.966454536 C41.6947562,0.966454536 44.3478005,1.73826513 46.2142552,3.28195074 C48.0806459,4.82557193 49.0139053,7.00679538 49.0139053,9.82562111 C49.0139053,11.8256666 48.5806154,13.4967953 47.7140357,14.8390718 C46.8608304,16.1680112 45.5609609,17.2284051 43.8145552,18.0203824 L50.1137358,30.0003595 L50.1137358,30.2822421 L43.6745407,30.2822421 L38.2152551,19.5506021 Z M33.4358205,14.6578938 L38.2752156,14.6578938 C39.7817153,14.6578938 40.9482255,14.2753067 41.7747462,13.5102612 C42.6013308,12.7316855 43.0146552,11.6645908 43.0146552,10.3088484 C43.0146552,8.92630295 42.6213603,7.8390416 41.8347707,7.04706432 C41.0615553,6.25508705 39.8683605,5.85916284 38.2551861,5.85916284 L33.4358205,5.85916284 L33.4358205,14.6578938 Z M75.6308661,0.966454536 L75.6308661,20.275443 C75.6308661,23.4834922 74.6306712,26.0204353 72.6309211,27.886208 C70.6446094,29.7520452 67.9249494,30.6849315 64.471941,30.6849315 C61.0726859,30.6849315 58.3728634,29.7789126 56.3731134,27.9667459 C54.3733633,26.1547081 53.3533308,23.6647346 53.3130159,20.4968899 L53.3130159,0.966454536 L59.3129059,0.966454536 L59.3129059,20.3156475 C59.3129059,22.2351551 59.7659693,23.6378672 60.672096,24.5237838 C61.592301,25.396299 62.8587027,25.8325566 64.471941,25.8325566 C67.8449594,25.8325566 69.5580252,24.0472573 69.6111386,20.4767233 L69.6111386,0.966454536 L75.6308661,0.966454536 Z M95.648204,22.5908748 C95.648204,21.449943 95.248254,20.5774278 94.448354,19.9733937 C93.6484539,19.3559581 92.2086339,18.7116551 90.1288939,18.0404847 C88.0491539,17.3559127 86.4026397,16.6847422 85.1893513,16.0270377 C81.8828846,14.228337 80.2299713,11.8054999 80.2299713,8.75852644 C80.2299713,7.17457189 80.6695963,5.76515903 81.5501262,4.53022342 C82.4428146,3.28195074 83.7162555,2.30873103 85.3691689,1.61075756 C87.0355206,0.912784094 88.9021672,0.563765146 90.9684689,0.563765146 C93.048209,0.563765146 94.9014173,0.946352281 96.528094,1.71139769 C98.1541307,2.46310603 99.4141332,3.53026513 100.307462,4.91281056 C101.214228,6.29535598 101.667292,7.86584461 101.667292,9.62427642 L95.6680415,9.62427642 C95.6680415,8.28199993 95.248254,7.24170827 94.408039,6.50346586 C93.5684639,5.75175752 92.3884514,5.37593557 90.8686414,5.37593557 C89.4019448,5.37593557 88.2622472,5.6913219 87.4489089,6.32222342 C86.6355706,6.93965901 86.2292213,7.75850372 86.2292213,8.7786287 C86.2292213,9.73168173 86.7027622,10.5303598 87.6492038,11.1746628 C88.6090839,11.8189658 90.015628,12.4229355 91.8681965,12.9867006 C95.2815298,14.0202915 97.767619,15.3021968 99.327744,16.8324165 C100.887229,18.3626362 101.667292,20.2686778 101.667292,22.5506058 C101.667292,25.087549 100.713811,27.0808293 98.8074891,28.5305111 C96.9011674,29.9667914 94.3350881,30.6849315 91.1086114,30.6849315 C88.8688914,30.6849315 86.8294663,30.2755414 84.9890564,29.4567611 C83.1499263,28.6245149 81.7433821,27.4902838 80.7700637,26.0540035 C79.8101837,24.6177232 79.3302437,22.9532952 79.3302437,21.0606551 L85.3493313,21.0606551 C85.3493313,24.2955717 87.2690914,25.9130945 91.1086114,25.9130945 C92.5349931,25.9130945 93.6484539,25.6244467 94.448354,25.04728 C95.248254,24.4566475 95.648204,23.6378672 95.648204,22.5908748 Z M127.664042,5.85916284 L118.744837,5.85916284 L118.744837,30.2822421 L112.746227,30.2822421 L112.746227,5.85916284 L103.947327,5.85916284 L103.947327,0.966454536 L127.664042,0.966454536 L127.664042,5.85916284 Z" id="path2_fill"></path>
                                        </g>
                                    </g>
                                    <g id="WALLET" transform="translate(4.479440, 39.946787)">
                                        <g id="path3_fill-link">
                                            <path d="M6.43733933,17.0130146 L7.14035546,20.568021 L7.99964004,17.170289 L12.9364949,0.2919337 L14.6706782,0.2919337 L19.5450769,17.170289 L20.3886834,20.599463 L21.1386057,17.0130146 L25.2474681,0.2919337 L27.21599,0.2919337 L21.3885584,23.1949089 L19.5450769,23.1949089 L14.3894333,5.27838809 L13.8113936,3.01327638 L13.2489679,5.27838809 L7.96834796,23.1949089 L6.12486639,23.1949089 L0.313087264,0.2919337 L2.28159,0.2919337 L6.43733933,17.0130146 Z M42.5109101,16.7770709 L32.184073,16.7770709 L29.8406219,23.1949089 L27.8252578,23.1949089 L36.4335898,0.2919337 L38.2614573,0.2919337 L46.8697893,23.1949089 L44.8700392,23.1949089 L42.5109101,16.7770709 Z M32.7777908,15.1254001 L41.9016423,15.1254001 L37.3397165,2.6514358 L32.7777908,15.1254001 Z M52.1659593,21.558959 L63.3987952,21.558959 L63.3987952,23.1949089 L50.2287294,23.1949089 L50.2287294,0.2919337 L52.1659593,0.2919337 L52.1659593,21.558959 Z M69.0390501,21.558959 L80.2715661,21.558959 L80.2715661,23.1949089 L67.1013723,23.1949089 L67.1013723,0.2919337 L69.0390501,0.2919337 L69.0390501,21.558959 Z M96.5351331,12.215341 L85.895823,12.215341 L85.895823,21.558959 L98.1291739,21.558959 L98.1291739,23.1949089 L83.9747832,23.1949089 L83.9747832,0.2919337 L98.0511036,0.2919337 L98.0511036,1.9436045 L85.895823,1.9436045 L85.895823,10.5793912 L96.5351331,10.5793912 L96.5351331,12.215341 Z M117.939178,1.9436045 L110.143032,1.9436045 L110.143032,23.1949089 L108.221352,23.1949089 L108.221352,1.9436045 L100.441205,1.9436045 L100.441205,0.2919337 L117.939178,0.2919337 L117.939178,1.9436045 Z" id="path3_fill"></path>
                                        </g>
                                    </g>
                                </g>
                            </g>
                        </g>
                    </g>
                </g>
            </g>
        </g>
    </g>
</svg>