<?xml version="1.0" encoding="utf-8"?>
<!-- Generator: Adobe Illustrator 22.1.0, SVG Export Plug-In . SVG Version: 6.00 Build 0)  -->
<svg version="1.1" id="Слой_1" xmlns="http://www.w3.org/2000/svg" xmlns:xlink="http://www.w3.org/1999/xlink" x="0px" y="0px" width="46"
	 viewBox="0 0 600 600" style="enable-background:new 0 0 600 600;" xml:space="preserve">
<style type="text/css">
	.st0{fill:#5B5D79;}
</style>
<g>
	<path class="st0" d="M543.9,112.1l-43.7-43.7c-8.2-8.2-21.4-8.2-29.6,0l-27.1,27.1l73.3,73.3l27.1-27.1
		C552,133.6,552,120.3,543.9,112.1z"/>
	<path class="st0" d="M497.4,317.2c0,121.6-98.9,220.5-220.5,220.5c-35.4,0-70.6-8.5-101.9-24.9c-1.5-0.8-3.6-1.1-6.6-1.1
		c-7.4,0-20.1,2.4-42.6,6.9c-23,4.7-70.8,14.3-75.1,7.7c-3.8-5.9,8-22.6,17.5-36c14.8-20.9,30.2-42.4,20.5-58.1
		c-21.2-34.6-32.3-74.3-32.3-115c0-121.6,98.9-220.5,220.5-220.5c34.7,0,69.2,8.3,100,24L201.5,296.1c-4.4,4.5-7.6,10-9.3,15.9
		L168,397.5c-3.1,11.1-1,22.9,6,32.1c9,11.9,25.2,17.2,39.3,13.2l85.4-24.2c6-1.7,11.5-4.9,15.9-9.4l169-169
		C492.8,264.9,497.4,290.7,497.4,317.2z"/>
	<path class="st0" d="M419.3,119.8L239.6,299.5c-1.4,1.4-2.4,3.1-2.9,4.9l-14.1,34.1c0,0,44.9,15.2,44.9,50.6l40.5-13.5
		c0.5-0.1,0.9-0.4,1.3-0.6c1.3-0.6,2.6-1.3,3.6-2.3v0l179.7-179.7L419.3,119.8z"/>
</g>
</svg>
