<svg width="48" height="51" xmlns="http://www.w3.org/2000/svg"><path d="M38.466 5.74c-2.212 1.855-4.495 4.139-5.423 6.92-1.07 3.284.428 6.637 1.856 9.563 1.426 2.996 2.997 5.922 4.352 8.99 1.07 2.426 2.57 5.28 2.212 7.992-.285 1.927-.928 3.782-1.284 5.708-.286 1.285.927 0 1.355-.357 2.497-2.14 5.21-4.566 6.208-7.848.5-1.641.214-3.14-.357-4.71-.57-1.498-1.213-2.925-1.855-4.424-1.356-2.997-2.783-5.994-4.21-8.99a48.946 48.946 0 0 1-1.64-3.354 11.679 11.679 0 0 1-.858-3.853c-.07-1.071-.07-2.07.072-3.14.071-.785.286-1.498.357-2.283.071-.428-.286-.571-.785-.214m-32.68 0C3.573 7.595 1.29 9.879.362 12.66c-1.07 3.284.43 6.637 1.856 9.563 1.428 2.996 2.997 5.922 4.352 8.99 1.071 2.426 2.57 5.28 2.212 7.992-.285 1.927-.927 3.782-1.284 5.708-.285 1.285.928 0 1.356-.357 2.498-2.14 5.21-4.566 6.208-7.848.5-1.641.214-3.14-.357-4.71-.57-1.498-1.213-2.925-1.855-4.424-1.356-2.997-2.782-5.994-4.21-8.99A48.946 48.946 0 0 1 7 15.23a11.628 11.628 0 0 1-.857-3.853c-.072-1.071-.072-2.07.071-3.14.071-.785.285-1.498.356-2.283.072-.428-.285-.571-.784-.214M21.627.317c-2.497 2.069-5.21 4.566-6.707 7.492-1.07 2.07-1.213 4.21-.643 6.35.714 2.569 1.713 5.138 2.784 7.636 2.069 4.78 4.78 9.275 6.777 14.127.714 1.713 1.5 3.64 1.642 5.566.142 2.355-.643 4.852-1.285 7.064-.142.642-.57 1.499-.5 2.14.072.5.358.286.643.072a35.773 35.773 0 0 0 3.496-3.068c2.927-2.783 6.28-6.493 5.994-10.846-.142-1.783-.998-3.496-1.713-5.137-.785-1.927-1.64-3.782-2.497-5.637a273.476 273.476 0 0 0-4.923-10.347c-.57-1.213-1.285-2.354-1.712-3.567-.643-1.641-.928-3.354-1-5.067-.07-1.284 0-2.64.143-3.924.072-.856.357-1.641.357-2.498.213-.784-.213-.856-.857-.356" fill="#8386A8" fill-rule="evenodd"/></svg>