<svg width="47" height="46" xmlns="http://www.w3.org/2000/svg"><path d="M23.499 0C10.522 0 0 10.542 0 23.549c0 10.402 6.733 19.228 16.073 22.342 1.175.217 1.603-.51 1.603-1.135 0-.559-.02-2.04-.032-4.004-6.537 1.423-7.916-3.157-7.916-3.157-1.068-2.72-2.609-3.444-2.609-3.444-2.134-1.461.162-1.432.162-1.432 2.357.167 3.598 2.427 3.598 2.427 2.097 3.599 5.5 2.56 6.84 1.956.213-1.522.821-2.56 1.492-3.148-5.218-.595-10.704-2.614-10.704-11.637 0-2.57.915-4.673 2.419-6.32-.242-.595-1.049-2.988.23-6.23 0 0 1.973-.634 6.462 2.413 1.875-.523 3.885-.783 5.883-.793 1.996.01 4.007.27 5.884.793 4.486-3.047 6.455-2.414 6.455-2.414 1.283 3.243.476 5.636.234 6.232 1.507 1.646 2.416 3.748 2.416 6.32 0 9.044-5.495 11.036-10.73 11.618.844.727 1.596 2.164 1.596 4.361 0 3.148-.03 5.687-.03 6.46 0 .63.424 1.362 1.616 1.131C40.273 42.768 47 33.948 47 23.55 47 10.542 36.478 0 23.499 0" fill="#8386A8" fill-rule="evenodd"/></svg>