<svg width="42" height="46" xmlns="http://www.w3.org/2000/svg"><g fill="#8386A8"><path d="M18.759 17.64c3.378-1.435 5.566-4.778 5.546-8.472C24.336 4.116 20.297 0 15.363 0c-4.962 0-8.995 4.116-8.995 9.168a9.224 9.224 0 0 0 3.077 6.896l-4.722 3.18s9.472.83 14.036-1.603z"/><path d="M37.944 27.665c-4.51-1.63-10.8 1.523-10.8 1.523s4.856-6.55 4.75-16.225c-.053-7.083-2.546-9.382-4.458-11.091.16.971.24 1.954.24 2.939 0 10.264-6.315 17.16-16.477 17.16-4.22 0-8.093-.027-11.198-2.406.054.161.504 2.109 2.308 4.143A12.171 12.171 0 0 0 5.6 26.302c4.564 2.484 8.066 2.78 8.41 2.806.028.026.028.08.054.107 0 5.104-3.556 12.401-8.597 12.401a10.23 10.23 0 0 1-2.225-.263 7.822 7.822 0 0 1-3.188-1.416s.69 5.318 6.368 5.853c6.234.588 9.1-.775 15.282-4.57 6.607-4.063 11.621-8.366 15.47-7.297 2.918.801 3.401 5.479 3.401 5.479s.875-1.845 1.141-3.475c.26-1.714.737-6.632-3.772-8.262z"/></g></svg>