<svg width="53" height="43" xmlns="http://www.w3.org/2000/svg"><path d="M34.075 28.3c-1.928 0-3.549-1.55-3.549-3.46 0-1.912 1.621-3.513 3.55-3.513 1.928 0 3.492 1.601 3.492 3.512S36.004 28.3 34.075 28.3m.82 6.717c-1.797 1.779-4.567 2.643-8.47 2.643l-.027-.001-.027.001c-3.902 0-6.67-.864-8.466-2.643a1.386 1.386 0 0 1 0-1.974 1.42 1.42 0 0 1 1.993 0c1.239 1.227 3.356 1.824 6.473 1.824l.027.002.028-.002c3.117 0 5.236-.597 6.476-1.824a1.418 1.418 0 0 1 1.993 0c.55.546.55 1.43 0 1.974M15.232 24.84c0-1.909 1.617-3.512 3.544-3.512 1.929 0 3.493 1.603 3.493 3.512 0 1.911-1.564 3.461-3.493 3.461-1.927 0-3.544-1.55-3.544-3.46M43.596 2.792c1.306 0 2.368 1.053 2.368 2.346 0 1.294-1.062 2.347-2.368 2.347-1.306 0-2.37-1.053-2.37-2.347 0-1.293 1.064-2.346 2.37-2.346M52.2 21.038c0-3.389-2.782-6.145-6.202-6.145-1.48 0-2.84.518-3.907 1.379-3.781-2.355-8.58-3.774-13.724-4.074l2.683-8.406 7.374 1.72c.194 2.66 2.439 4.767 5.172 4.767 2.859 0 5.185-2.306 5.185-5.14C48.781 2.306 46.455 0 43.596 0c-2 0-3.738 1.128-4.604 2.775L30.423.777a1.41 1.41 0 0 0-1.666.937l-3.331 10.434c-5.542.134-10.752 1.558-14.81 4.05a6.205 6.205 0 0 0-3.814-1.305C3.382 14.893.6 17.65.6 21.038a6.122 6.122 0 0 0 2.685 5.056 10.69 10.69 0 0 0-.103 1.474c0 4.236 2.484 8.176 6.996 11.094C14.503 41.46 20.228 43 26.295 43c6.068 0 11.792-1.54 16.117-4.338 4.512-2.918 6.997-6.858 6.997-11.094 0-.452-.03-.9-.087-1.347 1.728-1.09 2.878-3.007 2.878-5.183" fill="#8386A8" fill-rule="evenodd"/></svg>