<svg width="22" height="22" xmlns="http://www.w3.org/2000/svg"><path d="M11 0C4.924 0 0 4.944 0 11.044c0 4.879 3.151 9.018 7.523 10.479.55.101.751-.24.751-.533 0-.262-.01-.956-.015-1.878-3.06.668-3.706-1.48-3.706-1.48-.5-1.276-1.22-1.615-1.22-1.615-1-.686.075-.672.075-.672 1.103.078 1.684 1.138 1.684 1.138.982 1.688 2.575 1.2 3.202.918.1-.714.384-1.2.698-1.477-2.442-.279-5.01-1.226-5.01-5.457 0-1.206.428-2.192 1.132-2.964-.113-.28-.49-1.402.108-2.923 0 0 .924-.296 3.025 1.132A10.521 10.521 0 0 1 11 5.34c.934.005 1.875.127 2.754.372 2.1-1.428 3.021-1.132 3.021-1.132.6 1.52.223 2.643.11 2.923.705.772 1.13 1.758 1.13 2.964 0 4.242-2.571 5.176-5.022 5.449.395.34.747 1.015.747 2.045 0 1.476-.014 2.667-.014 3.03 0 .295.198.639.757.53A11.043 11.043 0 0 0 22 11.044C22 4.944 17.075 0 11 0" fill="#C7CBFD" fill-rule="evenodd"/></svg>