<svg width="22" height="23" xmlns="http://www.w3.org/2000/svg"><path d="M11 22.212c-6.075 0-11-4.925-11-11s4.925-11 11-11 11 4.925 11 11-4.925 11-11 11zm6.572-10.115c0-2.428-1.297-3.558-3.026-3.558-1.397 0-2.02.768-2.37 1.306v.026h-.018c.005-.009.013-.017.018-.026v-1.12h-2.63c.036.741 0 7.907 0 7.907h2.63v-4.416c0-.238.018-.472.087-.641.19-.473.622-.962 1.348-.962.952 0 1.332.726 1.332 1.788v4.231h2.63v-4.535zM6.796 4.912c-.9 0-1.488.59-1.488 1.366 0 .76.571 1.367 1.453 1.367h.017c.917 0 1.487-.607 1.487-1.367-.017-.775-.57-1.366-1.47-1.366zm-1.332 11.72h2.628V8.724H5.464v7.908z" fill="#C7CBFD"/></svg>