<svg width="17" height="22" viewBox="0 0 37 46" xmlns="http://www.w3.org/2000/svg"><path d="M27.664 29.648c-.17 5.495-10.034 4.812-13.21 4.89l-.031-9.833c2.688-.067 10.267-.701 12.597 2.568.402.593.637 1.319.648 2.196 0 .06 0 .121-.004.18m-13.109-18.76h.493a14.5 14.5 0 0 1 .368-.006l.33-.004c.058-.002.116-.002.176-.002.098-.003.198-.003.3-.003.151-.002.303-.002.463-.002.168 0 .34 0 .516.002l.129.003c.167.002.332.006.502.013.114.002.228.007.341.013.059 0 .115.005.173.007l.251.014c.151.009.3.022.449.033.058.002.116.01.174.014.014.002.03.004.046.004.103.009.205.02.31.031a12.833 12.833 0 0 1 .877.12c.162.024.323.053.48.087a9.181 9.181 0 0 1 .963.235c.275.08.54.172.796.278l.105.042c.046.022.095.042.141.065.493.223.94.501 1.314.842.033.028.061.056.091.085a3.625 3.625 0 0 1 .865 1.278c.019.047.035.094.051.141.007.016.012.034.017.047a4.42 4.42 0 0 1 .212 1.262c.079 5.162-8.319 4.587-11.02 4.544l-.034-9.144c.037.002.079.002.121.002M30.166 21.1c2.872-1.38 4.563-3.856 4.1-7.715-.5-5.406-5.437-7.157-11.809-7.528l.049-5.685-4.684-.085.077 5.48c-1.265-.04-2.49.082-3.755.039l.09-5.521L9.551 0l-.049 5.685c-1.056.08-2.153-.003-3.04.038L.005 5.716 0 10.552l3.419.043c1.774-.079 2.404.978 2.658 1.952L6.11 21l.03 11.905c-.041.529-.506 1.505-1.771 1.462L.95 34.324l-.935 5.402 6.12.088c1.266.04 2.322-.04 3.42.042l-.008 5.849 4.684.084.049-5.684c1.223-.121 2.49-.081 3.755-.038l-.049 5.684 4.728.249.007-5.848c7.48 0 13.548-2.387 14.188-9.619.64-5.85-2.186-8.452-6.744-9.433" fill="#8386A8" fill-rule="evenodd"/></svg>