<svg width="48" height="42" xmlns="http://www.w3.org/2000/svg"><path d="M38.78 9.54L18.07 26.735a2.13 2.13 0 0 0-.799 1.522l-.726 7.785c-.037.346-.51.38-.618.069l-3.306-11.279a.984.984 0 0 1 .472-1.176l25.36-14.531c.255-.173.545.208.327.415M45.532.13L1.085 18.553c-1.562.661-1.396 2.91.233 3.34l8.943 2.348c.565.133 1.03.595 1.23 1.158l4.52 13.857c.4 1.29 2.128 1.654 3.026.595l5.12-5.887c.631-.727 1.728-.826 2.46-.231l9.973 7.871c1.03.827 2.56.298 2.859-.992l8.51-38.463c.3-1.389-1.097-2.546-2.427-2.017" fill="#8386a8" fill-rule="evenodd"/></svg>