<?xml version="1.0" encoding="utf-8"?>
<!-- Generator: Adobe Illustrator 22.1.0, SVG Export Plug-In . SVG Version: 6.00 Build 0)  -->
<svg version="1.1" id="Слой_1" xmlns="http://www.w3.org/2000/svg" xmlns:xlink="http://www.w3.org/1999/xlink" x="0px" y="0px"
	 viewBox="0 0 26 26" style="enable-background:new 0 0 26 26;" xml:space="preserve">
<style type="text/css">
	.st0{opacity:0.5;clip-path:url(#SVGID_2_);}
	.st11{fill:#26A6D1;}
	.st21{fill:#FFFFFF;}
	.st3{clip-path:url(#SVGID_4_);}
</style>
<g>
	<defs>
		<rect id="SVGID_1_" width="26" height="26"/>
	</defs>
	<clipPath id="SVGID_2_">
		<use xlink:href="#SVGID_1_"  style="overflow:visible;"/>
	</clipPath>
	<g class="st0">
		<path class="st11" d="M13,0c7.2,0,13,5.8,13,13s-5.8,13-13,13S0,20.2,0,13S5.8,0,13,0z"/>
		<path class="st2" d="M21.1,8.8c-0.6,0.2-1.2,0.4-1.8,0.5c0.7-0.4,1.2-1,1.4-1.7c-0.6,0.4-1.3,0.6-2,0.7c-0.6-0.6-1.4-1-2.3-1
			c-1.7,0-3.2,1.4-3.2,3.1c0,0.2,0,0.5,0.1,0.7C10.8,11,8.4,9.8,6.8,7.9c-0.3,0.5-0.4,1-0.4,1.5c0,1.1,0.6,2,1.4,2.6
			c-0.5,0-1-0.1-1.4-0.4v0c0,1.5,1.1,2.7,2.5,3c-0.5,0.1-1,0.1-1.4,0.1c0.4,1.2,1.6,2.1,3,2.1c-1.1,0.9-2.5,1.3-3.9,1.3
			c-0.3,0-0.5,0-0.8,0c1.5,0.9,3.1,1.4,4.9,1.4c5.8,0,9-4.7,9-8.7l0-0.4C20.2,9.9,20.7,9.4,21.1,8.8z"/>
	</g>
</g>
<g>
	<defs>
		<rect id="SVGID_3_" width="26" height="26"/>
	</defs>
	<clipPath id="SVGID_4_">
		<use xlink:href="#SVGID_3_"  style="overflow:visible;"/>
	</clipPath>
	<g class="st3">
		<path class="st11" d="M13,0c7.2,0,13,5.8,13,13s-5.8,13-13,13S0,20.2,0,13S5.8,0,13,0z"/>
		<path class="st21" d="M21.1,8.8c-0.6,0.2-1.2,0.4-1.8,0.5c0.7-0.4,1.2-1,1.4-1.7c-0.6,0.4-1.3,0.6-2,0.7c-0.6-0.6-1.4-1-2.3-1
			c-1.7,0-3.2,1.4-3.2,3.1c0,0.2,0,0.5,0.1,0.7C10.8,11,8.4,9.8,6.8,7.9c-0.3,0.5-0.4,1-0.4,1.5c0,1.1,0.6,2,1.4,2.6
			c-0.5,0-1-0.1-1.4-0.4v0c0,1.5,1.1,2.7,2.5,3c-0.5,0.1-1,0.1-1.4,0.1c0.4,1.2,1.6,2.1,3,2.1c-1.1,0.9-2.5,1.3-3.9,1.3
			c-0.3,0-0.5,0-0.8,0c1.5,0.9,3.1,1.4,4.9,1.4c5.8,0,9-4.7,9-8.7l0-0.4C20.2,9.9,20.7,9.4,21.1,8.8z"/>
	</g>
</g>
</svg>
