<svg width="172" height="81" xmlns="http://www.w3.org/2000/svg"><defs><linearGradient x1="0%" y1="49.992%" x2="100.036%" y2="49.992%" id="a"><stop stop-color="#6E718F" offset="0%"/><stop stop-color="#6E718F" offset="99.44%"/></linearGradient><linearGradient x1=".799%" y1="49.49%" x2="101.157%" y2="49.49%" id="b"><stop stop-color="#6E718F" offset="0%"/><stop stop-color="#6E718F" offset="99.44%"/></linearGradient><linearGradient x1="47.255%" y1="33.907%" x2="72.425%" y2="81.222%" id="c"><stop stop-color="#27283A" offset="0%"/><stop stop-color="#27283A" stop-opacity="0" offset="100%"/></linearGradient></defs><g fill="none" fill-rule="evenodd" opacity=".148"><path d="M60.174 22.76c-5.691 0-10.317 4.638-10.317 10.344 0 4.104 2.396 7.674 5.89 9.342L1.765 166.297v.034c-.1-.034-.166-.034-.266-.034-.832 0-1.498.667-1.498 1.502 0 .834.666 1.501 1.498 1.501s1.497-.667 1.497-1.501c0-.5-.233-.935-.599-1.202l53.95-123.85a10.42 10.42 0 0 0 3.828.733c5.691 0 10.317-4.637 10.317-10.343 0-5.705-4.592-10.376-10.317-10.376zm0 20.053c-5.325 0-9.652-4.337-9.652-9.676 0-5.338 4.327-9.676 9.652-9.676 5.325 0 9.652 4.338 9.652 9.676 0 5.339-4.327 9.676-9.652 9.676z" fill="url(#a)" fill-rule="nonzero" transform="rotate(-94 44.466 44.484)"/><path d="M60.174 31.636c-.832 0-1.498.667-1.498 1.501 0 .5.233.934.6 1.201l-.034.034.6.267.032-.034c.1 0 .167.034.267.034.832 0 1.497-.668 1.497-1.502a1.445 1.445 0 0 0-1.464-1.501z" fill="url(#b)" fill-rule="nonzero" transform="rotate(-94 44.466 44.484)"/><path fill="url(#c)" d="M34.484.557l49.07 2.857 4.624 80.64-61.085-14.546z" transform="rotate(-94 44.466 44.484)"/></g></svg>