<svg width="502" height="682" viewBox="0 0 502 682" fill="none" xmlns="http://www.w3.org/2000/svg">
<g style="mix-blend-mode:screen">
<path d="M264.393 578.152V590.945H229.53C229.53 590.945 230.694 579.654 248.399 578.152H264.393Z" fill="#48EDDF"/>
</g>
<g style="mix-blend-mode:screen">
<path d="M308.83 578.152V590.945H273.967C273.967 590.945 271.969 580.184 292.628 578.152H308.83Z" fill="#48EDDF"/>
</g>
<path style="mix-blend-mode:screen" d="M134.457 321.148C138.297 334.54 119.158 368.048 113.607 368.048C103.234 368.048 79.4912 367.04 79.4912 367.04L73.9312 359.076L112.964 352.849C112.964 352.849 116.344 312.723 120.566 310.092C123.589 308.25 131.555 310.951 134.457 321.148Z" fill="url(#paint0_linear)"/>
<g style="mix-blend-mode:screen">
<path d="M161.084 377.106C165.177 384.111 167.705 391.918 168.495 399.992C170.675 421.705 166.505 519.752 166.505 519.752H152.935C152.935 519.752 151.832 427.402 137.454 412.863L116.604 519.761H106.535L115.709 377.115L161.084 377.106Z" fill="#92FFF9"/>
</g>
<g style="mix-blend-mode:screen">
<path d="M115.666 377.107C115.666 377.107 114.067 335.669 119.358 310.109C119.358 310.109 163.152 300.043 169.12 314.756C178.398 337.632 158.287 352.866 161.084 377.107H115.666Z" fill="#04685A"/>
</g>
<path d="M107.126 519.752C107.126 519.752 104.607 540.31 100.272 544.783C95.9368 549.256 96.6318 552.052 96.6318 552.052C98.8932 552.671 101.242 552.909 103.582 552.756C108.195 552.617 111.835 548.283 113.373 540.727C114.101 543.533 114.432 546.427 114.354 549.325H116.092C116.092 549.325 116.961 538.773 119.167 535.689C121.374 532.606 115.605 526.952 115.744 519.752H107.126Z" fill="#17042B"/>
<path d="M154.881 519.752C154.881 519.752 152.362 540.31 148.027 544.783C143.692 549.256 144.387 552.052 144.387 552.052C146.648 552.671 148.997 552.909 151.337 552.756C155.959 552.617 159.59 548.283 161.136 540.727C161.859 543.534 162.187 546.428 162.109 549.325H163.847C163.847 549.325 164.716 538.773 166.922 535.689C169.129 532.606 163.352 526.952 163.447 519.752H154.881Z" fill="#17042B"/>
<g style="mix-blend-mode:screen">
<path d="M156.523 303.856C156.523 303.856 147.202 319.037 132.407 318.134C129.722 317.978 131.408 306.574 131.408 306.574C131.408 306.574 145.508 302.353 156.523 303.856Z" fill="#92FFF9"/>
</g>
<path d="M132.642 275.212C128.602 290.324 128.011 302.57 134.813 304.785L135.517 313.818C135.517 313.818 148.418 313.427 151.919 308.502L152.258 300.182C155.229 296.994 157.957 292.139 159.964 284.879C165.845 263.652 136.864 259.405 132.642 275.212Z" fill="url(#paint1_linear)"/>
<path d="M160.329 290.289C165.15 283.263 165.88 268.272 151.85 263.765C135.656 258.554 129.966 275.125 127.316 284.01C122.877 298.905 125.578 302.839 125.578 302.839C125.578 302.839 130.652 299.765 130.617 299.609C128.88 291.071 131.816 285.843 133.041 279.303C133.979 274.3 141.199 277.939 144.517 273.805C144.517 273.805 144.257 279.311 149.773 284.514C148.38 287.579 147.182 290.73 146.185 293.946C144.882 299.582 148.053 306.774 155.368 310.856L158.669 309.709C157.148 306.629 156.499 303.191 156.791 299.768C157.084 296.345 158.307 293.067 160.329 290.289Z" fill="#F67028"/>
<path d="M77.1804 385.392C101.914 385.392 121.964 365.347 121.964 340.62C121.964 315.893 101.914 295.848 77.1804 295.848C52.4469 295.848 32.3965 315.893 32.3965 340.62C32.3965 365.347 52.4469 385.392 77.1804 385.392Z" fill="url(#paint2_radial)"/>
<path d="M54.6365 322.98L77.1632 316.996L88.4569 357.374C88.4569 357.374 64.7834 357.157 64.5054 357.044C64.2274 356.931 54.6365 322.98 54.6365 322.98Z" fill="#17042B"/>
<path d="M64.4966 357.044C64.804 357.745 65.2962 358.35 65.9204 358.793C66.5446 359.237 67.2776 359.503 68.0412 359.562C70.7603 359.84 121.999 359.189 121.999 359.189C121.999 359.189 123.928 358.164 123.997 357.287L64.4966 357.044Z" fill="#17042B"/>
<g style="mix-blend-mode:screen">
<path d="M109.741 348.593V357.165H91.8884L90.1509 354.655C90.1509 354.655 94.5902 348.593 109.741 348.593Z" fill="#F9BF5A"/>
</g>
<path style="mix-blend-mode:screen" d="M170.258 317.691C174.107 331.084 154.873 365.616 149.408 364.591C142.12 363.236 109.733 357.148 109.733 357.148V348.593L147.645 348.341L155.881 307.981C155.881 307.981 167.322 307.486 170.258 317.691Z" fill="url(#paint3_linear)"/>
<g style="mix-blend-mode:screen">
<path d="M69.4313 343.556L73.9749 343.669L81.8805 359.597L79.5349 367.058C79.5349 367.058 64.5663 360.639 69.4313 343.556Z" fill="#F9BF5A"/>
</g>
<g style="mix-blend-mode:screen">
<path d="M406.914 130.178C406.66 127.077 407.179 123.962 408.427 121.112C409.675 118.262 411.612 115.766 414.063 113.85C416.514 111.933 419.404 110.655 422.471 110.131C425.539 109.608 428.688 109.854 431.637 110.848C434.586 111.843 437.241 113.554 439.364 115.828C441.488 118.103 443.013 120.869 443.802 123.878C444.591 126.888 444.62 130.046 443.886 133.07C443.152 136.093 441.678 138.887 439.597 141.2L441.968 148.235C442.014 148.378 442.02 148.531 441.984 148.678C441.949 148.824 441.873 148.958 441.766 149.064C441.659 149.17 441.525 149.244 441.378 149.279C441.231 149.313 441.078 149.307 440.935 149.259L432.152 146.228C429.433 147.236 426.518 147.6 423.635 147.292C420.752 146.985 417.98 146.014 415.535 144.456C413.09 142.897 411.039 140.794 409.544 138.311C408.048 135.828 407.148 133.032 406.914 130.143V130.178Z" fill="#103DFC"/>
</g>
<g style="mix-blend-mode:screen">
<path d="M309.519 109.16C309.264 106.06 309.784 102.945 311.031 100.095C312.279 97.2456 314.215 94.7504 316.665 92.8338C319.116 90.9172 322.005 89.6392 325.071 89.1148C328.138 88.5903 331.287 88.8358 334.236 89.829C337.184 90.8223 339.84 92.5323 341.964 94.8054C344.088 97.0786 345.614 99.8436 346.404 102.852C347.195 105.861 347.225 109.018 346.493 112.041C345.761 115.065 344.289 117.859 342.21 120.173L344.582 127.208C344.628 127.351 344.633 127.505 344.597 127.651C344.562 127.797 344.486 127.931 344.379 128.037C344.272 128.143 344.138 128.218 343.991 128.252C343.844 128.287 343.691 128.28 343.548 128.233L334.765 125.236C332.046 126.243 329.13 126.607 326.247 126.3C323.363 125.992 320.59 125.021 318.145 123.463C315.7 121.905 313.648 119.802 312.152 117.319C310.655 114.836 309.754 112.041 309.519 109.151V109.16Z" fill="#103DFC"/>
</g>
<g style="mix-blend-mode:screen">
<path d="M264.353 48.0334C264.098 44.9327 264.618 41.8173 265.865 38.9672C267.113 36.117 269.05 33.6215 271.501 31.7049C273.952 29.7883 276.842 28.5106 279.909 27.9867C282.977 27.4629 286.127 27.7092 289.075 28.7036C292.024 29.698 294.679 31.4093 296.803 33.6838C298.926 35.9582 300.451 38.7244 301.24 41.7338C302.029 44.7433 302.058 47.9016 301.324 50.925C300.59 53.9484 299.116 56.7421 297.035 59.0549L299.407 66.0899C299.453 66.2334 299.458 66.3868 299.422 66.5332C299.387 66.6796 299.311 66.8132 299.204 66.9193C299.097 67.0255 298.963 67.0999 298.816 67.1344C298.669 67.1688 298.516 67.1621 298.373 67.1148L289.59 64.1184C286.874 65.1175 283.963 65.4752 281.086 65.1637C278.208 64.8521 275.442 63.8797 273.003 62.3223C270.564 60.765 268.517 58.6649 267.024 56.1862C265.531 53.7075 264.632 50.9172 264.396 48.0334H264.353Z" fill="#450DBF"/>
</g>
<g style="mix-blend-mode:screen">
<path d="M234.363 19.9803C234.61 16.9288 234.095 13.8638 232.865 11.0605C231.634 8.25708 229.727 5.80302 227.313 3.9185C224.9 2.03398 222.056 0.777988 219.038 0.263247C216.019 -0.251495 212.92 -0.00888252 210.018 0.969316C207.116 1.94751 204.503 3.63068 202.412 5.86776C200.322 8.10484 198.82 10.8258 198.041 13.7865C197.262 16.7472 197.23 19.855 197.949 22.8309C198.668 25.8068 200.114 28.5577 202.159 30.8368L199.822 37.7849C199.773 37.9266 199.765 38.0792 199.798 38.2252C199.832 38.3713 199.906 38.5049 200.012 38.6109C200.118 38.7168 200.252 38.7909 200.398 38.8245C200.544 38.8582 200.697 38.85 200.838 38.8011L209.526 35.8481C212.204 36.8341 215.075 37.1872 217.913 36.8798C220.75 36.5724 223.478 35.613 225.884 34.0764C228.289 32.5398 230.306 30.4678 231.777 28.0224C233.248 25.577 234.133 22.8246 234.363 19.9803Z" fill="#450DBF"/>
</g>
<g style="mix-blend-mode:screen">
<path d="M50.8312 79.5781C51.0779 76.5266 50.5629 73.4616 49.3324 70.6583C48.1018 67.8549 46.1943 65.4008 43.781 63.5163C41.3677 61.6318 38.5241 60.3758 35.5055 59.861C32.4868 59.3463 29.3876 59.5889 26.4858 60.5671C23.5841 61.5453 20.9707 63.2285 18.8802 65.4656C16.7897 67.7026 15.2875 70.4236 14.5085 73.3843C13.7294 76.345 13.6979 79.4528 14.4166 82.4287C15.1354 85.4046 16.582 88.1555 18.6267 90.4346L16.2984 97.3827C16.249 97.5232 16.2405 97.6748 16.2735 97.8199C16.3066 97.9651 16.38 98.098 16.4853 98.2033C16.5906 98.3086 16.7236 98.382 16.8688 98.415C17.014 98.4481 17.1656 98.4395 17.3061 98.3902L25.9937 95.4372C28.6723 96.4298 31.5444 96.7885 34.385 96.4853C37.2255 96.1822 39.9572 95.2253 42.3659 93.6898C44.7746 92.1543 46.7947 90.0819 48.2679 87.635C49.7412 85.1882 50.6275 82.4334 50.8573 79.5868L50.8312 79.5781Z" fill="#0909B7"/>
</g>
<g style="mix-blend-mode:screen">
<path d="M36.9311 386.808C37.1778 383.756 36.6627 380.691 35.4322 377.888C34.2017 375.085 32.2942 372.63 29.8809 370.746C27.4676 368.861 24.6241 367.605 21.6054 367.091C18.5868 366.576 15.4875 366.819 12.5858 367.797C9.68414 368.775 7.07076 370.458 4.98028 372.695C2.88981 374.932 1.38762 377.653 0.608556 380.614C-0.170504 383.575 -0.202046 386.682 0.516718 389.658C1.23548 392.634 2.68211 395.385 4.72672 397.664L2.39844 404.612C2.34912 404.753 2.34055 404.904 2.37362 405.05C2.4067 405.195 2.48009 405.328 2.5854 405.433C2.69071 405.538 2.82365 405.612 2.96887 405.645C3.11408 405.678 3.26568 405.669 3.40621 405.62L12.0937 402.667C14.7715 403.655 17.6416 404.009 20.4794 403.703C23.3172 403.397 26.0456 402.439 28.4511 400.903C30.8566 399.367 32.8738 397.295 34.345 394.85C35.8162 392.404 36.7013 389.652 36.9311 386.808Z" fill="#0909B7"/>
</g>
<g style="mix-blend-mode:screen">
<path d="M128.176 123.074C128.424 120.021 127.91 116.955 126.68 114.151C125.45 111.346 123.543 108.891 121.129 107.005C118.716 105.12 115.872 103.863 112.852 103.348C109.833 102.833 106.732 103.075 103.83 104.054C100.928 105.033 98.3136 106.717 96.2231 108.955C94.1325 111.193 92.6307 113.916 91.8525 116.877C91.0743 119.839 91.044 122.948 91.7645 125.924C92.4849 128.901 93.9335 131.652 95.9802 133.93L93.6433 140.878C93.5979 141.02 93.5923 141.171 93.6272 141.315C93.6621 141.46 93.7362 141.591 93.8412 141.696C93.9463 141.802 94.0783 141.876 94.2227 141.91C94.3671 141.945 94.5183 141.94 94.6597 141.894L103.347 138.941C106.026 139.93 108.897 140.286 111.736 139.981C114.575 139.676 117.306 138.719 119.713 137.184C122.121 135.649 124.141 133.579 125.615 131.134C127.089 128.689 127.977 125.936 128.211 123.091L128.176 123.074Z" fill="#450DBF"/>
</g>
<g style="mix-blend-mode:screen">
<path d="M114.215 67.4883C114.364 65.7657 114.082 64.0331 113.394 62.4466C112.707 60.8602 111.635 59.4697 110.276 58.4005C108.917 57.3313 107.313 56.6169 105.609 56.3218C103.904 56.0266 102.154 56.16 100.514 56.7098C98.8742 57.2597 97.397 58.2087 96.2156 59.4714C95.0341 60.7341 94.1855 62.2709 93.7461 63.9432C93.3067 65.6155 93.2904 67.3708 93.6986 69.051C94.1068 70.7312 94.9267 72.2835 96.0845 73.5679L94.7727 77.4676C94.7454 77.5475 94.7411 77.6334 94.7603 77.7156C94.7794 77.7978 94.8211 77.873 94.8808 77.9327C94.9405 77.9924 95.0158 78.0341 95.098 78.0532C95.1803 78.0723 95.2662 78.068 95.3461 78.0408L100.22 76.3819C101.727 76.9376 103.343 77.1373 104.941 76.9655C106.539 76.7937 108.075 76.255 109.43 75.3914C110.785 74.5279 111.922 73.3629 112.752 71.9874C113.582 70.6119 114.083 69.0632 114.215 67.4622V67.4883Z" fill="#0A2FA3"/>
</g>
<g style="mix-blend-mode:screen">
<path d="M77.5192 172.44C79.0038 169.191 79.6581 165.625 79.4232 162.06C79.1882 158.496 78.0714 155.046 76.1731 152.02C74.2748 148.995 71.6544 146.487 68.5473 144.724C65.4402 142.961 61.9436 141.997 58.3717 141.919C54.7998 141.84 51.2643 142.65 48.0829 144.275C44.9015 145.901 42.1737 148.291 40.1446 151.231C38.1154 154.17 36.8484 157.568 36.4574 161.118C36.0663 164.669 36.5635 168.261 37.9043 171.571L32.5962 178.25C32.4871 178.386 32.4184 178.55 32.3978 178.723C32.3773 178.896 32.4059 179.071 32.4801 179.229C32.5544 179.386 32.6714 179.52 32.8179 179.614C32.9644 179.708 33.1344 179.759 33.3086 179.762L43.9681 179.953C46.5106 182.104 49.517 183.638 52.7517 184.432C55.9863 185.227 59.3613 185.262 62.6117 184.535C65.8622 183.807 68.8997 182.336 71.4862 180.237C74.0726 178.139 76.1376 175.47 77.5192 172.44Z" fill="#48EDDF"/>
</g>
<path style="mix-blend-mode:screen" d="M320.196 156.485C320.196 156.485 327.224 191.061 327.493 191.226C327.748 191.947 328.194 192.585 328.783 193.073C329.372 193.561 330.082 193.88 330.838 193.997C331.368 194.092 333.8 194.292 337.354 194.553C339.439 197.349 342.688 199.937 347.631 201.926C347.631 201.926 352.4 203.003 358.742 204.358C370.401 206.851 387.411 210.29 390.139 209.726C390.262 209.692 390.375 209.63 390.469 209.543C391.338 219.688 391.824 226.983 391.824 226.983L390.139 360.118C372.156 361.656 370.974 373.146 370.974 373.146H406.376V360.118H406.445L420.276 251.154L435.045 360.101C414.056 362.168 416.088 373.129 416.088 373.129H451.551V227C451.551 227 459.37 163.911 459.37 155.825C459.37 148.877 451.933 138.498 433.307 135.658C431.474 135.264 429.605 135.063 427.73 135.059L428.833 120.372L429.033 120.459L429.12 120.39C433.856 116.55 437.016 111.104 437.998 105.087C438.867 100.014 435.913 93.5092 430.605 88.8973C423.421 82.644 413.578 80.907 403.604 84.1118H403.552C402.778 84.6857 402.126 85.4071 401.632 86.2344C401.139 87.0618 400.814 87.9786 400.677 88.9321C400.321 91.5897 401.485 94.4819 404.152 97.5304L404.213 97.5825H404.273C404.065 98.8679 402.953 105.964 402.406 112.521H402.345C402.345 112.521 400.512 123.074 402.223 124.785C403.274 125.835 406.367 126.713 409.173 127.242L407.436 137.091C395.004 140.566 385.83 147.444 384.292 151.396C383.032 153.923 380.209 175.367 378.723 187.205C374.14 187.605 369.745 189.214 365.988 191.869V194.223L367.152 194.335L351.314 193.085L343.113 152.212L320.196 156.485Z" fill="url(#paint4_linear)"/>
<path style="mix-blend-mode:screen" d="M279.182 137.543C279.182 137.543 286.21 172.119 286.48 172.284C286.734 173.005 287.179 173.644 287.768 174.132C288.357 174.62 289.068 174.939 289.824 175.054C290.354 175.15 292.787 175.35 296.34 175.61C298.425 178.407 301.674 180.995 306.617 182.984C306.617 182.984 311.378 184.07 317.729 185.424C329.387 187.926 346.397 191.356 349.125 190.801C349.246 190.762 349.358 190.7 349.455 190.618C350.324 200.762 350.802 208.049 350.802 208.049L349.116 341.193C331.142 342.722 330.004 354.221 330.004 354.221H365.414V341.193H365.484L379.271 232.212L394.04 341.167C373.051 343.226 375.083 354.195 375.083 354.195H410.494V207.98C410.494 207.98 418.312 144.899 418.312 136.813C418.312 129.865 410.876 119.443 392.25 116.638C390.417 116.247 388.547 116.049 386.672 116.047L387.767 101.361L387.967 101.439L388.063 101.369C392.795 97.5298 395.955 92.0877 396.941 86.0746C397.81 81.0025 394.847 74.4973 389.548 69.8855C382.364 63.6321 372.521 61.8864 362.547 65.0999H362.495C361.718 65.6692 361.062 66.3882 360.567 67.2145C360.072 68.0408 359.747 68.9578 359.611 69.9115C359.264 72.5779 360.428 75.47 363.086 78.5185L363.147 78.5619H363.208C362.999 79.8387 361.887 86.9345 361.331 93.5005H361.279C361.279 93.5005 359.446 104.053 361.157 105.764C362.2 106.806 365.293 107.692 368.107 108.222L366.37 118.071C353.938 121.545 344.755 128.424 343.218 132.375C341.967 134.903 339.135 156.346 337.649 168.176C333.066 168.586 328.673 170.197 324.913 172.848V175.202L326.077 175.306L310.24 174.064L302.126 133.2L279.182 137.543Z" fill="url(#paint5_linear)"/>
<path style="mix-blend-mode:screen" d="M307.799 199.008C307.921 198.972 308.034 198.91 308.129 198.826C308.998 208.97 309.476 216.266 309.476 216.266L307.79 349.401C289.816 350.938 288.678 362.428 288.678 362.428H324.088V349.401H324.157L337.971 240.445L352.739 349.401C331.759 351.468 333.783 362.428 333.783 362.428H369.193V216.266C369.193 216.266 377.012 153.176 377.012 145.09C377.012 138.142 369.576 127.763 350.95 124.923C349.116 124.53 347.247 124.329 345.372 124.324L346.467 109.637L346.667 109.724L346.762 109.655C351.492 105.81 354.648 100.366 355.632 94.3515C356.501 89.2794 353.547 82.7742 348.239 78.1624C341.055 71.909 331.22 70.172 321.247 73.3768H321.195C320.418 73.9485 319.763 74.6692 319.268 75.4968C318.773 76.3244 318.447 77.2424 318.311 78.1971C317.963 80.8548 319.127 83.7469 321.786 86.7954L321.847 86.8475H321.907C321.699 88.1329 320.587 95.2287 320.031 101.786H319.97C319.97 101.786 318.146 112.339 319.857 114.05C320.9 115.1 323.992 115.978 326.807 116.507L325.07 126.356C312.638 129.831 303.455 136.709 301.917 140.661C300.658 143.188 297.834 164.632 296.349 176.47C292.109 176.93 305.071 199.564 307.799 199.008Z" fill="url(#paint6_linear)"/>
<path style="mix-blend-mode:screen" d="M141.19 222.658C141.311 222.619 141.423 222.557 141.52 222.475C142.389 232.62 142.875 239.915 142.875 239.915L141.19 373.05C123.207 374.588 122.025 386.078 122.025 386.078H157.435V373.05H157.505L171.327 264.095L186.095 373.05C165.106 375.117 167.139 386.078 167.139 386.078H202.55V239.872C202.55 239.872 210.368 176.783 210.368 168.697C210.368 161.749 202.932 151.37 184.306 148.53C182.484 148.145 180.626 147.956 178.763 147.965L179.867 133.279L180.066 133.365L180.153 133.296C184.89 129.456 188.05 124.01 189.032 117.993C189.901 112.92 186.947 106.415 181.639 101.803C174.454 95.5501 164.611 93.8044 154.638 97.0179H154.586C153.812 97.5894 153.159 98.3091 152.665 99.1351C152.171 99.9611 151.847 100.877 151.71 101.829C151.354 104.496 152.518 107.388 155.185 110.436L155.246 110.489H155.307C155.099 111.774 153.986 118.861 153.439 125.427H153.378C153.378 125.427 151.545 135.98 153.257 137.691C154.299 138.733 157.392 139.619 160.207 140.149L158.469 149.998C146.037 153.472 136.863 160.35 135.326 164.302C134.066 166.829 131.243 188.273 129.757 200.111C125.509 200.537 138.462 223.17 141.19 222.658Z" fill="url(#paint7_linear)"/>
<path style="mix-blend-mode:screen" d="M146.62 518.171C146.742 518.135 146.855 518.073 146.95 517.989C147.819 528.133 148.305 535.429 148.305 535.429L146.62 668.564C128.637 670.101 127.455 681.592 127.455 681.592H162.865V668.564H162.935L176.713 559.643L191.482 668.59C170.493 670.657 172.526 681.618 172.526 681.618H207.936V535.429C207.936 535.429 215.755 472.34 215.755 464.21C215.755 457.262 208.318 446.883 189.692 444.043C187.859 443.653 185.99 443.453 184.115 443.444L185.218 428.757L185.409 428.844L185.505 428.775C190.236 424.946 193.4 419.517 194.401 413.515C195.27 408.443 192.307 401.929 187.008 397.317C179.823 391.072 169.98 389.327 160.007 392.531H159.955C159.178 393.103 158.524 393.823 158.03 394.651C157.536 395.479 157.213 396.397 157.08 397.352C156.723 400.009 157.887 402.901 160.555 405.95L160.615 406.002H160.676C160.468 407.288 159.356 414.383 158.808 420.941H158.747C158.747 420.941 156.914 431.502 158.626 433.213C159.668 434.255 162.761 435.132 165.576 435.662L163.838 445.511C151.406 448.985 142.233 455.864 140.695 459.816C139.435 462.343 136.603 483.795 135.118 495.625C130.895 496.102 143.848 518.736 146.62 518.171Z" fill="url(#paint8_linear)"/>
<path style="mix-blend-mode:screen" d="M214.382 194.37C214.505 194.34 214.618 194.281 214.712 194.197C215.581 204.341 216.068 211.628 216.068 211.628L214.382 344.772C196.399 346.3 195.218 357.799 195.218 357.799H230.628V344.772H230.697L244.519 235.816L259.288 344.772C238.299 346.83 240.332 357.799 240.332 357.799H275.742V211.628C275.742 211.628 283.561 148.547 283.561 140.461C283.561 133.513 276.124 123.091 257.498 120.286C255.668 119.895 253.801 119.697 251.929 119.695L253.024 105.008L253.224 105.087L253.311 105.017C258.048 101.181 261.208 95.7371 262.189 89.7224C263.058 84.6503 260.104 78.145 254.796 73.5245C247.612 67.2799 237.769 65.5342 227.796 68.7477H227.744C226.971 69.3226 226.319 70.0443 225.825 70.8714C225.332 71.6986 225.007 72.6149 224.868 73.568C224.512 76.2256 225.676 79.1265 228.343 82.175L228.395 82.2184H228.456C228.247 83.4951 227.135 90.5909 226.588 97.1482H226.545C226.545 97.1482 224.72 107.701 226.432 109.412C227.474 110.454 230.567 111.331 233.382 111.861L231.644 121.71C219.221 125.184 210.038 132.071 208.501 136.023C207.241 138.551 204.418 159.994 202.932 171.823C198.745 172.284 211.663 194.935 214.382 194.37Z" fill="url(#paint9_linear)"/>
<path style="mix-blend-mode:screen" d="M362.252 157.093C362.252 157.093 369.28 191.669 369.549 191.834C369.804 192.555 370.25 193.193 370.839 193.681C371.428 194.169 372.138 194.488 372.894 194.605C373.424 194.7 375.857 194.9 379.41 195.161C381.495 197.957 384.744 200.545 389.687 202.534C389.687 202.534 394.457 203.611 400.798 204.966C412.457 207.459 429.467 210.898 432.195 210.334C432.318 210.3 432.431 210.238 432.525 210.151C433.394 220.296 433.88 227.591 433.88 227.591L432.195 360.726C414.212 362.264 413.03 373.754 413.03 373.754H448.441V360.726H448.51L462.332 251.779L477.101 360.726C456.112 362.793 458.145 373.754 458.145 373.754H493.555V227.565C493.555 227.565 501.374 164.476 501.374 156.39C501.374 149.442 493.937 139.063 475.311 136.223C473.478 135.829 471.609 135.628 469.734 135.624H469.604L468.231 123.829L468.405 123.942L468.509 123.89C474.179 121.145 478.614 116.376 480.941 110.523C482.756 105.712 480.845 98.7637 476.493 93.2312C470.603 85.7533 459.986 79.9081 449.961 82.5484C449.848 82.5484 441.013 87.1429 448.224 96.7921L448.276 96.8443L448.328 96.8877C447.502 99.1632 439.814 120.642 442.247 122.839C443.908 124.304 445.765 125.531 447.763 126.487L448.51 137.96L447.207 138.412C446.857 138.506 446.512 138.619 446.173 138.75C435.444 142.442 427.738 148.434 426.34 152.021C425.08 154.549 422.257 176.001 420.771 187.83C416.187 188.239 411.791 189.848 408.026 192.494V194.848L409.199 194.961L393.345 193.675L385.144 152.803L362.252 157.093Z" fill="url(#paint10_linear)"/>
<path style="mix-blend-mode:screen" d="M189.388 146.949L189.51 146.992L189.822 139.176L201.646 139.662L200.56 166.491L196.295 166.317L212.123 186.744C212.123 186.744 225.815 172.162 234.433 164.762C234.902 164.198 237.421 161.349 239.949 160.758C240.099 160.695 240.253 160.642 240.41 160.602C240.584 160.562 240.761 160.536 240.94 160.524C242.677 160.116 244.701 159.655 246.908 159.16L247.855 158.908L248.072 153.828C248.072 153.984 248.072 154.08 248.072 154.08C248.072 154.08 241.174 146.063 242.295 136.857C243.416 127.65 247.977 110.688 264.622 114.188C279.034 117.228 278.956 132.314 274.882 139.801C271.931 144.978 271.003 151.064 272.276 156.885C276.732 157.545 280.355 159.169 282.197 162.365C293.699 182.341 273.101 205.661 275.898 229.901C279.996 236.904 282.527 244.712 283.317 252.787C285.498 274.5 281.319 372.538 281.319 372.538H278.374C278.235 379.747 284.038 385.409 281.797 388.484C279.556 391.559 278.722 402.12 278.722 402.12H276.984C277.062 399.222 276.731 396.327 276.003 393.521C274.465 401.069 270.79 405.403 266.212 405.55C263.872 405.704 261.523 405.466 259.262 404.847C259.262 404.847 258.558 402.05 262.902 397.577C267.246 393.104 269.756 372.538 269.756 372.538H267.81C267.81 372.538 266.69 280.197 252.329 265.649L231.479 372.538H230.715C230.576 379.747 236.379 385.409 234.137 388.484C231.896 391.559 231.062 402.12 231.062 402.12H229.325C229.402 399.222 229.072 396.327 228.343 393.521C226.805 401.069 223.13 405.403 218.552 405.55C216.198 405.71 213.834 405.472 211.559 404.847C211.559 404.847 210.855 402.05 215.19 397.577C219.525 393.104 222.044 372.538 222.044 372.538H221.419L230.593 229.901C230.593 229.901 230.593 202.048 231.053 194.205C221.202 199.208 210.707 202.239 208.066 201.362C198.215 198.096 188.797 170.425 188.797 170.425C188.797 170.425 184.106 159.013 189.388 146.949Z" fill="url(#paint11_linear)"/>
<path style="mix-blend-mode:screen" d="M359.976 237.353L360.098 237.397L360.419 229.58L372.243 230.058L371.157 256.886L366.883 256.712L382.72 277.14C382.72 277.14 396.403 262.558 405.021 255.158C405.498 254.593 408.009 251.744 410.546 251.154C410.693 251.092 410.844 251.039 410.998 250.998C411.175 250.957 411.355 250.931 411.536 250.919C413.274 250.511 415.298 250.051 417.496 249.565C417.748 249.486 418.069 249.408 418.443 249.304L418.66 244.223C418.66 244.379 418.66 244.475 418.66 244.475C418.66 244.475 411.762 236.459 412.883 227.252C414.004 218.046 418.565 201.084 435.201 204.584C449.622 207.624 449.544 222.719 445.47 230.197C442.526 235.376 441.597 241.459 442.863 247.28C447.32 247.94 450.951 249.565 452.793 252.761C464.295 272.737 443.697 296.056 446.495 320.297C450.588 327.302 453.118 335.108 453.914 343.182C456.086 364.895 451.916 462.942 451.916 462.942H448.945C448.806 470.142 454.618 475.805 452.42 478.879C450.222 481.954 449.344 492.515 449.344 492.515H447.607C447.689 489.618 447.362 486.723 446.634 483.917C445.096 491.464 441.421 495.807 436.843 495.946C434.486 496.105 432.119 495.867 429.841 495.242C429.841 495.242 429.146 492.446 433.481 487.973C437.816 483.5 440.335 462.942 440.335 462.942H438.389C438.389 462.942 437.269 370.593 422.908 356.045L402.058 462.942H401.163C401.024 470.142 406.828 475.805 404.638 478.879C402.449 481.954 401.554 492.515 401.554 492.515H399.817C399.894 489.617 399.564 486.723 398.835 483.917C397.297 491.464 393.623 495.807 389.044 495.946C386.705 496.099 384.356 495.861 382.094 495.242C382.094 495.242 381.399 492.446 385.734 487.973C390.069 483.5 392.589 462.942 392.589 462.942H391.955L401.129 320.297C401.129 320.297 401.129 292.443 401.598 284.601C391.737 289.603 381.252 292.634 378.602 291.757C368.75 288.5 359.342 260.829 359.342 260.829C359.342 260.829 354.694 249.417 359.976 237.353Z" fill="url(#paint12_linear)"/>
<path d="M249.506 212.201C284.147 212.201 312.229 184.126 312.229 149.494C312.229 114.862 284.147 86.7867 249.506 86.7867C214.864 86.7867 186.782 114.862 186.782 149.494C186.782 184.126 214.864 212.201 249.506 212.201Z" fill="url(#paint13_radial)"/>
<path style="mix-blend-mode:screen" d="M300.319 173.482C302.684 175.42 304.55 177.897 305.759 180.705C306.969 183.513 307.486 186.57 307.269 189.619C307.269 189.619 254.197 208.049 251.547 204.749C248.898 201.449 245.805 162.131 245.805 162.131L252.251 163.434L260.435 186.71C260.435 186.71 299.042 172.405 300.319 173.482Z" fill="url(#paint14_linear)"/>
<g style="mix-blend-mode:screen">
<path d="M252.277 163.434L245.831 162.131L246.917 174.429L255.917 173.795L252.277 163.434Z" fill="#92FFF9"/>
</g>
<g style="mix-blend-mode:screen">
<path d="M245.831 162.131C245.831 162.131 243.225 150.137 246.43 140.896C246.43 140.896 253.867 141.234 254.023 143.093C254.84 152.36 252.286 163.416 252.286 163.416L245.831 162.131Z" fill="#F9BF5A"/>
</g>
<path d="M327.129 169.678C352.93 169.678 362.886 182.298 362.886 190.253C362.886 198.209 355.207 260.299 355.207 260.299H296.47C296.47 260.299 286.558 194.848 286.184 177.903C286.158 176.34 305.723 169.678 327.129 169.678Z" fill="#1342D8"/>
<path d="M355.207 260.299V391.315H339.022L324.47 284.097L310.866 391.315H294.811L296.47 260.299H355.207Z" fill="url(#paint15_linear)"/>
<path style="mix-blend-mode:screen" d="M305.775 133.452C305.775 133.452 302.56 159.065 305.549 160.724C307.452 161.738 309.569 162.286 311.726 162.322L311.977 178.511C311.977 178.511 329.101 177.686 331.385 169.939L330.742 155.096C330.742 155.096 335.086 149.633 336.468 139.393C337.849 129.153 327.155 115.074 306.296 122.683C306.296 122.683 298.147 125.314 305.775 133.452Z" fill="url(#paint16_linear)"/>
<path d="M304.567 120.407H304.619C314.306 116.881 324.044 118.245 331.333 124.124C336.719 128.467 339.882 134.755 339.195 139.758C338.447 145.706 335.541 151.173 331.029 155.122L330.942 155.191L328.405 154.236L328.623 154.019C328.683 153.967 334.096 148.808 333.522 145.846C333.432 145.467 333.243 145.119 332.975 144.837C332.706 144.554 332.367 144.348 331.993 144.239C331.601 144.059 331.171 143.979 330.74 144.006C330.309 144.034 329.892 144.167 329.526 144.396C326.711 146.133 326.051 153.159 326.051 153.229V153.411H322.576L323.445 147.071C319.37 144.465 320.074 139.132 320.326 137.795C315.174 138.029 305.827 133.704 305.722 133.652C303.003 130.751 301.752 127.946 302.004 125.323C302.177 123.411 303.098 121.644 304.567 120.407Z" fill="#0C0514"/>
<path style="mix-blend-mode:screen" d="M304.567 120.407H304.619C314.306 116.881 324.044 118.245 331.333 124.124C336.719 128.467 339.882 134.755 339.195 139.758C338.447 145.706 335.541 151.173 331.029 155.122L330.942 155.191L328.405 154.236L328.623 154.019C328.683 153.967 334.096 148.808 333.522 145.846C333.432 145.467 333.243 145.119 332.975 144.837C332.706 144.554 332.367 144.348 331.993 144.239C331.601 144.059 331.171 143.979 330.74 144.006C330.309 144.034 329.892 144.167 329.526 144.396C326.711 146.133 326.051 153.159 326.051 153.229V153.411H322.576L323.445 147.071C319.37 144.465 320.074 139.132 320.326 137.795C315.174 138.029 305.827 133.704 305.722 133.652C303.003 130.751 301.752 127.946 302.004 125.323C302.177 123.411 303.098 121.644 304.567 120.407Z" fill="url(#paint17_linear)"/>
<g style="mix-blend-mode:screen">
<path d="M310.813 391.315V404.1H275.959C275.959 404.1 277.123 392.809 294.82 391.315H310.813Z" fill="#17042B"/>
</g>
<g style="mix-blend-mode:screen">
<path d="M355.206 391.315V404.1H320.37C320.37 404.1 318.371 393.348 339.03 391.315H355.206Z" fill="#17042B"/>
</g>
<path d="M356.631 178.589C371.061 191.157 387.967 213.33 388.045 216.743C388.176 222.588 381.095 265.015 381.095 265.015L371.539 262.41L368.525 217.742L339.482 191.434C339.482 191.434 347.857 170.946 356.631 178.589Z" fill="#1342D8"/>
<g style="mix-blend-mode:screen">
<path d="M371.539 262.436L381.06 265.015L383.276 251.467L370.679 249.729L371.539 262.436Z" fill="#92FFF9"/>
</g>
<g style="mix-blend-mode:screen">
<path d="M381.061 265.016C381.061 265.016 382.042 268.594 377.473 275.829C377.473 275.829 368.238 276.324 368.368 274.465C368.619 270.285 369.697 266.197 371.539 262.436L381.061 265.016Z" fill="#F9BF5A"/>
</g>
<g style="mix-blend-mode:screen">
<path d="M312.012 171.745V178.511C312.012 178.511 329.135 177.686 331.42 169.939V169.557C333.413 169.651 335.392 169.942 337.328 170.425C337.328 170.425 333.714 186.137 312.212 191.183C312.212 191.183 307.086 178.155 308.615 172.892C309.726 172.449 310.86 172.066 312.012 171.745Z" fill="#92FFF9"/>
</g>
<g style="mix-blend-mode:screen">
<path d="M397.219 277.149H383.788V276.428C383.788 275.046 383.239 273.72 382.262 272.743C381.284 271.766 379.958 271.217 378.576 271.217H366.848C365.465 271.217 364.139 271.766 363.162 272.743C362.184 273.72 361.635 275.046 361.635 276.428V277.149H345.998C345.288 277.149 344.608 277.431 344.106 277.932C343.604 278.434 343.322 279.114 343.322 279.824V319.776C343.322 320.485 343.604 321.166 344.106 321.667C344.608 322.169 345.288 322.451 345.998 322.451H397.185C397.894 322.451 398.575 322.169 399.077 321.667C399.578 321.166 399.86 320.485 399.86 319.776V279.824C399.86 279.12 399.583 278.445 399.089 277.944C398.595 277.444 397.923 277.158 397.219 277.149ZM364.207 276.428C364.218 275.74 364.496 275.084 364.982 274.598C365.469 274.112 366.125 273.834 366.813 273.822H378.576C379.264 273.834 379.92 274.112 380.406 274.598C380.893 275.084 381.171 275.74 381.182 276.428V277.149H364.172L364.207 276.428Z" fill="#24ECA5"/>
</g>
<g style="mix-blend-mode:screen">
<path d="M246.257 160.385H256.812V133.713H246.257V160.385Z" fill="#92FFF9"/>
</g>
<g style="mix-blend-mode:screen">
<path d="M250.427 114.093C249.55 110.628 249.548 106.999 250.422 103.533C251.295 100.067 253.017 96.8724 255.432 94.2366C257.847 91.6008 260.879 89.6065 264.256 88.4329C267.633 87.2594 271.249 86.9434 274.779 87.5135C278.308 88.0835 281.641 89.5218 284.477 91.6988C287.312 93.8758 289.562 96.7233 291.024 99.9852C292.486 103.247 293.114 106.821 292.851 110.386C292.589 113.951 291.444 117.394 289.52 120.407L293.534 127.937C293.612 128.091 293.647 128.263 293.634 128.434C293.621 128.606 293.561 128.771 293.461 128.911C293.36 129.051 293.223 129.161 293.064 129.228C292.906 129.295 292.731 129.317 292.561 129.292L282.04 127.555C279.15 129.208 275.915 130.169 272.59 130.364C269.266 130.559 265.941 129.982 262.877 128.678C259.813 127.374 257.092 125.379 254.927 122.849C252.763 120.318 251.213 117.322 250.401 114.093H250.427Z" fill="#48EDDF"/>
</g>
<g style="mix-blend-mode:screen">
<path d="M60.6133 277.053C59.7352 273.588 59.7324 269.959 60.6051 266.493C61.4779 263.026 63.1988 259.831 65.6132 257.195C68.0275 254.558 71.0595 252.563 74.4365 251.389C77.8135 250.214 81.4295 249.897 84.9594 250.467C88.4892 251.036 91.8221 252.474 94.6583 254.65C97.4946 256.827 99.7451 259.674 101.208 262.936C102.67 266.198 103.299 269.772 103.037 273.337C102.775 276.902 101.631 280.345 99.707 283.359L103.721 290.889C103.803 291.042 103.84 291.215 103.828 291.388C103.817 291.561 103.757 291.728 103.656 291.869C103.555 292.01 103.416 292.12 103.255 292.186C103.095 292.252 102.919 292.272 102.748 292.244L92.2271 290.507C89.3376 292.154 86.1061 293.112 82.7853 293.304C79.4644 293.497 76.1439 292.92 73.0832 291.617C70.0225 290.315 67.3044 288.322 65.1413 285.796C62.9781 283.27 61.4284 280.277 60.6133 277.053Z" fill="#48EDDF"/>
</g>
<g style="mix-blend-mode:screen">
<path d="M207.493 304.299C206.615 300.833 206.612 297.205 207.485 293.738C208.358 290.272 210.078 287.077 212.493 284.44C214.907 281.804 217.939 279.808 221.316 278.634C224.693 277.46 228.309 277.143 231.839 277.712C235.369 278.281 238.702 279.719 241.538 281.896C244.374 284.072 246.625 286.919 248.087 290.181C249.55 293.443 250.178 297.017 249.916 300.582C249.654 304.147 248.51 307.591 246.587 310.604L250.6 318.134C250.682 318.287 250.72 318.46 250.708 318.633C250.697 318.807 250.637 318.973 250.536 319.114C250.434 319.255 250.296 319.365 250.135 319.431C249.975 319.498 249.799 319.518 249.627 319.489L239.107 317.752C236.218 319.403 232.986 320.364 229.664 320.558C226.342 320.753 223.02 320.176 219.958 318.873C216.897 317.57 214.178 315.576 212.015 313.048C209.853 310.519 208.305 307.525 207.493 304.299Z" fill="#48EDDF"/>
</g>
<path d="M203.262 379.764C218.371 379.764 230.619 367.519 230.619 352.414C230.619 337.31 218.371 325.065 203.262 325.065C188.153 325.065 175.905 337.31 175.905 352.414C175.905 367.519 188.153 379.764 203.262 379.764Z" fill="url(#paint18_radial)"/>
<path d="M189.883 335.435L208.996 337.172C209.242 337.189 209.482 337.255 209.702 337.366C209.923 337.476 210.119 337.629 210.28 337.815C210.442 338.001 210.565 338.218 210.643 338.452C210.72 338.685 210.751 338.932 210.733 339.178L207.849 376.021C207.826 376.309 207.736 376.588 207.587 376.836C207.437 377.083 207.232 377.293 206.988 377.448C206.744 377.603 206.467 377.699 206.179 377.728C205.891 377.758 205.6 377.721 205.33 377.619C199.7 375.5 185.175 373.493 185.001 373.337C184.827 373.181 187.329 344.381 187.877 337.146C187.916 336.653 188.15 336.196 188.526 335.876C188.902 335.555 189.391 335.396 189.883 335.435Z" fill="#17042B"/>
<path d="M280.841 355.949C306.661 355.949 316.617 368.586 316.617 376.551C316.617 384.515 308.937 446.623 308.937 446.623H250.166C250.166 446.623 246.144 390.221 242.538 373.667C241.548 369.108 259.418 355.949 280.841 355.949Z" fill="#3F02C4"/>
<path style="mix-blend-mode:screen" d="M316.617 376.551C316.617 376.551 311.135 427.437 307.834 428.358C304.532 429.278 270.729 449.879 270.729 449.879L266.907 443.8L293.734 410.258L295.193 375.074C295.193 375.074 309.667 367.214 316.617 376.551Z" fill="url(#paint19_linear)"/>
<path style="mix-blend-mode:screen" d="M250.418 364.226C253.428 364.778 256.262 366.044 258.68 367.918C261.099 369.792 263.033 372.219 264.318 374.996C264.318 374.996 226.736 416.789 222.818 415.174C218.9 413.558 192.411 385.418 192.411 385.418L196.946 380.659L220.837 396.292C220.837 396.292 248.776 363.87 250.418 364.226Z" fill="url(#paint20_linear)"/>
<path style="mix-blend-mode:screen" d="M308.937 446.631V577.717H292.735L278.174 470.437L264.57 577.717H248.507L250.166 446.631H308.937Z" fill="url(#paint21_linear)"/>
<g style="mix-blend-mode:screen">
<path d="M266.134 444.208C266.134 444.208 249.08 452.607 247.638 468.631L249.375 470.151L270.92 449.576L266.134 444.208Z" fill="#F9BF5A"/>
</g>
<g style="mix-blend-mode:screen">
<path d="M196.938 380.624L200.864 359.137L195.973 355.428C195.973 355.428 183.359 371.93 192.403 385.383L196.938 380.624Z" fill="#F9BF5A"/>
</g>
<path style="mix-blend-mode:screen" d="M264.552 322.537C264.552 322.537 259.601 347.881 262.476 349.748C264.315 350.892 266.399 351.583 268.557 351.763L265.691 365.538C265.691 365.538 282.649 368.143 286.428 360.995L288.026 345.84C292.856 342.249 296.169 336.983 297.313 331.075C299.407 320.948 285.68 303.473 264.353 309.623C264.335 309.57 257.489 313.852 264.552 322.537Z" fill="url(#paint22_linear)"/>
<path d="M264.231 309.405H264.283C274.196 306.557 283.821 308.537 290.702 314.929C295.784 319.636 298.521 326.124 297.487 331.084C296.331 336.963 293.061 342.215 288.295 345.848L288.2 345.909L285.733 344.78L285.967 344.589C286.028 344.537 291.788 339.734 291.406 336.772C291.349 336.383 291.188 336.016 290.94 335.711C290.693 335.405 290.367 335.172 289.998 335.035C289.616 334.835 289.192 334.73 288.76 334.73C288.329 334.73 287.904 334.835 287.522 335.035C284.595 336.59 283.457 343.556 283.439 343.625V343.799L279.964 343.538L281.276 337.302C277.375 334.401 278.444 329.147 278.791 327.835C273.622 327.714 264.596 322.763 264.483 322.702C261.964 319.619 260.904 316.736 261.338 314.13C261.485 313.191 261.817 312.29 262.313 311.479C262.81 310.668 263.461 309.964 264.231 309.405Z" fill="#CC5C09"/>
<path style="mix-blend-mode:screen" d="M264.231 309.405H264.283C274.196 306.557 283.821 308.537 290.702 314.929C295.784 319.636 298.521 326.124 297.487 331.084C296.331 336.963 293.061 342.215 288.295 345.848L288.2 345.909L285.733 344.78L285.967 344.589C286.028 344.537 291.788 339.734 291.406 336.772C291.349 336.383 291.188 336.016 290.94 335.711C290.693 335.405 290.367 335.172 289.998 335.035C289.616 334.835 289.192 334.73 288.76 334.73C288.329 334.73 287.904 334.835 287.522 335.035C284.595 336.59 283.457 343.556 283.439 343.625V343.799L279.964 343.538L281.276 337.302C277.375 334.401 278.444 329.147 278.791 327.835C273.622 327.714 264.596 322.763 264.483 322.702C261.964 319.619 260.904 316.736 261.338 314.13C261.485 313.191 261.817 312.29 262.313 311.479C262.81 310.668 263.461 309.964 264.231 309.405Z" fill="url(#paint23_linear)"/>
<g style="mix-blend-mode:screen">
<path d="M266.134 444.208L270.929 449.576L281.041 443.644L274.117 435.002L266.134 444.208Z" fill="#92FFF9"/>
</g>
<g style="mix-blend-mode:screen">
<path d="M196.938 380.624L192.403 385.383L200.143 393.495L205.582 387.312L196.938 380.624Z" fill="#92FFF9"/>
</g>
<g style="mix-blend-mode:screen">
<path d="M263.31 329.529L263.041 331.266L263.597 331.553C263.597 331.553 263.362 336.764 267.68 338.727C271.998 340.69 273.596 334.315 273.596 334.315L284.186 335.114L284.803 333.95L263.31 329.529ZM264.987 331.779L272.032 333.516C272.032 333.516 270.46 338.935 267.984 337.728C265.508 336.521 264.987 331.779 264.987 331.779Z" fill="#92FFF9"/>
</g>
<path style="mix-blend-mode:screen" d="M300.006 379.625C300.125 379.588 300.235 379.526 300.328 379.443C301.196 389.587 301.683 396.883 301.683 396.883L299.998 530.018C282.023 531.555 280.885 543.046 280.885 543.046H316.295V530.018H316.356L330.178 421.062L344.947 530.018C323.958 532.076 325.99 543.046 325.99 543.046H361.401V396.883C361.401 396.883 369.219 333.794 369.219 325.664C369.219 318.716 361.792 308.337 343.157 305.489C341.328 305.09 339.461 304.889 337.588 304.889L338.683 290.203L338.883 290.281L338.978 290.211C343.711 286.373 346.868 280.93 347.848 274.917C348.717 269.845 345.763 263.339 340.455 258.727C333.271 252.474 323.436 250.728 313.454 253.942C312.677 254.511 312.021 255.23 311.526 256.057C311.031 256.883 310.706 257.8 310.57 258.754C310.223 261.42 311.387 264.312 314.045 267.361L314.106 267.404H314.158C313.958 268.689 312.846 275.777 312.29 282.343H312.229C312.229 282.343 310.405 292.895 312.117 294.606C313.159 295.648 316.252 296.534 319.067 297.064L317.329 306.913C304.897 310.387 295.715 317.266 294.177 321.217C292.917 323.745 290.094 345.189 288.608 357.026C284.316 357.548 297.278 380.181 300.006 379.625Z" fill="url(#paint24_linear)"/>
<defs>
<linearGradient id="paint0_linear" x1="88.0357" y1="369.494" x2="144.593" y2="322.263" gradientUnits="userSpaceOnUse">
<stop stop-color="#13D8FF"/>
<stop offset="0.13" stop-color="#11ABD8"/>
<stop offset="0.29" stop-color="#0E78AC"/>
<stop offset="0.45" stop-color="#0C4D88"/>
<stop offset="0.6" stop-color="#0A2D6C"/>
<stop offset="0.75" stop-color="#091557"/>
<stop offset="0.88" stop-color="#08074B"/>
<stop offset="1" stop-color="#080247"/>
</linearGradient>
<linearGradient id="paint1_linear" x1="129.794" y1="289.65" x2="160.159" y2="291.231" gradientUnits="userSpaceOnUse">
<stop stop-color="#FFE0A1"/>
<stop offset="0.13" stop-color="#FDDB9B"/>
<stop offset="0.29" stop-color="#F9CC8B"/>
<stop offset="0.48" stop-color="#F1B370"/>
<stop offset="0.68" stop-color="#E6914A"/>
<stop offset="0.9" stop-color="#D8661A"/>
<stop offset="1" stop-color="#D14F01"/>
</linearGradient>
<radialGradient id="paint2_radial" cx="0" cy="0" r="1" gradientUnits="userSpaceOnUse" gradientTransform="translate(69.4698 342.625) rotate(-4.26887) scale(44.744 44.7323)">
<stop stop-color="#00FFCF"/>
<stop offset="0.12" stop-color="#01E7CF" stop-opacity="0.84"/>
<stop offset="0.37" stop-color="#02BBCF" stop-opacity="0.54"/>
<stop offset="0.59" stop-color="#0398CF" stop-opacity="0.31"/>
<stop offset="0.77" stop-color="#037FCF" stop-opacity="0.14"/>
<stop offset="0.91" stop-color="#0470CF" stop-opacity="0.04"/>
<stop offset="1" stop-color="#046ACF" stop-opacity="0"/>
</radialGradient>
<linearGradient id="paint3_linear" x1="117565" y1="-10063.3" x2="120916" y2="-13674.7" gradientUnits="userSpaceOnUse">
<stop stop-color="#13D8FF"/>
<stop offset="0.13" stop-color="#11ABD8"/>
<stop offset="0.29" stop-color="#0E78AC"/>
<stop offset="0.45" stop-color="#0C4D88"/>
<stop offset="0.6" stop-color="#0A2D6C"/>
<stop offset="0.75" stop-color="#091557"/>
<stop offset="0.88" stop-color="#08074B"/>
<stop offset="1" stop-color="#080247"/>
</linearGradient>
<linearGradient id="paint4_linear" x1="459.335" y1="227.791" x2="320.204" y2="227.791" gradientUnits="userSpaceOnUse">
<stop stop-color="#220047"/>
<stop offset="0.24" stop-color="#23004A"/>
<stop offset="0.42" stop-color="#250053"/>
<stop offset="0.57" stop-color="#280063"/>
<stop offset="0.71" stop-color="#2E0179"/>
<stop offset="0.84" stop-color="#340195"/>
<stop offset="0.96" stop-color="#3C02B8"/>
<stop offset="1" stop-color="#3F02C4"/>
</linearGradient>
<linearGradient id="paint5_linear" x1="383.649" y1="239.116" x2="292.102" y2="134.366" gradientUnits="userSpaceOnUse">
<stop/>
<stop offset="0.12" stop-color="#010005"/>
<stop offset="0.27" stop-color="#030013"/>
<stop offset="0.42" stop-color="#06002A"/>
<stop offset="0.58" stop-color="#0A014B"/>
<stop offset="0.75" stop-color="#0F0175"/>
<stop offset="0.91" stop-color="#1602A7"/>
<stop offset="1" stop-color="#1A02C4"/>
</linearGradient>
<linearGradient id="paint6_linear" x1="-926978" y1="117365" x2="-917995" y2="117365" gradientUnits="userSpaceOnUse">
<stop stop-color="#220047"/>
<stop offset="0.24" stop-color="#23004A"/>
<stop offset="0.42" stop-color="#250053"/>
<stop offset="0.57" stop-color="#280063"/>
<stop offset="0.71" stop-color="#2E0179"/>
<stop offset="0.84" stop-color="#340195"/>
<stop offset="0.96" stop-color="#3C02B8"/>
<stop offset="1" stop-color="#3F02C4"/>
</linearGradient>
<linearGradient id="paint7_linear" x1="-910296" y1="125293" x2="-901313" y2="125293" gradientUnits="userSpaceOnUse">
<stop stop-color="#220047"/>
<stop offset="0.24" stop-color="#23004A"/>
<stop offset="0.42" stop-color="#250053"/>
<stop offset="0.57" stop-color="#280063"/>
<stop offset="0.71" stop-color="#2E0179"/>
<stop offset="0.84" stop-color="#340195"/>
<stop offset="0.96" stop-color="#3C02B8"/>
<stop offset="1" stop-color="#3F02C4"/>
</linearGradient>
<linearGradient id="paint8_linear" x1="85.0862" y1="467.293" x2="253.64" y2="635.883" gradientUnits="userSpaceOnUse">
<stop stop-color="#3F86C4"/>
<stop offset="0.31" stop-color="#355899"/>
<stop offset="0.78" stop-color="#27195E"/>
<stop offset="1" stop-color="#220047"/>
</linearGradient>
<linearGradient id="paint9_linear" x1="-915444" y1="131231" x2="-894523" y2="123759" gradientUnits="userSpaceOnUse">
<stop/>
<stop offset="0.12" stop-color="#010005"/>
<stop offset="0.27" stop-color="#030013"/>
<stop offset="0.42" stop-color="#06002A"/>
<stop offset="0.58" stop-color="#0A014B"/>
<stop offset="0.75" stop-color="#0F0175"/>
<stop offset="0.91" stop-color="#1602A7"/>
<stop offset="1" stop-color="#1A02C4"/>
</linearGradient>
<linearGradient id="paint10_linear" x1="-1.47752e+06" y1="130653" x2="-1.45369e+06" y2="124326" gradientUnits="userSpaceOnUse">
<stop/>
<stop offset="0.12" stop-color="#010005"/>
<stop offset="0.27" stop-color="#030013"/>
<stop offset="0.42" stop-color="#06002A"/>
<stop offset="0.58" stop-color="#0A014B"/>
<stop offset="0.75" stop-color="#0F0175"/>
<stop offset="0.91" stop-color="#1602A7"/>
<stop offset="1" stop-color="#1A02C4"/>
</linearGradient>
<linearGradient id="paint11_linear" x1="285.68" y1="259.648" x2="186.834" y2="259.648" gradientUnits="userSpaceOnUse">
<stop stop-color="#220047"/>
<stop offset="0.12" stop-color="#240055"/>
<stop offset="0.35" stop-color="#2A0179"/>
<stop offset="0.65" stop-color="#3301B4"/>
<stop offset="1" stop-color="#3F02FF"/>
</linearGradient>
<linearGradient id="paint12_linear" x1="-903069" y1="162687" x2="-891819" y2="162687" gradientUnits="userSpaceOnUse">
<stop stop-color="#220047"/>
<stop offset="0.12" stop-color="#240055"/>
<stop offset="0.35" stop-color="#2A0179"/>
<stop offset="0.65" stop-color="#3301B4"/>
<stop offset="1" stop-color="#3F02FF"/>
</linearGradient>
<radialGradient id="paint13_radial" cx="0" cy="0" r="1" gradientUnits="userSpaceOnUse" gradientTransform="translate(251.336 144.739) rotate(-3.7103) scale(62.7959 62.7793)">
<stop stop-color="#1A18CF"/>
<stop offset="0.15" stop-color="#142DCF" stop-opacity="0.74"/>
<stop offset="0.29" stop-color="#0F40CF" stop-opacity="0.52"/>
<stop offset="0.44" stop-color="#0B4FCF" stop-opacity="0.33"/>
<stop offset="0.59" stop-color="#085BCF" stop-opacity="0.19"/>
<stop offset="0.73" stop-color="#0663CF" stop-opacity="0.08"/>
<stop offset="0.87" stop-color="#0468CF" stop-opacity="0.02"/>
<stop offset="1" stop-color="#046ACF" stop-opacity="0"/>
</radialGradient>
<linearGradient id="paint14_linear" x1="289.977" y1="178.213" x2="228.331" y2="178.42" gradientUnits="userSpaceOnUse">
<stop stop-color="#080209"/>
<stop offset="0.06" stop-color="#080221"/>
<stop offset="0.13" stop-color="#080236"/>
<stop offset="0.2" stop-color="#080243"/>
<stop offset="0.27" stop-color="#080247"/>
<stop offset="0.47" stop-color="#0C4C87"/>
<stop offset="0.65" stop-color="#0F88BA"/>
<stop offset="0.81" stop-color="#11B3E0"/>
<stop offset="0.93" stop-color="#12CEF7"/>
<stop offset="1" stop-color="#13D8FF"/>
</linearGradient>
<linearGradient id="paint15_linear" x1="-419727" y1="59655.1" x2="-419727" y2="79418.9" gradientUnits="userSpaceOnUse">
<stop stop-color="#220047"/>
<stop offset="0.24" stop-color="#23004A"/>
<stop offset="0.42" stop-color="#250053"/>
<stop offset="0.57" stop-color="#280063"/>
<stop offset="0.71" stop-color="#2E0179"/>
<stop offset="0.84" stop-color="#340195"/>
<stop offset="0.96" stop-color="#3C02B8"/>
<stop offset="1" stop-color="#3F02C4"/>
</linearGradient>
<linearGradient id="paint16_linear" x1="-255382" y1="-36233.8" x2="-253659" y2="-34196.4" gradientUnits="userSpaceOnUse">
<stop stop-color="#FFE0A1"/>
<stop offset="0.13" stop-color="#FDDB9B"/>
<stop offset="0.29" stop-color="#F9CC8B"/>
<stop offset="0.48" stop-color="#F1B370"/>
<stop offset="0.68" stop-color="#E6914A"/>
<stop offset="0.9" stop-color="#D8661A"/>
<stop offset="1" stop-color="#D14F01"/>
</linearGradient>
<linearGradient id="paint17_linear" x1="341.804" y1="146.465" x2="304.208" y2="129.935" gradientUnits="userSpaceOnUse">
<stop stop-color="#0C0514" stop-opacity="0"/>
<stop offset="0.21" stop-color="#0C0A18" stop-opacity="0.08"/>
<stop offset="0.48" stop-color="#0B1924" stop-opacity="0.31"/>
<stop offset="0.79" stop-color="#0B3237" stop-opacity="0.68"/>
<stop offset="1" stop-color="#0A4748"/>
</linearGradient>
<radialGradient id="paint18_radial" cx="0" cy="0" r="1" gradientUnits="userSpaceOnUse" gradientTransform="translate(80233.1 30923.9) scale(1722.94 1722.48)">
<stop stop-color="#00FFCF"/>
<stop offset="0.12" stop-color="#01E7CF" stop-opacity="0.84"/>
<stop offset="0.37" stop-color="#02BBCF" stop-opacity="0.54"/>
<stop offset="0.59" stop-color="#0398CF" stop-opacity="0.31"/>
<stop offset="0.77" stop-color="#037FCF" stop-opacity="0.14"/>
<stop offset="0.91" stop-color="#0470CF" stop-opacity="0.04"/>
<stop offset="1" stop-color="#046ACF" stop-opacity="0"/>
</radialGradient>
<linearGradient id="paint19_linear" x1="120223" y1="51912.5" x2="125079" y2="48813.8" gradientUnits="userSpaceOnUse">
<stop stop-color="#13D8FF"/>
<stop offset="0.13" stop-color="#11ABD8"/>
<stop offset="0.29" stop-color="#0E78AC"/>
<stop offset="0.45" stop-color="#0C4D88"/>
<stop offset="0.6" stop-color="#0A2D6C"/>
<stop offset="0.75" stop-color="#091557"/>
<stop offset="0.88" stop-color="#08074B"/>
<stop offset="1" stop-color="#080247"/>
</linearGradient>
<linearGradient id="paint20_linear" x1="255.889" y1="406.082" x2="211.219" y2="375.935" gradientUnits="userSpaceOnUse">
<stop stop-color="#080209"/>
<stop offset="0.06" stop-color="#080221"/>
<stop offset="0.13" stop-color="#080236"/>
<stop offset="0.2" stop-color="#080243"/>
<stop offset="0.27" stop-color="#080247"/>
<stop offset="0.34" stop-color="#091053"/>
<stop offset="0.49" stop-color="#0B3371"/>
<stop offset="0.68" stop-color="#0E6DA3"/>
<stop offset="0.92" stop-color="#12BCE7"/>
<stop offset="1" stop-color="#13D8FF"/>
</linearGradient>
<linearGradient id="paint21_linear" x1="278.722" y1="446.623" x2="278.722" y2="577.717" gradientUnits="userSpaceOnUse">
<stop stop-color="#220047"/>
<stop offset="0.45" stop-color="#313C86"/>
<stop offset="0.82" stop-color="#3B67B3"/>
<stop offset="1" stop-color="#3F78C4"/>
</linearGradient>
<linearGradient id="paint22_linear" x1="99137.1" y1="-72314.3" x2="100444" y2="-69747.3" gradientUnits="userSpaceOnUse">
<stop stop-color="#FFE0A1"/>
<stop offset="0.13" stop-color="#FDDB9B"/>
<stop offset="0.29" stop-color="#F9CC8B"/>
<stop offset="0.48" stop-color="#F1B370"/>
<stop offset="0.68" stop-color="#E6914A"/>
<stop offset="0.9" stop-color="#D8661A"/>
<stop offset="1" stop-color="#D14F01"/>
</linearGradient>
<linearGradient id="paint23_linear" x1="323.243" y1="292.512" x2="286.452" y2="273.491" gradientUnits="userSpaceOnUse">
<stop stop-color="#FF0514" stop-opacity="0"/>
<stop offset="0.1" stop-color="#F90B19" stop-opacity="0.02"/>
<stop offset="0.22" stop-color="#EA1B26" stop-opacity="0.09"/>
<stop offset="0.36" stop-color="#D0353B" stop-opacity="0.19"/>
<stop offset="0.51" stop-color="#AB5A59" stop-opacity="0.34"/>
<stop offset="0.68" stop-color="#7D8A7F" stop-opacity="0.53"/>
<stop offset="0.84" stop-color="#45C3AD" stop-opacity="0.76"/>
<stop offset="1" stop-color="#0AFFDE"/>
</linearGradient>
<linearGradient id="paint24_linear" x1="238.516" y1="328.739" x2="407.069" y2="497.337" gradientUnits="userSpaceOnUse">
<stop stop-color="#3F59C4"/>
<stop offset="0.04" stop-color="#3C50B8"/>
<stop offset="0.16" stop-color="#343895"/>
<stop offset="0.29" stop-color="#2E2479"/>
<stop offset="0.43" stop-color="#281463"/>
<stop offset="0.58" stop-color="#250953"/>
<stop offset="0.76" stop-color="#23024A"/>
<stop offset="1" stop-color="#220047"/>
</linearGradient>
</defs>
</svg>
