<svg xmlns="http://www.w3.org/2000/svg" viewBox="10 10 70.556 64.5">
    <defs>
        <style>
            .cls-1,.cls-2{fill:#32ba94}.cls-1{opacity:.69}
        </style>
    </defs>
    <g id="Group_12" data-name="Group 12" transform="translate(-537.444 -723)">
        <path id="coins" d="M60.544 21.167c-.1-1.727-2.154-3.076-6.261-4.106a2.276 2.276 0 0 0 .217-.945v-7.06h-.017C54.122 3.174 30.018 3 27.25 3S.378 3.174.017 9.056H0v7.064c.005 1.918 2.48 3.418 6.162 4.536a2.214 2.214 0 0 0-.091.512h-.015v7.052C2.089 29.24.108 30.57.01 32.269H0v7.064c0 1.335 1.207 2.468 3.177 3.411a2.224 2.224 0 0 0-.134.628h-.015v7.061c.008 3.357 7.566 5.441 15.964 6.414a.926.926 0 0 0 .184.037c.019 0 .035-.01.055-.011a98.67 98.67 0 0 0 4.892.427.833.833 0 0 0 .1.02c.019 0 .034-.01.052-.011 2.067.125 4.1.189 6 .189s3.936-.064 6-.19c.018 0 .034.011.052.011.035 0 .066-.017.1-.02a95.18 95.18 0 0 0 4.892-.427c.019 0 .035.01.055.01a.926.926 0 0 0 .184-.037c8.4-.973 15.955-3.058 15.964-6.416V43.37h-.016c-.071-1.237-1.125-2.27-3.208-3.133a2.257 2.257 0 0 0 .2-.908v-6.6c3.623-1.114 6.051-2.6 6.056-4.505v-7.057zm-8.172 18.49l-.344.3a9.029 9.029 0 0 1-2.575 1.393v-4.81a15.019 15.019 0 0 0 3.028-1.389v4.176a.642.642 0 0 1-.109.33zM29.8 44.347c-.147 0-.3.006-.444.009-.36.007-.73.009-1.1.012v-5.041q.416 0 .833-.012h.16q1.524-.029 3.044-.1v5.039q-.324.017-.652.03c-.603.028-1.217.048-1.841.063zm-4.407.014q-.693-.012-1.38-.033l-.17-.006q-.825-.027-1.638-.068v-5.038q1.517.071 3.044.1h.159q.416.008.833.012v5.044c-.2 0-.392 0-.586-.005-.089-.001-.175-.005-.263-.006zM7.163 42.06l-.1-.028v-4.876c.943.254 1.956.486 3.028.7v4.924q-1.39-.3-2.559-.616c-.122-.035-.249-.064-.369-.104zm21.273 8.358q.416.008.833.012v5.045q-2.092-.02-4.037-.117v-5.039q1.517.071 3.044.1zm3.844 0q1.524-.029 3.044-.1v5.039q-1.944.1-4.037.117v-5.045q.416 0 .833-.012zm8.09-.456v5.012q-1.455.153-3.028.265V50.2a89.517 89.517 0 0 0 3.028-.241zm2.019-.218q1.561-.188 3.028-.426v4.952q-1.426.251-3.028.462zm5.046-.786a43.563 43.563 0 0 0 3.028-.7v4.876c-.9.259-1.912.511-3.028.748zm-34.315 0v4.926a43.511 43.511 0 0 1-3.028-.748v-4.879c.943.255 1.957.488 3.028.698zm2.019.361q1.465.238 3.028.426v4.992q-1.6-.21-3.028-.462zm5.046.643c.993.1 2 .178 3.028.245v5.033q-1.573-.111-3.028-.265zm-2.5-6.035l-.307-.031-.217-.023v-5.015c.993.1 2 .178 3.028.245v5.029c-.852-.06-1.689-.132-2.508-.209zm-2.542-5.284v4.992q-1.6-.21-3.028-.462v-4.96q1.462.238 3.024.426zm19.848 5.446l-.672.05V39.1a98.206 98.206 0 0 0 3.028-.245v5.012c-.624.066-1.262.127-1.917.181-.15.015-.297.026-.443.037zm4.374-.454v-4.996q1.561-.188 3.028-.426v4.955q-1.43.252-3.032.463zm5.046-5.778a43.563 43.563 0 0 0 3.028-.7v4.876c-.9.259-1.912.511-3.028.748zm-13.8-4.61c-.759-.019-1.5-.048-2.229-.084l-.117-.005v-5.044q1.517.071 3.044.1h.159q.416.008.833.012v5.039c-.492-.005-.987-.007-1.466-.018zM7.065 18.819v-4.876c.943.254 1.956.486 3.028.7v4.926l-.373-.079a42.411 42.411 0 0 1-2.655-.671zM25.408 16.1q.416.008.833.012v5.039a99.162 99.162 0 0 1-4.037-.115V16q1.517.071 3.044.1zm3.844 0q1.524-.029 3.044-.1v5.035c-.172.008-.336.02-.509.028h-.043c-.677.03-1.368.052-2.067.069l-.327.007c-.359.007-.727.008-1.091.012v-5.036q.416 0 .833-.012zm23 .507l-.028-.006-.367.286a9.816 9.816 0 0 1-2.4 1.24v-4.8a15.019 15.019 0 0 0 3.028-1.389v4.176a.793.793 0 0 1-.235.493zm-12.889 3.8v-4.981q1.561-.188 3.028-.426v4.947a68.69 68.69 0 0 1-3.03.465zm5.046-.853v-4.913a43.563 43.563 0 0 0 3.028-.7v4.865a42.47 42.47 0 0 1-3.03.753zm-7.065-3.915v5.011q-1.462.154-3.028.267v-5.028a98.648 98.648 0 0 0 3.027-.245zm-20.187 5.013v-5.008c.993.1 2 .178 3.028.245v5.024a89.71 89.71 0 0 1-3.028-.261zm-2.019-5.226v4.987c-.2-.026-.408-.047-.606-.075l-.379-.056q-.875-.126-1.713-.267l-.33-.059V15q1.467.237 3.029.426zM25.99 33.014l-.409-.03q-.969-.076-1.892-.168l-.4-.04c-.027 0-.053-.007-.081-.009v-5.012c.993.1 2 .178 3.028.245v5.03zm-6.668-.754c-.4-.064-.775-.132-1.156-.2v-4.948q1.465.238 3.028.426v4.992a81.171 81.171 0 0 1-1.8-.257q-.037-.008-.072-.013zm-3.174-5.51v4.918q-1.673-.359-3.028-.758v-4.856a44.79 44.79 0 0 0 3.028.697zM11.1 25.437v4.795a6.3 6.3 0 0 1-2.943-1.8l-.068-.113a.638.638 0 0 1-.017-.1v-4.171a15.019 15.019 0 0 0 3.028 1.389zm24.206 2.774q1.524-.029 3.044-.1v5.034c-1.326.066-2.675.1-4.037.116v-5.035q.416 0 .833-.012zm13.043 3.873a65.544 65.544 0 0 1-2.149.339c-.255.036-.521.068-.78.1v-4.986q1.561-.188 3.028-.426v4.955zm-6.834.862c-.376.031-.765.051-1.147.079V28a98.206 98.206 0 0 0 3.028-.245v5.007c-.586.062-1.172.123-1.774.174zm11.534-1.892a41.542 41.542 0 0 1-2.347.574l-.239.049v-4.925a43.563 43.563 0 0 0 3.028-.7v4.878zm5.475-9.821c-.093.685-1.646 1.6-4.419 2.454a67.744 67.744 0 0 1-16.239 2.426 122.084 122.084 0 0 1-2.005.069c-.836.018-1.683.031-2.557.031a111.849 111.849 0 0 1-3.469-.059c-.37-.011-.732-.027-1.093-.042A67.735 67.735 0 0 1 12.5 23.685c-2.75-.85-4.3-1.754-4.416-2.436a.237.237 0 0 1 .017-.06c.069.017.145.031.215.048.395.094.8.185 1.211.271 2.005.432 4.228.786 6.6 1.057H16.153c1.613.184 3.286.328 5 .43.013 0 .024.007.037.007h.019q1.855.109 3.756.154a89.181 89.181 0 0 0 3.901.013 77.285 77.285 0 0 0 18.864-2.336c.218-.062.431-.125.641-.189l.384-.117c.365-.117.716-.237 1.054-.362l.173-.067c.286-.108.56-.22.823-.334.076-.033.153-.066.227-.1.28-.126.55-.255.8-.39.113-.06.211-.121.317-.182.121-.07.242-.14.354-.212.064-.04.139-.079.2-.119 4.517.982 5.708 2.053 5.823 2.471zM27.25 5.019c16.642 0 25.059 2.62 25.216 4.124-.122.682-1.671 1.584-4.415 2.431A67.744 67.744 0 0 1 31.813 14a122.084 122.084 0 0 1-2.005.069c-.836.019-1.683.032-2.557.032a111.849 111.849 0 0 1-3.469-.059c-.37-.011-.732-.027-1.093-.042a67.735 67.735 0 0 1-16.241-2.426C3.7 10.726 2.156 9.825 2.034 9.142c.157-1.503 8.574-4.123 25.216-4.123zM2.019 16.116v-4.179a15.019 15.019 0 0 0 3.028 1.389v4.832c-1.964-.736-3.026-1.473-3.028-2.042zm4.888 13.967c.015.016.038.03.053.046 1.382 1.395 4.243 2.491 7.8 3.308l.251.057q.392.088.8.172a77.837 77.837 0 0 0 11.43 1.449h.011q2.05.12 4.191.159a90.704 90.704 0 0 0 3.999-.004c1.32-.027 2.621-.082 3.9-.156h.014c.005 0 .016-.005.025-.005a78.058 78.058 0 0 0 11.651-1.492 18.284 18.284 0 0 1-2.985 1.167 69.645 69.645 0 0 1-17.441 2.472c-.227.007-.451.015-.681.021-.247.006-.5.01-.75.015-.635.01-1.274.019-1.93.019a111.849 111.849 0 0 1-3.469-.059c-.37-.011-.732-.027-1.093-.042a67.735 67.735 0 0 1-16.235-2.423c-2.775-.858-4.329-1.77-4.419-2.456.113-.379 1.133-1.331 4.878-2.248zm-4.888 9.246V35.15a15.019 15.019 0 0 0 3.028 1.389v4.813l-.576-.224-.012.012c-1.586-.657-2.438-1.302-2.44-1.811zm3.028 11.1v-4.177a15.019 15.019 0 0 0 3.028 1.389v4.832C6.111 51.737 5.048 51 5.046 50.431zm47.435 2.042v-4.829a15.019 15.019 0 0 0 3.028-1.389v4.176c-.002.571-1.066 1.307-3.029 2.044zm3.018-9.023c-.11.683-1.66 1.59-4.417 2.441a67.744 67.744 0 0 1-16.239 2.426 122.084 122.084 0 0 1-2.005.069c-.836.018-1.683.031-2.557.031s-1.723-.013-2.559-.032c-.3-.007-.6-.017-.9-.027-.372-.012-.736-.027-1.1-.042a67.744 67.744 0 0 1-16.247-2.426c-2.669-.825-4.212-1.7-4.405-2.377.3.1.613.207.933.307l.1.029q.409.126.837.243l.327.09c.161.043.327.085.493.127a73.63 73.63 0 0 0 13.433 1.909h.006c1.564.093 3.162.15 4.777.17.43.008.857.012 1.276.012.556 0 1.125-.007 1.7-.017 1.473-.024 2.926-.079 4.347-.163H33.321c1.731-.1 3.406-.252 5.016-.437h.017c.022 0 .04-.011.063-.013a73.183 73.183 0 0 0 6.032-.942l.212-.043a27.118 27.118 0 0 0 7.33-2.386c.1-.052.188-.107.28-.16.112-.067.219-.134.323-.2s.209-.123.3-.187c1.988.709 2.537 1.345 2.606 1.598zm.013-13.179v-4.831a15.019 15.019 0 0 0 3.028-1.389v4.176c-.005.569-1.069 1.307-3.032 2.044z" class="cls-1" transform="translate(552.444 735)"/>
        <path id="coins-2" d="M60.544 21.167c-.1-1.727-2.154-3.076-6.261-4.106a2.276 2.276 0 0 0 .217-.945v-7.06h-.017C54.122 3.174 30.018 3 27.25 3S.378 3.174.017 9.056H0v7.064c.005 1.918 2.48 3.418 6.162 4.536a2.214 2.214 0 0 0-.091.512h-.015v7.052C2.089 29.24.108 30.57.01 32.269H0v7.064c0 1.335 1.207 2.468 3.177 3.411a2.224 2.224 0 0 0-.134.628h-.015v7.061c.008 3.357 7.566 5.441 15.964 6.414a.926.926 0 0 0 .184.037c.019 0 .035-.01.055-.011a98.67 98.67 0 0 0 4.892.427.833.833 0 0 0 .1.02c.019 0 .034-.01.052-.011 2.067.125 4.1.189 6 .189s3.936-.064 6-.19c.018 0 .034.011.052.011.035 0 .066-.017.1-.02a95.18 95.18 0 0 0 4.892-.427c.019 0 .035.01.055.01a.926.926 0 0 0 .184-.037c8.4-.973 15.955-3.058 15.964-6.416V43.37h-.016c-.071-1.237-1.125-2.27-3.208-3.133a2.257 2.257 0 0 0 .2-.908v-6.6c3.623-1.114 6.051-2.6 6.056-4.505v-7.057zm-8.172 18.49l-.344.3a9.029 9.029 0 0 1-2.575 1.393v-4.81a15.019 15.019 0 0 0 3.028-1.389v4.176a.642.642 0 0 1-.109.33zM29.8 44.347c-.147 0-.3.006-.444.009-.36.007-.73.009-1.1.012v-5.041q.416 0 .833-.012h.16q1.524-.029 3.044-.1v5.039q-.324.017-.652.03c-.603.028-1.217.048-1.841.063zm-4.407.014q-.693-.012-1.38-.033l-.17-.006q-.825-.027-1.638-.068v-5.038q1.517.071 3.044.1h.159q.416.008.833.012v5.044c-.2 0-.392 0-.586-.005-.089-.001-.175-.005-.263-.006zM7.163 42.06l-.1-.028v-4.876c.943.254 1.956.486 3.028.7v4.924q-1.39-.3-2.559-.616c-.122-.035-.249-.064-.369-.104zm21.273 8.358q.416.008.833.012v5.045q-2.092-.02-4.037-.117v-5.039q1.517.071 3.044.1zm3.844 0q1.524-.029 3.044-.1v5.039q-1.944.1-4.037.117v-5.045q.416 0 .833-.012zm8.09-.456v5.012q-1.455.153-3.028.265V50.2a89.517 89.517 0 0 0 3.028-.241zm2.019-.218q1.561-.188 3.028-.426v4.952q-1.426.251-3.028.462zm5.046-.786a43.563 43.563 0 0 0 3.028-.7v4.876c-.9.259-1.912.511-3.028.748zm-34.315 0v4.926a43.511 43.511 0 0 1-3.028-.748v-4.879c.943.255 1.957.488 3.028.698zm2.019.361q1.465.238 3.028.426v4.992q-1.6-.21-3.028-.462zm5.046.643c.993.1 2 .178 3.028.245v5.033q-1.573-.111-3.028-.265zm-2.5-6.035l-.307-.031-.217-.023v-5.015c.993.1 2 .178 3.028.245v5.029c-.852-.06-1.689-.132-2.508-.209zm-2.542-5.284v4.992q-1.6-.21-3.028-.462v-4.96q1.462.238 3.024.426zm19.848 5.446l-.672.05V39.1a98.206 98.206 0 0 0 3.028-.245v5.012c-.624.066-1.262.127-1.917.181-.15.015-.297.026-.443.037zm4.374-.454v-4.996q1.561-.188 3.028-.426v4.955q-1.43.252-3.032.463zm5.046-5.778a43.563 43.563 0 0 0 3.028-.7v4.876c-.9.259-1.912.511-3.028.748zm-13.8-4.61c-.759-.019-1.5-.048-2.229-.084l-.117-.005v-5.044q1.517.071 3.044.1h.159q.416.008.833.012v5.039c-.492-.005-.987-.007-1.466-.018zM7.065 18.819v-4.876c.943.254 1.956.486 3.028.7v4.926l-.373-.079a42.411 42.411 0 0 1-2.655-.671zM25.408 16.1q.416.008.833.012v5.039a99.162 99.162 0 0 1-4.037-.115V16q1.517.071 3.044.1zm3.844 0q1.524-.029 3.044-.1v5.035c-.172.008-.336.02-.509.028h-.043c-.677.03-1.368.052-2.067.069l-.327.007c-.359.007-.727.008-1.091.012v-5.036q.416 0 .833-.012zm23 .507l-.028-.006-.367.286a9.816 9.816 0 0 1-2.4 1.24v-4.8a15.019 15.019 0 0 0 3.028-1.389v4.176a.793.793 0 0 1-.235.493zm-12.889 3.8v-4.981q1.561-.188 3.028-.426v4.947a68.69 68.69 0 0 1-3.03.465zm5.046-.853v-4.913a43.563 43.563 0 0 0 3.028-.7v4.865a42.47 42.47 0 0 1-3.03.753zm-7.065-3.915v5.011q-1.462.154-3.028.267v-5.028a98.648 98.648 0 0 0 3.027-.245zm-20.187 5.013v-5.008c.993.1 2 .178 3.028.245v5.024a89.71 89.71 0 0 1-3.028-.261zm-2.019-5.226v4.987c-.2-.026-.408-.047-.606-.075l-.379-.056q-.875-.126-1.713-.267l-.33-.059V15q1.467.237 3.029.426zM25.99 33.014l-.409-.03q-.969-.076-1.892-.168l-.4-.04c-.027 0-.053-.007-.081-.009v-5.012c.993.1 2 .178 3.028.245v5.03zm-6.668-.754c-.4-.064-.775-.132-1.156-.2v-4.948q1.465.238 3.028.426v4.992a81.171 81.171 0 0 1-1.8-.257q-.037-.008-.072-.013zm-3.174-5.51v4.918q-1.673-.359-3.028-.758v-4.856a44.79 44.79 0 0 0 3.028.697zM11.1 25.437v4.795a6.3 6.3 0 0 1-2.943-1.8l-.068-.113a.638.638 0 0 1-.017-.1v-4.171a15.019 15.019 0 0 0 3.028 1.389zm24.206 2.774q1.524-.029 3.044-.1v5.034c-1.326.066-2.675.1-4.037.116v-5.035q.416 0 .833-.012zm13.043 3.873a65.544 65.544 0 0 1-2.149.339c-.255.036-.521.068-.78.1v-4.986q1.561-.188 3.028-.426v4.955zm-6.834.862c-.376.031-.765.051-1.147.079V28a98.206 98.206 0 0 0 3.028-.245v5.007c-.586.062-1.172.123-1.774.174zm11.534-1.892a41.542 41.542 0 0 1-2.347.574l-.239.049v-4.925a43.563 43.563 0 0 0 3.028-.7v4.878zm5.475-9.821c-.093.685-1.646 1.6-4.419 2.454a67.744 67.744 0 0 1-16.239 2.426 122.084 122.084 0 0 1-2.005.069c-.836.018-1.683.031-2.557.031a111.849 111.849 0 0 1-3.469-.059c-.37-.011-.732-.027-1.093-.042A67.735 67.735 0 0 1 12.5 23.685c-2.75-.85-4.3-1.754-4.416-2.436a.237.237 0 0 1 .017-.06c.069.017.145.031.215.048.395.094.8.185 1.211.271 2.005.432 4.228.786 6.6 1.057H16.153c1.613.184 3.286.328 5 .43.013 0 .024.007.037.007h.019q1.855.109 3.756.154a89.181 89.181 0 0 0 3.901.013 77.285 77.285 0 0 0 18.864-2.336c.218-.062.431-.125.641-.189l.384-.117c.365-.117.716-.237 1.054-.362l.173-.067c.286-.108.56-.22.823-.334.076-.033.153-.066.227-.1.28-.126.55-.255.8-.39.113-.06.211-.121.317-.182.121-.07.242-.14.354-.212.064-.04.139-.079.2-.119 4.517.982 5.708 2.053 5.823 2.471zM27.25 5.019c16.642 0 25.059 2.62 25.216 4.124-.122.682-1.671 1.584-4.415 2.431A67.744 67.744 0 0 1 31.813 14a122.084 122.084 0 0 1-2.005.069c-.836.019-1.683.032-2.557.032a111.849 111.849 0 0 1-3.469-.059c-.37-.011-.732-.027-1.093-.042a67.735 67.735 0 0 1-16.241-2.426C3.7 10.726 2.156 9.825 2.034 9.142c.157-1.503 8.574-4.123 25.216-4.123zM2.019 16.116v-4.179a15.019 15.019 0 0 0 3.028 1.389v4.832c-1.964-.736-3.026-1.473-3.028-2.042zm4.888 13.967c.015.016.038.03.053.046 1.382 1.395 4.243 2.491 7.8 3.308l.251.057q.392.088.8.172a77.837 77.837 0 0 0 11.43 1.449h.011q2.05.12 4.191.159a90.704 90.704 0 0 0 3.999-.004c1.32-.027 2.621-.082 3.9-.156h.014c.005 0 .016-.005.025-.005a78.058 78.058 0 0 0 11.651-1.492 18.284 18.284 0 0 1-2.985 1.167 69.645 69.645 0 0 1-17.441 2.472c-.227.007-.451.015-.681.021-.247.006-.5.01-.75.015-.635.01-1.274.019-1.93.019a111.849 111.849 0 0 1-3.469-.059c-.37-.011-.732-.027-1.093-.042a67.735 67.735 0 0 1-16.235-2.423c-2.775-.858-4.329-1.77-4.419-2.456.113-.379 1.133-1.331 4.878-2.248zm-4.888 9.246V35.15a15.019 15.019 0 0 0 3.028 1.389v4.813l-.576-.224-.012.012c-1.586-.657-2.438-1.302-2.44-1.811zm3.028 11.1v-4.177a15.019 15.019 0 0 0 3.028 1.389v4.832C6.111 51.737 5.048 51 5.046 50.431zm47.435 2.042v-4.829a15.019 15.019 0 0 0 3.028-1.389v4.176c-.002.571-1.066 1.307-3.029 2.044zm3.018-9.023c-.11.683-1.66 1.59-4.417 2.441a67.744 67.744 0 0 1-16.239 2.426 122.084 122.084 0 0 1-2.005.069c-.836.018-1.683.031-2.557.031s-1.723-.013-2.559-.032c-.3-.007-.6-.017-.9-.027-.372-.012-.736-.027-1.1-.042a67.744 67.744 0 0 1-16.247-2.426c-2.669-.825-4.212-1.7-4.405-2.377.3.1.613.207.933.307l.1.029q.409.126.837.243l.327.09c.161.043.327.085.493.127a73.63 73.63 0 0 0 13.433 1.909h.006c1.564.093 3.162.15 4.777.17.43.008.857.012 1.276.012.556 0 1.125-.007 1.7-.017 1.473-.024 2.926-.079 4.347-.163H33.321c1.731-.1 3.406-.252 5.016-.437h.017c.022 0 .04-.011.063-.013a73.183 73.183 0 0 0 6.032-.942l.212-.043a27.118 27.118 0 0 0 7.33-2.386c.1-.052.188-.107.28-.16.112-.067.219-.134.323-.2s.209-.123.3-.187c1.988.709 2.537 1.345 2.606 1.598zm.013-13.179v-4.831a15.019 15.019 0 0 0 3.028-1.389v4.176c-.005.569-1.069 1.307-3.032 2.044z" class="cls-2" data-name="coins" transform="translate(552.444 735)"/>
    </g>
</svg>
