<svg width="45" height="54" viewBox="0 0 45 54" fill="none" xmlns="http://www.w3.org/2000/svg">
<path d="M44.6737 13.3802L31.4754 0.322839C31.2663 0.116121 30.9831 0 30.6876 0H5.41369C2.4285 0 0 2.40278 0 5.35611V48.644C0 51.5972 2.4286 54 5.4138 54H39.5862C42.5714 54 45 51.5973 45 48.644V14.1595C44.9999 13.8672 44.8825 13.5869 44.6737 13.3802ZM31.8019 3.76301L41.1968 13.0575H34.9878C34.1367 13.0575 33.3365 12.7296 32.7348 12.1344C32.1332 11.5392 31.8018 10.7477 31.8019 9.90571V3.76301ZM42.772 48.6439C42.772 50.3819 41.3429 51.7958 39.5862 51.7958H5.41369C3.65692 51.7958 2.22776 50.3819 2.22776 48.6439V5.35611C2.22786 3.6181 3.65703 2.20408 5.41369 2.20408H29.574V9.9055C29.5738 11.3362 30.1369 12.6812 31.1594 13.6928C32.1819 14.7044 33.5415 15.2615 34.9877 15.2615H42.7719V48.6439H42.772Z" fill="#32BA94"/>
<path d="M24.5355 37.0713H24.0368C23.4217 37.0713 22.9229 37.5647 22.9229 38.1733C22.9229 38.782 23.4217 39.2754 24.0368 39.2754H24.5355C25.1506 39.2754 25.6494 38.782 25.6494 38.1733C25.6494 37.5647 25.1506 37.0713 24.5355 37.0713Z" fill="#32BA94"/>
<path d="M20.4327 37.0713H9.61295C8.99784 37.0713 8.49902 37.5647 8.49902 38.1733C8.49902 38.782 8.99784 39.2754 9.61295 39.2754H20.4327C21.0478 39.2754 21.5466 38.782 21.5466 38.1733C21.5466 37.5647 21.0479 37.0713 20.4327 37.0713Z" fill="#32BA94"/>
<path d="M35.387 32.0356H9.61344C8.99832 32.0356 8.49951 32.529 8.49951 33.1377C8.49951 33.7463 8.99832 34.2397 9.61344 34.2397H35.387C36.0021 34.2397 36.5009 33.7463 36.5009 33.1377C36.5009 32.529 36.0021 32.0356 35.387 32.0356Z" fill="#32BA94"/>
<path d="M13.4751 21.5263V23.6316L8 20.1053V18L13.4751 21.5263Z" fill="#16C481"/>
<path d="M13.4751 24.6317V26.6843L8 23.158V21.0527L13.4751 24.6317Z" fill="#16C481"/>
<path d="M10.7376 25.8946V27.9998L8 26.263V24.1577L10.7376 25.8946Z" fill="#16C481"/>
<path d="M13.4751 21.5263V23.6316L19 20.1053V18L13.4751 21.5263Z" fill="#24ECA6"/>
<path d="M13.4751 24.6317V26.6843L19 23.158V21.0527L13.4751 24.6317Z" fill="#24ECA6"/>
<path d="M16.2627 25.8946V27.9998L19.0003 26.263V24.1577L16.2627 25.8946Z" fill="#24ECA6"/>
</svg>
