<svg xmlns="http://www.w3.org/2000/svg" width="117px" height="117px" xmlns:xlink="http://www.w3.org/1999/xlink" viewBox="0 0 116.844 116.844">
  <defs>
    <style>
      .cls-1 {
        fill: none;
      }

      .cls-2 {
        clip-path: url(#clip-path);
      }

      .cls-3 {
        clip-path: url(#clip-path-2);
      }

      .cls-4 {
        opacity: 0;
      }

      .cls-5 {
        fill: url(#linear-gradient);
      }

      .cls-6 {
        fill: url(#linear-gradient-2);
      }

      .cls-7 {
        clip-path: url(#clip-path-3);
      }

      .cls-8 {
        fill: url(#linear-gradient-3);
      }

      .cls-9 {
        fill: url(#linear-gradient-4);
      }
    </style>
    <clipPath id="clip-path">
      <path id="Path_9" data-name="Path 9" class="cls-1" d="M141.422-100.156a57.972,57.972,0,0,1-22.74-4.6,58.538,58.538,0,0,1-18.568-12.516A57.974,57.974,0,0,1,87.6-135.838a58.018,58.018,0,0,1-4.6-22.74,57.972,57.972,0,0,1,4.6-22.74,58.538,58.538,0,0,1,12.516-18.568A57.973,57.973,0,0,1,118.681-212.4a58.018,58.018,0,0,1,22.74-4.6,57.972,57.972,0,0,1,22.74,4.6,58.538,58.538,0,0,1,18.568,12.516,57.973,57.973,0,0,1,12.516,18.568,58.018,58.018,0,0,1,4.6,22.74,57.972,57.972,0,0,1-4.6,22.74A58.537,58.537,0,0,1,182.73-117.27a57.974,57.974,0,0,1-18.568,12.516A57.972,57.972,0,0,1,141.422-100.156Zm0-109.761a50.984,50.984,0,0,0-19.985,4.03,50.98,50.98,0,0,0-16.315,11.01,51.332,51.332,0,0,0-11.01,16.315,50.937,50.937,0,0,0-4.03,19.985,50.937,50.937,0,0,0,4.03,19.985,50.98,50.98,0,0,0,11.01,16.315,51.332,51.332,0,0,0,16.315,11.01,50.937,50.937,0,0,0,19.985,4.03,50.937,50.937,0,0,0,19.985-4.03,50.979,50.979,0,0,0,16.315-11.01,51.332,51.332,0,0,0,11.01-16.315,50.984,50.984,0,0,0,4.03-19.985,50.984,50.984,0,0,0-4.03-19.985,50.98,50.98,0,0,0-11.01-16.315,51.332,51.332,0,0,0-16.315-11.01A50.984,50.984,0,0,0,141.422-209.918Z" transform="translate(-83 217)"/>
    </clipPath>
    <clipPath id="clip-path-2">
      <path id="Path_8" data-name="Path 8" class="cls-1" d="M-157-125.626H307.471V-765H-157Z" transform="translate(157 765)"/>
    </clipPath>
    <linearGradient id="linear-gradient" x1="0.012" x2="0.012" y2="4.719" gradientUnits="objectBoundingBox">
      <stop offset="0"/>
      <stop offset="0" stop-color="#4afdcb"/>
      <stop offset="0.1" stop-color="#43f5d0"/>
      <stop offset="0.2" stop-color="#3bedd5"/>
      <stop offset="0.3" stop-color="#34e5db"/>
      <stop offset="0.4" stop-color="#2ddde0"/>
      <stop offset="0.5" stop-color="#25d6e5"/>
      <stop offset="0.6" stop-color="#1eceea"/>
      <stop offset="0.7" stop-color="#17c6ef"/>
      <stop offset="0.8" stop-color="#10bef5"/>
      <stop offset="0.9" stop-color="#08b6fa"/>
      <stop offset="1" stop-color="#01aeff"/>
      <stop offset="1"/>
    </linearGradient>
    <linearGradient id="linear-gradient-2" x1="0.134" y1="0.643" x2="0.87" y2="0.1" gradientUnits="objectBoundingBox">
      <stop offset="0" stop-color="#4afdcb"/>
      <stop offset="0.1" stop-color="#43f5d0"/>
      <stop offset="0.2" stop-color="#3bedd5"/>
      <stop offset="0.3" stop-color="#34e5db"/>
      <stop offset="0.4" stop-color="#2ddde0"/>
      <stop offset="0.5" stop-color="#25d6e5"/>
      <stop offset="0.6" stop-color="#1eceea"/>
      <stop offset="0.7" stop-color="#17c6ef"/>
      <stop offset="0.8" stop-color="#10bef5"/>
      <stop offset="0.9" stop-color="#08b6fa"/>
      <stop offset="1" stop-color="#01aeff"/>
    </linearGradient>
    <clipPath id="clip-path-3">
      <path id="Path_13" data-name="Path 13" class="cls-1" d="M176.752-127.755h-.063a4.22,4.22,0,0,1-3.667-2.2c-1.467-2.229-2.15-7.5-2.807-12.59-.114-.889-.228-1.778-.354-2.693,2.453-6.186,4.515-12.68,6.3-18.286,1.024-3.222,2-6.289,2.883-8.8h-7.373c-.683,2.049-1.4,4.291-2.137,6.624s-1.543,4.845-2.39,7.41a33.726,33.726,0,0,0-1.467-3.686C162.184-169.3,156.417-173,148.526-173a19.742,19.742,0,0,0-9.826,2.526,21.908,21.908,0,0,0-7.069,6.482A32.852,32.852,0,0,0,126-145.578a30.033,30.033,0,0,0,4.616,17.075,19.626,19.626,0,0,0,6.4,6.057,19.032,19.032,0,0,0,9.093,2.487h.417c3.933,0,7.651-1.6,11.078-4.755a30.708,30.708,0,0,0,4.059-4.652,46.473,46.473,0,0,1-2.087-10.013c-.051.09-.089.168-.139.258a33.748,33.748,0,0,1-6.513,9.149c-2.2,2.036-4.376,2.99-6.639,2.925a11.844,11.844,0,0,1-9.965-5.477,22.732,22.732,0,0,1-3.389-12.951,26,26,0,0,1,4.3-14.356A13.269,13.269,0,0,1,148.5-165.9c5.21,0,8.574,2.165,10.888,7.036,1.707,3.57,2.618,8.183,3.288,12.732l-.038.077c.455,3.608.771,7.474,1.821,12.294v-.013c.025.155.063.3.089.451q.3,1.392.721,2.9a16.526,16.526,0,0,0,1.948,4.42,11.055,11.055,0,0,0,10,5.335c.493-.026.961-.077,1.391-.142v-7.268A6.506,6.506,0,0,1,176.752-127.755Z" transform="translate(-126 173)"/>
    </clipPath>
    <linearGradient id="linear-gradient-3" x1="0.274" y1="0.203" x2="0.274" y2="4.922" xlink:href="#linear-gradient"/>
    <linearGradient id="linear-gradient-4" x1="0.168" y1="0.66" x2="0.89" y2="0.116" xlink:href="#linear-gradient-2"/>
  </defs>
  <g id="Group_27" data-name="Group 27" transform="translate(-1.481)">
    <g id="Group_21" data-name="Group 21" class="cls-2" transform="translate(1.481)">
      <g id="Group_20" data-name="Group 20" class="cls-3" transform="translate(-174.177 -397.704)">
        <g id="Group_18" data-name="Group 18" class="cls-4" transform="translate(172.725 397.704)">
          <g id="Group_17" data-name="Group 17">
            <path id="Path_6" data-name="Path 6" class="cls-5" d="M-2,0H117.021V157.485H-2Z" transform="translate(2)"/>
          </g>
        </g>
        <g id="Group_19" data-name="Group 19" transform="translate(172.725 397.704)">
          <path id="Path_7" data-name="Path 7" class="cls-6" d="M-2,0H117.021V157.485H-2Z" transform="translate(2)"/>
        </g>
      </g>
    </g>
    <g id="Group_26" data-name="Group 26" class="cls-7" transform="translate(32.688 31.932)">
      <g id="Group_25" data-name="Group 25" class="cls-3" transform="translate(-205.383 -429.636)">
        <g id="Group_23" data-name="Group 23" class="cls-4" transform="translate(172.725 397.704)">
          <g id="Group_22" data-name="Group 22">
            <path id="Path_10" data-name="Path 10" class="cls-8" d="M-45-44H74.021V113.485H-45Z" transform="translate(45 44)"/>
          </g>
        </g>
        <g id="Group_24" data-name="Group 24" transform="translate(172.725 397.704)">
          <path id="Path_11" data-name="Path 11" class="cls-9" d="M-45-44H74.021V113.485H-45Z" transform="translate(45 44)"/>
        </g>
      </g>
    </g>
  </g>
</svg>
