<?xml version="1.0" encoding="utf-8"?>
<!-- Generator: Adobe Illustrator 22.1.0, SVG Export Plug-In . SVG Version: 6.00 Build 0)  -->
<svg version="1.1" id="Слой_1" xmlns="http://www.w3.org/2000/svg" xmlns:xlink="http://www.w3.org/1999/xlink" x="0px" y="0px"
	 viewBox="0 0 544 60" style="enable-background:new 0 0 544 60;" xml:space="preserve">
<style type="text/css">
	.st0{fill:rgba(0, 0, 0, 0);}
	.st1{fill:url(#SVGID_1_);}
</style>
<g>
	<path class="st0" d="M516.2,60H27.8C12.5,60,0,46.5,0,30l0,0C0,13.5,12.5,0,27.8,0h488.4C531.5,0,544,13.5,544,30l0,0
		C544,46.5,531.5,60,516.2,60z"/>
	
		<linearGradient id="SVGID_1_" gradientUnits="userSpaceOnUse" x1="272" y1="10" x2="272" y2="70" gradientTransform="matrix(1 0 0 -1 0 70)">
		<stop  offset="0" style="stop-color:#00DBDF"/>
		<stop  offset="0.5138" style="stop-color:#00EED6"/>
		<stop  offset="1" style="stop-color:#00FCCF"/>
	</linearGradient>
	<path class="st1" d="M516.2,4.3C529.3,4.3,540,15.8,540,30s-10.6,25.7-23.8,25.7H27.8C14.7,55.7,4,44.2,4,30S14.7,4.3,27.8,4.3
		H516.2 M516.2,0H27.8C12.5,0,0,13.5,0,30s12.5,30,27.8,30h488.4c15.3,0,27.8-13.5,27.8-30S531.5,0,516.2,0L516.2,0z"/>
</g>
</svg>
