<svg xmlns="http://www.w3.org/2000/svg" viewBox="0 0 512 512" width="24" height="24" fill="#6e7195"><path d="M460.2 402.1h-78.9V325c15.1-17.1 24.2-39.3 24.2-63.6 0-53.6-44.4-97.1-99-97.1s-99 43.6-99 97.1c0 24.3 9.1 46.5 24.2 63.6v77.1H51.8V51.8h408.3v350.3h.1zm-153.7 10.1l-33.7 25.9v-85.3c10.5 3.7 21.9 5.8 33.7 5.8 11.8 0 23.2-2 33.7-5.8v85.3l-33.7-25.9zm0-94.4c-32.1 0-58.2-25.3-58.2-56.4s26.1-56.4 58.2-56.4 58.2 25.3 58.2 56.4-26.1 56.4-58.2 56.4zM480.6 11H31.4C20.1 11 11 20.1 11 31.4v391.1c0 11.3 9.1 20.4 20.4 20.4h200.3V481c0 16.5 19 25.9 32.1 15.8l42.7-32.8 42.7 32.8c13.1 10.1 32.1.7 32.1-15.8v-38.1h99.3c11.3 0 20.4-9.1 20.4-20.4V31.4c0-11.3-9.1-20.4-20.4-20.4z"/><path d="M151.1 144.9h209.7c11.3 0 20.4-9.1 20.4-20.4 0-11.3-9.1-20.4-20.4-20.4H151.1c-11.3 0-20.4 9.1-20.4 20.4 0 11.2 9.2 20.4 20.4 20.4z"/></svg>