<svg xmlns="http://www.w3.org/2000/svg" viewBox="0 0 512 512" width="24" height="24" fill="#6e7195"><path d="M256 0C115.03 0 0 115.049 0 256c0 140.971 115.049 256 256 256 140.97 0 256-115.049 256-256C512 115.029 396.951 0 256 0zm0 482C131.383 482 30 380.617 30 256S131.383 30 256 30s226 101.383 226 226-101.383 226-226 226z"/><path d="M256 60C148.336 60 60 148.368 60 256c0 107.663 88.368 196 196 196 107.664 0 196-88.368 196-196 0-107.663-88.368-196-196-196zm0 362c-91.533 0-166-74.467-166-166S164.467 90 256 90s166 74.467 166 166-74.467 166-166 166z"/><path d="M356.606 200.393c-5.857-5.858-15.355-5.858-21.212 0L226 309.787l-49.394-49.394c-5.857-5.858-15.355-5.858-21.213 0-5.858 5.858-5.858 15.355 0 21.213l60 60c5.857 5.857 15.355 5.858 21.213 0l120-120c5.858-5.858 5.858-15.355 0-21.213z"/></svg>