<svg xmlns="http://www.w3.org/2000/svg" viewBox="0 0 29.492 29.639">
  <defs>
    <style>
      .cls-1 {
        fill: #f06d09;
      }
    </style>
  </defs>
  <path id="path" class="cls-1" d="M43.324,5.424A14.154,14.154,0,0,1,53.793,1,13.607,13.607,0,0,1,64.115,5.424a14.018,14.018,0,0,1,4.276,10.47,14.6,14.6,0,0,1-4.276,10.47,14.018,14.018,0,0,1-10.47,4.276,14.6,14.6,0,0,1-10.47-4.276A14.018,14.018,0,0,1,38.9,15.893,15.093,15.093,0,0,1,43.324,5.424Zm2.064,18.727a11.4,11.4,0,0,0,8.258,3.539A11.16,11.16,0,0,0,61.9,24.151a11.4,11.4,0,0,0,3.539-8.258A10.93,10.93,0,0,0,61.9,7.636a10.483,10.483,0,0,0-8.11-3.686,11.16,11.16,0,0,0-8.258,3.539A11.4,11.4,0,0,0,42,15.746,10.808,10.808,0,0,0,45.388,24.151ZM52.319,8.373h2.949V17.22H52.319Zm0,11.8h2.949v2.949H52.319Z" transform="translate(-38.9 -1)"/>
</svg>
