<svg width="22" height="22" xmlns="http://www.w3.org/2000/svg" xmlns:xlink="http://www.w3.org/1999/xlink"><defs><path id="a" d="M0 .799h21.163v20.193H0z"/></defs><g fill="none" fill-rule="evenodd"><path d="M2.667 2.907a.468.468 0 0 0-.478.456c0 .252.214.456.478.456a.468.468 0 0 0 .478-.456.468.468 0 0 0-.478-.456m1.933 0a.468.468 0 0 0-.48.456c0 .252.215.456.48.456a.468.468 0 0 0 .477-.456.468.468 0 0 0-.478-.456m1.932 0a.468.468 0 0 0-.478.456c0 .252.214.456.478.456a.468.468 0 0 0 .478-.456.468.468 0 0 0-.478-.456" fill="#6E7195"/><g transform="translate(0 .114)"><mask id="b" fill="#fff"><use xlink:href="#a"/></mask><path d="M20.207 4.787H.96V2.624c0-.504.43-.913.957-.913H19.25c.527 0 .957.41.957.913v2.163zm0 3.012h-1.665c-.77 0-1.396.593-1.396 1.324v2.254c0 .258-.208.36-.272.386a.44.44 0 0 1-.472-.089l-1.673-1.598a1.442 1.442 0 0 0-1.968.002l-3.027 2.898a1.274 1.274 0 0 0-.005 1.881l1.661 1.586c.197.19.124.406.097.468a.415.415 0 0 1-.396.252H8.728c-.77 0-1.396.594-1.396 1.324v1.592H1.913c-.527 0-.956-.408-.956-.912V5.7h19.25v2.1zm0 7.069c-2.904.222-5.222 2.438-5.457 5.211H8.288v-1.592c0-.231.193-.41.44-.41h2.363c.568 0 1.058-.312 1.278-.813.223-.508.109-1.067-.3-1.464l-1.664-1.588a.41.41 0 0 1-.132-.3.393.393 0 0 1 .133-.287l3.031-2.902a.455.455 0 0 1 .615 0l1.674 1.597c.406.387.984.495 1.514.285.532-.209.862-.68.862-1.228V9.123c0-.231.193-.411.44-.411h1.665v6.156zm0 4.299c0 .504-.43.912-.957.912h-3.519c.231-2.266 2.105-4.056 4.476-4.276v3.364zM19.25.799H1.913C.858.799 0 1.617 0 2.624v16.543c0 1.006.858 1.825 1.913 1.825H19.25c1.055 0 1.913-.82 1.913-1.825V2.624C21.163 1.617 20.305.8 19.25.8z" fill="#6E7195" mask="url(#b)"/></g></g></svg>