<?xml version="1.0" encoding="UTF-8"?>
<svg width="20px" height="14px" viewBox="0 0 20 14" version="1.1" xmlns="http://www.w3.org/2000/svg" xmlns:xlink="http://www.w3.org/1999/xlink">
    <!-- Generator: Sketch 49.3 (51167) - http://www.bohemiancoding.com/sketch -->
    <title>eng</title>
    <desc>Created with Sketch.</desc>
    <defs>
        <rect id="path-1" x="0" y="0" width="20" height="14" rx="1"></rect>
        <linearGradient x1="50%" y1="0%" x2="50%" y2="100%" id="linearGradient-3">
            <stop stop-color="#FFFFFF" offset="0%"></stop>
            <stop stop-color="#F0F0F0" offset="100%"></stop>
        </linearGradient>
        <path d="M1.5,2 C1.22385763,2 1,1.77614237 1,1.5 C1,1.22385763 1.22385763,1 1.5,1 C1.77614237,1 2,1.22385763 2,1.5 C2,1.77614237 1.77614237,2 1.5,2 Z M3.5,2 C3.22385763,2 3,1.77614237 3,1.5 C3,1.22385763 3.22385763,1 3.5,1 C3.77614237,1 4,1.22385763 4,1.5 C4,1.77614237 3.77614237,2 3.5,2 Z M5.5,2 C5.22385763,2 5,1.77614237 5,1.5 C5,1.22385763 5.22385763,1 5.5,1 C5.77614237,1 6,1.22385763 6,1.5 C6,1.77614237 5.77614237,2 5.5,2 Z M7.5,2 C7.22385763,2 7,1.77614237 7,1.5 C7,1.22385763 7.22385763,1 7.5,1 C7.77614237,1 8,1.22385763 8,1.5 C8,1.77614237 7.77614237,2 7.5,2 Z M2.5,3 C2.22385763,3 2,2.77614237 2,2.5 C2,2.22385763 2.22385763,2 2.5,2 C2.77614237,2 3,2.22385763 3,2.5 C3,2.77614237 2.77614237,3 2.5,3 Z M4.5,3 C4.22385763,3 4,2.77614237 4,2.5 C4,2.22385763 4.22385763,2 4.5,2 C4.77614237,2 5,2.22385763 5,2.5 C5,2.77614237 4.77614237,3 4.5,3 Z M6.5,3 C6.22385763,3 6,2.77614237 6,2.5 C6,2.22385763 6.22385763,2 6.5,2 C6.77614237,2 7,2.22385763 7,2.5 C7,2.77614237 6.77614237,3 6.5,3 Z M7.5,4 C7.22385763,4 7,3.77614237 7,3.5 C7,3.22385763 7.22385763,3 7.5,3 C7.77614237,3 8,3.22385763 8,3.5 C8,3.77614237 7.77614237,4 7.5,4 Z M5.5,4 C5.22385763,4 5,3.77614237 5,3.5 C5,3.22385763 5.22385763,3 5.5,3 C5.77614237,3 6,3.22385763 6,3.5 C6,3.77614237 5.77614237,4 5.5,4 Z M3.5,4 C3.22385763,4 3,3.77614237 3,3.5 C3,3.22385763 3.22385763,3 3.5,3 C3.77614237,3 4,3.22385763 4,3.5 C4,3.77614237 3.77614237,4 3.5,4 Z M1.5,4 C1.22385763,4 1,3.77614237 1,3.5 C1,3.22385763 1.22385763,3 1.5,3 C1.77614237,3 2,3.22385763 2,3.5 C2,3.77614237 1.77614237,4 1.5,4 Z M2.5,5 C2.22385763,5 2,4.77614237 2,4.5 C2,4.22385763 2.22385763,4 2.5,4 C2.77614237,4 3,4.22385763 3,4.5 C3,4.77614237 2.77614237,5 2.5,5 Z M4.5,5 C4.22385763,5 4,4.77614237 4,4.5 C4,4.22385763 4.22385763,4 4.5,4 C4.77614237,4 5,4.22385763 5,4.5 C5,4.77614237 4.77614237,5 4.5,5 Z M6.5,5 C6.22385763,5 6,4.77614237 6,4.5 C6,4.22385763 6.22385763,4 6.5,4 C6.77614237,4 7,4.22385763 7,4.5 C7,4.77614237 6.77614237,5 6.5,5 Z M7.5,6 C7.22385763,6 7,5.77614237 7,5.5 C7,5.22385763 7.22385763,5 7.5,5 C7.77614237,5 8,5.22385763 8,5.5 C8,5.77614237 7.77614237,6 7.5,6 Z M5.5,6 C5.22385763,6 5,5.77614237 5,5.5 C5,5.22385763 5.22385763,5 5.5,5 C5.77614237,5 6,5.22385763 6,5.5 C6,5.77614237 5.77614237,6 5.5,6 Z M3.5,6 C3.22385763,6 3,5.77614237 3,5.5 C3,5.22385763 3.22385763,5 3.5,5 C3.77614237,5 4,5.22385763 4,5.5 C4,5.77614237 3.77614237,6 3.5,6 Z M1.5,6 C1.22385763,6 1,5.77614237 1,5.5 C1,5.22385763 1.22385763,5 1.5,5 C1.77614237,5 2,5.22385763 2,5.5 C2,5.77614237 1.77614237,6 1.5,6 Z" id="path-4"></path>
        <filter x="-7.1%" y="-10.0%" width="114.3%" height="140.0%" filterUnits="objectBoundingBox" id="filter-5">
            <feOffset dx="0" dy="1" in="SourceAlpha" result="shadowOffsetOuter1"></feOffset>
            <feColorMatrix values="0 0 0 0 0   0 0 0 0 0   0 0 0 0 0  0 0 0 0.06 0" type="matrix" in="shadowOffsetOuter1"></feColorMatrix>
        </filter>
    </defs>
    <g id="Page-1" stroke="none" stroke-width="1" fill="none" fill-rule="evenodd">
        <g id="Landing-page" transform="translate(-1921.000000, -48.000000)">
            <g id="menu" transform="translate(600.000000, 37.000000)">
                <g id="lang-switch" transform="translate(1307.000000, 11.000000)">
                    <g id="eng" transform="translate(14.000000, 0.000000)">
                        <mask id="mask-2" fill="white">
                            <use xlink:href="#path-1"></use>
                        </mask>
                        <use id="Mask" fill="#FFFFFF" xlink:href="#path-1"></use>
                        <path d="M0,0 L20,0 L20,0.933333333 L0,0.933333333 L0,0 Z M0,1.86666667 L20,1.86666667 L20,2.8 L0,2.8 L0,1.86666667 Z M0,3.73333333 L20,3.73333333 L20,4.66666667 L0,4.66666667 L0,3.73333333 Z M0,5.6 L20,5.6 L20,6.53333333 L0,6.53333333 L0,5.6 Z M0,7.46666667 L20,7.46666667 L20,8.4 L0,8.4 L0,7.46666667 Z M0,9.33333333 L20,9.33333333 L20,10.2666667 L0,10.2666667 L0,9.33333333 Z M0,11.2 L20,11.2 L20,12.1333333 L0,12.1333333 L0,11.2 Z M0,13.0666667 L20,13.0666667 L20,14 L0,14 L0,13.0666667 Z" id="Rectangle-511" fill="#D02F44" mask="url(#mask-2)"></path>
                        <rect id="Rectangle-511" fill="#46467F" mask="url(#mask-2)" x="0" y="0" width="9" height="7"></rect>
                        <g id="Oval-43" mask="url(#mask-2)">
                            <use fill="black" fill-opacity="1" filter="url(#filter-5)" xlink:href="#path-4"></use>
                            <use fill="url(#linearGradient-3)" fill-rule="evenodd" xlink:href="#path-4"></use>
                        </g>
                    </g>
                </g>
            </g>
        </g>
    </g>
</svg>