<svg width="21" height="26" xmlns="http://www.w3.org/2000/svg" xmlns:xlink="http://www.w3.org/1999/xlink"><defs><path id="a" d="M0 .578h20.523v24.416H0z"/><path id="c" d="M0 25.342h20.523V.926H0z"/></defs><g fill="none" fill-rule="evenodd"><g transform="translate(0 .348)"><mask id="b" fill="#fff"><use xlink:href="#a"/></mask><path d="M19.568 23.143c0 .51-.428.926-.954.926H1.909c-.526 0-.954-.416-.954-.926V13.92c0-.51.428-.926.954-.926h16.705c.526 0 .954.416.954.926v9.224zM4.531 7.061c0-3.065 2.57-5.558 5.73-5.558 3.16 0 5.73 2.493 5.73 5.558v5.006H4.531V7.061zm14.083 5.006h-1.668V7.061c0-3.574-3-6.484-6.685-6.484-3.685 0-6.684 2.91-6.684 6.484v5.006H1.909C.856 12.067 0 12.9 0 13.92v9.224c0 1.02.856 1.852 1.91 1.852h16.704c1.052 0 1.909-.832 1.909-1.852V13.92c0-1.02-.857-1.852-1.91-1.852z" fill="#6E7195" mask="url(#b)"/></g><mask id="d" fill="#fff"><use xlink:href="#c"/></mask><path fill="#6E7195" mask="url(#d)" d="M9.784 20.967h.955v-4.176h-.955z"/></g></svg>