<svg xmlns="http://www.w3.org/2000/svg" viewBox="0 0 238.099 238.099" width="24" height="24" fill="#6e7195"><path d="M93.863 85.653l17.996 15.377 19.33 47.891a7.002 7.002 0 0 0 4.383 4.055l93.418 29.501a7 7 0 0 0 8.783-8.783l-29.501-93.418a6.997 6.997 0 0 0-4.062-4.386l-47.736-19.208-15.501-18.14a6.998 6.998 0 0 0-5.048-2.447 7.035 7.035 0 0 0-5.224 2.045l-37.24 37.242a7.001 7.001 0 0 0 .402 10.271zm121.938 64.952l-47.044-47.045a7 7 0 0 0-9.9 9.899l47.043 47.044-62.963-19.884-16.924-41.928 27.936-27.936 41.97 16.888 19.882 62.962zm-80.552-97.212l7.494 8.77-25.259 25.259-8.77-7.494 26.535-26.535zm95.85 134.615H7a7 7 0 1 0 0 14h224.099a7 7 0 1 0 0-14z"/></svg>