<svg width="16.692px" height="16.693px" xmlns="http://www.w3.org/2000/svg" xmlns:xlink="http://www.w3.org/1999/xlink" viewBox="0 0 16.692 16.693">
  <defs>
    <linearGradient id="linear-gradient" y1="0.5" x2="1" y2="0.5" gradientUnits="objectBoundingBox">
      <stop offset="0" stop-color="#3defd3"/>
      <stop offset="1" stop-color="#0ebdf6"/>
    </linearGradient>
  </defs>
  <path fill="url(#linear-gradient)" d="M15.574,4.176a8.345,8.345,0,1,0-3.055,11.4,8.345,8.345,0,0,0,3.055-11.4Zm-3.889,9.957A6.676,6.676,0,1,1,14.8,10.079,6.676,6.676,0,0,1,11.685,14.133Zm-.333-6.125L6.981,5.461c-.4-.236-.72-.047-.717.415l.022,5.065c0,.461.327.648.727.417l4.337-2.51a.443.443,0,0,0,0-.839Z"/>
  <path fill="url(#linear-gradient)" d="M15.574,4.176a8.345,8.345,0,1,0-3.055,11.4,8.345,8.345,0,0,0,3.055-11.4Zm-3.889,9.957A6.676,6.676,0,1,1,14.8,10.079,6.676,6.676,0,0,1,11.685,14.133Zm-.333-6.125L6.981,5.461c-.4-.236-.72-.047-.717.415l.022,5.065c0,.461.327.648.727.417l4.337-2.51a.443.443,0,0,0,0-.839Z"/>
</svg>
