<svg xmlns="http://www.w3.org/2000/svg" viewBox="0 0 57.7 57.7" width="22" height="22"><path d="M56.7 2c0-.5-.2-1-.6-1.4-.3-.4-.8-.6-1.4-.6h-8.8c-.2 0-.4 0-.6.1h-1.7c-.3 0-.6 0-1 .1H14.8c-.4 0-.7-.1-1-.1h-1.4c-.2-.1-.4-.1-.6-.1H3c-.5 0-1 .2-1.4.6C1.2 1 1 1.5 1 2c0 .7.3 15.9 8.9 17.9v.3c.3 9.3 7.6 17 16.8 18.1v15.2h-7.5c-.6 0-1 .4-1 1v2.2c0 .6.4 1 1 1h19.2c.6 0 1-.4 1-1v-2.2c0-.6-.4-1-1-1h-7.5V38.3C40 37.3 47 30 47.6 20.9c.1-.2.2-.4.2-.6V20c8.7-1.9 8.9-17.3 8.9-18zm-28 32.3c-8.1 0-14.7-6.6-14.7-14.7V4.3h29.4v15.2c0 8.2-6.6 14.8-14.7 14.8zM9.8 15.7C6.4 13.8 5.4 7.3 5.1 4h4.7v11.7zm38.1 0V4h4.7c-.3 3.3-1.3 9.8-4.7 11.7z" fill="#6e7195"/></svg>