<svg xmlns="http://www.w3.org/2000/svg" viewBox="0 0 512 512" width="24" height="24" fill="#6e7195"><path d="M456.349 106.001h-99.916C350.503 57.012 309.055 16.992 256 16.992c-53.129 0-94.525 40.107-100.443 89.008H55.651C24.964 106.001 0 130.965 0 161.651v277.707c0 30.685 24.964 55.65 55.651 55.65h400.698c30.685 0 55.651-24.964 55.651-55.65V161.65c0-30.685-24.964-55.649-55.651-55.649zM256 52.713c38.854 0 67.957 33.261 65.274 69.842l-.007.099c-2.314 34.152-30.983 60.903-65.267 60.903-34.292 0-62.955-26.76-65.274-61.002-2.671-36.408 26.243-69.842 65.274-69.842zm220.279 386.644c0 10.989-8.941 19.929-19.93 19.929H55.651c-10.989 0-19.93-8.941-19.93-19.929V293.16c6.3 2.422 13.255 3.689 19.93 3.689h400.698c6.87 0 13.775-1.322 19.93-3.689v146.197zm0-198.157c0 10.989-8.941 19.929-19.93 19.929H55.651c-10.989 0-19.93-8.941-19.93-19.929v-79.548c0-10.989 8.941-19.929 19.93-19.929h101.981c3.776 15.747 11.289 30.035 21.359 41.846h-42.157c-9.864 0-17.86 7.997-17.86 17.86 0 9.864 7.997 17.86 17.86 17.86h238.332c9.864 0 17.86-7.997 17.86-17.86 0-9.864-7.997-17.86-17.86-17.86H333.01c10.02-11.752 17.588-26.117 21.359-41.846H456.35c10.989 0 19.93 8.941 19.93 19.929V241.2z"/><path d="M332.821 326.306H179.179c-9.864 0-17.86 7.997-17.86 17.86v67.599c0 9.864 7.997 17.86 17.86 17.86H332.82c9.864 0 17.86-7.997 17.86-17.86v-67.599c.002-9.863-7.995-17.86-17.859-17.86zm-17.86 67.599H197.04v-31.879h117.921v31.879z"/></svg>