<svg id="Layer_1" xmlns="http://www.w3.org/2000/svg" viewBox="0 0 490 490"><style>.st0{fill:#6e7195}</style><path class="st0" d="M469.3 448.4h-36.4V98.8c0-11.4-9.4-20.8-20.8-20.8s-20.8 9.4-20.8 20.8v349.6h-69.7V185.2c0-11.4-9.4-20.8-20.8-20.8s-20.8 9.4-20.8 20.8v263.2h-70.7V287.1c0-11.4-9.4-20.8-20.8-20.8s-20.8 9.4-20.8 20.8v161.3H98V322.5c0-11.4-9.4-20.8-20.8-20.8s-20.8 9.4-20.8 20.8v125.9H20.9C9.5 448.4.1 457.8.1 469.2S9.5 490 20.9 490h447.3c11.4 0 21.8-9.4 21.8-20.8 0-11.5-9.4-20.8-20.7-20.8z"/><path class="st0" d="M52 214.3c6.1-1 146.6-33.7 254.9-142.3v40.3c0 11.4 9.4 20.8 20.8 20.8s20.8-9.4 20.8-21.8V20.8c0-11.4-9.4-20.8-20.8-20.8h-91.5c-11.4 0-20.8 9.4-20.8 20.8s9.4 20.8 20.8 20.8h42.9C179.7 143.8 43.7 175.8 42.7 175.8 31.2 177.9 25 188.3 27 199.7c3.3 13.3 17.3 17.2 25 14.6z"/></svg>