<svg width="23" height="24" xmlns="http://www.w3.org/2000/svg" xmlns:xlink="http://www.w3.org/1999/xlink"><defs><path id="a" d="M0 .003h19.78v20.7H0z"/><path id="c" d="M0 23.997h22.408V.923H0z"/></defs><g fill="none" fill-rule="evenodd"><g transform="translate(0 .92)"><mask id="b" fill="#fff"><use xlink:href="#a"/></mask><path d="M14.583 1.578l3.626 3.638h-3.626V1.578zM1.84 19.78a.922.922 0 0 1-.92-.923V1.849c0-.51.413-.923.92-.923h11.823v5.213h5.197v5.448a1.61 1.61 0 0 1 .738-.198c.062 0 .122.011.182.017v-5.92l-.04-.039L14.6.29l-.286-.287H1.84C.825.003 0 .83 0 1.849v17.008c0 1.017.825 1.846 1.84 1.846h8.973a1.625 1.625 0 0 1-.066-.438c0-.168.031-.33.08-.485H1.84z" fill="#6E7195" mask="url(#b)"/></g><mask id="d" fill="#fff"><use xlink:href="#c"/></mask><path fill="#6E7195" mask="url(#d)" d="M3.622 10.232h12.536V9.31H3.622zm11.359 1.132H3.621v.923h10.683c.107-.388.351-.713.677-.923M3.622 13.419v.923h7.142a1.61 1.61 0 0 1 .437-.923H3.622zm7.36 2.394l.299-.034-.187-.235c-.018-.023-.03-.047-.045-.07H3.623v.923h6.303a1.597 1.597 0 0 1 1.056-.584m-7.36 1.715v.923h5.95c-.004-.048-.013-.094-.013-.142v-.781H3.622z"/><path d="M21.488 18.308c0 .037-.03.068-.067.068h-1.15a.955.955 0 0 0-.49.145 1.026 1.026 0 0 0-.434.512 3.541 3.541 0 0 1-.069.168c-.174.39-.1.83.19 1.12l.169.17.643.645a.07.07 0 0 1 0 .097l-.628.63c-.022.021-.071.021-.094 0l-.57-.572-.243-.244a.99.99 0 0 0-1.116-.191c-.055.024-.11.048-.169.07a1 1 0 0 0-.618.697.958.958 0 0 0-.036.23v1.154c0 .037-.03.067-.068.067h-.887a.068.068 0 0 1-.068-.067v-1.154a.958.958 0 0 0-.036-.23 1.001 1.001 0 0 0-.62-.698c-.057-.02-.112-.045-.166-.068a1.035 1.035 0 0 0-.43-.094.967.967 0 0 0-.687.284l-.574.576-.239.24a.067.067 0 0 1-.095 0l-.24-.24-.389-.39c-.022-.023-.021-.073.001-.096l.436-.437.377-.378a1 1 0 0 0 .19-1.122 3.356 3.356 0 0 1-.07-.167 1.01 1.01 0 0 0-.571-.583.948.948 0 0 0-.352-.074h-1.15a.068.068 0 0 1-.068-.068v-.89c0-.037.03-.068.068-.068h1.15a.99.99 0 0 0 .924-.657 2.44 2.44 0 0 1 .069-.167c.018-.043.024-.086.037-.13a.979.979 0 0 0-.178-.922c-.017-.023-.028-.048-.049-.07l-.813-.815v-.096l.151-.151.477-.478a.069.069 0 0 1 .095 0l.477.478.336.337a.99.99 0 0 0 1.116.19c.055-.023.11-.047.169-.07a1.01 1.01 0 0 0 .521-.457c.08-.142.133-.3.133-.47V12.72c0-.037.03-.067.068-.067h.887c.038 0 .068.03.068.067v1.154c0 .41.257.773.657.928l.165.068a.984.984 0 0 0 1.117-.19l.115-.116.698-.7c.023-.021.072-.021.094 0l.128.128.5.502c.023.023.023.073 0 .096l-.5.502-.312.313a.997.997 0 0 0-.19 1.12c.024.055.047.112.069.169.087.225.243.398.433.512a.952.952 0 0 0 .49.145h1.15c.038 0 .068.03.068.068v.89zm-.067-1.88l-1.215-.065a3.982 3.982 0 0 0-.088-.213v-.092l.813-.816a.983.983 0 0 0 .29-.7.983.983 0 0 0-.29-.701l-.628-.63a.938.938 0 0 0-.523-.247c-.31-.054-.643.017-.873.247l-.047.047-.765.768h-.093c-.07-.031-.142-.062-.276-.153v-1.154a.99.99 0 0 0-.988-.99h-.887a.982.982 0 0 0-.879.558.978.978 0 0 0-.109.432l-.035.7-.027.519c-.072.027-.144.057-.307.088l-.605-.607-.207-.208a.987.987 0 0 0-1.397 0l-.207.208-.42.422a.976.976 0 0 0-.25.5c-.014.067-.04.131-.04.2a.98.98 0 0 0 .29.7l.208.233.606.673c-.03.065-.062.136-.135.25-.009.01-.01.017-.019.03h-1.15a.99.99 0 0 0-.988.99v.891c0 .051.022.094.03.142a.977.977 0 0 0 .958.849l1.214.064c.028.073.058.144.089.306l-.814.815c-.062.064-.1.141-.144.216a.978.978 0 0 0-.145.485c0 .157.046.301.115.438a.966.966 0 0 0 .175.262l.628.63a.987.987 0 0 0 1.396 0l.904-.815c.07.031.143.06.277.153v1.154c0 .546.443.99.988.99h.887a.99.99 0 0 0 .988-.99l.062-1.218c.072-.027.143-.058.214-.09l.092.002V21.7l.813.816a1.01 1.01 0 0 0 1.396 0l.628-.63a.995.995 0 0 0 0-1.402l-.813-.815v-.093c.031-.07.06-.14.153-.277h1.15a.99.99 0 0 0 .987-.99v-.891a.99.99 0 0 0-.987-.99z" fill="#6E7195" mask="url(#d)"/><path fill="#6E7195" mask="url(#d)" d="M16.158 17.962l-.412.414-.657-.66-.65.653.08.081 1.227 1.23 2.403-2.41-.65-.653z"/></g></svg>