<svg xmlns="http://www.w3.org/2000/svg" viewBox="0 0 512 512" width="24" height="24" fill="#6e7195"><path d="M376 11c-68.9 0-125 60.9-125 135.6v50.6H42.5c-17.4 0-31.5 14.1-31.5 31.5v240.7c0 17.4 14.1 31.5 31.5 31.5h277.8c17.4 0 31.5-14.1 31.5-31.5V228.8c0-17.4-14.1-31.5-31.5-31.5h-28.5v-50.6c0-52.3 37.8-94.8 84.2-94.8 46.4 0 84.2 42.5 84.2 94.8V206c0 11.3 9.1 20.4 20.4 20.4 11.3 0 20.4-9.1 20.4-20.4v-59.3C501 71.9 444.9 11 376 11zm-65 449.2H51.8V238.1H311v222.1z"/><path d="M181.4 430.4c11.3 0 20.4-9.1 20.4-20.4v-53.3c0-11.3-9.1-20.4-20.4-20.4-11.3 0-20.4 9.1-20.4 20.4V410c0 11.2 9.1 20.4 20.4 20.4z"/></svg>